<svg xmlns="http://www.w3.org/2000/svg" viewBox="0 0 613 408"><defs><style>.cls-2{fill:#fff}.cls-3{fill:#f0f3ff}.cls-4{fill:#bbc8f9}.cls-5{fill:#cc90ff}.cls-6{fill:#bcebe3}.cls-7{fill:#d8dbe6}.cls-8{fill:none}.cls-9{fill:#202020}.cls-12{fill:#9ea1b3}.cls-13{fill:#c0c2cc}.cls-17{fill:#ffd5d0}.cls-20{fill:#5875dc}</style></defs><g id="_3" data-name="3"><g id="Dark_bg" data-name="Dark bg"><path d="M579 148.24A69.24 69.24 0 0 0 509.74 79c-76.54 0-107.26 64.84-121.18 87.47-36.44 59.22-98.4 51-159.44 51a94.75 94.75 0 0 0-94.76 94.75c0 52.34 42.82 94.76 94.76 94.76s67.42-36.44 174.62-36.44c57.71 0 81.25 6.25 126.5 14.57 39.63 7.29 82.45-7.29 82.45-58.31C612.69 268 569 257 569 224.14c0-30.96 10-35.14 10-75.9z" fill="#4d3faf"/><path class="cls-2" d="M564.91 313.52c-.22-21 5.58-41.3 14.88-62l-1.36-1.87c-9.67 21.24-15.74 42.11-15.52 63.85.2 19.71 11.71 40.26 27.57 61.63.55-.39 1.08-.79 1.61-1.19-15.65-21.04-26.99-41.24-27.18-60.42zM510.21 379.58c.29-49 29.55-109.48 59.51-168.74.25-2.2.55-4.26.9-6.22-31 61.16-62.11 124-62.41 175V381l2 .38zM274.31 309c-9.89-5.5-20.18-11-31.07-16.85-26.16-14-54.63-29.3-81.37-46.62-.49.49-1 1-1.45 1.49 26.86 17.36 55.61 32.8 81.88 46.89 10.88 5.84 21.16 11.35 31 16.84 43.12 24 75.62 43.32 98.33 61.06l2.92-.22c-22.88-18.25-55.99-38.03-100.24-62.59zM448.7 319.21c2.16-22.2 8.79-39.29 14.11-53 6.35-16.36 10.54-27.17.42-32.91-9.78-5.53-25.67 9.16-42.5 24.73-13.57 12.54-27.59 25.51-36.72 25.51h-.28C364.62 283 313 256 291.88 232.57l-.89-1c-4-4.49-8.17-9.1-12.25-13.81h-2.6c4.43 5.17 9 10.21 13.37 15.11l.88 1c20.24 22.51 71.68 51 93.28 51.61 9.94.26 23.77-12.5 38.42-26 15.56-14.39 31.65-29.27 40.15-24.45s4.89 14.51-1.29 30.44c-5.09 13.12-12.06 31.09-14.24 53.55a352.74 352.74 0 0 0-1 52.94l2 .16a352.16 352.16 0 0 1 .99-52.91zM462.45 159.63a92.61 92.61 0 0 0 28.73-5.13c26.07-8.64 54.67-28.34 68-54.71-.48-.5-1-1-1.48-1.46-12.92 26.14-41.3 45.71-67.15 54.27-23.79 7.9-44.29 6.47-53.5-3.71-8.68-9.6-9.85-22.58-8.19-37.74-.75.72-1.5 1.43-2.23 2.15-1.34 14.65.22 27.29 8.94 36.93 5.63 6.23 15.12 9.4 26.88 9.4zM169.51 331c-13.73-9.4-26.06-17.85-34.91-25.54-.06.83-.1 1.66-.14 2.5 8.84 7.51 20.73 15.66 33.92 24.69 29 19.83 62.91 43.06 83.36 71.84l2.11-.49c-20.6-29.36-55-52.91-84.34-73z"/></g><g id="Gray_bg" data-name="Gray bg"><path class="cls-3" d="M350 16c-64 0-75 40-134 40-48 0-72-24-120-24-35.35 0-80 18-80 72s20.4 51.14 29 96c7.29 38 11 51.81 11 72 0 53 40 72 88 72 45 0 85.5-28.5 120-63s72-73 144-73c47 0 72-43 72-96s-64-96-130-96z"/><path class="cls-4" d="M83 110.89c-1.65 41.71-13.78 86.78-30 130.67.23 1.35.46 2.67.66 3.95C70.58 200.43 83.33 154 85 111c1.35-34.06-2-58.52-7.71-77.3l-2 .38C81.06 52.68 84.38 77 83 110.89zM62.43 304.4c.35.76.72 1.5 1.09 2.24l4.75-9.09c43.94-84.07 98.64-188.69 98.36-229.86q-.07-10.15-.07-20.23l-2-.64c0 6.92 0 13.9.07 20.88.27 40.67-54.29 145.05-98.13 228.93zM148.52 343.9c-15.11-63-22.73-122.41-8.63-151.53 35-72.32 147-90.95 213.82-102.08 11.79-2 22-3.66 30.15-5.39 21.05-4.43 43.24-18 65.29-33.35l-1.57-1.34C425.85 65.36 404 78.61 383.45 83c-8.14 1.71-18.3 3.4-30.06 5.36-67.26 11.2-179.83 29.94-215.3 103.19-14.27 29.45-6.72 89.1 8.41 152.45.67-.06 1.35-.07 2.02-.1zM427 204.19c-1 .62-2 1.29-3 2a60.84 60.84 0 0 0 18.14-7.53 42.4 42.4 0 0 0-15.14 5.53zM231.81 79.52c9.14 2.36 45.9-4 81.94-14.18 20.43-5.77 68.68-20.83 90.4-39.76l-2.15-.76c-15.59 13-47.42 26.92-88.76 38.59-40 11.31-73.18 16.16-80.9 14.17-1-.25-1.24-.54-1.26-.6-2.36-8.36 3.49-16.41 12.11-24.24-1.27.32-2.56.62-3.88.9-7.69 7.56-12.54 15.44-10.15 23.88.23.95 1.11 1.6 2.65 2z"/></g><g id="Big_elipse" data-name="Big elipse"><circle class="cls-4" cx="128" cy="320" r="80"/><circle class="cls-4" cx="408" cy="80" r="80"/></g><g id="Heart"><path class="cls-5" d="M553.07 252c-2.89-.78-4.11-5.48-4.64-8.12s.51-4.24 3-4.2 4.31 2.41 6 2.88 4.76.66 6.34 1.71 2.82 2.69 2 4.27c-2.43 4.34-9.77 4.22-12.7 3.46zm-14.14-12.14c.76-1.38-.33-2.81-1.7-3.73s-4-1.08-5.53-1.49-3.11-2.47-5.26-2.5-3.05 1.35-2.59 3.65 1.53 6.4 4 7.08 8.99.76 11.08-3.03zm-24.08 42c.76-1.38-.33-2.81-1.7-3.73s-4-1.08-5.53-1.49-3.11-2.47-5.26-2.51-3.05 1.36-2.59 3.66 1.53 6.4 4 7.08 8.99.73 11.08-3.06zm42.26-58.72c.82-1.48-.35-3-1.82-4s-4.32-1.17-5.94-1.6-3.34-2.66-5.65-2.69-3.27 1.45-2.78 3.92 1.64 6.88 4.34 7.6 9.61.79 11.85-3.28zm-84.28 6.2c.59-1.07-.25-2.19-1.32-2.9s-3.13-.84-4.31-1.16-2.42-1.93-4.09-1.95-2.38 1.05-2 2.84 1.19 5 3.15 5.52 6.95.55 8.57-2.4zm.4-38.36c.59-1.07-.25-2.18-1.32-2.9s-3.13-.84-4.31-1.16-2.42-1.92-4.09-2-2.38 1.06-2 2.85 1.19 5 3.15 5.51 6.95.61 8.57-2.35zm43 55.49c.6-1.08-.25-2.19-1.32-2.9s-3.13-.85-4.3-1.16-2.43-1.93-4.1-2-2.38 1.05-2 2.84 1.19 5 3.15 5.52 7 .6 8.62-2.35zm-24.43-7c.51-.92-.22-1.87-1.13-2.48s-2.68-.72-3.68-1-2.07-1.65-3.5-1.67-2 .9-1.73 2.43 1 4.27 2.69 4.72 6.01.53 7.4-2.02zm83.4 59.81c.59-1.08-.26-2.19-1.33-2.9s-3.13-.85-4.3-1.16-2.42-1.93-4.1-2-2.37 1.06-2 2.85 1.19 5 3.14 5.51 7.01.63 8.64-2.32zm-14.93 10.11c.59-1.08-.26-2.19-1.33-2.9s-3.13-.85-4.3-1.16-2.42-1.93-4.1-1.95-2.37 1.05-2 2.84 1.19 5 3.14 5.52 7.01.58 8.64-2.37zm31.24-49.67c.87-1.58-.38-3.22-1.95-4.27s-4.62-1.25-6.35-1.71-3.57-2.84-6-2.88-3.51 1.56-3 4.2 1.75 7.34 4.63 8.12 10.32.88 12.72-3.48zm-3.72 24c.76-1.38-.33-2.81-1.7-3.72s-4-1.08-5.53-1.49-3.11-2.47-5.26-2.51-3.05 1.36-2.59 3.66 1.53 6.4 4 7.08 9.04.8 11.13-3zm-107.2-30.49c.59-1.07-.26-2.19-1.33-2.9s-3.13-.84-4.3-1.16-2.43-1.92-4.1-1.95-2.38 1.05-2 2.85 1.18 5 3.14 5.51 7 .61 8.59-2.35zm60.3 12c.87-1.58-.38-3.22-2-4.27s-4.61-1.24-6.34-1.71-3.57-2.84-6-2.88-3.51 1.56-3 4.2 1.75 7.34 4.63 8.12 10.31.89 12.71-3.47zm-5.42 29.87c.87-1.58-.38-3.23-2-4.28s-4.61-1.24-6.34-1.71-3.57-2.83-6-2.87-3.51 1.55-3 4.19 1.76 7.35 4.64 8.13 10.3.88 12.7-3.47zm18-8.6c.87-1.59-.38-3.23-2-4.28s-4.62-1.24-6.35-1.71-3.57-2.84-6-2.88-3.5 1.56-3 4.2 1.75 7.35 4.63 8.12 10.36.89 12.76-3.46zm57.68-76.5c.36-.67-.16-1.36-.83-1.8a10.25 10.25 0 0 0-2.67-.72c-.73-.2-1.51-1.2-2.54-1.21s-1.48.65-1.26 1.77.74 3.09 2 3.42 4.29.41 5.3-1.46zm-97.9 96.47c.37-.66-.16-1.36-.82-1.8a10.42 10.42 0 0 0-2.68-.72c-.73-.2-1.5-1.2-2.54-1.21s-1.48.65-1.25 1.77.73 3.09 2 3.42 4.28.41 5.29-1.43zm22.93 3c.37-.67-.16-1.36-.82-1.81a10.42 10.42 0 0 0-2.68-.72c-.73-.19-1.5-1.19-2.54-1.21s-1.48.66-1.25 1.77.74 3.1 2 3.42 4.28.45 5.29-1.38zm62.12-35.22c.37-.66-.16-1.36-.82-1.8a10.32 10.32 0 0 0-2.68-.72c-.72-.2-1.5-1.2-2.54-1.21s-1.48.65-1.25 1.77.74 3.09 2 3.42 4.28.45 5.29-1.39zm8.29-12.95c.36-.67-.16-1.36-.83-1.8a10.25 10.25 0 0 0-2.67-.72c-.73-.2-1.51-1.2-2.55-1.21s-1.47.65-1.25 1.77.74 3.09 2 3.42 4.29.45 5.3-1.39zm-106 33.37c.37-.66-.16-1.36-.82-1.8a10.42 10.42 0 0 0-2.68-.72c-.73-.2-1.5-1.2-2.54-1.21s-1.48.65-1.25 1.77.74 3.09 1.95 3.42 4.38.45 5.39-1.39zm-.05-126.31c.37-.67-.15-1.36-.82-1.8a9.87 9.87 0 0 0-2.67-.72c-.73-.2-1.51-1.2-2.55-1.21s-1.47.65-1.25 1.76.74 3.1 2 3.43 4.33.45 5.34-1.39zM487 181.1c.6-1.09-.26-2.22-1.34-2.94s-3.17-.85-4.36-1.17-2.46-2-4.15-2-2.41 1.07-2 2.88 1.2 5.05 3.18 5.59 6.98.63 8.67-2.36zm-2.83 40.34c.42-.77-.18-1.56-.95-2.07a11.33 11.33 0 0 0-3.08-.83c-.84-.23-1.74-1.38-2.93-1.4s-1.71.75-1.45 2 .85 3.57 2.26 3.94 4.98.48 6.11-1.64zM544 201.85c.43-.77-.18-1.56-1-2.07a11.33 11.33 0 0 0-3-.78c-.84-.23-1.73-1.38-2.93-1.4s-1.7.75-1.44 2 .85 3.57 2.25 3.94 4.96.46 6.12-1.69zm-6.5-33c.42-.76-.18-1.56-1-2.07a11.33 11.33 0 0 0-3.08-.83c-.84-.23-1.74-1.38-2.93-1.4s-1.7.75-1.45 2 .86 3.57 2.26 3.94 5.04.51 6.2-1.62zm-67.31 40.57c.43-.77-.18-1.57-.94-2.08a11.88 11.88 0 0 0-3.09-.83c-.84-.22-1.73-1.38-2.93-1.4s-1.7.76-1.44 2 .85 3.57 2.25 4 4.96.44 6.15-1.67zm36.45 54.38c.76-1.38-.33-2.82-1.71-3.74s-4-1.08-5.54-1.49-3.13-2.48-5.28-2.52-3.07 1.36-2.6 3.67 1.53 6.43 4.05 7.11 8.99.8 11.08-3.01zm5.36-38.54c.81-1.49-.36-3-1.83-4s-4.32-1.17-5.94-1.6-3.34-2.66-5.64-2.7-3.28 1.46-2.78 3.93 1.64 6.87 4.34 7.6 9.56.84 11.85-3.23zm16.39-22.53c.81-1.49-.35-3-1.83-4s-4.32-1.17-5.93-1.6-3.35-2.66-5.65-2.7-3.28 1.46-2.78 3.93 1.64 6.87 4.34 7.6 9.56.84 11.8-3.23zm38.44 2.4c.82-1.48-.35-3-1.82-4s-4.32-1.16-5.94-1.6-3.34-2.65-5.64-2.69-3.28 1.45-2.79 3.93 1.64 6.87 4.34 7.6 9.56.83 11.8-3.24zm16.87 25.62c.82-1.48-.35-3-1.82-4s-4.32-1.17-5.94-1.6-3.34-2.66-5.64-2.69-3.28 1.45-2.79 3.92 1.64 6.87 4.34 7.6 9.56.84 11.8-3.23zm7.2-19.75c.7-1.27-.3-2.58-1.56-3.42s-3.69-1-5.07-1.37-2.86-2.27-4.82-2.3-2.81 1.25-2.38 3.36 1.4 5.87 3.71 6.49 8.22.76 10.12-2.76zm6.61-14.92c.69-1.26-.3-2.58-1.56-3.41s-3.69-1-5.07-1.37-2.86-2.27-4.83-2.3-2.8 1.24-2.37 3.35 1.4 5.88 3.7 6.5 8.21.75 10.13-2.73zm-23-7.21c.48-.87-.21-1.77-1.08-2.35s-2.54-.68-3.49-.94-2-1.56-3.32-1.58-1.92.86-1.63 2.31 1 4 2.55 4.47 5.63.53 6.95-1.87zm-18.81-9c.48-.88-.21-1.78-1.08-2.36s-2.53-.68-3.48-.94-2-1.56-3.32-1.58-1.93.86-1.64 2.31 1 4 2.55 4.47 5.63.53 6.95-1.86zm-13.57 4.14c.87-1.58-.38-3.22-2-4.27s-4.61-1.25-6.34-1.71-3.57-2.84-6-2.88-3.51 1.56-3 4.2 1.75 7.34 4.63 8.12 10.29.94 12.69-3.42zm-33.32-.57c.58-1-.25-2.15-1.3-2.85s-3.08-.82-4.23-1.14-2.38-1.89-4-1.91-2.34 1-2 2.79 1.17 4.9 3.09 5.42 6.82.63 8.42-2.27zm-19.35 94.16c.58-1.06-.25-2.15-1.3-2.85s-3.07-.83-4.23-1.14-2.38-1.89-4-1.92-2.33 1-2 2.8 1.17 4.89 3.09 5.41 6.85.6 8.44-2.3zm30.6-111.7c.58-1.05-.25-2.14-1.3-2.84s-3.08-.83-4.23-1.14-2.38-1.89-4-1.92-2.34 1-2 2.8 1.17 4.89 3.09 5.41 6.84.59 8.44-2.31zM500 196.69c.71-1.27-.3-2.6-1.57-3.45s-3.73-1-5.12-1.38-2.89-2.29-4.87-2.32-2.83 1.26-2.4 3.39 1.41 5.93 3.74 6.56 8.22.72 10.22-2.8zm108.9 46.84c.88-1.58-.37-3.22-1.95-4.27s-4.61-1.25-6.34-1.71-3.57-2.84-6-2.88-3.51 1.55-3 4.2 1.76 7.34 4.64 8.12 10.26.89 12.65-3.46zm-40.69 27.64c.88-1.58-.37-3.22-2-4.27s-4.61-1.25-6.34-1.71-3.57-2.84-6-2.88-3.51 1.55-3 4.2 1.76 7.34 4.64 8.12 10.31.89 12.7-3.46zm44.58-45.12c.64-1.18-.28-2.4-1.45-3.17s-3.43-.93-4.72-1.28-2.65-2.1-4.48-2.13-2.6 1.15-2.21 3.12 1.31 5.45 3.45 6 7.62.69 9.41-2.54zM92.07 228c-2.89-.78-4.11-5.48-4.64-8.12s.51-4.24 3-4.2 4.31 2.41 6 2.88 4.76.66 6.34 1.71 2.82 2.69 2 4.27c-2.43 4.34-9.77 4.22-12.7 3.46zm-14.14-12.16c.76-1.38-.33-2.81-1.7-3.73s-4-1.08-5.53-1.49-3.11-2.47-5.26-2.5-3 1.35-2.59 3.65 1.53 6.4 4 7.08 8.99.78 11.08-3.01zm-24.08 42c.76-1.38-.33-2.81-1.7-3.73s-4-1.08-5.53-1.49-3.11-2.47-5.26-2.51-3 1.36-2.59 3.66 1.53 6.4 4 7.08 8.99.75 11.08-3.04zm28.26-61.72c.82-1.48-.35-3-1.82-4s-4.32-1.17-5.94-1.6-3.35-2.69-5.65-2.72-3.27 1.45-2.78 3.92 1.64 6.88 4.34 7.6 9.61.84 11.85-3.23zm-70.28 9.2c.59-1.07-.25-2.19-1.32-2.9s-3.13-.84-4.31-1.16-2.42-1.93-4.09-1.95-2.38 1.05-2 2.84 1.19 5 3.15 5.52 6.95.57 8.57-2.38zm.4-38.36c.59-1.07-.25-2.18-1.32-2.9s-3.13-.84-4.31-1.16-2.42-1.92-4.09-2-2.38 1.06-2 2.85 1.19 5 3.15 5.51 6.95.63 8.57-2.33zm43.05 55.49c.6-1.08-.25-2.19-1.32-2.9s-3.13-.85-4.3-1.16-2.43-1.93-4.1-2-2.38 1.05-2 2.84 1.19 5 3.15 5.52 6.95.62 8.57-2.33zm-24.43-7c.51-.92-.22-1.87-1.13-2.48S27 212.25 26 212s-2.07-1.65-3.5-1.67-2 .9-1.73 2.43 1 4.27 2.69 4.72 6 .52 7.39-2.03zm83.4 59.81c.59-1.08-.26-2.19-1.33-2.9s-3.13-.85-4.3-1.16-2.42-1.93-4.1-2-2.37 1.06-2 2.85 1.19 5 3.14 5.51 6.96.65 8.59-2.3zm-14.93 10.11c.59-1.08-.26-2.19-1.33-2.9s-3.13-.85-4.3-1.16-2.42-1.93-4.1-1.95-2.37 1.05-2 2.84 1.19 5 3.14 5.52 6.96.6 8.59-2.35zm31.24-49.67c.87-1.58-.38-3.22-1.95-4.27s-4.62-1.25-6.35-1.71-3.57-2.84-6-2.88-3.51 1.56-3 4.2 1.75 7.34 4.63 8.12 10.27.9 12.67-3.46zm-3.72 24c.76-1.38-.33-2.81-1.7-3.72s-4-1.08-5.53-1.49-3.11-2.47-5.26-2.51-3 1.36-2.59 3.66 1.53 6.4 4 7.08 8.99.82 11.08-2.98zM19.59 229.23c.59-1.07-.26-2.19-1.33-2.9s-3.13-.84-4.3-1.16-2.43-1.92-4.1-1.95-2.38 1.05-2 2.85 1.18 5 3.14 5.51 7 .61 8.59-2.35zm60.3 12c.87-1.58-.38-3.22-2-4.27s-4.61-1.24-6.34-1.71-3.57-2.84-6-2.88-3.51 1.56-3 4.2 1.75 7.34 4.63 8.12 10.31.89 12.71-3.47zm-5.42 29.87c.87-1.58-.38-3.23-2-4.28s-4.61-1.24-6.34-1.71-3.57-2.83-6-2.87-3.51 1.55-3 4.19 1.76 7.35 4.64 8.13 10.3.88 12.7-3.47zm18-8.6c.87-1.59-.38-3.23-2-4.28s-4.62-1.24-6.35-1.71-3.57-2.84-6-2.88-3.5 1.56-3 4.2 1.75 7.35 4.63 8.12 10.36.89 12.76-3.46zm57.68-76.5c.36-.67-.16-1.36-.83-1.8a10.25 10.25 0 0 0-2.67-.72c-.73-.2-1.51-1.2-2.54-1.21s-1.48.65-1.26 1.77.74 3.09 2 3.42 4.29.41 5.3-1.46zm-97.9 96.5c.37-.66-.16-1.36-.82-1.8a10.42 10.42 0 0 0-2.68-.72c-.73-.2-1.5-1.2-2.54-1.21s-1.48.65-1.25 1.77.73 3.09 1.95 3.42 4.33.38 5.34-1.46zm22.93 3c.37-.67-.16-1.36-.82-1.81a10.42 10.42 0 0 0-2.68-.72c-.73-.19-1.5-1.19-2.54-1.21s-1.48.66-1.25 1.77.74 3.1 2 3.42 4.28.42 5.29-1.41zm62.12-35.22c.37-.66-.16-1.36-.82-1.8a10.32 10.32 0 0 0-2.68-.72c-.72-.2-1.5-1.2-2.54-1.21s-1.48.65-1.25 1.77.74 3.09 2 3.42 4.28.42 5.29-1.42zm8.29-17.95c.36-.67-.16-1.36-.83-1.8a10.25 10.25 0 0 0-2.67-.72c-.73-.2-1.51-1.2-2.55-1.21s-1.47.65-1.25 1.77.74 3.09 2 3.42 4.29.42 5.3-1.42zM39.64 270.74c.37-.66-.16-1.36-.82-1.8a10.42 10.42 0 0 0-2.68-.72c-.73-.2-1.5-1.2-2.54-1.21s-1.48.65-1.25 1.77.74 3.09 1.95 3.42 4.33.38 5.34-1.46zm0-126.31c.37-.67-.15-1.36-.82-1.8a9.87 9.87 0 0 0-2.67-.72c-.73-.2-1.51-1.2-2.55-1.21s-1.47.65-1.25 1.76.74 3.1 2 3.43 4.23.38 5.24-1.46zM26 157.1c.6-1.09-.26-2.22-1.34-2.94s-3.17-.85-4.36-1.17-2.46-2-4.15-2-2.41 1.07-2 2.88 1.2 5.05 3.18 5.59 6.98.63 8.67-2.36zm1.17 36.34c.42-.77-.18-1.56-.95-2.07a11.33 11.33 0 0 0-3.08-.83c-.84-.23-1.74-1.38-2.93-1.4s-1.71.75-1.45 2 .85 3.57 2.26 3.94 4.98.48 6.11-1.64zM83 177.85c.43-.77-.18-1.56-1-2.07a11.33 11.33 0 0 0-3-.78c-.84-.23-1.73-1.38-2.93-1.4s-1.7.75-1.44 2 .85 3.57 2.25 3.94 4.96.46 6.12-1.69zm-6.5-33c.42-.76-.18-1.56-1-2.07a11.33 11.33 0 0 0-3.08-.83c-.84-.23-1.74-1.38-2.93-1.4s-1.7.75-1.45 2 .86 3.57 2.26 3.94 5.04.51 6.2-1.62zM9.19 185.44c.43-.77-.18-1.57-.94-2.08a11.88 11.88 0 0 0-3.09-.83c-.84-.22-1.73-1.38-2.93-1.4s-1.7.76-1.44 2 .85 3.57 2.25 4 4.96.42 6.15-1.69zm36.45 54.38c.76-1.38-.33-2.82-1.71-3.74s-4-1.08-5.54-1.49-3.13-2.48-5.28-2.52-3.07 1.36-2.6 3.67 1.53 6.43 4.05 7.11 8.99.78 11.08-3.03zM51 201.26c.81-1.49-.36-3-1.83-4s-4.32-1.17-5.94-1.6-3.39-2.66-5.69-2.66-3.28 1.46-2.78 3.93 1.64 6.87 4.34 7.6 9.61.8 11.9-3.27zm16.39-22.53c.81-1.49-.35-3-1.83-4s-4.32-1.17-5.93-1.6-3.35-2.66-5.65-2.7-3.28 1.46-2.78 3.93 1.64 6.87 4.34 7.6 9.56.84 11.8-3.23zm38.44 2.4c.82-1.48-.35-3-1.82-4s-4.37-1.13-6.01-1.6-3.34-2.65-5.64-2.69-3.28 1.45-2.79 3.93 1.64 6.87 4.34 7.6 9.63.83 11.87-3.24zm5.87 22.62c.82-1.48-.35-3-1.82-4s-4.32-1.17-5.94-1.6-3.34-2.66-5.64-2.69-3.28 1.45-2.79 3.92 1.64 6.87 4.34 7.6 9.56.84 11.8-3.23zM129.9 187c.7-1.27-.3-2.58-1.56-3.42s-3.69-1-5.07-1.37-2.86-2.27-4.82-2.3-2.81 1.25-2.38 3.36 1.4 5.87 3.71 6.49 8.22.76 10.12-2.76zm6.61-14.92c.69-1.26-.3-2.58-1.56-3.41s-3.69-1-5.07-1.37-2.86-2.27-4.83-2.3-2.8 1.24-2.37 3.35 1.4 5.88 3.7 6.5 8.21.75 10.13-2.73zm-23-7.21c.48-.87-.21-1.77-1.08-2.35s-2.54-.68-3.49-.94-2-1.56-3.32-1.58-1.92.86-1.63 2.31 1 4 2.55 4.47 5.63.53 6.95-1.87zm-18.81-9c.48-.88-.21-1.78-1.08-2.36s-2.53-.68-3.48-.94-2-1.56-3.32-1.58-1.93.86-1.64 2.31 1 4 2.55 4.47 5.63.53 6.95-1.86zm-13.57 4.14c.87-1.58-.38-3.22-2-4.27s-4.61-1.25-6.34-1.71-3.57-2.84-6-2.88-3.51 1.56-3 4.2 1.75 7.34 4.63 8.12 10.29.94 12.69-3.42zm-33.32-.57c.58-1-.25-2.15-1.3-2.85s-3.08-.82-4.23-1.14-2.38-1.89-4-1.91-2.34 1-2 2.79 1.17 4.9 3.09 5.42 6.82.63 8.42-2.27zM28.46 253.6c.58-1.06-.25-2.15-1.3-2.85s-3.07-.83-4.23-1.14-2.38-1.89-4-1.92-2.33 1-2 2.8 1.17 4.89 3.09 5.41 6.85.6 8.44-2.3zm30.6-111.7c.58-1.05-.25-2.14-1.3-2.84s-3.08-.83-4.23-1.14-2.38-1.89-4-1.92-2.34 1-2 2.8 1.17 4.89 3.09 5.41 6.84.59 8.44-2.31zM39 175.69c.71-1.27-.3-2.6-1.57-3.45s-3.73-1-5.12-1.38-2.89-2.29-4.87-2.32-2.83 1.26-2.4 3.39 1.41 5.93 3.74 6.56 8.22.72 10.22-2.8zm102.9 40.84c.88-1.58-.37-3.22-2-4.27s-4.61-1.25-6.34-1.71-3.57-2.84-6-2.88-3.51 1.55-3 4.2 1.76 7.34 4.64 8.12 10.31.89 12.7-3.46zm-34.69 30.64c.88-1.58-.37-3.22-1.95-4.27s-4.61-1.25-6.34-1.71-3.57-2.84-6-2.88-3.51 1.55-3 4.2 1.76 7.34 4.64 8.12 10.26.89 12.65-3.46zm44.58-45.12c.64-1.18-.28-2.4-1.45-3.17s-3.43-.93-4.72-1.28-2.65-2.1-4.48-2.13-2.6 1.15-2.21 3.12 1.31 5.45 3.45 6 7.62.69 9.41-2.54z"/></g><g id="Small_elipse" data-name="Small elipse"><circle class="cls-6" cx="593" cy="52" r="12"/><circle class="cls-6" cx="44" cy="44" r="12"/><circle class="cls-6" cx="565" cy="96" r="16"/></g><g id="Web"><rect class="cls-2" x="80" y="64" width="453" height="280" rx="16" ry="16"/><path class="cls-7" d="M533 104H80V80a16 16 0 0 1 16-16h421a16 16 0 0 1 16 16z"/><circle class="cls-2" cx="104" cy="84" r="8"/><circle class="cls-2" cx="128" cy="84" r="8"/><circle class="cls-2" cx="152" cy="84" r="8"/><path class="cls-3" d="M112 136h389v176H112.92L112 136z"/><path class="cls-7" d="M144 168h12v12h-12zM144 196h12v12h-12zM144 224h12v12h-12zM144 252h12v12h-12zM168 168h301v12H168zM168 224h269v12H168zM168 252h174v12H168zM168 196h64v12h-64zM244 196h161v12H244z"/></g><g id="Shadow"><path class="cls-8" d="M167 113.82c-.19.1-.45.3-.43.21-.1.1-.08.19 0 .21zM154.68 103.49l-.23.25.23-.25zM152.54 103.55a.23.23 0 0 0 0 .14l.25-.29c-.03-.05-.11-.03-.25.15zM166 114.8l-.23.26.23-.25zM155.66 102.5c-.19.11-.45.31-.43.22-.1.1-.09.19 0 .2l.43-.42zM163.86 114.87a.29.29 0 0 0 0 .13l.26-.3c.07-.08-.12-.01-.26.17z"/><path class="cls-9" d="M164.67 24a.67.67 0 0 0-.14.26z"/><path class="cls-9" d="M152 36.25v2.23c1-1.21 2.87-2.08 3.46-3.2v.07l.8-1.1c.46-.41-.16.37.24.13.8-1.25 1.65-1.59 2.34-2.58 1.06-.25 2.29-2.34 3.42-3l-.14-.05c.13-.32.33-.22.52-.36-.1-.05-.34.16-.25 0A51.68 51.68 0 0 1 167 24h-2c-.16.22-.32.43-.48.62a3.57 3.57 0 0 1 .31-.62h-.11a4.46 4.46 0 0 1-1 1.44c-.3-.5-1.54 1.35-2.26 1.43a35.21 35.21 0 0 1-3.13 3.06c.72-.09-.33.34.07.59-.25.29-.36.39-.4.39l-1 .61c-.29.1.18-.32.08-.37-.6.56-.38.11-.85.41.19 0 0 .36-.41.65l.61-.32c-.64 1-1 .44-1.62 1.43L155 33c-.36.48-1.55 1.55-1.71 2.22-.11 0-.3 0-.13-.16a12.07 12.07 0 0 0-1.16 1.19zM158.33 53c-.23-.23-1.08.47-1.51.81a32.32 32.32 0 0 0-2.71 3.29 9.45 9.45 0 0 0-2.11 1.72v2.81c.74-.73 1.47-1.58 2.27-2.38-.39.28-.51 0-.25-.28l.28.06c.07-.28-.35.22-.12-.27.37-.33.43 0 .29.22l.36-.49c.08 0 0 .16 0 .25.06-.28.9-.56 1-1h.07c.94-.93 1.3-1.42 2.06-2.19-.14-.16.19-.42.3-.77a25.3 25.3 0 0 0 2-1.7c.4-.55 0-.27.14-.57.17.1.83-.58.58-.14a28.11 28.11 0 0 0 1.92-2.19c-.17.06-.32.16-.3 0s.48-.37.52-.28v.07c1-1.36 3.05-2.26 3.68-3.45v.06l.8-1.09c.46-.42-.16.36.25.12.79-1.25 1.65-1.58 2.34-2.57 1.05-.26 2.28-2.35 3.42-3h-.15c.14-.32.33-.22.52-.37-.1-.05-.33.16-.24 0 1.81-2 4.11-3.84 6.17-5.73.75-.69-.08-.9 1.06-1.58l-.09.43c1.25-1.66 3-3 4.24-4.57 0 .12 0 .18-.13.31.42-.17 1.12-1.1 1-1.21.23-.21.14 0 .33 0 .38-.23.6-.93.89-1 0 0 0 .13-.09.19.13-.26.93-.9.6-.86.6-.46.95-1.09 1.47-1.43a.7.7 0 0 1 .15-.26h-2c-.44.51-1 1.11-1.39 1.54 0-.06-.05-.05 0-.12-.71.51-.07.67-.88 1.26-.52.18.28-.46 0-.31-.44-.25-.79.89-1.46 1.15l.09-.13c-.47.24-.74 1-1.35 1.56v-.06a9.59 9.59 0 0 1-1.43 2c0-.31.18-.33-.06-.36-.24.27.29.15-.17.69-.24.09-.67.38-.86.29l.46-.49c-.43.06-.6.62-.88.84l-.05-.12c-.7.76-.5 1-1.3 1.74h.15c-.22.63-.48.24-.75.82l-.34-.08c-.23.33-.78 1.19-1.24 1.73a9.89 9.89 0 0 1 .91-1.57 4.76 4.76 0 0 0-1 1.21 1.26 1.26 0 0 1 .32-.4 4.27 4.27 0 0 1-1.1 1.59c-.31-.51-1.55 1.34-2.27 1.43a36.62 36.62 0 0 1-3.13 3.05c.72-.09-.32.34.07.6-.25.28-.35.38-.4.38l-1 .62c-.28.09.18-.33.09-.38-.61.56-.39.11-.86.41.2 0 0 .37-.41.66l.62-.32c-.65 1-1 .43-1.63 1.42l.16-.36c-.36.48-1.56 1.55-1.71 2.23-.11 0-.3 0-.14-.16-1 1-2 2.52-2.91 3.14v-.16c-.17.21-.18.48-.49.63 0 0 0-.15-.1-.07a2.74 2.74 0 0 1-.66.84l.13-.3c-1.07.9-1.27 1.75-2.04 2.6zM211.87 24h-2s-.07.06-.09.11c-.29.15-.2-.16-.44 0-.41.66-.71.45-1.17 1.11.29 0 .29-.09 0 .43l.83-1-.41.77c.28-.28.51-.67.7-.81-.18.38-.18.32.06.3-.58.19-.65.86-1.22 1.17l-.3-.32c-.8.52-1 1.33-2 2.12l.33-.23c0 .24-.52.55-.74.88-.08-.13-.29 0-.48.06.09.06-.64.62-.5.91l-.53.25c-.75.63-.49 1.09-1.19 1.72.08-.32-.29-.09.07-.62-.22.23-.44.41-.37.48-.2.07-.48.76-.78.87 0 .14 0 .28-.23.52-.05 0-.05-.05-.05-.05s-.32.46 0 .36c-1 .36-1.89 1.94-2.77 2.26-.45.52-1 1.14-1.44 1.59 0-.06-.05-.06 0-.13-.7.51-.07.68-.87 1.26-.53.18.27-.46 0-.3-.44-.25-.79.88-1.46 1.15l.1-.14c-.48.24-.74 1-1.35 1.56 0 0 0-.06 0 0a9.44 9.44 0 0 1-1.43 2c0-.31.18-.32-.06-.36-.23.28.29.15-.17.69-.24.09-.66.39-.86.29l.47-.48c-.43 0-.61.62-.89.83l-.05-.11c-.7.75-.5 1-1.29 1.73h.14c-.22.63-.47.24-.75.81l-.33-.08c-.23.33-.79 1.19-1.25 1.73a9.39 9.39 0 0 1 .91-1.56 4.59 4.59 0 0 0-1 1.21 1.11 1.11 0 0 1 .33-.41 4.36 4.36 0 0 1-1.11 1.59c-.31-.5-1.55 1.34-2.26 1.43a38.36 38.36 0 0 1-3.14 3c.73-.09-.32.35.07.6-.24.29-.35.38-.39.39l-1 .61c-.29.1.18-.33.08-.37-.61.55-.38.1-.85.4.19 0 0 .37-.42.66l.62-.32c-.64 1-1 .43-1.63 1.43l.16-.37c-.36.49-1.56 1.56-1.71 2.23-.11 0-.3 0-.14-.16-1 1-2 2.52-2.9 3.14v-.15c-.16.21-.18.47-.49.63 0-.05 0-.16-.1-.07a3.12 3.12 0 0 1-.65.84l.12-.31c-1.08.88-1.29 1.73-2.06 2.61-.23-.24-1.08.46-1.5.81v-.05a33.59 33.59 0 0 0-2.72 3.29c-.91.4-2.33 2.12-3.53 3 .2-.12.15.21 0 .42s-.53.84-.7.59l.09-.08c-.4 0-.85.54-1.25.93l.21.35c-1.45.63-2.58 2.88-3.51 3.08-.18.32-.49.63-.67 1l-.14-.16a20.74 20.74 0 0 0-1.82 1.83l.07-.28c-.49.47-.18 1-.62 1.5l-.36-.09c-.33.33-.69.64-1.05 1v2.21a15.66 15.66 0 0 1 2.67-2.39c0-.4 1.3-1.11 1.07-1.5a9.85 9.85 0 0 0 1.79-1.16c.28-.25.2-.59.49-.94l.17.15.27-.61h.43l.26-.34c-.13.11-.33.18-.36.11a2.76 2.76 0 0 1 1.37-1l1-1.26c0 .09-.13.3-.23.49.43-.76.28.07.67-.63-.11 0-.05-.14-.07-.19a5.65 5.65 0 0 0 1.41-1.3v.21c.86-.81 1.7-1.81 2.63-2.75-.38.29-.5 0-.25-.28l.29.07c.07-.29-.36.22-.12-.28.37-.33.43 0 .28.22l.37-.48c.07 0 0 .15 0 .24.07-.28.91-.56 1-1h.08c.93-.93 1.3-1.41 2-2.18-.14-.17.2-.43.3-.78a22 22 0 0 0 2-1.7c.4-.55 0-.26.13-.56.17.1.83-.59.58-.14a24.92 24.92 0 0 0 1.92-2.2c-.17.06-.32.16-.3 0s.48-.37.52-.27v.06c.94-1.35 3-2.25 3.67-3.45v.06l.8-1.09c.46-.41-.16.36.25.12.8-1.24 1.65-1.58 2.34-2.57 1.05-.25 2.29-2.34 3.42-3h-.14c.13-.32.32-.22.51-.37-.09 0-.33.17-.24 0 1.81-2 4.11-3.83 6.17-5.72.75-.7-.07-.9 1.06-1.59l-.08.44c1.25-1.67 3-3 4.23-4.58 0 .12 0 .18-.13.32.43-.18 1.12-1.11 1-1.22.24-.21.15 0 .34 0 .37-.23.59-.92.88-1 .05 0 0 .13-.09.2.14-.26.93-.91.6-.86.6-.47 1-1.09 1.47-1.43.12-.45 1-.84.85-1.16.21.28 1.14-.75 1.36-1.2 0 .19.37-.22.34 0 .38-.38.69-.78.5-.84 1-.42 1.2-1.66 2-1.69 1-1.28 2-2.43 3-3.52.2.28-1.12 1.17-.82 1.37a20.2 20.2 0 0 1 2.27-2.76c.28-.22 0 .25-.09.37.6-.82 1.35-1.47 1.99-2.17zM152.29 106l.26.1c.71-.76 1.39-1.71 2.18-2.56 0 .1-.08.3.17.16a24.1 24.1 0 0 1 3.33-3.07l.22-.54c.09-.08.24-.09.17 0 .45-.33-.08-.12 0-.37s.38-.2.28 0a11.67 11.67 0 0 1 2.61-2.72l-.1.19c.63-.5.32-1 1-1.33l-.08.13A33.36 33.36 0 0 1 166 92.6c0-.4 1.31-1.11 1.07-1.5a9.66 9.66 0 0 0 1.8-1.16c.27-.25.19-.58.48-.94l.17.15.27-.61h.43l.26-.35c-.13.11-.33.18-.36.12a2.69 2.69 0 0 1 1.37-1l1-1.26c0 .09-.12.3-.23.49.43-.77.28.06.68-.64-.11 0-.06-.14-.08-.18a6.09 6.09 0 0 0 1.42-1.3v.2c.86-.8 1.7-1.81 2.64-2.74-.39.28-.51 0-.25-.28l.28.06c.07-.28-.35.22-.12-.27.37-.33.43 0 .29.21l.36-.48c.08 0 0 .15 0 .25.06-.29.9-.56 1-1h.07c.94-.94 1.3-1.42 2-2.19-.13-.16.2-.43.31-.77a25.55 25.55 0 0 0 2-1.71c.4-.54 0-.26.14-.56.17.1.83-.59.58-.14a28.21 28.21 0 0 0 1.91-2.19c-.16 0-.31.15-.29 0s.48-.36.51-.27v.06c.94-1.35 3-2.25 3.68-3.45v.07l.8-1.1c.46-.41-.16.37.25.13.79-1.25 1.64-1.58 2.33-2.58 1.06-.25 2.29-2.34 3.42-3l-.14-.05c.13-.32.33-.22.52-.36-.1 0-.33.16-.24 0 1.81-2 4.11-3.84 6.17-5.73.75-.7-.08-.9 1.06-1.58l-.09.43c1.25-1.67 3-3 4.24-4.58-.05.13 0 .18-.14.32.43-.17 1.12-1.11 1-1.21.23-.22.14 0 .33-.05.38-.22.6-.92.88-.95.05 0 0 .12-.09.19.14-.26.94-.9.6-.86.61-.47 1-1.09 1.48-1.43.11-.44 1-.84.85-1.16.2.28 1.13-.74 1.36-1.2-.05.19.37-.21.33 0 .39-.39.7-.79.5-.85 1-.42 1.2-1.66 2-1.69 1-1.28 2-2.43 3-3.51.2.27-1.11 1.16-.82 1.37a19.06 19.06 0 0 1 2.27-2.76c.28-.22 0 .24-.08.37.88-1.08 1.91-1.87 2.65-2.87 0 0-.05.14-.12.25.17-.18.44-.37.31-.46l-.14.2c-.43.12.35-1 .3-1.13 0 .61.94-.78.87.08.09-.13.18-.33.08-.37.19-.15.29-.16.2.09.55-.67.22-.57.78-1.12.05.05 0 .18 0 .3a2.93 2.93 0 0 1 .88-1.19c0 .06.1 0 0 .18A20.09 20.09 0 0 1 229 29c0 .49.37-.22.62-.07l.42-.54-.29.1c.42-.42.64-.93 1.07-1.22l-.23.39.74-.82-.51.37c.32-.53-.3-.21.31-.71-.09.13.42-.41.76-.52a2 2 0 0 1 .64-.81c.15 0 .16.28.25.27 0-.37.92-1 1-1.45h-1.13a8.72 8.72 0 0 0-.84.44c-.71.51-.31.83-1 1.4.15 0 .39.07 0 .6s-.81.29-.58 0c.1-.12.17-.15.19-.12.12-.17.28-.38 0-.28v.12c-.29.16-.89.78-.85.53-.28.4 0 .25.24 0-.66.48-.89.89-1.54 1.42.13-.06.29-.07.19 0-.94.78-.26.5-.81 1.11-.43.24-.12-.35-.62.32-.43.29-.25-.09-.15-.28a5.08 5.08 0 0 1-1.41 1.2l.23-.33a3.31 3.31 0 0 1-.42.47h.29c-.19.14-.33.28-.38.23-.09.25.34.07.11.53-.28.15-.6.74-.84.65.75-.64-.25-.09.31-.71a2.07 2.07 0 0 1-.42.42v-.12c-.82.52-.12.5-.81 1.18 0-.18-.34 0-.43.12.28-.28.29 0 .1.35-.51.36-.42.53-.66.75l.3-.23c0 .19-.23.4-.51.73-.1 0 .23-.33.09-.25-.18.51-.95.6-1.31 1.19-.28.16-.2-.16-.44 0-.41.66-.7.45-1.16 1.12.28 0 .28-.1 0 .42l.83-1-.4.77c.28-.27.5-.66.69-.81-.18.39-.18.33.06.3-.57.19-.65.87-1.21 1.18l-.3-.33c-.81.52-1 1.34-2 2.12l.33-.22c0 .24-.51.55-.74.87-.08-.13-.29 0-.47.06.09.07-.64.63-.51.91l-.52.25c-.75.64-.5 1.09-1.2 1.72.09-.31-.29-.08.08-.61-.23.22-.45.4-.38.48-.19.06-.48.76-.78.86 0 .14 0 .28-.23.52h-.05s-.32.46 0 .36c-1 .36-1.89 1.94-2.77 2.26-.45.52-1 1.14-1.44 1.59 0-.06-.05-.05.05-.13-.71.52-.08.68-.88 1.26-.52.19.28-.46 0-.3-.44-.25-.79.88-1.45 1.15l.09-.13c-.47.24-.74 1-1.35 1.55a9.19 9.19 0 0 1-1.43 2c0-.3.19-.32-.06-.35-.23.27.3.14-.17.68-.23.09-.66.39-.85.29l.46-.48c-.43.05-.6.62-.89.84l-.05-.12c-.7.75-.5 1-1.29 1.74h.14c-.22.63-.47.24-.74.82l-.34-.08c-.23.33-.78 1.18-1.25 1.73a9.26 9.26 0 0 1 .92-1.57 5.05 5.05 0 0 0-1 1.21c.1-.13.19-.33.33-.4a4.5 4.5 0 0 1-1.1 1.58c-.31-.5-1.55 1.35-2.27 1.44a36.62 36.62 0 0 1-3.13 3c.72-.09-.33.34.07.59-.25.29-.35.39-.4.39l-1 .61c-.29.1.18-.32.08-.37-.6.56-.38.11-.85.41.2 0 0 .37-.41.65l.61-.31c-.64 1-1 .43-1.62 1.42l.15-.36c-.36.48-1.55 1.55-1.71 2.22-.11 0-.29 0-.13-.16-1.05 1-2 2.52-2.91 3.15V72c-.17.21-.18.48-.5.63 0 0 0-.15-.09-.07a2.74 2.74 0 0 1-.66.84l.13-.3c-1.09.88-1.3 1.72-2.06 2.6-.24-.23-1.09.46-1.51.81a33.74 33.74 0 0 0-2.72 3.28c-.91.41-2.33 2.13-3.53 3 .2-.12.16.21 0 .42s-.52.85-.7.59l.09-.08c-.39 0-.85.54-1.25.94l.21.34c-1.44.64-2.57 2.88-3.51 3.08-.18.32-.49.63-.67 1l-.14-.16a23.67 23.67 0 0 0-1.92 1.88l.07-.28c-.5.48-.18 1-.62 1.5l-.36-.09a14.89 14.89 0 0 0-2.53 2.55s-.06-.13.07-.28c-.41.39-1.7 1.39-1.25 1.55-.21-.19-.89.86-1.26 1.4l-.07-.21a2.69 2.69 0 0 1-.65 1.23c-.15.1-.23 0 0-.14-.5.35-.19.47-.79.91l.1-.29a1.33 1.33 0 0 0-.5.79c-.21.34-.86.8-1.06.73a1 1 0 0 1-.41.71c-.08 0 0-.14 0-.21-.83.64-.91 1.26-1.56 1.62a.17.17 0 0 0-.18 0c.59-.58 1.07-1 1-1-.13-.14-.63.31-.44-.26a6.29 6.29 0 0 1-1.22 1.75h-.11v-.06a.94.94 0 0 0-.26.31 2.83 2.83 0 0 0-.42.34c-.17-.06-.6.47-.84.7.16.13-.17.42.24.25 0 0 0-.06.18-.22a.62.62 0 0 0 .08-.12l.57-.59a1.16 1.16 0 0 1-.58.69c0 .22-.06.45-.08.57a2.22 2.22 0 0 0-.45.16v1.55h.06s0 .07-.06.11v.23c.22-.28.03-.42.32-.7zm2.94-3.28c0 .09.24-.11.43-.22a8.2 8.2 0 0 0-.43.42c-.09-.01-.1-.1 0-.2zm-.55.77l-.23.25zm-2.12.16a.23.23 0 0 1 0-.14c.14-.18.22-.2.27-.19z"/><path class="cls-9" d="M233.85 24.22V24h-.13c-.01.12.08.23.13.22zM161.81 119.51c.07-.31-.08-.61.57-1v.39c.71-.67.1-.69 1-1.28 0 .21-.47.61-.34.53.63-.31.21-.45.57-.81l.26.11c.71-.77 1.39-1.71 2.18-2.57 0 .1-.08.3.17.16a24.69 24.69 0 0 1 3.33-3.07l.22-.53c.09-.09.24-.1.17 0 .45-.33-.08-.12 0-.37s.38-.2.29 0a11.08 11.08 0 0 1 2.55-2.79l-.09.18c.62-.49.31-1 1-1.32l-.07.12a31.36 31.36 0 0 1 3.65-3.33c0-.41 1.31-1.11 1.08-1.5a9.79 9.79 0 0 0 1.79-1.17c.28-.24.19-.58.49-.94l.17.16.26-.61h.43l.27-.35c-.13.11-.33.19-.36.12a2.72 2.72 0 0 1 1.36-1l1-1.26c0 .09-.13.3-.23.49.43-.76.28.07.67-.64-.11 0-.06-.13-.08-.18a5.7 5.7 0 0 0 1.42-1.3v.2c.86-.8 1.7-1.81 2.64-2.74-.39.28-.5 0-.25-.28l.28.06c.07-.28-.35.22-.12-.27.37-.33.43 0 .29.22l.36-.49c.08 0 0 .16 0 .25.07-.28.9-.56 1-1h.07c.94-.93 1.3-1.42 2.06-2.18-.14-.17.19-.43.3-.78a23.62 23.62 0 0 0 2-1.7c.4-.55 0-.27.14-.57.17.1.83-.58.58-.14a26.15 26.15 0 0 0 1.92-2.19c-.17.06-.32.16-.3 0s.48-.37.52-.28v.07c1-1.35 3.05-2.26 3.68-3.45v.06l.8-1.09c.46-.42-.16.36.25.12.79-1.25 1.65-1.58 2.34-2.57 1.05-.25 2.28-2.34 3.42-3h-.15c.14-.32.33-.22.52-.37-.1-.05-.33.16-.24 0 1.81-2 4.11-3.84 6.17-5.73.75-.69-.08-.89 1.06-1.58l-.08.43c1.24-1.66 3-3 4.23-4.57 0 .12 0 .18-.13.32.43-.18 1.12-1.11 1-1.22.23-.21.14 0 .33 0 .38-.23.6-.92.89-1 0 0-.05.13-.09.19.13-.26.93-.9.6-.86.6-.46 1-1.09 1.47-1.43.11-.44 1-.83.85-1.15.2.27 1.13-.75 1.36-1.2 0 .18.37-.22.34 0 .38-.39.69-.79.5-.84 1-.43 1.2-1.66 2-1.7 1-1.27 2-2.42 3-3.51.2.28-1.12 1.16-.83 1.37a20.46 20.46 0 0 1 2.27-2.76c.29-.22 0 .25-.08.37.88-1.08 1.91-1.87 2.66-2.87a.63.63 0 0 1-.13.25c.17-.18.44-.36.31-.45l-.14.19c-.43.12.35-1 .3-1.12 0 .6.94-.78.87.07.09-.13.18-.32.09-.37.18-.15.28-.16.19.1.56-.68.22-.58.78-1.13v.31a3 3 0 0 1 .87-1.2c0 .06.1 0 0 .19a19.36 19.36 0 0 1 2.09-2.44c0 .49.38-.23.62-.08l.42-.53-.29.09c.42-.41.65-.93 1.07-1.22l-.23.39.75-.82-.52.37c.32-.52-.3-.21.32-.71-.1.14.42-.41.75-.51a2 2 0 0 1 .65-.81c.14 0 .15.29.25.27 0-.36.93-1 1-1.45a.17.17 0 0 0 .1.23v-.31c.24-.15.29-.16.34 0 .6-.56-.44-.07.36-.65 0 .06 0 .06-.09.19.75-.64 1.25-1.43 2-2 .39 0-.51.61-.13.56.89-.95 1.67-2.14 2.6-3l-.18.14c-.16-.4.8-.52 1.11-1.1-.08.13 0 .3 0 .24a20.6 20.6 0 0 0 2-2.33v.19c.43-.3 1-.91 1.41-1.27 0-.18.27-.39 0-.36a4.85 4.85 0 0 0 1.68-1.48q-.49-.12-1-.21a.38.38 0 0 1-.09.18c-.47.48-.29 0-.62.26 0 .19-.42.42-.27.58-.14.14-.24.09-.34.1-.17.32-1.12 1.17-.68 1.06l.07-.06v.05a31.7 31.7 0 0 1-2.48 2.44h-.06a14.66 14.66 0 0 0-1.25 1.55c-.14.14-.42.23-.43.11a3.14 3.14 0 0 1-.91.94c.27-.46-.21.05.3-.44-.51.43-.7.45-1.07 1.1 0-.31-.52.19-.71.45l.43-.23a7.54 7.54 0 0 1-.7.69l-.06-.3c-1.18.76-1.38 2.11-2.47 2.49-.13.38.61-.44.53-.07a9.8 9.8 0 0 1-1.33.77c-.7.51-.31.83-1 1.4.14 0 .39.07 0 .61s-.81.28-.58 0c.1-.11.17-.14.19-.12.12-.17.28-.38 0-.27v.12c-.28.15-.89.77-.85.53-.27.39 0 .24.24 0-.66.48-.89.89-1.54 1.41.13-.06.29-.07.2 0-.94.79-.26.5-.82 1.11-.43.24-.11-.34-.62.32-.42.3-.24-.09-.15-.28a4.78 4.78 0 0 1-1.41 1.2l.23-.33a3.43 3.43 0 0 1-.42.48h.29c-.19.15-.33.29-.38.23-.08.25.34.08.12.53-.29.16-.61.74-.85.65.75-.64-.24-.09.32-.71a2.08 2.08 0 0 1-.42.42v-.11c-.81.51-.12.49-.81 1.18 0-.19-.34 0-.43.11.28-.28.29 0 .11.35-.52.37-.43.53-.67.76l.3-.23c0 .18-.23.39-.5.73-.1 0 .22-.33.08-.26-.17.51-.94.61-1.31 1.19-.28.16-.19-.15-.43 0-.41.65-.71.45-1.17 1.11.29 0 .29-.09 0 .42l.84-1-.41.78c.28-.28.51-.67.7-.81-.18.38-.19.32 0 .29-.57.19-.64.87-1.21 1.18l-.3-.33c-.8.53-1 1.34-2 2.12l.34-.22c0 .24-.52.55-.75.88-.08-.13-.29 0-.47.06.09.06-.64.62-.51.91l-.52.24c-.75.64-.49 1.09-1.2 1.73.09-.32-.29-.09.08-.62-.22.22-.44.4-.37.48-.2.07-.48.76-.79.87 0 .14 0 .28-.22.52v-.06s-.33.47 0 .36c-1 .36-1.9 1.95-2.78 2.26-.45.53-1 1.14-1.43 1.59v-.12c-.71.51-.07.67-.87 1.26-.53.18.27-.46 0-.31-.44-.24-.79.89-1.46 1.15l.09-.13c-.47.24-.74 1-1.34 1.56 0 0 0-.06-.05-.06a9.59 9.59 0 0 1-1.43 2c0-.31.18-.33-.06-.36-.23.27.29.15-.17.69-.24.09-.67.38-.86.29l.47-.48c-.44 0-.61.61-.89.83l-.05-.11c-.7.75-.5 1-1.3 1.73h.15c-.22.63-.48.24-.75.82l-.34-.08c-.23.33-.78 1.19-1.24 1.73a9.89 9.89 0 0 1 .91-1.57 4.93 4.93 0 0 0-1 1.21 1.26 1.26 0 0 1 .32-.4 4.2 4.2 0 0 1-1.1 1.48c-.31-.51-1.55 1.34-2.27 1.43a36.62 36.62 0 0 1-3.13 3.05c.72-.09-.32.34.07.6-.24.28-.35.38-.4.38l-1 .62c-.28.09.19-.33.09-.38-.61.56-.38.11-.86.41.2 0 0 .37-.41.66l.62-.32c-.64 1-1 .43-1.63 1.42l.16-.36c-.36.48-1.56 1.55-1.71 2.23-.11 0-.3 0-.14-.16-1 1-2 2.52-2.91 3.14v-.16c-.17.21-.18.48-.49.64 0-.05 0-.16-.1-.08a2.84 2.84 0 0 1-.65.84l.12-.3c-1.09.88-1.29 1.73-2.06 2.61-.23-.24-1.08.46-1.51.81A32.32 32.32 0 0 0 188 91c-.91.4-2.34 2.12-3.54 3 .21-.11.16.21 0 .42s-.52.85-.69.6l.09-.09c-.4 0-.85.55-1.26.94l.22.34c-1.45.64-2.58 2.88-3.51 3.09-.19.32-.5.63-.68 1l-.13-.17a22.34 22.34 0 0 0-1.93 1.89l.07-.29c-.5.48-.18 1-.62 1.51l-.36-.09a15.26 15.26 0 0 0-2.53 2.55s-.06-.14.07-.28c-.41.39-1.69 1.39-1.24 1.55-.21-.19-.9.85-1.26 1.4l-.08-.22a2.64 2.64 0 0 1-.65 1.23c-.14.11-.23 0 0-.14-.5.35-.19.47-.78.91l.09-.29a1.27 1.27 0 0 0-.49.8c-.22.33-.87.79-1.07.72a1 1 0 0 1-.4.71c-.09 0 0-.14 0-.2-.84.63-.92 1.26-1.57 1.62a.17.17 0 0 0-.17 0c.58-.57 1.06-1 1-1-.14-.14-.63.31-.45-.25A5.92 5.92 0 0 1 165 114a.2.2 0 0 1-.11 0v-.06a1.12 1.12 0 0 0-.27.31 3.66 3.66 0 0 0-.42.34c-.17-.06-.6.48-.84.71.17.13-.16.41.25.25 0 0 0-.07.17-.23l.09-.11.57-.59a1.24 1.24 0 0 1-.58.7c0 .21-.06.44-.09.56-.53.12-1.26.62-1.47.58a9.42 9.42 0 0 0-1.8 2.47c-.17.24-.32.16-.44.19.09-.15.24-.28.26-.39-.17.25-.47.56-.72.85a10.35 10.35 0 0 0 1.86.34 1.1 1.1 0 0 0 .35-.41zm4.73-5.48c0 .09.24-.11.43-.21l-.43.42c-.08-.02-.1-.11 0-.24zm-.55.77l-.23.25zm-2.12.17a.29.29 0 0 1 0-.13c.13-.18.21-.2.27-.2s-.14.2-.27.36zM184.14 119.58l-.1.19c.63-.5.32-1 1-1.33l-.07.13a30.67 30.67 0 0 1 3.66-3.34c-.05-.4 1.3-1.11 1.07-1.5a9.33 9.33 0 0 0 1.79-1.16c.28-.25.2-.59.49-.94l.17.15.27-.61h.43l.26-.34c-.13.11-.33.18-.36.12a2.73 2.73 0 0 1 1.37-1l1-1.26c0 .1-.12.31-.23.5.43-.77.28.06.68-.64-.11 0-.06-.14-.08-.18a6.07 6.07 0 0 0 1.41-1.3v.2c.86-.81 1.7-1.81 2.63-2.74-.38.28-.5 0-.25-.29l.29.07c.07-.29-.35.22-.12-.28.37-.33.43 0 .28.22l.37-.48c.08 0 0 .15 0 .24.07-.28.91-.56 1-1h.08c.93-.93 1.3-1.41 2-2.18-.13-.17.2-.43.3-.78a22 22 0 0 0 2-1.7c.4-.55 0-.26.13-.56.17.1.83-.59.58-.14a26.15 26.15 0 0 0 1.92-2.19c-.17 0-.31.15-.3 0 .17-.21.48-.36.52-.27v.06c.94-1.35 3-2.25 3.67-3.45v.07l.8-1.1c.46-.41-.16.36.24.13.8-1.25 1.65-1.59 2.34-2.58 1.05-.25 2.29-2.34 3.42-3h-.14c.13-.32.33-.22.51-.37-.09 0-.33.17-.24 0 1.82-2 4.12-3.83 6.18-5.72.74-.7-.08-.9 1-1.59l-.08.44c1.25-1.67 3-3 4.24-4.58 0 .13 0 .18-.14.32.43-.17 1.12-1.11 1-1.22.24-.21.15 0 .34 0 .38-.23.59-.92.88-.95.05 0 0 .12-.09.19.14-.26.94-.91.6-.86.61-.47 1-1.09 1.47-1.43.12-.45 1-.84.86-1.16.2.28 1.13-.75 1.35-1.2 0 .19.37-.22.34 0 .38-.39.69-.79.5-.85 1-.42 1.2-1.66 2-1.69 1-1.28 2-2.43 3-3.52.2.28-1.12 1.17-.82 1.37a20.2 20.2 0 0 1 2.27-2.76c.28-.22 0 .25-.09.37.88-1.07 1.92-1.87 2.66-2.87 0 0 0 .15-.12.25.16-.18.43-.36.3-.45l-.13.2c-.43.11.35-1 .3-1.13 0 .61.93-.78.87.08.09-.14.18-.33.08-.38.19-.14.28-.15.2.1.55-.67.22-.57.78-1.13.05.06 0 .19 0 .31a3 3 0 0 1 .88-1.2c0 .06.09 0-.05.19a22 22 0 0 1 2.09-2.44c0 .49.38-.22.63-.07l.41-.54-.28.1c.42-.42.64-.93 1.07-1.23l-.23.4.74-.82-.52.36c.32-.52-.29-.2.32-.7-.09.13.42-.42.75-.52a2.11 2.11 0 0 1 .65-.8c.14 0 .15.28.25.27 0-.37.93-1 1-1.46 0 .13.06.24.11.23v-.31c.24-.15.29-.15.34 0 .61-.56-.44-.07.36-.65 0 .07 0 .06-.09.19.75-.63 1.26-1.42 2-2 .39 0-.51.6-.12.56.88-1 1.66-2.15 2.6-3l-.19.15c-.16-.41.8-.53 1.12-1.11-.09.13 0 .3 0 .24a12.69 12.69 0 0 0 1.5-1.7v-.88c-.61.6-1.35 1.1-1.88 1.74l-.05-.06a13.27 13.27 0 0 0-1.25 1.55c-.14.14-.43.24-.43.11a3.22 3.22 0 0 1-.92 1c.27-.46-.21 0 .31-.45-.52.43-.71.45-1.07 1.1 0-.3-.53.19-.71.46l.42-.24a6.48 6.48 0 0 1-.7.69l-.05-.29c-1.18.75-1.38 2.11-2.48 2.48-.13.38.62-.44.53-.06a9.86 9.86 0 0 1-1.32.77c-.71.51-.31.82-1 1.39.15 0 .39.08 0 .61s-.81.28-.58 0c.1-.11.18-.14.19-.11.12-.17.29-.39 0-.28v.12c-.29.16-.89.78-.85.53-.28.4 0 .25.24 0-.66.48-.9.89-1.55 1.42.13-.06.29-.08.2 0-.94.78-.26.5-.82 1.11-.43.23-.11-.35-.62.32-.42.29-.24-.09-.15-.29a5 5 0 0 1-1.41 1.21l.24-.34a3.43 3.43 0 0 1-.42.48h.28c-.18.14-.32.28-.37.22-.09.26.34.08.11.53-.28.16-.6.74-.85.65.76-.63-.24-.09.32-.7a1.83 1.83 0 0 1-.42.41v-.11c-.81.51-.11.49-.8 1.18 0-.18-.34 0-.44.11.28-.27.29 0 .11.35-.51.37-.42.54-.66.76l.3-.23c0 .18-.23.39-.51.73-.1 0 .23-.33.09-.25-.18.51-1 .6-1.31 1.19-.29.15-.2-.16-.44 0-.41.66-.71.45-1.17 1.11.29 0 .29-.09 0 .43l.83-1-.41.77c.28-.27.51-.66.7-.81-.18.39-.18.32.06.3-.57.19-.65.86-1.22 1.17l-.3-.32c-.8.52-1 1.34-1.95 2.12l.33-.23c0 .24-.51.55-.74.88-.08-.13-.29 0-.48.06.09.06-.63.62-.5.91l-.52.25c-.76.63-.5 1.09-1.2 1.72.09-.32-.29-.09.07-.61-.22.22-.44.4-.37.47-.2.07-.48.76-.78.87 0 .14 0 .28-.23.52h-.05s-.32.46 0 .36c-1 .36-1.89 1.94-2.77 2.26-.45.52-1 1.14-1.44 1.59 0-.06-.05-.06 0-.13-.7.51-.07.68-.87 1.26-.52.19.28-.46 0-.3-.44-.25-.79.88-1.46 1.15l.1-.14c-.48.24-.74 1-1.35 1.56 0 0 0-.06 0 0a9.44 9.44 0 0 1-1.43 2c0-.31.18-.32-.06-.35-.23.27.29.14-.17.68-.24.09-.66.39-.86.29l.47-.48c-.43 0-.61.62-.89.83l-.04-.35c-.7.75-.5 1-1.29 1.73h.14c-.22.63-.47.24-.74.82l-.34-.09a19.41 19.41 0 0 1-1.25 1.73 9.39 9.39 0 0 1 .91-1.56 4.59 4.59 0 0 0-1 1.21 1.11 1.11 0 0 1 .33-.41 4.36 4.36 0 0 1-1.08 1.57c-.3-.5-1.55 1.35-2.26 1.43a35.17 35.17 0 0 1-3.13 3c.72-.09-.33.35.07.6-.25.29-.36.38-.4.39l-1 .61c-.29.1.18-.32.08-.37-.61.56-.38.1-.85.4.19 0 0 .37-.42.66l.62-.32c-.64 1-1 .43-1.63 1.43l.16-.36c-.36.48-1.55 1.55-1.71 2.22-.11 0-.3 0-.13-.16-1.05 1-2 2.52-2.91 3.14v-.15c-.16.21-.17.47-.49.63 0 0 0-.16-.09-.07a3.43 3.43 0 0 1-.66.84l.12-.3c-1.08.87-1.29 1.72-2.06 2.6-.23-.24-1.08.46-1.5.81a35.08 35.08 0 0 0-2.72 3.29c-.91.41-2.33 2.12-3.53 3 .2-.12.15.21 0 .42s-.53.85-.7.59l.09-.08c-.4 0-.85.54-1.25.93l.21.35c-1.45.63-2.58 2.88-3.51 3.08-.18.32-.49.63-.67 1l-.14-.16a23.6 23.6 0 0 0-1.93 1.88l.07-.28c-.49.47-.18 1-.62 1.5l-.35-.09a15.32 15.32 0 0 0-2.54 2.55.27.27 0 0 1 .07-.28c-.4.39-1.69 1.39-1.24 1.55-.21-.19-.89.86-1.26 1.4l-.08-.22-.18.54h1.83a4 4 0 0 1 .5-.42zM264 60.3c-.27.22-.56.47-.53.29-.28.4 0 .25.24 0-.66.48-.89.89-1.54 1.42.13-.06.29-.07.19 0-.94.78-.26.5-.81 1.11-.43.24-.11-.35-.62.32-.43.3-.24-.09-.15-.28a5.08 5.08 0 0 1-1.41 1.2l.23-.33a3.31 3.31 0 0 1-.42.47h.29c-.19.14-.33.28-.38.23-.09.25.34.08.11.53-.28.15-.6.74-.84.65.75-.64-.25-.09.31-.71a2.07 2.07 0 0 1-.42.42v-.12c-.82.52-.12.5-.81 1.18 0-.18-.34 0-.43.12.28-.28.29 0 .11.35-.52.37-.43.53-.67.75l.3-.23c0 .19-.23.4-.51.73-.1 0 .23-.33.09-.25-.18.51-.94.6-1.31 1.19-.28.16-.2-.15-.43 0-.42.65-.71.45-1.17 1.11.29 0 .28-.1 0 .42l.84-1-.41.78c.28-.28.51-.67.69-.82-.18.39-.18.33.06.3-.57.19-.64.87-1.21 1.18l-.3-.33c-.81.52-1 1.34-2 2.12l.33-.22c0 .24-.51.55-.74.88-.08-.13-.29 0-.47.06.09.06-.64.62-.51.9l-.52.25c-.75.64-.5 1.09-1.2 1.72.09-.31-.29-.08.08-.61-.23.22-.45.4-.38.48-.19.06-.47.76-.78.86 0 .14 0 .28-.23.52h-.05s-.32.46 0 .36c-1 .36-1.9 1.94-2.78 2.26-.45.52-1 1.14-1.44 1.59 0-.06-.05 0 .05-.12-.71.51-.08.67-.88 1.25-.52.19.28-.45 0-.3-.44-.25-.79.89-1.45 1.15l.09-.13c-.47.24-.74 1-1.35 1.56v-.06a9.13 9.13 0 0 1-1.43 2c0-.31.19-.33-.06-.36-.23.27.3.15-.17.69-.23.08-.66.38-.85.28l.46-.48c-.43.06-.6.62-.89.84l-.05-.12c-.69.76-.5 1-1.29 1.74h.14c-.22.63-.47.24-.74.82l-.34-.08c-.23.33-.78 1.18-1.24 1.73a9.89 9.89 0 0 1 .91-1.57 4.76 4.76 0 0 0-1 1.21 1.26 1.26 0 0 1 .32-.4 4.48 4.48 0 0 1-1.1 1.59c-.31-.51-1.55 1.34-2.27 1.43a36.62 36.62 0 0 1-3.13 3c.72-.09-.33.34.07.59-.25.29-.35.39-.4.39l-1 .61c-.28.1.18-.32.09-.37-.61.56-.39.11-.86.41.2 0 0 .37-.41.65l.62-.31c-.65 1-1 .43-1.63 1.42l.16-.36c-.37.48-1.56 1.55-1.71 2.23-.12 0-.3 0-.14-.17-1.05 1-2 2.52-2.91 3.15v-.16c-.17.21-.18.48-.5.63 0 0 0-.15-.09-.07a2.74 2.74 0 0 1-.66.84l.13-.3c-1.09.88-1.29 1.72-2.06 2.6-.24-.23-1.08.46-1.51.81a33.74 33.74 0 0 0-2.72 3.28c-.91.41-2.33 2.13-3.53 3 .2-.12.16.21 0 .42s-.52.85-.7.6l.1-.09c-.4 0-.86.54-1.26.94l.22.34a4.7 4.7 0 0 0-1.42 1.11h2.69l.1-.16c-.11 0-.06-.14-.08-.18a6.09 6.09 0 0 0 1.42-1.3v.2c.86-.8 1.7-1.81 2.64-2.74-.39.28-.51 0-.25-.28l.28.06c.07-.28-.35.22-.12-.27.37-.33.43 0 .29.22l.36-.49c.08 0 0 .15 0 .25.06-.28.9-.56 1-1h.07c.94-.94 1.3-1.42 2-2.19-.13-.16.2-.43.31-.77a25.3 25.3 0 0 0 2-1.7c.4-.55 0-.27.14-.57.17.1.83-.58.58-.14a28.21 28.21 0 0 0 1.91-2.19c-.16 0-.31.16-.29 0s.48-.36.52-.27v.06c.94-1.35 3.05-2.25 3.68-3.45v.07l.8-1.1c.46-.41-.16.37.25.13.79-1.25 1.64-1.58 2.34-2.58 1.05-.25 2.28-2.34 3.42-3h-.15c.14-.32.33-.23.52-.37-.1 0-.33.16-.24 0 1.81-2 4.11-3.84 6.17-5.73.75-.7-.08-.9 1.06-1.58l-.09.43c1.25-1.67 3-3 4.24-4.58 0 .13 0 .18-.14.32.43-.17 1.13-1.1 1-1.21.23-.21.14 0 .33-.05.38-.22.6-.92.88-.95.05 0 0 .13-.08.19.13-.26.93-.9.59-.86.61-.47 1-1.09 1.48-1.43.11-.44 1-.84.85-1.16.2.28 1.13-.74 1.36-1.19 0 .18.37-.22.33 0 .39-.39.7-.79.51-.84 1-.43 1.2-1.67 2-1.7 1-1.28 2-2.43 3-3.51.21.27-1.11 1.16-.82 1.37a19.06 19.06 0 0 1 2.27-2.76c.29-.22 0 .24-.08.37.88-1.08 1.91-1.87 2.65-2.87 0 0-.05.14-.12.25.17-.18.44-.37.31-.46l-.14.2c-.43.12.35-1 .3-1.12 0 .6.94-.79.87.07.09-.13.18-.33.08-.37.19-.15.29-.16.2.09.56-.67.22-.57.78-1.12.05 0 0 .18 0 .3a2.93 2.93 0 0 1 .88-1.19c0 .06.1 0 0 .18a19.29 19.29 0 0 1 2.02-2.34c0 .49.37-.23.62-.08l.42-.54-.29.1A3.57 3.57 0 0 0 264 62zM262.05 87.26c.66-.83 1.31-1.6 1.95-2.34v-2.24a14.94 14.94 0 0 1-1.51 1.74l.33-.22c0 .24-.52.55-.75.88-.07-.13-.29 0-.47.06.09.06-.64.62-.51.91l-.52.24c-.75.64-.49 1.1-1.19 1.73.08-.32-.3-.09.07-.62-.22.22-.44.41-.37.48-.2.07-.48.76-.79.87 0 .14 0 .28-.22.52h-.05c.05 0-.33.46 0 .36-1 .35-1.9 1.94-2.77 2.25-.46.53-1 1.15-1.44 1.6v-.13c-.7.51-.07.67-.87 1.26-.53.18.27-.46 0-.3-.44-.25-.79.88-1.46 1.14l.09-.13c-.47.24-.74 1-1.34 1.56 0 0 0-.06-.05-.06a9.23 9.23 0 0 1-1.43 2c0-.31.18-.33-.06-.36-.23.27.29.15-.17.69-.24.09-.66.39-.86.29l.47-.48c-.44 0-.61.62-.89.83l-.05-.11c-.7.75-.5 1-1.3 1.73h.15c-.22.64-.48.24-.75.82l-.33-.08c-.24.33-.79 1.19-1.25 1.73a9.89 9.89 0 0 1 .91-1.57 4.93 4.93 0 0 0-1 1.21 1.26 1.26 0 0 1 .32-.4 4.2 4.2 0 0 1-1.1 1.59c-.31-.51-1.55 1.34-2.27 1.43a36.62 36.62 0 0 1-3.13 3.05c.72-.09-.32.34.07.6-.24.29-.35.38-.39.38l-1 .62c-.28.09.19-.33.09-.38-.61.56-.38.11-.86.41.2 0 0 .37-.41.66l.62-.32c-.64 1-1 .43-1.63 1.42l.16-.36c-.36.48-1.56 1.56-1.71 2.23-.11 0-.3.05-.14-.16-1 1-2 2.52-2.91 3.14v-.16c-.16.22-.18.48-.49.64 0 0 0-.16-.1-.08a2.84 2.84 0 0 1-.65.84l.12-.3a6.29 6.29 0 0 0-1.4 1.7h2.28c.58-.62.85-.92 1.65-1.91-.17.06-.32.16-.3 0s.48-.37.52-.28v.07c1-1.35 3.05-2.26 3.68-3.45v.06l.8-1.09c.46-.41-.16.36.25.12.8-1.25 1.65-1.58 2.34-2.57 1.05-.25 2.28-2.34 3.42-3h-.15c.14-.32.33-.22.52-.37-.09-.05-.33.16-.24 0 1.81-2 4.11-3.84 6.17-5.73.75-.69-.08-.89 1.06-1.58l-.08.44c1.24-1.67 3-3 4.23-4.58 0 .12 0 .18-.13.32.43-.18 1.12-1.11 1-1.22.23-.21.15 0 .34 0 .37-.23.59-.92.88-1 0 0 0 .13-.09.19.13-.25.93-.9.6-.86.6-.46 1-1.09 1.47-1.43.11-.44 1-.83.85-1.15.2.27 1.13-.75 1.36-1.2 0 .19.37-.22.34 0 .38-.39.69-.78.5-.84 1-.48 1.2-1.71 1.97-1.75zM264 107.74v-2.15c-.32.21-.65.92-1.17 1.13l.1-.14c-.48.24-.74 1-1.35 1.56 0 0 0-.06-.05 0a9.44 9.44 0 0 1-1.43 2c0-.31.19-.32-.06-.35-.23.27.3.14-.17.68-.23.09-.66.39-.85.29l.46-.48c-.43 0-.61.62-.89.84V111c-.7.75-.5 1-1.29 1.74h.14c-.22.63-.47.24-.74.82l-.34-.08a21.08 21.08 0 0 1-1.25 1.72 9.19 9.19 0 0 1 .92-1.56 4.82 4.82 0 0 0-1 1.21 1.33 1.33 0 0 1 .33-.41 4.36 4.36 0 0 1-1.11 1.59c-.3-.5-1.54 1.35-2.26 1.43a21.55 21.55 0 0 1-2.68 2.62h2.64a3.82 3.82 0 0 1 .82-.65h-.14c.13-.32.33-.22.52-.36-.1 0-.34.16-.25 0 1.82-2 4.12-3.84 6.18-5.73.74-.7-.08-.9 1.05-1.58l-.13.24c1.19-1.53 2.78-2.79 4-4.26z"/></g><g id="Button"><path d="M277.67 144h-91.34A10.32 10.32 0 0 1 176 133.67V58.33A10.32 10.32 0 0 1 186.33 48h91.34A10.32 10.32 0 0 1 288 58.33v75.34A10.32 10.32 0 0 1 277.67 144z" fill="#00d1b4"/><path class="cls-2" d="M220 122a2 2 0 0 1-1.41-.59l-24-24a2 2 0 0 1 0-2.82l24-24a2 2 0 0 1 2.82 2.82L198.83 96l22.58 22.59A2 2 0 0 1 220 122zM244 122a2 2 0 0 1-1.41-3.41L265.17 96l-22.58-22.59a2 2 0 0 1 2.82-2.82l24 24a2 2 0 0 1 0 2.82l-24 24a2 2 0 0 1-1.41.59z"/></g><g id="Veronica"><path d="M504.86 259.05a24.36 24.36 0 0 1-6.33 4.37c-8.68 4-16.14.48-20.67 4.77s-3.9 18.27-20 18.75S439 276.75 438.51 268c-.44-8.25 1.88-30.76.46-43.16v-.06c-.26 3-2.37 13.76-19.24 14.26-13.26.39-18.06-4.4-19.78-7.56l.3-8.65c-7.43.51-16.69 5.1-19.75 10-3.23 5.21-24.9 22.13-40.58 8.69a49.34 49.34 0 0 0-5.11 6.52c-3.9 6-15.47 30.39-26.39 54.06h49.45l44 98H438v6.9l31 .13 16.88-86.52s14.13 25.31 13 37.68-21.16 48.84-21.16 48.84h39.36s24.55-34.78 26.86-52.78c1.63-12.85-21.78-64.17-39.08-95.3z" fill="#6786f6"/><path class="cls-12" d="M401.83 399.99l3.59 7.01H438v-7.01h-36.17z"/><path class="cls-13" d="M405.42 407l-47.56-105H182l47.57 105h175.85z"/><path d="M207 377.89a75.65 75.65 0 0 0-36.75 3.45s-2.81 1.69 0 3.58a5.07 5.07 0 0 0 2.09.52.93.93 0 0 0 .4 1c1.22 1 5.37.74 5.37.74 3.27-.12 11.28.17 16.23.38a4.26 4.26 0 0 1 3.94 3.12c1.06 3.92 1 8.85-1.85 9.92-3.88 1.48-14.66.9-15.31 6.37h48.45l-14.14-30.51z" fill="#ffe5e2"/><path class="cls-13" d="M196.43 400.63c2.82-1.07 2.91-6 1.85-9.92a4.26 4.26 0 0 0-3.94-3.12c-5-.21-13-.5-16.23-.38 0 0-4.15.24-5.37-.74a.93.93 0 0 1-.4-1 5.07 5.07 0 0 1-2.09-.52 3.43 3.43 0 0 1-.71-.6c-8.09 1.45-16.6 7.65-18.09 11.78-1.72 4.76 1.51 10.9 8.81 10.9h20.86c.65-5.5 11.43-4.92 15.31-6.4z"/><path class="cls-12" d="M196.43 400.63c2.82-1.07 2.91-6 1.85-9.92 0-.07-.05-.14-.08-.22-10.45-.35-17.68 8.11-20.59 13.72-1.17 2.24-4 2.31-7.12 2.79h10.63c.65-5.47 11.43-4.89 15.31-6.37z"/><path d="M400.25 222.7c-7.43.51-16.7 5.1-19.76 10-3.44 5.54-27.77 24.36-43.53 5.71s3.78-42.56 15.68-56.72 10.54-53.67 19-76.24S406 84.17 406 84.17s27.86-12.33 46.67 5.4 26 38.62 23.81 72.7S503 216 511.73 233.55c6 12.2-4.52 25.77-13.2 29.74s-16.14.48-20.67 4.77-3.9 18.27-20 18.75-18.86-10.19-19.35-18.93c-.44-8.25 1.88-30.76.46-43.16-.09-.75-.19-1.45-.3-2.12-1.69-9.9-9.37-27.76-11.77-33.18a37.65 37.65 0 0 0 5.05-3.61c5.66-4.83 10.32-11.73 13.09-20.9a12.85 12.85 0 0 0 2.06.35 12.69 12.69 0 0 0 13.77-11.41 12.55 12.55 0 0 0-11.71-13.4h-1.05c-1.48.06-2.39.06-2.39.06a44.3 44.3 0 0 1-9.79-.83 37.84 37.84 0 0 1-4.26-1.12 34.14 34.14 0 0 1-3.86-1.55 32.57 32.57 0 0 1-6.6-4.16 35.15 35.15 0 0 1-5.11-5.17l-.12-.15c-.77-1-1.48-2-2.15-3s-1.3-2.07-1.88-3.13a52.66 52.66 0 0 1-3-6.56c-.21-.55-.41-1.11-.6-1.67a66.8 66.8 0 0 1-1.88-6.62c-.12-.51-.23-1-.33-1.51v-.09a68.78 68.78 0 0 1-.59-3.15q-.81.15-1.59.33t-1.5.39c-17 4.84-23.91 22-24.21 42.81-.34 24.22 6.67 44.51 23 48.5" stroke-miterlimit="10" fill="#ff7c6e" stroke="#ff7c6e" stroke-width=".57"/><path d="M459.75 147.68a12.12 12.12 0 0 1 1.12 6.17 12.69 12.69 0 0 1-13.77 11.41 12.85 12.85 0 0 1-2.06-.35c-2.77 9.17-7.43 16.07-13.09 20.9a37.65 37.65 0 0 1-5.05 3.61l2 4.57c.34-.19.68-.37 1-.57a37.33 37.33 0 0 0 8.26-6.7l.1-.12q.56-.6 1.08-1.23a3.47 3.47 0 0 0 .25-.29l.9-1.13.31-.41.79-1.08.35-.51.69-1.06.37-.59.63-1.07.37-.65.58-1.08.36-.7.53-1.13.34-.73.51-1.2.3-.73.5-1.35.24-.66c.24-.68.47-1.38.68-2.09a12.85 12.85 0 0 0 2.06.35 12.69 12.69 0 0 0 13.77-11.41 12.24 12.24 0 0 0-4.12-10.17z" fill="#d97c6f"/><path class="cls-17" d="M426.9 189.42a36.56 36.56 0 0 1-13.08 4.69c-.7.1-1.41.19-2.12.26-.71.06-1.42.11-2.13.14h-2.37c-.65 0-1.3-.05-1.94-.1a25.11 25.11 0 0 1-4-.64l-.41 11.84-.59 17.07-.3 8.79c1.72 3.16 6.52 7.95 19.78 7.56 17-.51 19-11.43 19.25-14.34-.09-.75-.19-1.44-.3-2.11-1.69-9.88-9.39-27.74-11.79-33.16z"/><path class="cls-17" d="M449.16 140.45h-1.05c-1.48.06-2.39.06-2.39.06a47.21 47.21 0 0 1-5.11-.16 39.33 39.33 0 0 1-4.68-.67c-.38-.07-.73-.17-1.09-.25-.73-.17-1.44-.36-2.13-.56l-1-.31a34 34 0 0 1-10.53-5.78c-.46-.37-.9-.75-1.33-1.15s-.74-.69-1.1-1l-.21-.21a35.76 35.76 0 0 1-2.4-2.69l-.12-.15-.56-.73a41.27 41.27 0 0 1-2.56-3.79c-.32-.52-.62-1-.91-1.58a51.46 51.46 0 0 1-1.6-3.25 62.74 62.74 0 0 1-3.85-11.59 72.5 72.5 0 0 1-.94-4.74q-.81.15-1.59.33t-1.5.39c-.51.15-1 .31-1.49.47h-.1q-.7.24-1.38.51l-.15.07c-.44.17-.86.36-1.28.55l-.19.09c-.41.19-.81.39-1.21.6l-.2.11-1.15.65-.19.12c-.38.23-.74.47-1.1.71l-.19.13c-.36.25-.71.51-1 .77l-.17.13c-.35.27-.69.55-1 .83l-.14.12q-.51.43-1 .9a.94.94 0 0 0-.1.1q-.5.48-1 1a34 34 0 0 0-5.88 8.76l-.1.21c-.18.38-.34.76-.51 1.15l-.17.38-.43 1.08-.19.49c-.13.34-.25.69-.38 1l-.2.58-.32 1-.2.65-.29 1-.19.72-.25 1-.18.77c-.07.32-.15.64-.21 1s-.12.54-.17.81l-.19 1-.15.87-.15.94-.14.92-.13.93-.11 1c-.03.35-.08.61-.11.91l-.1 1c-.04.31-.05.58-.07.87l-.08 1.14-.06.8-.06 1.31v.66c0 .66 0 1.33-.05 2-.37 26.1 7.81 47.64 27 49.14.64 0 1.29.08 1.94.1h2.37c.71 0 1.42-.08 2.13-.14.71-.07 1.42-.16 2.12-.26a36.56 36.56 0 0 0 13.08-4.69 37.33 37.33 0 0 0 8.26-6.7l.1-.12q.56-.6 1.08-1.23a3.47 3.47 0 0 0 .25-.29l.9-1.13.31-.41.79-1.08.35-.51.69-1.06.37-.59.63-1.07.37-.65.58-1.08.36-.7.53-1.13.34-.73.51-1.2.3-.73.5-1.35.24-.66c.24-.68.47-1.38.68-2.09a12.85 12.85 0 0 0 2.06.35 12.69 12.69 0 0 0 13.77-11.41 12.55 12.55 0 0 0-11.85-13.56z"/><path d="M426.9 189.42a36.56 36.56 0 0 1-13.08 4.69c-.7.1-1.41.19-2.12.26-.71.06-1.42.11-2.13.14h-2.37c-.65 0-1.3-.05-1.94-.1a25.11 25.11 0 0 1-4-.64l-.1 3a23.59 23.59 0 0 0 7.07 1.64c.64 0 1.29.08 1.94.1h2.37c.71 0 1.42-.08 2.13-.14.71-.07 1.42-.16 2.12-.26a36.73 36.73 0 0 0 12.09-4.11c-.81-1.92-1.5-3.5-1.98-4.58z" fill="#e6bbb6"/><path d="M447.18 158.35s7.55 1.25 8-5.2-6.52-6.41-6.52-6.41" stroke="#e6bbb6" stroke-linecap="round" stroke-miterlimit="10" fill="none"/><path class="cls-2" d="M286.4 342s-2.3-9 4.19-12a11.12 11.12 0 0 1-4.19 12zM298.35 355.82c-3.9 0-7.06-2.42-7.06-5.41a4.88 4.88 0 0 1 2.16-3.88A18.5 18.5 0 0 0 286 345c-8.28 0-15 5.15-15 11.5s6.72 11.5 15 11.5 15-3 15-11.5a9 9 0 0 0-.07-1.05 9 9 0 0 1-2.58.37z"/><path class="cls-20" d="M466.24 407.13s1.87-102.85 4.31-110.45l15.33 23.93L469 407.13z"/><path class="cls-9" d="M403.77 104c.07.44.39.14.62.2.19.5-.23.29-.38.5.15.31.53.5.57.74-.06 0-.07.09-.15.05.35.28.22 1 .66 1.34a.13.13 0 0 1-.08.07 1.37 1.37 0 0 1 .49-.17c0 .19.31.31.09.43 0-.12-.12-.1-.21-.14l.15.18c-.29.25-.18-.25-.43-.2.2.37.59.77.57 1.09-.32.15-.28-.68-.48-.21v-.5c-.44.48 0-.29-.52.17.06.64.34.66.39 1.3.21.09.26-.11.47 0 .56.78-.64.9 0 1.43.26.11.69.06.6.57h-.41c.12.61.63.19.56.88-.18-.07-.26-.43-.28-.33-.17.49.3.22.39.53l-.3.16c.24.62.68 1.24 1 1.9-.11 0-.25-.09-.29.11a9.07 9.07 0 0 1 .77 2.76l.4.21c0 .07-.07.19-.16.13 0 .36.18-.06.35 0s-.06.31-.19.23a3.53 3.53 0 0 1 1.17 2.09l-.13-.07c.1.51.79.25.75.78l-.09-.06c.37 1 1.16 2 1.21 2.9.44-.08.38 1 .92.79.08.68-.1.58.22 1.43.1.21.5.09.71.3l-.26.18.49.14-.19.39.23.18c-.05-.1 0-.27 0-.31a1 1 0 0 1 .33 1.06l.82.66c-.12 0-.25-.06-.39-.11.57.24-.2.27.32.49 0-.09.17-.08.22-.11 0 .31.38.74.71 1l-.22.07a16.47 16.47 0 0 0 1.71 1.75.26.26 0 0 1 .37-.34l-.16.3c.25 0-.1-.27.31-.21.19.25-.12.41-.32.36l.35.19c-.05.08-.15.06-.26.13.26 0 .24.7.65.62l-.05.08a14.11 14.11 0 0 0 1.52 1.2c.19-.21.35 0 .65 0a4.78 4.78 0 0 0 1.14 1.26c.42.14.24-.12.49-.14-.13.23.38.57 0 .53a5.53 5.53 0 0 0 1.67.84c0-.14-.1-.24 0-.28s.26.29.18.38H423a2.79 2.79 0 0 1 1.36 1 1.73 1.73 0 0 0 1.33.75h-.05l.88.13c.34.22-.29.07-.1.35 1 .05 1.31.65 2.13.68.13.46.63.65 1.15.81a2.87 2.87 0 0 1 1.42.57V140c.25-.1.21.17.35.26 0-.14-.17-.22 0-.28a22.56 22.56 0 0 1 2.56.76 22.57 22.57 0 0 0 2.59.88c.65.14.51-.86 1.26-.33l-.28.3a6.69 6.69 0 0 1 2 .08 7.29 7.29 0 0 0 2 0c-.08.07-.09.17-.22.16.26.25 1 .07 1-.13.19 0 0 .18.15.29s.69-.26.83 0c0 0-.08.07-.13.09.18-.12.82 0 .66-.25.47.13.91-.13 1.29 0 .24-.32.82.14.89-.3 0 .45.84.35 1.13.14-.09.13.27.14.16.33.35 0 .66-.12.59-.35.65.5 1.24-.52 1.63.14 1-.32 1.93-.52 2.83-.73 0 .47-1 .14-.92.6.86-.23 1.3-.72 2.17-.7.23 0-.1.21-.17.29.84-.29 1.67-.17 2.4-.51 0 0-.07.1-.14.14.15 0 .36 0 .31-.17l-.14.07c-.28-.27.51-.69.51-.86-.17.62.76 0 .48.82.09-.06.2-.18.16-.31.15 0 .21.09.08.27.52-.21.3-.39.78-.47 0 .1-.08.15-.11.28a1 1 0 0 1 .85-.46c0 .06.05.13-.07.15.7-.16 1.1-.71 1.9-.68-.14.47.29.08.41.44l.38-.2-.2-.14c.36-.08.62-.42 1-.37l-.24.21.66-.22h-.41c.32-.27-.14-.45.36-.46-.09.06.35-.07.59.1a.66.66 0 0 1 .59-.29c.09.1 0 .42.1.48.11-.33.82-.27 1-.66a.38.38 0 0 0 0 .32l.09-.29c.18 0 .21.07.23.22.5-.08-.28-.41.36-.37 0 0 0 .06-.1.12.62 0 1.1-.46 1.67-.48.26.32-.45.21-.18.47a21.44 21.44 0 0 1 2.26-1h-.15c-.05-.54.63.08.94-.28-.08.07 0 .32 0 .26a5.63 5.63 0 0 0 1.73-.86v.16a7.93 7.93 0 0 0 1.15-.26c.05-.16.24-.2.07-.35 1.25.38 1.75-1 2.84-.79-.11.05-.21.21-.13.18l.7-.4c-.14-.2-.15-.1-.37-.2a.72.72 0 0 1 .4-.42c-.28.27.14.35.33.41 0-.06 0-.15-.07-.21.54.23-.1-.46.52-.4v.12c.18-.13.3-.35.52-.41.19.21-.16.21-.09.41.29-.13.39-.71.76-.57-.1.12-.28.19-.38.32a.71.71 0 0 0 .65 0l.56-.08h-.16c.1-.8.7-.44 1-1.06-.31.6 0 .26.1.55.16 0 .39 0 .37.13.14-.33.47 0 .66-.48.05.09.25-.1.3.15.27-.21-.14-.13-.17-.25.33-.52 1.28-.12 1.75-.86.49-.45.46-.79.91-1.19.25.05 0 .38 0 .38a1 1 0 0 0 .78-.38c0 .11.07.14.2.2.21-.13 0-.39.34-.41a1.25 1.25 0 0 1 0 .46c.22-.21.39-.5.61-.71.15.11 0 .31-.08.45.26-.21.69-.54.66-.82H486c.1-.07.17.18.11.26-.15.33-.41.12-.47 0l.16-.16c-.45-.4-.71.47-1.1.63v-.45l-.23.51c-.13-.06-.29-.23-.13-.39-.36 0-.17.26-.51.17v-.07l-.21.24c0-.1-.18-.24 0-.27-.58 0-.63.65-.95.46v-.05c-.6.45.07.31-.27.87l-.66-.52.06.31c-.07 0-.22.06-.24-.06-.17.3.1.1 0 .34-.45-.1-.87.54-1.14.13 0 .26.39 0 .1.32-.31-.43-.38.27-.78.19 0-.29.33-.29-.07-.37 0 .5-.64.16-.86.35.13.34-.5.37-.89.67 0-.13-.89.16-1.35.19v-.06c.05.37-.4.47-.68.66a.43.43 0 0 1 .09-.47l-.29.11a.46.46 0 0 1-.26.34v-.28c-.38.16-.66.6-1.21.62.05.25.64.52.17.88-.07-.13-.17-.34-.05-.44 0 0-.12.16-.23.14l.13-.3c-.27 0-.06.23-.25.27-.06-.19-.18-.08-.21-.24s.19 0 .23-.08a.87.87 0 0 1-.63-.09c.05.1.09.25-.06.32-.38.15-.21-.17-.47-.19 0 .16-.34.11-.25.4-.12 0-.18-.09-.25-.15-.16.19-.93.36-.6.58h.06c-.57.52-1.44.29-2.06.62v-.1c-.36.23-.86.34-1.08.63-.12 0-.33-.08-.31-.21-.28.16-.28.28-.77.25.26-.25-.14-.11.28-.21-.42 0-.55-.1-.9.28.07-.28-.39-.23-.55-.11l.32.1a1.87 1.87 0 0 1-.58.16v-.35c-.91-.18-1.29 1.06-2.07.57-.16.28.48 0 .35.35-.38.07-.89-.32-1-.29-.56-.07-.37.58-.94.58.1.1.23.39-.15.59-.39 0-.57-.38-.35-.53s.14 0 .14 0 .26-.15.08-.25v.13c-.21-.07-.73.05-.65-.16-.26.17-.08.21.15.23-.52-.06-.76.16-1.28.16.1 0 .2.17.12.18-.76 0-.28.29-.77.44-.32-.13 0-.45-.45-.21-.33-.06-.13-.3 0-.41-.42.3-.88 0-1.15 0l.23-.14a1 1 0 0 1-.37.12l.17.21c-.14 0-.26 0-.28-.09-.12.17.18.37-.07.63-.21-.09-.55.23-.67-.07.61 0-.12-.3.37-.44a.54.54 0 0 1-.35.05v-.09c-.61-.18-.2.4-.79.5a.22.22 0 0 0-.27-.26c.23 0 .16.28 0 .44-.4-.08-.4.16-.6.17h.24c-.05.19-.25.19-.51.28 0-.14.23-.13.13-.18-.25.35-.71-.23-1.09 0-.2-.1-.06-.33-.24-.39-.43.29-.52-.18-1 .07.17.22.19.16-.13.43l.78-.26-.47.41c.24 0 .49-.22.63-.2-.22.23-.2.17-.06.35-.37-.32-.63.29-1 .1V139c-.59-.18-1 .41-1.73.31l.24.09c-.08.24-.45.06-.68.18 0-.2-.15-.26-.27-.38 0 .15-.54 0-.58.43l-.35-.24c-.6-.06-.65.61-1.23.58.16-.22-.11-.34.27-.52-.19 0-.36 0-.36.12-.12-.11-.52.29-.71.1-.08.09-.1.3-.32.28a.12.12 0 0 1 0-.09c0 .09-.33.13-.14.35-.61-.61-1.67.06-2.19-.46a13 13 0 0 1-1.31.16c0-.06 0-.1.07-.08-.52-.21-.34.55-.93.31-.29-.34.32-.15.14-.28-.06-.66-.73 0-1.11-.36h.1c-.29-.24-.76.2-1.26.13a.13.13 0 0 0 0-.1 2.61 2.61 0 0 1-1.52.37c.18-.23.23-.11.17-.38-.22 0 0 .42-.42.44-.13-.16-.42-.32-.43-.6h.41c-.16-.38-.52-.06-.73-.15l.05-.15c-.62 0-.69.36-1.35.23l.05.13c-.44.31-.27-.28-.68-.07v-.41a7.35 7.35 0 0 1-1.35.17 3.8 3.8 0 0 1 1.17-.37c-.23-.06-.79-.15-1 0 .1 0 .24-.08.32 0a1.51 1.51 0 0 1-1.24.19c.27-.69-1.15-.51-1.31-1.19A6.87 6.87 0 0 1 430 137c.1.69-.27-.09-.44.5-.23-.05-.3-.09-.31-.13l-.5-.6c-.08-.22.26 0 .29-.18-.44-.22-.09-.31-.32-.58 0 .22-.29.23-.51 0a4.06 4.06 0 0 0 .25.41c-.78 0-.32-.72-1.08-.73l.28-.07c-.37-.06-1.16-.59-1.7-.32 0-.09 0-.27.14-.24-.7-.46-1.89-.53-2.3-1.13l.14-.09c-.16-.05-.39.09-.48-.14.05-.05.14-.09.09-.14s-.49 0-.61-.23h.24c-.55-.65-1.26-.43-1.9-.77.26-.33-.13-.88-.33-1.14-.68-.67-1.49-.78-2.23-1.32-.06-.73-1.2-1.47-1.55-2.35 0 .15-.28.21-.42.11s-.61-.25-.28-.48v.06c.21-.37-.16-.62-.35-.9l-.45.28c.09-1.17-1.63-1.7-1.31-2.51-.23-.11-.37-.33-.6-.44l.25-.14a8.78 8.78 0 0 0-.82-1.39h.25c-.19-.36-1 0-1.18-.36l.31-.31c-.38-.62-.37-1.45-1-1.91h.24c-.14-.31-.33-1.3-.8-.94.34-.17-.27-.7-.58-1l.27-.06c-.46-.15-.55-.12-.83-.51 0-.12.17-.18.16 0 0-.4-.37-.16-.39-.63l.22.08c-.12-.36-.2-.29-.46-.41a.65.65 0 0 1 0-.84c-.16 0-.43-.11-.44-.34.07-.06.16 0 .2 0-.06-.65-.62-.77-.52-1.27a.25.25 0 0 0 .14-.13 4.75 4.75 0 0 1 .24.83c.24-.09.15-.48.59-.3-.29-.24-.86-.62-.88-1a.25.25 0 0 1 .07-.08.37.37 0 0 0-.12-.22 1.15 1.15 0 0 0 0-.33c.18-.11 0-.48-.08-.67-.26.1-.3-.17-.45.14 0 0 .05 0 .1.15s0 .06.05.07l.18.47c-.19-.11-.36-.23-.27-.49a5 5 0 0 1-.52-.14c.29-.38.34-1 .55-1.09-.34-.54-.5-1.36-1.11-1.6-.11-.16.09-.24.15-.32.08.08.11.2.19.23-.22-.3-.32-1-.69-1 .06-.47.38.16.19-.42h.12c.3-1.28-1.36-1.69-.88-3.16 0 .1 0 .15-.09.18 0-1.55-.87-3-.53-4.6.06-.44-.18-.45-.39-.69l.29-.13-.4-.4c-.32-.61.63-1.16.08-1.91l-.19.12c0-.29-.19-.9 0-.87 0 0-.22-.08-.12-.2h.16l-.31-.69c.09-.55.62 0 .63-.73-.08-.3-.48-.82-.58-.71s-.1.3-.26.31l-.08-.27c-.47-.05-1-.27-1.26.44l.3.47-.22.17v-.41c-.21.24 0 .38.12.53a.4.4 0 0 0-.24.22l.47.44c-.18.07-.37-.19-.46.13.23.21.4-.23.56.12-.2.24-.38.19-.18.44-.11 0-.19 0-.25-.11.16.23.1.63.36.73-.24.26.13.79-.31.81a1.29 1.29 0 0 1 .43.6c-.57-.35.05.81-.52.77.49.24.34 1 .66 1.52 0 0-.12-.07-.1-.12 0 .29-.14.4-.2.6.39 0 .55.42.83.63-.32.41-.49-.15-.83 0 .31-.07.4.57.65.41-.19.3-.08.25-.38.44.49 0 .12.24.46.42-.17.43-.43.17-.21.58-.1.35-.33-.02-.33-.02zm3.39 9.89l-.08-.2zm.29.82a2.36 2.36 0 0 0-.11-.36c.08-.06.18-.06.21 0s-.06.23-.1.38zm1.25-2.34c.08.11 0 .17 0 .21l-.1-.22a.25.25 0 0 1 .1.03zM398.49 245.41c.14.07.21-.3.33-.48.21 0 0 .29-.05.49.15 0 .37-.32.44-.28s0 .09-.06.15c.23-.22.34.13.62-.16v.1a4.29 4.29 0 0 1 .17-.48c.07 0 .21-.17.14.07l-.12.12.11-.06c-.08.34-.14.07-.24.31.17-.05.43-.26.5-.12-.11.32-.28 0-.26.34l-.11-.19c-.09.55-.08-.07-.19.5.17.18.3-.06.46.12.12-.16.09-.27.21-.42.41-.2-.09.89.29.55.14-.19.32-.58.39-.31l-.19.34c.19.1.31-.48.43-.16-.09.13-.2.06-.19.11 0 .34.18-.16.28-.13l-.1.33c.24 0 .56-.12.81-.09 0 .09-.12.18-.1.3.36-.06.63.28.86.55l.21-.24v.18c0 .04.06-.17.15-.27s0 .19 0 .26c.28-.17.73-.33.86 0l-.07.07c.13.17.36-.52.43-.21.32.23.79.1.95.59.16-.4.32.27.49-.3.14.34.05.43.3.69.07 0 .2-.33.32-.37l-.07.3.2-.28v.37l.11-.05a.3.3 0 0 1 0-.24c.17-.1.3.29.27.45l.39-.17c0 .12-.1.14-.16.21.25-.26 0 .32.19.08a.62.62 0 0 1 .07-.23.28.28 0 0 0 .39.19l-.07.2c.25.1.56 0 .84 0-.08-.12 0-.48.1-.5v.33c.09-.19-.06-.14.09-.36.1.05 0 .38-.07.47l.15-.09a1.86 1.86 0 0 1-.08.26c.09-.19.17.37.31 0v.1c.29.05.43 0 .67 0 .05-.28.13-.2.23-.42.16.12.32.38.53.38s.07-.23.16-.39c0 .25.19.25.06.42a1.25 1.25 0 0 0 .66-.2c0-.1-.06-.15 0-.24s.12.12.1.24c.39-.35.75.82 1.08.32l.32-.25c.13.06-.1.19 0 .35.35-.4.5.12.77-.16.17.76.73 0 1 .45v-.18c.08-.17.09.1.14.14 0-.14-.08-.16 0-.25.6-.21 1.23.27 1.86.44.23.05.1-.92.4-.51l-.07.33c.44-.43.93 0 1.36-.42 0 .07 0 .17-.06.18.11.23.35 0 .33-.21.07 0 0 .17.08.27s.21-.33.29-.09a.12.12 0 0 1 0 .1c.05-.12.29 0 .2-.27.18.12.31-.14.46 0 0-.32.3.12.28-.31 0 .45.33.34.41.1 0 .14.11.12.09.32.12 0 .22-.13.17-.36.29.5.37-.5.6.16a4.06 4.06 0 0 1 .91-.68c.06.45-.34.11-.25.57.27-.24.37-.65.69-.59.09.05 0 .2 0 .28.26-.24.59-.06.8-.35a.21.21 0 0 1 0 .13c.05 0 .14 0 .09-.16v.07c-.15-.28.07-.65.05-.8 0 .6.28.07.31.83a.35.35 0 0 0 0-.28c.06 0 .09.1.08.26.15-.16 0-.35.21-.39a2.24 2.24 0 0 1 0 .26c0-.21.08-.42.24-.38s0 .13 0 .14c.23-.1.28-.62.59-.51 0 .44.12.11.24.47l.11-.15-.11-.16c.13 0 .16-.32.3-.23l-.05.17.22-.13-.18-.1c.08-.22-.14-.45.05-.4 0 0 .12 0 .25.17 0-.13.05-.27.17-.21s.1.4.14.47c0-.31.27-.16.24-.5a1.16 1.16 0 0 0 .08.31v-.26c.08.06.1.1.14.25.19 0-.2-.44.07-.3v.1c.23 0 .34-.25.56-.21.18.34-.13.15 0 .43.24-.17.39-.65.67-.66h-.06c-.15-.51.28.17.32-.12 0 .05.06.29.05.23.2 0 .31-.26.51-.52v.14c.14.07.29 0 .43 0 0-.14.05-.15-.07-.32.65.58.48-.64 1-.17v.14l.21-.22c-.12-.21-.09-.12-.22-.26s0-.26.06-.29c0 .19.16.34.26.44l-.08-.21c.3.32-.18-.43.12-.25v.11c0-.08 0-.26.12-.27.14.23 0 .15.07.36.09-.07 0-.57.18-.37 0 .09-.07.12-.08.21.23.23.21.15.3.16h.23l-.08-.05c-.18-.69.2-.25.16-.75 0 .48.08.24.21.52.08.05.19.1.21.19 0-.27.22.1.16-.28.05.08.09 0 .19.19.06-.13-.11-.14-.15-.25 0-.38.56.15.57-.37.1-.27 0-.58.08-.82.14.1.12.34.12.34.17.07.23 0 .27-.14a.51.51 0 0 0 .16.22c.06-.07-.13-.34 0-.27a2.78 2.78 0 0 1 .12.38c.05-.12 0-.33.09-.45.11.13.07.25.1.36a.54.54 0 0 0 .08-.52l-.12-.05s.14.19.14.25c0 .23-.17 0-.23-.1v-.09c-.35-.45-.21.22-.35.26l-.16-.39v.38c-.08-.08-.21-.28-.18-.36-.19-.13 0 .17-.2 0v-.06.15c0-.08-.16-.25-.07-.22-.28-.13-.11.41-.32.17-.16.24.12.28.13.68l-.47-.6.12.28s-.08 0-.13-.11c0 .23.07.11.12.31-.24-.18-.25.28-.5-.13.07.22.19.1.15.31-.28-.45-.1.15-.31 0s.07-.18-.14-.34c.14.44-.24 0-.29.14.16.32-.11.23-.2.42-.05-.12-.35 0-.54-.09v-.06c.13.34 0 .34-.11.45a.63.63 0 0 1-.09-.4h-.1a.29.29 0 0 1 0 .25l-.09-.26c-.12.07-.13.4-.37.3.09.24.42.6.31.83-.07-.12-.17-.34-.14-.41s0 .13-.07.09v-.25c-.12-.06 0 .2 0 .2-.08-.18-.1-.11-.15-.26s.08.06.07 0a.45.45 0 0 1-.29-.21c.05.1.1.25.06.29s-.14-.2-.25-.26c0 .14-.12 0 0 .31 0 0-.1-.11-.14-.18 0 .15-.3.16-.11.42-.11.37-.52 0-.69.24v-.09c-.09.16-.26.18-.29.42 0 0-.15-.14-.17-.25-.08.11-.05.22-.25.12 0-.2-.09-.13.06-.16-.16 0-.24-.16-.29.15 0-.26-.2-.26-.24-.17l.15.14a.2.2 0 0 1-.2.05l-.07-.32c-.39-.31-.28.79-.69.21 0 .24.2.11.21.39-.14 0-.41-.43-.45-.42-.22-.13 0 .51-.23.44 0 .11.17.41.06.55s-.3-.43-.24-.54 0 0 .06 0a.17.17 0 0 0 0-.23v.12c-.1-.1-.27 0-.28-.23-.06.13 0 .19.1.23-.21-.12-.25.07-.45 0 0 .05.11.18.08.18-.28-.07-.05.25-.2.35-.14-.15-.08-.43-.21-.23-.13-.09-.1-.3-.08-.41-.09.27-.32-.06-.41-.08l.05-.11a.14.14 0 0 1-.11.08l.1.22c-.05 0-.09 0-.11-.11 0 .16.13.37.08.61-.09-.1-.16.18-.25-.12.22 0-.1-.31 0-.4 0 0-.06.05-.11 0a.08.08 0 0 1 0-.08c-.25-.22 0 .37-.2.42 0-.18-.12-.32-.15-.28s.11.28.06.43c-.15-.12-.11.12-.18.12h.09c0 .18-.06.16-.14.23 0-.13.06-.1 0-.16 0 .33-.29-.27-.39 0-.09-.11-.07-.33-.14-.4-.11.25-.21-.21-.34 0 .09.22.09.16 0 .41l.23-.21-.1.37c.08 0 .14-.18.2-.15-.05.21-.05.15 0 .34-.18-.33-.18.24-.36 0l-.1-.58c-.24-.23-.29.35-.56.25l.09.09c0 .23-.14.06-.21.16a1 1 0 0 0-.14-.37c0 .14-.18 0-.15.41l-.15-.23c-.21-.08-.14.59-.35.56 0-.22-.08-.35 0-.52-.06 0-.13 0-.11.12-.05-.12-.14.29-.23.12 0 .09 0 .3-.07.29a.44.44 0 0 1 0-.09c0 .09-.1.15 0 .35-.28-.59-.57.09-.8-.42a1.58 1.58 0 0 1-.43.18v-.08c-.2-.17-.06.57-.29.38s.1-.18 0-.29c-.08-.65-.24.11-.4-.26-.12-.22-.24.26-.42.23a.31.31 0 0 0 0-.1.94.94 0 0 1-.48.57c0-.26.07-.14 0-.39-.08 0 0 .41-.11.49a1.5 1.5 0 0 1-.19-.52h.14c-.09-.35-.18 0-.25 0v-.15c-.21.07-.2.44-.44.42v.12c-.12.38-.11-.22-.23.06v-.39c-.09.09-.29.38-.44.45a2.13 2.13 0 0 1 .36-.61.29.29 0 0 0-.32.22s.07-.14.11-.08c-.1.31-.24.46-.4.45 0-.76-.43-.19-.54-.79-.29.28-.56-.13-.9-.09.09.6-.09 0-.1.63h-.12l-.22-.38c0-.18.09-.13.09-.27-.17-.06-.06-.26-.16-.43 0 .22-.08.3-.17.21l.12.3c-.26.3-.17-.54-.43-.24l.09-.18c-.13.1-.45-.05-.61.43v-.28c-.29-.1-.71.45-.91.13v-.14c-.06 0-.12.27-.18.11s0-.15 0-.16-.18.25-.24.16l.08-.17c-.26-.22-.49.38-.74.43a.7.7 0 0 0-.24-.7v-.06c-.32-.11-.61.26-.95.38-.11-.51-.61-.31-.86-.62a.55.55 0 0 1-.14.37c-.05-.1-.26.26-.17-.13 0-.39-.14-.33-.25-.37l-.13.52c-.13-.83-.85.08-.85-.63-.11.11-.19.09-.3.2l.07-.27a.72.72 0 0 0-.53-.17l.1-.18c-.13 0-.38.74-.51.73l.07-.42c-.25 0-.38-.49-.72-.19 0-.06.06-.17.1-.18s-.34-.4-.47.17c.11-.37-.23-.11-.41 0l.1-.26c-.21.3-.25.39-.43.44 0 0 0-.22.06-.14-.07-.17-.17.23-.27 0l.11-.15c-.12-.06-.14 0-.27.21s-.22-.14-.16-.38c-.06.14-.2.31-.24.22a.38.38 0 0 1 .08-.17c-.14-.25-.4.2-.46-.11a.61.61 0 0 0 0-.17c.16.07.28.13.26.15.08-.25 0-.34.19-.64-.17.15-.48.48-.57.32a.34.34 0 0 1 0-.09h-.09c-.04 0 0-.09-.08-.11.06-.21-.11-.16-.17-.2-.09.27-.16.2-.16.44h.23c-.09.11-.19.21-.21 0l-.25.4c.05-.41-.05-.67 0-.9-.25.07-.5-.07-.82.37-.08 0 0-.17 0-.25s.08 0 .13-.08c-.16.08-.35-.09-.51.25-.08-.22.2-.29 0-.31l.06-.09c-.14-.71-1 .6-1.1-.27a.22.22 0 0 1 0 .14c-.34-.51-1.11-.17-1.35-.86-.08-.15-.2.05-.36.17l.11-.29-.29.24c-.31.13 0-.83-.46-.52l-.06.19c-.07-.07-.33 0-.2-.24 0 0-.13.17-.12.06l.08-.14-.34.12c-.11-.19.33-.53.12-.69a1 1 0 0 0-.5.37v.27h-.12c-.26.39-.59.75-.54 1.16l.3-.15-.07.22-.13-.06c0 .22.11.09.22 0a.48.48 0 0 0-.06.25l.36-.3c-.07.17-.24.28-.19.42.17-.14.13-.39.31-.45 0 .22-.14.36 0 .25a.37.37 0 0 1-.15.2c.14-.09.22.05.38-.15-.05.27.28.07.06.46.08-.08.29-.24.37-.22-.37.4.24.16-.05.64.31-.37.43 0 .71-.17 0 0-.08.09-.08.06s0 .22.06.33c.18-.35.37-.36.55-.55-.05.4-.27.39-.39.73.13-.29.34-.19.41-.45a.92.92 0 0 1-.07.46c.23-.44.12 0 .32-.28 0 .28-.16.43 0 .36.03.52-.16.62-.16.62zm3.69.56zm.28.1a.33.33 0 0 0-.12 0c0-.1.07-.19.09-.17s.02.1.03.17zm.07-2c.05 0 .05 0 0 .09h-.08a.4.4 0 0 1 .08-.16zM350.92 284.57c0 .07.34.14.54.22s-.28 0-.46-.07c.07.08.39.22.36.26l-.15-.05c.26.14 0 .17.29.35h-.09l.49.13s.21.13 0 .07c0 0-.08 0-.15-.07l.09.06c-.34-.07-.1-.08-.34-.16.08.1.34.26.23.28-.33-.08-.08-.15-.39-.17h.15c-.53-.09.05 0-.51-.14-.13.07.13.16 0 .23.18.08.27.08.45.15.28.25-.86-.13-.46.11.21.09.62.23.38.24l-.36-.14c-.07.09.51.21.23.24s-.09-.11-.14-.11c-.31 0 .19.11.18.16l-.33-.09c0 .13.22.31.24.45a.75.75 0 0 0-.3-.09c.12.19-.13.3-.37.38l.27.14a.4.4 0 0 1-.19 0c-.12 0 .18 0 .28.11s-.17 0-.25 0c.21.17.43.43.1.45l-.08-.05c-.14.05.55.26.26.26-.18.14 0 .41-.44.41.4.15-.23.12.33.3a1.77 1.77 0 0 0-.63 0s.33.16.38.22l-.3-.08.29.15-.36-.07.06.07a.42.42 0 0 1 .23 0c.11.1-.26.1-.41.06l.2.23a1.08 1.08 0 0 1-.22-.12c.28.17-.31-.08-.06.08a1.23 1.23 0 0 1 .23.08c-.19 0-.21.07-.16.16l-.2-.07c-.09.1 0 .28 0 .41a.91.91 0 0 1 .48.15l-.32-.08c.19.08.13 0 .35.12a1 1 0 0 1-.45-.14l.09.1-.26-.1c.19.09-.34 0 0 .15h-.09v.33c.27.09.19.11.4.21-.11 0-.35.08-.35.18s.22.09.37.17c-.25-.07-.25 0-.41-.07 0 .12 0 .16.16.36a.78.78 0 0 1 .23.05h-.24c.32.28-.83.17-.36.45l.23.21c-.07 0-.18-.09-.34-.09.36.27-.13.21.1.41-.75-.12 0 .35-.54.33l.17.05c.16.08-.11 0-.16 0 .14 0 .17 0 .25.06.13.33-.42.49-.65.72-.08.09.86.33.41.33l-.3-.13c.32.32-.14.42.12.72-.07 0-.17-.06-.16-.08-.24 0-.06.16.13.21h-.27c-.1 0 .26.2 0 .15a.12.12 0 0 1-.08-.05c.1.06-.07.12.2.18-.15 0 .07.18-.1.19.28.13-.18.09.23.23-.43-.14-.39 0-.2.14-.12-.06-.15 0-.32-.08 0 .06.05.14.28.19-.55-.05.35.33-.33.19a1.92 1.92 0 0 1 .36.61c-.43-.14 0-.18-.45-.31.13.2.48.39.33.5s-.18-.08-.25-.12c.14.2-.12.26.08.46l-.11-.06s-.08 0 .12.09h-.05a3 3 0 0 1 .71.33c-.55-.22-.17.08-.86-.2a.88.88 0 0 0 .25.11.48.48 0 0 1-.27-.08c.08.12.3.16.27.23l-.24-.09c.18.09.35.19.25.23h-.13c0 .12.44.34.22.41-.4-.16-.15 0-.51-.1l.09.1h.18c0 .06.22.19.09.2l-.13-.09v.14h.15c.17.12.46.13.33.18s0 .06-.24 0c.11.06.22.13.12.15l-.48-.15c.29.12.05.17.35.3a1.75 1.75 0 0 0-.3-.1l.24.1a.69.69 0 0 1-.27-.06c-.07.07.46.11.23.15h-.08c-.13.06.09.23 0 .29-.37-.08-.07-.11-.38-.17 0 .15.35.4.23.5.51.17-.28 0-.06.16a1.08 1.08 0 0 0-.22-.09c-.1.06.07.22.19.4l-.12-.06c-.13 0-.11.12-.18.15a.66.66 0 0 0 .29.12c-.8-.05.3.45-.37.41 0 0-.1-.08-.1-.06l.08.16a1 1 0 0 0 .32.05c.12.06.21.12.2.16a.86.86 0 0 0-.48-.12l.21.06c-.42-.05.44.15.15.16h-.12c0 .05.2.13.15.16-.26-.06-.11-.08-.32-.14 0 .05.46.25.19.22-.07-.05-.06-.08-.12-.12h-.3l-.16.05h.09c.65.27.08.17.49.39-.39-.21-.23-.09-.52-.18a.8.8 0 0 1-.27 0c.22.11-.2 0 .12.17h-.25c.06.07.16 0 .28.07.29.18-.45.08 0 .33.14.16.45.27.58.42a.94.94 0 0 1-.33-.13c-.15 0-.14.05-.05.13a1.43 1.43 0 0 0-.26-.06c0 .05.33.13.18.14l-.36-.15c.07.07.23.17.3.24a1 1 0 0 1-.34-.15.62.62 0 0 0 .36.28h.1s-.22-.05-.27-.08.11 0 .21 0l.05.06c.56.13-.05-.17 0-.23l.39.15-.31-.17a1 1 0 0 1 .39.13c.21 0-.13-.09.1-.07h.07l-.1-.09c.08 0 .28.08.21.09.26 0-.25-.23.06-.17-.1-.17-.29-.1-.6-.3l.73.16-.28-.1h.16c-.19-.1-.13 0-.32-.11.29 0-.07-.2.4-.08-.22-.09-.19 0-.32-.1.5.13-.07-.1.18-.09s.1.11.35.12c-.43-.16.12-.07.05-.15-.34-.1-.11-.14-.2-.25.11 0 .23-.09.38-.12h.06c-.35-.12-.26-.18-.32-.25a1.18 1.18 0 0 1 .38.16v-.06a.38.38 0 0 1-.19-.12l.26.09c0-.07-.27-.23-.07-.26-.25-.08-.71-.14-.84-.28a2.38 2.38 0 0 1 .41.14s-.1-.06 0-.06l.21.11c.11 0-.18-.08-.15-.11.19.06.14 0 .29.07s-.09 0 0 0a.62.62 0 0 1 .32 0 .53.53 0 0 1-.27-.11c0-.07.23.05.34 0-.12-.06 0-.06-.26-.14h.22c-.11-.07 0-.18-.3-.23-.25-.2.23-.19.15-.34h.09c-.09-.1 0-.17-.21-.28a.62.62 0 0 1 .3 0c-.06-.07-.16-.11 0-.14s.15 0 .1.09.26 0 0-.16c.24.1.32 0 .26 0h-.19v-.09l.31.11c.43 0-.58-.45.1-.36-.21-.1-.18 0-.43-.08.06-.05.54 0 .55 0 .2 0-.44-.22-.3-.27a1.42 1.42 0 0 1-.51-.21 1.08 1.08 0 0 1 .58.14h-.07a.37.37 0 0 0 .21.09l-.11-.05c.12 0 .14-.08.32 0a.28.28 0 0 0-.25-.06c.19 0 0-.12.17-.17a.68.68 0 0 1-.19 0c.17-.08-.2-.12-.23-.22.19 0 .41.15.29 0a.7.7 0 0 1 .39.13c-.19-.15.19-.1.24-.13l.08.06v-.07l-.24-.05a.19.19 0 0 1 .15 0 6 6 0 0 1-.57-.21c.13 0-.09-.13.21-.05-.13.07.31.08.33.18s0-.05 0-.06h.08c.3 0-.33-.14-.29-.24.16.07.33.08.3.05s-.29-.07-.41-.14c.15 0-.08-.1-.05-.13h-.08c-.16-.06-.13-.09-.17-.15.13 0 .08.07.14.07-.28-.14.34 0 .16-.15.13 0 .32.1.41.09-.2-.14.25 0 .1-.14a.78.78 0 0 1-.39-.15l.12.18-.31-.19s.12.13.08.14a.72.72 0 0 0-.32-.11c.36.05-.16-.17.09-.16l.56.17c.28 0-.24-.25-.06-.33H350c-.22-.09 0-.09-.09-.16a1.49 1.49 0 0 0 .39.08c-.14 0 0-.09-.33-.21h.26c.13-.07-.5-.28-.41-.35a2.4 2.4 0 0 1 .47.19s.06 0-.08-.09c.13 0-.22-.16 0-.13-.08 0-.28-.11-.25-.14h.09a1 1 0 0 0-.33-.13c.62.08 0-.28.57-.21a.56.56 0 0 1-.07-.26h.07c.2 0-.53-.21-.3-.25s.15.1.27.1c.63.18 0-.14.34-.1.23 0-.2-.2-.13-.27h.1a.86.86 0 0 1-.44-.4 1.18 1.18 0 0 0 .37.14s-.4-.11-.45-.2a2.24 2.24 0 0 1 .54.07v.07c.35.07 0-.09.09-.11h.14c0-.11-.39-.23-.33-.33h-.11c-.36-.18.22 0 0-.14l.39.1a2.49 2.49 0 0 1-.38-.34 2.81 2.81 0 0 1 .54.35s0-.14-.17-.22c0 0 .12.08.06.07-.29-.13-.41-.24-.38-.32.73.24.25-.15.83 0-.23-.22.2-.24.21-.41-.59-.12 0-.06-.59-.22v-.06h.39c.18 0 .12.07.25.11s.26 0 .43 0c-.21 0-.29-.12-.2-.14h-.29c-.27-.21.52.05.25-.16l.17.09c-.09-.09.07-.22-.38-.42a.66.66 0 0 1 .27.08c.11-.12-.4-.47-.08-.49l.14.05s-.26-.12-.1-.11.14.05.15 0-.23-.15-.13-.16l.15.08c.23-.08-.33-.33-.39-.48a.92.92 0 0 0 .67 0h.06c.1-.15-.26-.39-.38-.59.48 0 .28-.26.59-.33a1 1 0 0 1-.37-.14c.1 0-.26-.19.13-.07.38.09.3 0 .33-.06l-.5-.17c.78.08-.16-.47.53-.35-.12-.07-.1-.12-.22-.19l.27.08c.1-.07.15-.11.12-.26l.19.09c0-.07-.76-.33-.75-.39l.41.1c0-.12.42-.14.09-.37.06 0 .17.06.18.09s.34-.14-.22-.29c.36.11.07-.11-.06-.23l.26.09c-.33-.15-.42-.18-.49-.29s.22 0 .14 0c.16 0-.24-.12-.07-.15l.16.08c0-.06-.05-.08-.24-.17s.1-.1.35 0c-.15-.05-.33-.14-.25-.16a.47.47 0 0 1 .17.07c.21-.05-.27-.25 0-.24h.16c0 .08-.07.15-.08.13a2.58 2.58 0 0 1 .63.18c-.17-.11-.55-.32-.41-.35h.08v-.06c0-.06.08 0 .09 0 .2.06.13 0 .15-.07-.27-.08-.21-.11-.45-.14v.05a.34.34 0 0 1 0 .09c-.13-.07-.24-.13-.08-.12l-.42-.18c.39.07.62 0 .86.1-.12-.15 0-.27-.52-.49-.05-.05.16 0 .24 0s0 .05.1.08c-.11-.09 0-.18-.34-.3.18 0 .31.14.28 0h.11c.62 0-.81-.59 0-.59h-.13c.39-.15-.15-.61.44-.7.12 0-.1-.11-.26-.21l.29.07-.31-.17c-.21-.18.76 0 .34-.23l-.2-.05c.05 0-.07-.18.15-.1 0 0-.2-.08-.09-.07l.15.05-.22-.2c.14-.06.6.2.66.07a1.42 1.42 0 0 0-.5-.28h-.26l-.07-.07a4.37 4.37 0 0 0-1.23-.3l.25.16h-.23v-.07c-.21 0 0 .05.07.12a.67.67 0 0 0-.24 0l.4.2c-.18 0-.34-.14-.45-.12.19.1.4.09.52.18-.22 0-.38-.08-.22 0a.67.67 0 0 1-.23-.09c.12.08 0 .12.26.21-.26 0 0 .15-.4 0a1 1 0 0 1 .32.2c-.49-.21-.07.13-.6-.05.44.18.15.23.37.39 0 0-.1-.05-.08-.05h-.29a2.85 2.85 0 0 1 .66.33 5.93 5.93 0 0 1-.78-.25c.3.08.27.19.53.24a1.67 1.67 0 0 1-.44-.06c.47.15.07.06.35.19-.25 0-.45-.12-.33 0a.68.68 0 0 1-.3-.01zm.31 1.91zm0 .15a.09.09 0 0 0 0-.06c.1 0 .19.06.18.07s-.13-.01-.22-.01zm2 .26h-.08zM470.5 299.55c.05.1.33-.15.52-.25.16.06-.2.2-.33.34.12 0 .44-.11.46-.06a.33.33 0 0 1-.13.09c.3-.08.15.21.52.1l-.07.06a2.91 2.91 0 0 1 .42-.29s.24-.05.05.1c0 0-.1 0-.17.05h.12c-.27.23-.14 0-.36.15.15 0 .46 0 .42.08-.28.2-.2-.09-.4.16l.05-.17c-.4.37 0-.08-.45.3 0 .19.24.05.25.24.17-.07.22-.16.4-.23.41 0-.62.61-.15.5.21-.09.58-.31.45-.09l-.34.18c.05.15.51-.23.38 0-.15.05-.17 0-.2 0-.2.25.22-.06.26 0l-.27.2c.13.1.43.12.58.24a.56.56 0 0 0-.26.17c.26.1.22.43.17.72l.29-.09s-.09.1-.15.11.16-.09.28-.12-.11.14-.2.17c.29 0 .68.07.5.37h-.09c0 .17.58-.21.41 0 0 .3.42.4.16.81.37-.2 0 .32.49 0-.17.29-.28.31-.33.59 0 .07.36-.12.45-.1l-.26.17.32-.09-.28.24h.1s.09-.12.16-.17 0 .33-.17.42l.35.07a.53.53 0 0 1-.25.06c.34-.06-.26.2.05.14a1.13 1.13 0 0 1 .21-.12c-.12.15-.05.27.07.31l-.19.1c0 .18.29.27.4.44a.63.63 0 0 1 .42-.27l-.26.2c.19-.08.07-.12.32-.19 0 .09-.28.24-.39.26h.14a1.73 1.73 0 0 1-.24.13c.19-.08-.19.31.14.17h-.08c.1.18.25.2.35.33.24-.15.22-.06.44-.14 0 .15-.12.38 0 .49s.21-.1.38-.15c-.21.14-.11.25-.31.29a.82.82 0 0 0 .46.24c.08-.08.1-.13.18-.16s0 .13-.14.19c.46 0-.32.89.24.77h.35c0 .1-.2.05-.29.2.48 0 .14.33.47.33-.56.53.32.4 0 .82l.14-.11c.18-.05-.05.11-.07.16s.11-.13.21-.16c.41.24.25.88.35 1.33 0 .15.82-.43.57 0l-.31.13c.51.06.34.56.79.64-.07 0-.16.08-.17.05-.17.19.12.21.28.11 0 .05-.14.1-.21.18s.35 0 .17.13a.14.14 0 0 1-.1 0c.12 0 .08.18.3 0-.05.17.22.12.13.29.3-.12 0 .25.36 0-.38.24-.19.37 0 .32-.13.05-.09.13-.26.2.05.07.16.09.35-.05-.37.43.53 0 0 .48a2.68 2.68 0 0 1 .81.32c-.38.24-.17-.19-.57.08.28.08.67 0 .69.21 0 .08-.18.08-.25.11.27.08.18.37.49.39h-.12c-.04 0 0 .1.16 0h-.07c.22-.21.61-.21.74-.29-.53.26 0 .24-.7.55a.5.5 0 0 0 .26-.1c0 .05-.08.1-.23.16.17.05.32-.11.39 0-.09.05-.13.05-.24.1.2-.05.39-.1.38 0s-.11.08-.13.05c.12.13.6 0 .54.24-.39.19-.08.13-.39.34h.15l.13-.13c0 .08.32 0 .26.13h-.17l.15.1.07-.15c.21 0 .39-.27.37-.11 0 0 .05.08-.11.24.12 0 .25-.06.21.05s-.36.21-.42.26c.29-.13.19.14.5 0a1.3 1.3 0 0 0-.27.15l.23-.1c0 .08-.07.1-.21.18 0 .13.38-.29.29-.05h-.1c0 .18.29.16.26.34-.29.24-.14-.05-.38.16.16.13.6.11.63.32v-.06c.46-.26-.14.27.12.22a.78.78 0 0 0-.21.1c0 .16.25.16.5.24l-.12.05c-.07.13.05.21 0 .32.13 0 .14 0 .29-.13-.52.64.62.19.2.74h-.13l.21.1c.19-.13.11-.09.24-.23s.25-.06.27 0c-.17 0-.31.2-.4.3l.19-.11c-.29.31.4-.24.24 0l-.1.06h.24c-.21.16-.13 0-.32.14.05.06.51-.14.32.06h-.18c-.23.24-.15.2-.16.28l-.05.19.05-.07c.65-.3.22.1.68 0-.44.12-.22.11-.48.27-.06.07-.11.17-.19.2.24-.08-.1.19.25.08-.08.05 0 .06-.19.18.11 0 .13-.11.24-.17.35-.07-.18.47.31.38.24 0 .53-.12.75-.09a.58.58 0 0 1-.32.16c-.08.14 0 .18.11.18a.78.78 0 0 0-.21.17c.05 0 .32-.16.24 0a2.32 2.32 0 0 1-.36.16h.42a.88.88 0 0 1-.35.14.54.54 0 0 0 .48 0l.06-.1s-.19.14-.24.14c-.22.06 0-.13.1-.19h.08c.45-.35-.19-.13-.22-.23l.38-.19-.35.1c.07-.08.26-.22.34-.21.13-.18-.16 0 0-.16h.06-.14c.08 0 .24-.17.21-.1.13-.24-.38 0-.14-.22-.22-.08-.27.15-.64.22l.58-.48-.27.15s0-.07.11-.13c-.22 0-.11.08-.29.15.18-.22-.25-.14.15-.42-.21.1-.11.17-.29.18.42-.31-.14-.05 0-.25s.16 0 .32-.18c-.41.2 0-.19-.12-.2-.3.19-.21-.05-.37-.08.1-.06 0-.3.1-.46h.05c-.32.18-.32 0-.43 0a.93.93 0 0 1 .37-.17v-.06a.38.38 0 0 1-.24 0l.24-.13c-.06-.08-.38 0-.3-.22-.22.13-.54.48-.76.45a1.23 1.23 0 0 1 .38-.21h-.09l.23-.08c.05-.1-.18.08-.19 0 .17-.11.1-.11.24-.18s-.05.08 0 .05a.46.46 0 0 1 .17-.28c-.09.06-.22.14-.26.12s.18-.16.23-.26c-.13.05 0-.08-.29.07l.15-.15c-.13 0-.16-.19-.39 0-.34 0-.06-.4-.26-.48l.09-.05c-.15 0-.18-.16-.4-.11 0 0 .11-.15.22-.21-.11 0-.21 0-.13-.16.19 0 .11-.1.15 0 0-.13.14-.23-.15-.18.23-.11.22-.24.13-.24l-.11.16a.13.13 0 0 1-.07-.13l.29-.16c.23-.4-.79.05-.3-.45-.23.08-.08.19-.33.29 0-.11.33-.45.31-.48.09-.21-.47.16-.44 0-.09.08-.35.26-.5.23s.35-.37.47-.36 0 0 0 .06a.21.21 0 0 0 .2-.09l-.1.05c.07-.1 0-.21.17-.29a.19.19 0 0 0-.2.16c.08-.2-.1-.17-.07-.34-.05.05-.16.15-.17.13 0-.24-.23.05-.34 0 .11-.16.38-.21.18-.24.06-.13.25-.18.35-.21-.25 0 0-.26 0-.34h.1a.09.09 0 0 1-.09-.05l-.18.15c0-.05 0-.08.08-.13-.15 0-.32.24-.54.29.08-.1-.19-.05.07-.24 0 .19.26-.18.37-.1-.05 0-.06 0 0-.08a.11.11 0 0 1 .07 0c.16-.28-.33.13-.41 0 .16-.08.27-.21.22-.21s-.23.19-.38.21c.07-.15-.14 0-.15-.08v.08c-.16.08-.16 0-.25 0 .12-.08.12 0 .16-.05-.31.1.18-.32-.06-.29.08-.11.28-.19.33-.27-.26 0 .13-.23-.09-.23a.51.51 0 0 1-.37.18l.25.08-.37.08c0 .05.2 0 .18.08-.19.05-.14 0-.29.16.26-.27-.26 0-.11-.24l.5-.32c.14-.26-.4-.05-.37-.29l-.06.11c-.21.1-.09-.08-.2-.08a1.39 1.39 0 0 0 .3-.26c-.12.08-.06-.13-.41.07l.18-.21c0-.18-.57.16-.59 0 .2-.08.28-.21.47-.21 0 0 0-.1-.14 0 .09-.09-.29 0-.16-.11-.08 0-.26.14-.28.08l.08-.05c-.08.05-.15 0-.31.16.44-.46-.26-.33.11-.72a1 1 0 0 1-.3-.21s.08-.05.08 0c.08-.21-.53.24-.43 0s.18 0 .26-.13c.54-.37-.17-.11.09-.4.14-.18-.31 0-.34-.16l.08-.05a.88.88 0 0 1-.65 0 1 1 0 0 0 .35-.18c-.06 0-.34.23-.46.18a1.89 1.89 0 0 1 .38-.4l.07.08c.27-.23-.08-.1-.06-.18l.14-.08c-.13-.11-.46.1-.53-.05l-.09.07c-.38.14.14-.18-.15-.1l.31-.24a1.79 1.79 0 0 1-.56 0 2.71 2.71 0 0 1 .67-.1.24.24 0 0 0-.32-.08h.11c-.3.1-.49.1-.55 0 .66-.4 0-.37.45-.77-.35 0-.13-.42-.3-.61-.45.4-.05-.05-.56.29-.07 0-.07-.05 0-.08l.21-.34c.13-.13.15 0 .26-.11s.19-.18.28-.34c-.17.13-.29.13-.26 0l-.18.23c-.37 0 .35-.4 0-.38l.2-.06c-.15 0-.18-.28-.65-.1.05-.05.18-.16.24-.14-.05-.23-.7-.14-.54-.44l.14-.07c-.06 0-.28.09-.18 0s.13-.07.13-.09-.28.05-.23 0l.16-.05c0-.29-.52-.06-.7-.16.37-.23.4-.45.41-.56h.06c-.09-.24-.54-.17-.81-.27.32-.38-.1-.51 0-.85a.7.7 0 0 1-.36.17c.05-.1-.33 0 0-.18.32-.24.17-.28.13-.36l-.45.27c.52-.6-.56-.35 0-.82h-.32l.24-.15a.42.42 0 0 0-.19-.37l.19-.08c0-.1-.76.33-.82.25l.34-.25c-.11-.15.1-.51-.32-.46.06 0 .16-.09.19-.07s.06-.44-.41-.1c.32-.21-.07-.18-.27-.18l.25-.13c-.35.12-.43.17-.58.12 0 0 .18-.14.14-.07.07-.16-.26.08-.2-.09l.17-.06c0-.1-.11 0-.31 0s0-.19.17-.34c-.14.07-.34.14-.31.05a.74.74 0 0 1 .17-.08c.07-.23-.41 0-.23-.26a.54.54 0 0 0 .13-.11c.06.11.1.21.08.21.21-.14.2-.25.54-.37-.21 0-.64.14-.59 0l.07-.06h-.07a.17.17 0 0 0 0-.11c.17-.13 0-.17 0-.21-.23.15-.23.07-.39.25h.06l.09.1c-.14 0-.27.07-.17-.06l-.42.19c.3-.28.4-.5.59-.65-.21-.05-.28-.25-.78-.05-.08 0 .1-.13.16-.19s.07 0 .14 0c-.16 0-.19-.19-.51 0 .08-.19.32-.13.19-.23h.1c.34-.58-1.05.09-.6-.6a.27.27 0 0 1-.09.1c.08-.5-.68-.49-.44-1.1 0-.14-.17 0-.36 0l.24-.18-.35.09c-.3 0 .47-.63 0-.54l-.16.14c0-.09-.22-.13 0-.25 0 0-.19.1-.12 0l.13-.09H471c0-.17.54-.32.46-.5a1.12 1.12 0 0 0-.58.15s0 .12-.17.2h-.11a2.75 2.75 0 0 0-1 .77l.3-.05-.17.15-.06-.08c-.15.17 0 .09.16.06a.86.86 0 0 0-.19.17l.44-.14c-.15.11-.33.15-.37.27.2-.07.31-.26.47-.26-.14.16-.3.24-.11.2a.58.58 0 0 1-.23.11c.16 0 .14.09.36 0-.19.19.17.13-.21.37a.77.77 0 0 1 .39-.07c-.49.2.08.19-.41.47.44-.19.32.11.61.07h-.09l-.15.27a2 2 0 0 1 .7-.24c-.27.28-.41.2-.7.42.26-.17.35 0 .55-.21a1.07 1.07 0 0 1-.32.32c.42-.25.11 0 .39-.11-.15.22-.37.27-.19.28a.43.43 0 0 1-.27.34zm2.09 1.7zm.12.18a.36.36 0 0 0 0-.09c.08-.06.16-.1.17-.08s-.12.1-.17.17zm1.39-1.43c.06 0 0 .05 0 .08h-.06z"/><path d="M156.38 408c1.67 0 .78-.36 1.14-.58 2-.1.92.28 1.59.46 1.24-.09 2.2-.43 3.12-.42.07.06.25.08 0 .16 1.31-.29 3.9 0 5.42-.38.12 0 .18.06.2.09-.24-.19-.28-.37-.23-.51.75 0 1.39-.23 1.67 0a1.19 1.19 0 0 0-.71.17l.78-.11c.7.35-1.07.12-1.07.38a36 36 0 0 1 4.47-.3c.25.34-2.73.11-1.17.41l-1.81-.13c1.38.54-1.1 0 .17.54 2.38.1 2.66-.17 5-.08.53-.18-.18-.27.36-.46 3.37-.34 2.65.85 5.13.4a3.66 3.66 0 0 1 2.66-.43l-.6.38c2.31 0 1.32-.55 3.73-.29-.43.15-1.81.13-1.46.17 1.56.31 1.1-.22 2.31-.22l.24.34c2.46-.05 5.16-.29 7.88-.36-.15.1-.62.21 0 .32a101 101 0 0 1 10.62.24l1.26-.29c.3 0 .55.13.23.18 1.29.12.07-.18.69-.3s1 .17.5.26a45.92 45.92 0 0 1 8.87-.22l-.46.09c1.86.11 2.1-.61 3.83-.33l-.33.05c4.05.13 8.52-.14 11.61.3.59-.42 4 .19 4.27-.4a37.65 37.65 0 0 0 4.9.59c.87 0 1.3-.36 2.38-.43v.31l1.46-.32.78.37 1-.08c-.4 0-.86-.14-.8-.23a10.76 10.76 0 0 1 3.88.37l3.73-.26c-.08.13-.71.17-1.2.25 2-.32.36.32 2.18 0-.24-.07.13-.19.18-.25a23.47 23.47 0 0 0 4.5.11l-.29.21c2.76.06 5.83-.1 8.93-.1-1.11-.1-.86-.46.05-.5l.36.33c.59-.21-.95-.13.26-.37 1.16 0 .78.37.11.47l1.41-.11c.09.1-.24.15-.33.27.58-.2 2.43.33 3.26 0l.08.1c3.11 0 4.51-.11 7-.13 0-.28 1-.22 1.79-.45 1.85.09 3.91.31 6.15.29 1.57-.14.46-.24 1.17-.4.11.25 2.35.23 1.19.41 2.68 0 3.43 0 6.82-.26-.37-.1-.78-.15-.57-.24.62 0 1.4.11 1.32.23h-.17c3.81-.38 8.8.75 11.83.21h-.17l3.15-.28c1.45.05-.87.19.2.35 3.4-.42 5.37.07 8.16-.22 2.17.76 7.68-.05 10.6.43l-.17-.18c.76-.17.92.1 1.47.14-.08-.13-.82-.16-.35-.25 6.4-.22 13.2.26 19.76.42 2.39.05 1.36-.92 4.38-.5l-.86.33c4.84-.39 9.9 0 14.63-.32a1.53 1.53 0 0 1-.75.17 9.24 9.24 0 0 0 3.72-.18c.73 0 .17.18.62.28 1 .14 2.52-.31 3.05-.07.1 0-.28.08-.46.1.65-.12 3.05 0 2.42-.25 1.78.13 3.4-.12 4.82 0 .92-.31 3 .15 3.34-.29-.13.45 3.11.37 4.24.15-.38.14 1 .14.53.33 1.29 0 2.46-.09 2.24-.32 2.36.54 4.75-.43 6.08.26 3.81-.24 7.34-.41 10.77-.51-.13.45-3.79 0-3.65.51a81.21 81.21 0 0 1 8.36-.46c.83.06-.48.2-.76.27 3.25-.18 6.28 0 9.17-.2a1.81 1.81 0 0 1-.61.12c.57 0 1.32.07 1.26-.14l-.56.06c-.91-.3 2.27-.62 2.37-.78-1 .59 2.85.15 1.32.89.37 0 .84-.14.76-.27.55 0 .73.12.17.27 2-.11 1.31-.33 3.16-.32 0 .1-.38.13-.57.25a11.77 11.77 0 0 1 3.44-.3c-.1.06.09.14-.38.13 2.68 0 4.57-.51 7.52-.32-.87.43 1 .14 1.15.51l1.59-.11-.64-.18c1.39 0 2.61-.27 3.81-.15l-1 .16 2.59-.07-1.47-.14c1.41-.2-.15-.48 1.7-.37a19.54 19.54 0 0 1 2.11.22 8.48 8.48 0 0 1 2.42-.15c.27.12-.21.41 0 .49.68-.31 3.25-.08 4.1-.41-.28.07-.3.27-.2.31l.57-.25c.64.08.73.12.63.27 1.93.05-.62-.47 1.68-.27a3.52 3.52 0 0 1-.47.1c2.3.11 4.45-.16 6.56 0 .63.38-1.84.1-1.13.41 3-.07 6.32-.45 9.27-.36h-.55c.41-.53 2.2.26 3.69 0-.36 0-.48.3-.38.24 2 .08 4.14-.13 7.2-.3l-.3.23c1.19.12 3.14.07 4.43.13.38-.14 1.12-.12.67-.31 4 .77 7.57-.42 11.09.23-.42 0-1 .12-.67.12l3-.13c-.23-.23-.39-.14-1-.32a7.11 7.11 0 0 1 2-.24c-1.35.15 0 .37.59.5-.09-.07.11-.15.06-.22 1.56.41.26-.47 2.4-.19l-.11.12a20.3 20.3 0 0 1 2.4-.19c.36.27-.85.13-.91.35 1.21 0 2.39-.51 3.49-.24-.51.07-1.26.07-1.77.15a7.56 7.56 0 0 0 2.22.28h-.09l2.06.15-.52-.09c1.51-.7 3.09-.13 5.13-.58-2 .43-.33.25-.48.55.52.08 1.31.18 1.09.26 1-.24 1.61.2 3-.16.06.1 1 0 .81.25 1.26-.07-.3-.17-.19-.29 1.94-.33 4.55.4 7.34-.05 2.4-.19 2.84-.52 5.07-.68.75.15-.61.35-.61.35a13.76 13.76 0 0 0 3.27 0c-.23.08 0 .15.35.26.92 0 .62-.35 1.83-.21a3.3 3.3 0 0 1-.92.39c1.08-.09 2.15-.27 3.27-.36.3.17-.68.26-1.07.37a14.71 14.71 0 0 0 3.65-.42l-.81-.1c.46 0 .24.24-.1.28-1.08.22-1.56-.09-1.62-.19l.8-.06c-.82-.57-3.2.09-4.81.06l.67-.42-1.65.35c-.35-.11-.59-.34.21-.4-1.15-.21-1 .14-2-.09-.11 0-.06-.05 0-.07l-1.12.13c.22-.09-.19-.3.5-.24-2-.24-3.25.31-4 0h.17c-2.8.14-.28.31-2.38.67l-1.41-.76-.27.31c-.29 0-.87 0-.76-.16-1.07.21.18.14-.44.33-1.39-.27-3.83.13-4.15-.35-.5.23 1.33.18-.15.34-.43-.53-1.72.09-3-.15.39-.27 1.6-.13.32-.37-.76.46-2.47-.1-3.54 0 0 .36-2.33.15-4.13.27.12-.12-3.38-.2-5-.33l.05-.06c-.33.36-2.05.3-3.31.37.05-.22.28-.31 1-.4h-1.18a4.23 4.23 0 0 1-1.42.22l.3-.27a44.32 44.32 0 0 1-5.19.14c-.11.25 1.61.71-.53.88-.08-.14-.16-.38.4-.43a3.84 3.84 0 0 1-1 .05l.67-.33c-.92-.1-.48.2-1.21.17 0-.19-.55-.14-.44-.29a4.69 4.69 0 0 0 .92 0 8.71 8.71 0 0 1-2.16-.3c.07.11 0 .26-.61.29-1.57 0-.54-.24-1.46-.34-.38.14-1.38 0-1.41.29a1.16 1.16 0 0 1-.72-.22c-.81.13-3.8 0-2.88.35h.21-.14c-2.66.29-5.54-.17-8.18 0v-.1c-1.58.11-3.51.06-4.64.28-.47 0-1.1-.18-.9-.3a13.44 13.44 0 0 1-3.09 0c1.22-.17-.42-.15 1.25-.13a12.5 12.5 0 0 0-3.61 0c.57-.25-1.18-.32-1.93-.24l1.1.18h-2.32l.41-.33c-3.21-.41-5.79.69-8.23 0-.85.23 1.74.16 1 .44-1.48-.05-3-.53-3.48-.53-2-.18-1.88.49-4 .36.27.12.53.44-1.06.55-1.47 0-1.81-.5-.88-.59.35 0 .53 0 .51.06.48 0 1.1-.09.52-.22l-.19.12c-.74-.12-2.77-.11-2.29-.3-1.12.11-.48.19.35.25-1.9-.17-3 0-4.91-.12.31.07.59.21.28.21-2.86-.15-1.26.22-3.19.27-1.11-.18.39-.43-1.56-.28-1.19-.12-.25-.31.22-.41A20.48 20.48 0 0 1 434 405l.94-.1a13.14 13.14 0 0 1-1.49.06l.54.24c-.55-.05-1-.05-1-.15-.56.16.44.4-.69.61-.73-.12-2.23.13-2.48-.18 2.3.1-.26-.32 1.69-.37a7.11 7.11 0 0 1-1.38 0c-.09 0 .07-.06.23-.08-2.21-.28-1 .36-3.31.35.29-.18-.53-.34-.9-.3.92 0 .44.3-.4.43a12 12 0 0 0-2.36.09l.87.06a6.52 6.52 0 0 1-2 .21c-.09-.13.93-.09.56-.15-1.13.31-2.56-.32-4.14-.11-.74-.12-.07-.34-.72-.42-1.77.23-1.92-.24-3.78-.05.54.24.63.18-.68.41l3.06-.17-2 .35c.93 0 2-.15 2.51-.11-.94.19-.84.14-.4.33-1.26-.35-2.51.21-4 0v-.59c-2.19-.26-3.9.3-6.76.15l.92.11a14.4 14.4 0 0 1-2.69.12c.09-.19-.49-.26-.88-.39 0 .15-2.09 0-2.35.38l-1.28-.26c-2.3-.1-2.63.57-4.85.5.67-.22-.34-.36 1.15-.51-.74 0-1.41 0-1.42.1-.43-.12-2.05.27-2.73.08a2.43 2.43 0 0 1-1.25.27c-.09 0 0-.09 0-.09s-1.3.13-.58.35c-2.28-.62-6.37 0-8.35-.49-1.62.07-3.56.13-5 .15.09-.06 0-.1.28-.08-2-.18-1.24.57-3.54.36-1.18-.32 1.22-.17.49-.29-.32-.65-2.78.09-4.33-.29h.38c-1.19-.22-2.89.25-4.83.2 0 0 .1-.06 0-.1a37.4 37.4 0 0 1-5.68.53c.58-.25.84-.13.49-.39-.84 0 .24.42-1.42.49-.54-.14-1.74-.26-1.9-.54h1.57c-.81-.36-2 0-2.86-.05l.1-.16c-2.4 0-2.44.45-5 .42l.26.12c-1.41.38-1.18-.22-2.59.07l-.43-.4c-.93.1-3.27.38-4.94.46a34.57 34.57 0 0 1 4.12-.62 20.2 20.2 0 0 0-3.63.22 5.54 5.54 0 0 1 1.21-.07 17.46 17.46 0 0 1-4.47.46c.33-.77-4.8-.2-6.13-.79-3.26.28-6.47-.12-10.27-.08 1.35.6-1.11 0-.87.63a5.13 5.13 0 0 1-1.3 0l-2.68-.36c-.64-.18.84-.14.76-.28-1.94 0-.82-.25-2.1-.42.27.22-.67.32-1.77.23l1.55.28c-2.71.33-2.34-.51-5.07-.19l.87-.19c-1.4.11-5.17 0-6.54.49-.25-.07-.57-.24 0-.28-3.34-.08-7.44.52-10 .22l.25-.15a5.88 5.88 0 0 1-1.87.13c0-.06.25-.15 0-.16a11.62 11.62 0 0 1-2.48.17l.71-.16c-3.27-.2-5 .41-7.75.51 0-.44-2.56-.58-3.84-.66v-.06c-3.79-.05-6.45.37-10 .54-2.18-.48-7.4-.2-10.91-.47.54.08-.08.34-.71.39-.82-.09-2.27.3-2.14-.1h.29c-.62-.4-2.31-.29-3.64-.3l-.21.52c-3.46-.76-9.06.29-10.95-.4-.83.13-1.87.13-2.69.26v-.28c-2.31-.07-3.47-.11-6.32 0l.58-.2c-1.61 0-2 .81-3.52.83l-.45-.42c-2.81 0-5.66-.37-8.44 0 .05-.06.13-.18.59-.2-1.33 0-5.12-.28-4.64.3 0-.38-2.9 0-4.42.13l.23-.28a9.87 9.87 0 0 1-3.11.55c-.42 0-.37-.22.19-.15-1.41-.15-1.1.26-2.81.11l.64-.17a4.64 4.64 0 0 0-2.14.28 6.82 6.82 0 0 1-3-.32 3.48 3.48 0 0 1-1.84.28c-.12-.09.19-.15.35-.18-2.43-.19-3.62.32-5.29.05 0-.09-.14-.14-.28-.17h3.34c0-.25-1.56-.3-.32-.65a24.24 24.24 0 0 1-4.91.49.67.67 0 0 1-.21-.09h.16a4.26 4.26 0 0 0-1 .05 10.93 10.93 0 0 0-1.26-.08 9.36 9.36 0 0 0-2.57-.13c.07.28-.95.24 0 .47H192.87a4.69 4.69 0 0 1-2.12.11c-.4.18-.84.37-1.08.45-1.07-.39-3.12-.6-3.41-.84-2.37.16-5.59.1-7.09.63a1.52 1.52 0 0 1-1-.23 9.19 9.19 0 0 0 1.07-.13c-1.35.14-4 .06-4.33.43-1.7-.17 1-.34-1.38-.28l.32-.12c-4.6-.59-7.48.95-12.58.19a1.64 1.64 0 0 1 .6.13c-5.82-.34-12 .31-17.73-.22a7.46 7.46 0 0 0-2.8.31l-.35-.3-1.71.35c-2.41.25-4.18-.74-7.23-.26l.39.2c-1.1 0-3.48.12-3.29-.11a1.13 1.13 0 0 1-.79.1v-.15l-2.7.27c-2.09-.12.33-.63-2.72-.66-1.14.06-3.23.46-2.81.56s1.17.1 1.21.26l-1 .08c-.19.47-1 .95 1.56 1.27l1.77-.28.57.22h-1.49a3.79 3.79 0 0 0 2-.11 1.41 1.41 0 0 0 .74.25l1.74-.44c.21.18-.78.36.39.46.81-.21-.78-.41.57-.55.85.21.6.39 1.59.21.14.12-.07.19-.46.25a19.13 19.13 0 0 0 2.8-.31c.89.26 3-.07 2.91.37a10.5 10.5 0 0 1 2.37-.36c-1.48.52 3 0 2.66.59 1.1-.47 4-.21 5.93-.47a1.24 1.24 0 0 1-.5.09 14.94 14.94 0 0 1 2.12.27c.14-.39 1.85-.48 2.77-.72 1.35.38-.81.46-.39.82-.07-.32 2.34-.32 1.88-.58 1 .23.89.11 1.42.44.18-.49 1-.09 1.81-.39 1.49.24.38.46 2 .31.74-.02-.72.18-.72.18zm38.9-.85h-.8zm3.27 0h-1.42c-.11-.09 0-.19.34-.19-.18.04.6.04 1.08.17zm-6.91-1.95c.52 0 .69 0 .76.07h-.97a.41.41 0 0 1 .21-.09z" fill="#3c3c3c"/><path class="cls-20" d="M400.24 222.83l-.22 6.33c-6.7 1.35-13.9 5.34-16.53 9.57-3.44 5.54-27.77 24.36-43.53 5.71-.44-.52-.84-1-1.22-1.57q.58-.68 1.17-1.32c15.68 13.44 37.35-3.48 40.58-8.69 3.06-4.93 12.32-9.52 19.75-10.03zM504.86 259.05a24.36 24.36 0 0 1-6.33 4.37c-8.68 4-16.14.48-20.67 4.77s-3.9 18.27-20 18.75c-7.69.23-12.33-2.07-15.13-5.49 1.89 6.3 6.55 11.7 18.13 11.36 16.14-.48 15.51-14.46 20-18.75s12-.81 20.67-4.77a24.67 24.67 0 0 0 6.46-4.5c-1.06-1.98-2.11-3.9-3.13-5.74z"/></g></g></svg>