<svg xmlns="http://www.w3.org/2000/svg" viewBox="0 0 613 408"><defs><style>.cls-2{fill:#fff}.cls-3{fill:#bbc8f9}.cls-4{fill:#f0f3ff}.cls-6{fill:#d8dbe6}.cls-7{fill:#bcebe3}.cls-8{fill:#202020}.cls-11{fill:#5875dc}.cls-12{fill:#ffd5d0}</style></defs><g id="_2" data-name="2"><g id="Dark_bg" data-name="Dark bg"><path d="M568 123a76 76 0 0 0-76-76c-84 0-117.72 71.17-133 96-40 65-108 56-175 56A104 104 0 0 0 80 303c0 57.44 47 104 104 104s74-40 191.67-40c63.33 0 89.16 6.87 138.83 16 43.5 8 90.5-8 90.5-64 0-67-37-78-37-196z" fill="#4d3faf"/><path class="cls-2" d="M354.56 200.65c-6.14-11-12-21.49-16.72-31.87-.52.47-1 .94-1.57 1.39 4.74 10.25 10.49 20.58 16.54 31.46 19.85 35.66 42.35 76.08 40 136.34a179.66 179.66 0 0 1-3.72 29.15h2a180.89 180.89 0 0 0 3.69-29.1c2.4-60.79-20.24-101.48-40.22-137.37zm126.23-7.04c1.9-78.22 28.69-109.47 56.75-131.46l-1.7-1.21c-28.26 22.23-55.13 53.89-57.05 132.62-1.62 66.65-18.22 125.16-39.71 176.61l2.13.25a576.3 576.3 0 0 0 15.26-40.59c15.25-45.77 23.21-90.33 24.32-136.22zm58.58 96.33a4.4 4.4 0 0 1-1.56-3.38c.06-5.73 10.2-14.67 20.92-24.13 9.35-8.24 19.4-17.12 26.34-26.36l-.81-2.37c-7 9.68-17.6 19.07-26.85 27.23-12 10.61-21.53 19-21.6 25.61a6.34 6.34 0 0 0 2.21 4.87c2.63 2.43 8.1 3.48 15.35 3.48 12.6 0 30.6-3.18 48.43-7.73l-.43-2c-30.91 7.89-56.27 10.06-62 4.78zm31.3-116.73c-7.88-8.49-14.75-16.78-14.75-27 0-11.31 3.87-21.61 11.52-32.31-.11-1-.23-1.92-.38-2.87-8.73 11.65-13.14 22.8-13.14 35.18 0 11.76 8.25 20.83 17.16 30.33l-.41-3.33zm-45.89 211.22l2.24.19c18.46-29.58 47.17-46.69 77.58-57q.1-1.08.18-2.19c-31.37 10.49-61.09 28.12-80 59zM280 379.16l2.07-.6c.69-7.24 1.46-14.56 2.26-22 3.18-29.85 6.48-60.71 5.26-94.88-.87-24.27-3.69-45.84-6.55-66.64-.65.14-1.31.27-2 .39 2.85 20.71 5.65 42.2 6.52 66.32 1.22 34-2.07 64.82-5.25 94.59-.77 7.73-1.58 15.32-2.31 22.82zm-150.66 12.21c3.57-19.15 6.38-39.92 1.94-59.74-5.37-24-18.68-35.53-31.55-46.68A170 170 0 0 1 85 271.09q-.36 1.11-.69 2.22a179.86 179.86 0 0 0 14.11 13.15c13.21 11.45 25.68 22.26 30.91 45.6 4.3 19.19 1.66 39.42-1.81 58.15zm131.59-5.82c.94-29.59-10.9-56.45-22.38-82.49-12.15-27.56-23.63-53.6-20.1-81.53a143.45 143.45 0 0 1 4.7-22.12h-2.08a144.46 144.46 0 0 0-4.6 21.88c-3.6 28.48 8 54.76 20.25 82.59 11.5 26.06 23.35 53 22.18 82.44z"/></g><g id="Big_elipse" data-name="Big elipse"><circle class="cls-3" cx="437" cy="328" r="80"/><circle class="cls-3" cx="192" cy="80" r="80"/></g><g id="Gray_bg" data-name="Gray bg"><path class="cls-4" d="M408 0c-64 0-88 48-168 48-48 0-64-24-112-24-35.35 0-80 24-80 72 0 40 8 48 8 80 0 47-56 75-56 120s32 80 80 80c72.23 0 81.15-51.09 95-72 25.71-38.81 62.87-66.32 103.27-84.36A325.08 325.08 0 0 1 408 192a96 96 0 0 0 0-192z"/><path class="cls-3" d="M488.81 98.63c4 7.11 8 14.42 12 22 .26-1 .51-1.94.74-2.92a851.1 851.1 0 0 0-11-20.1c-15.58-28-29.1-52.29-28.37-80.9-.65-.44-1.3-.88-2-1.3-1.13 29.73 12.68 54.59 28.63 83.22zm-215.39 65.48a312.72 312.72 0 0 0-6.55 60.89l2-1a310.84 310.84 0 0 1 6.48-59.53c8-39.3 25.38-65.79 42.15-91.41 12.2-18.64 24-36.62 31.38-58.42l-2.54 1.2C339 36.66 327.62 54 315.85 72c-16.85 25.79-34.32 52.44-42.43 92.11zM73.37 375.75l2 .14c.72-6.43 1.91-13 3.13-19.73 3.1-17.06 6.31-34.71 2.24-53-3.92-17.62-29.38-39.21-57-60.77l-1.2 1.6c27.29 21.33 52.43 42.62 56.21 59.6 4 17.94.81 35.38-2.25 52.25-1.2 6.77-2.4 13.4-3.13 19.91zM221.75 94c6.61-14.89 13.31-30 18.5-46h-2.1c-5.15 15.68-11.73 30.56-18.23 45.21-10.5 23.67-20.41 46-23.45 70.07-3.6 28.48 8 54.76 20.25 82.59q1.91 4.31 3.8 8.65l1.62-1.28c-1.19-2.74-2.39-5.46-3.59-8.18-12.15-27.56-23.63-53.6-20.1-81.53 3.01-23.76 12.86-45.98 23.3-69.53zM76.67 61.51c-10.14 20.87-20.46 42.12-27.16 61.65.19 1.56.39 3.06.61 4.52 6.56-20.43 17.56-43.08 28.35-65.3a1096.47 1096.47 0 0 0 14.71-31.09c-.91.39-1.83.79-2.74 1.22-4.22 9.33-8.96 19.09-13.77 29z"/><path class="cls-3" d="M79.73 227c-9.82-8.51-19.85-17.21-26.93-31.58-.29.89-.6 1.76-.93 2.64 7.16 13.63 17 22.14 26.55 30.45 13.21 11.45 25.68 22.26 30.91 45.6 5.15 23 .33 47.5-3.92 69.12-2.2 11.14-4.26 21.66-5 31.26l2-.35c.72-9.36 2.74-19.64 4.88-30.52 4.29-21.82 9.16-46.54 3.91-69.94-5.29-24.04-18.6-35.58-31.47-46.68zM47.46 362.19c-12.27-25.71-24.89-52.14-46.8-55.32l.25 2c20.46 3.26 32.31 28.09 44.74 54.16l3.62 7.55 2.7 1c-1.52-3.13-2.97-6.27-4.51-9.39z"/></g><path d="M553.07 219c-2.89-.78-4.11-5.48-4.64-8.12s.51-4.24 3-4.2 4.31 2.41 6 2.88 4.76.66 6.34 1.71 2.82 2.69 2 4.27c-2.43 4.34-9.77 4.22-12.7 3.46zm-14.14-12.14c.76-1.38-.33-2.81-1.7-3.73s-4-1.08-5.53-1.49-3.11-2.47-5.26-2.5-3.05 1.35-2.59 3.65 1.53 6.4 4 7.08 8.99.76 11.08-3.03zm-24.08 42c.76-1.38-.33-2.81-1.7-3.73s-4-1.08-5.53-1.49-3.11-2.47-5.26-2.51-3.05 1.36-2.59 3.66 1.53 6.4 4 7.08 8.99.73 11.08-3.06zm42.26-58.72c.82-1.48-.35-3-1.82-4s-4.32-1.17-5.94-1.6-3.34-2.66-5.65-2.69-3.27 1.45-2.78 3.92 1.64 6.88 4.34 7.6 9.61.79 11.85-3.28zm-84.28 6.2c.59-1.07-.25-2.19-1.32-2.9s-3.13-.84-4.31-1.16-2.42-1.93-4.09-1.95-2.38 1.05-2 2.84 1.19 5 3.15 5.52 6.95.55 8.57-2.4zm.4-38.36c.59-1.07-.25-2.18-1.32-2.9s-3.13-.84-4.31-1.16-2.42-1.92-4.09-2-2.38 1.06-2 2.85 1.19 5 3.15 5.51 6.95.61 8.57-2.35zm43 55.49c.6-1.08-.25-2.19-1.32-2.9s-3.13-.85-4.3-1.16-2.43-1.93-4.1-2-2.38 1.05-2 2.84 1.19 5 3.15 5.52 7 .6 8.62-2.35zm-24.43-7c.51-.92-.22-1.87-1.13-2.48s-2.68-.72-3.68-1-2.07-1.65-3.5-1.67-2 .9-1.73 2.43 1 4.27 2.69 4.72 6.01.53 7.4-2.02zm83.4 59.81c.59-1.08-.26-2.19-1.33-2.9s-3.13-.85-4.3-1.16-2.42-1.93-4.1-2-2.37 1.06-2 2.85 1.19 5 3.14 5.51 7.01.63 8.64-2.32zm-14.93 10.11c.59-1.08-.26-2.19-1.33-2.9s-3.13-.85-4.3-1.16-2.42-1.93-4.1-1.95-2.37 1.05-2 2.84 1.19 5 3.14 5.52 7.01.58 8.64-2.37zm31.24-49.67c.87-1.58-.38-3.22-1.95-4.27s-4.62-1.25-6.35-1.71-3.57-2.84-6-2.88-3.51 1.56-3 4.2 1.75 7.34 4.63 8.12 10.32.88 12.72-3.48zm-3.72 24c.76-1.38-.33-2.81-1.7-3.72s-4-1.08-5.53-1.49-3.11-2.47-5.26-2.51-3.05 1.36-2.59 3.66 1.53 6.4 4 7.08 9.04.8 11.13-3zm-107.2-30.49c.59-1.07-.26-2.19-1.33-2.9s-3.13-.84-4.3-1.16-2.43-1.92-4.1-1.95-2.38 1.05-2 2.85 1.18 5 3.14 5.51 7 .61 8.59-2.35zm60.3 12c.87-1.58-.38-3.22-2-4.27s-4.61-1.24-6.34-1.71-3.57-2.84-6-2.88-3.51 1.56-3 4.2 1.75 7.34 4.63 8.12 10.31.89 12.71-3.47zm-5.42 29.87c.87-1.58-.38-3.23-2-4.28s-4.61-1.24-6.34-1.71-3.57-2.83-6-2.87-3.51 1.55-3 4.19 1.76 7.35 4.64 8.13 10.3.88 12.7-3.47zm18-8.6c.87-1.59-.38-3.23-2-4.28s-4.62-1.24-6.35-1.71-3.57-2.84-6-2.88-3.5 1.56-3 4.2 1.75 7.35 4.63 8.12 10.36.89 12.76-3.46zm57.68-76.5c.36-.67-.16-1.36-.83-1.8a10.25 10.25 0 0 0-2.67-.72c-.73-.2-1.51-1.2-2.54-1.21s-1.48.65-1.26 1.77.74 3.09 2 3.42 4.29.41 5.3-1.46zm-97.9 96.47c.37-.66-.16-1.36-.82-1.8a10.42 10.42 0 0 0-2.68-.72c-.73-.2-1.5-1.2-2.54-1.21s-1.48.65-1.25 1.77.73 3.09 2 3.42 4.28.41 5.29-1.43zm22.93 3c.37-.67-.16-1.36-.82-1.81a10.42 10.42 0 0 0-2.68-.72c-.73-.19-1.5-1.19-2.54-1.21s-1.48.66-1.25 1.77.74 3.1 2 3.42 4.28.45 5.29-1.38zm62.12-35.22c.37-.66-.16-1.36-.82-1.8a10.32 10.32 0 0 0-2.68-.72c-.72-.2-1.5-1.2-2.54-1.21s-1.48.65-1.25 1.77.74 3.09 2 3.42 4.28.45 5.29-1.39zm8.29-12.95c.36-.67-.16-1.36-.83-1.8a10.25 10.25 0 0 0-2.67-.72c-.73-.2-1.51-1.2-2.55-1.21s-1.47.65-1.25 1.77.74 3.09 2 3.42 4.29.45 5.3-1.39zm-106 33.37c.37-.66-.16-1.36-.82-1.8a10.42 10.42 0 0 0-2.68-.72c-.73-.2-1.5-1.2-2.54-1.21s-1.48.65-1.25 1.77.74 3.09 1.95 3.42 4.38.45 5.39-1.39zm-.05-126.31c.37-.67-.15-1.36-.82-1.8a9.87 9.87 0 0 0-2.67-.72c-.73-.2-1.51-1.2-2.55-1.21s-1.47.65-1.25 1.76.74 3.1 2 3.43 4.33.45 5.34-1.39zM487 148.1c.6-1.09-.26-2.22-1.34-2.94s-3.17-.85-4.36-1.17-2.46-2-4.15-2-2.41 1.07-2 2.88 1.2 5.05 3.18 5.59 6.98.63 8.67-2.36zm-2.83 40.34c.42-.77-.18-1.56-.95-2.07a11.33 11.33 0 0 0-3.08-.83c-.84-.23-1.74-1.38-2.93-1.4s-1.71.75-1.45 2 .85 3.57 2.26 3.94 4.98.48 6.11-1.64zM544 168.85c.43-.77-.18-1.56-1-2.07a11.33 11.33 0 0 0-3-.78c-.84-.23-1.73-1.38-2.93-1.4s-1.7.75-1.44 2 .85 3.57 2.25 3.94 4.96.46 6.12-1.69zm-6.5-33c.42-.76-.18-1.56-1-2.07a11.33 11.33 0 0 0-3.08-.83c-.84-.23-1.74-1.38-2.93-1.4s-1.7.75-1.45 2 .86 3.57 2.26 3.94 5.04.51 6.2-1.62zm-67.31 40.57c.43-.77-.18-1.57-.94-2.08a11.88 11.88 0 0 0-3.09-.83c-.84-.22-1.73-1.38-2.93-1.4s-1.7.76-1.44 2 .85 3.57 2.25 4 4.96.44 6.15-1.67zm36.45 54.38c.76-1.38-.33-2.82-1.71-3.74s-4-1.08-5.54-1.49-3.13-2.48-5.28-2.52-3.07 1.36-2.6 3.67 1.53 6.43 4.05 7.11 8.99.8 11.08-3.01zm5.36-38.54c.81-1.49-.36-3-1.83-4s-4.32-1.17-5.94-1.6-3.34-2.66-5.64-2.7-3.28 1.46-2.78 3.93 1.64 6.87 4.34 7.6 9.56.84 11.85-3.23zm16.39-22.53c.81-1.49-.35-3-1.83-4s-4.32-1.17-5.93-1.6-3.35-2.66-5.65-2.7-3.28 1.46-2.78 3.93 1.64 6.87 4.34 7.6 9.56.84 11.8-3.23zm38.44 2.4c.82-1.48-.35-3-1.82-4s-4.32-1.16-5.94-1.6-3.34-2.65-5.64-2.69-3.28 1.45-2.79 3.93 1.64 6.87 4.34 7.6 9.56.83 11.8-3.24zm16.87 25.62c.82-1.48-.35-3-1.82-4s-4.32-1.17-5.94-1.6-3.34-2.66-5.64-2.69-3.28 1.45-2.79 3.92 1.64 6.87 4.34 7.6 9.56.84 11.8-3.23zm7.2-19.75c.7-1.27-.3-2.58-1.56-3.42s-3.69-1-5.07-1.37-2.86-2.27-4.82-2.3-2.81 1.25-2.38 3.36 1.4 5.87 3.71 6.49 8.22.76 10.12-2.76zm6.61-14.92c.69-1.26-.3-2.58-1.56-3.41s-3.69-1-5.07-1.37-2.86-2.27-4.83-2.3-2.8 1.24-2.37 3.35 1.4 5.88 3.7 6.5 8.21.75 10.13-2.73zm-23-7.21c.48-.87-.21-1.77-1.08-2.35s-2.54-.68-3.49-.94-2-1.56-3.32-1.58-1.92.86-1.63 2.31 1 4 2.55 4.47 5.63.53 6.95-1.87zm-18.81-9c.48-.88-.21-1.78-1.08-2.36s-2.53-.68-3.48-.94-2-1.56-3.32-1.58-1.93.86-1.64 2.31 1 4 2.55 4.47 5.63.53 6.95-1.86zm-13.57 4.14c.87-1.58-.38-3.22-2-4.27s-4.61-1.25-6.34-1.71-3.57-2.84-6-2.88-3.51 1.56-3 4.2 1.75 7.34 4.63 8.12 10.29.94 12.69-3.42zm-33.32-.57c.58-1-.25-2.15-1.3-2.85s-3.08-.82-4.23-1.14-2.38-1.89-4-1.91-2.34 1-2 2.79 1.17 4.9 3.09 5.42 6.82.63 8.42-2.27zm-19.35 94.16c.58-1.06-.25-2.15-1.3-2.85s-3.07-.83-4.23-1.14-2.38-1.89-4-1.92-2.33 1-2 2.8 1.17 4.89 3.09 5.41 6.85.6 8.44-2.3zm30.6-111.7c.58-1.05-.25-2.14-1.3-2.84s-3.08-.83-4.23-1.14-2.38-1.89-4-1.92-2.34 1-2 2.8 1.17 4.89 3.09 5.41 6.84.59 8.44-2.31zM500 163.69c.71-1.27-.3-2.6-1.57-3.45s-3.73-1-5.12-1.38-2.89-2.29-4.87-2.32-2.83 1.26-2.4 3.39 1.41 5.93 3.74 6.56 8.22.72 10.22-2.8zm108.9 46.84c.88-1.58-.37-3.22-1.95-4.27s-4.61-1.25-6.34-1.71-3.57-2.84-6-2.88-3.51 1.55-3 4.2 1.76 7.34 4.64 8.12 10.26.89 12.65-3.46zm-40.69 27.64c.88-1.58-.37-3.22-2-4.27s-4.61-1.25-6.34-1.71-3.57-2.84-6-2.88-3.51 1.55-3 4.2 1.76 7.34 4.64 8.12 10.31.89 12.7-3.46zm44.58-45.12c.64-1.18-.28-2.4-1.45-3.17s-3.43-.93-4.72-1.28-2.65-2.1-4.48-2.13-2.6 1.15-2.21 3.12 1.31 5.45 3.45 6 7.62.69 9.41-2.54zM92.07 172c-2.89-.78-4.11-5.48-4.64-8.12s.51-4.24 3-4.2 4.31 2.41 6 2.88 4.76.66 6.34 1.71 2.82 2.69 2 4.27c-2.43 4.34-9.77 4.22-12.7 3.46zm-14.14-12.16c.76-1.38-.33-2.81-1.7-3.73s-4-1.08-5.53-1.49-3.11-2.47-5.26-2.5-3 1.35-2.59 3.65 1.53 6.4 4 7.08 8.99.78 11.08-3.01zm-24.08 42c.76-1.38-.33-2.81-1.7-3.73s-4-1.08-5.53-1.49-3.11-2.47-5.26-2.51-3 1.36-2.59 3.66 1.53 6.4 4 7.08 8.99.75 11.08-3.04zm28.26-61.72c.82-1.48-.35-3-1.82-4s-4.32-1.17-5.94-1.6-3.35-2.69-5.65-2.72-3.27 1.45-2.78 3.92 1.64 6.88 4.34 7.6 9.61.84 11.85-3.23zm-70.28 9.2c.59-1.07-.25-2.19-1.32-2.9s-3.13-.84-4.31-1.16-2.42-1.93-4.09-1.95-2.38 1.05-2 2.84 1.19 5 3.15 5.52 6.95.57 8.57-2.38zm.4-38.36c.59-1.07-.25-2.18-1.32-2.9s-3.13-.84-4.31-1.16-2.42-1.92-4.09-2-2.38 1.06-2 2.85 1.19 5 3.15 5.51 6.95.63 8.57-2.33zm43.05 55.49c.6-1.08-.25-2.19-1.32-2.9s-3.13-.85-4.3-1.16-2.43-1.93-4.1-2-2.38 1.05-2 2.84 1.19 5 3.15 5.52 6.95.62 8.57-2.33zm-24.43-7c.51-.92-.22-1.87-1.13-2.48S27 156.25 26 156s-2.07-1.65-3.5-1.67-2 .9-1.73 2.43 1 4.27 2.69 4.72 6 .52 7.39-2.03zm83.4 59.81c.59-1.08-.26-2.19-1.33-2.9s-3.13-.85-4.3-1.16-2.42-1.93-4.1-2-2.37 1.06-2 2.85 1.19 5 3.14 5.51 6.96.65 8.59-2.3zm-14.93 10.11c.59-1.08-.26-2.19-1.33-2.9s-3.13-.85-4.3-1.16-2.42-1.93-4.1-1.95-2.37 1-2 2.84 1.19 5 3.14 5.52 6.96.6 8.59-2.35zm31.24-49.67c.87-1.58-.38-3.22-1.95-4.27s-4.62-1.25-6.35-1.71-3.57-2.84-6-2.88-3.51 1.56-3 4.2 1.75 7.34 4.63 8.12 10.27.9 12.67-3.46zm-3.72 24c.76-1.38-.33-2.81-1.7-3.72s-4-1.08-5.53-1.49-3.11-2.47-5.26-2.51-3 1.36-2.59 3.66 1.53 6.4 4 7.08 8.99.82 11.08-2.98zM19.59 173.23c.59-1.07-.26-2.19-1.33-2.9s-3.13-.84-4.3-1.16-2.43-1.92-4.1-1.95-2.38 1.05-2 2.85 1.18 5 3.14 5.51 7 .61 8.59-2.35zm60.3 12c.87-1.58-.38-3.22-2-4.27s-4.61-1.24-6.34-1.71-3.57-2.84-6-2.88-3.51 1.56-3 4.2 1.75 7.34 4.63 8.12 10.31.89 12.71-3.47zm-5.42 29.87c.87-1.58-.38-3.23-2-4.28s-4.61-1.24-6.34-1.71-3.57-2.83-6-2.87-3.51 1.55-3 4.19 1.76 7.35 4.64 8.13 10.3.88 12.7-3.47zm18-8.6c.87-1.59-.38-3.23-2-4.28s-4.62-1.24-6.35-1.71-3.57-2.84-6-2.88-3.5 1.56-3 4.2 1.75 7.35 4.63 8.12 10.36.89 12.76-3.46zm57.68-76.5c.36-.67-.16-1.36-.83-1.8a10.25 10.25 0 0 0-2.67-.72c-.73-.2-1.51-1.2-2.54-1.21s-1.48.65-1.26 1.77.74 3.09 2 3.42 4.29.41 5.3-1.46zm-97.9 96.5c.37-.66-.16-1.36-.82-1.8a10.42 10.42 0 0 0-2.68-.72c-.73-.2-1.5-1.2-2.54-1.21s-1.48.65-1.25 1.77.73 3.09 1.95 3.42 4.33.38 5.34-1.46zm22.93 3c.37-.67-.16-1.36-.82-1.81a10.42 10.42 0 0 0-2.68-.72c-.73-.19-1.5-1.19-2.54-1.21s-1.48.66-1.25 1.77.74 3.1 2 3.42 4.28.42 5.29-1.41zm62.12-35.22c.37-.66-.16-1.36-.82-1.8a10.32 10.32 0 0 0-2.68-.72c-.72-.2-1.5-1.2-2.54-1.21s-1.48.65-1.25 1.77.74 3.09 2 3.42 4.28.42 5.29-1.42zm8.29-17.95c.36-.67-.16-1.36-.83-1.8a10.25 10.25 0 0 0-2.67-.72c-.73-.2-1.51-1.2-2.55-1.21s-1.47.65-1.25 1.77.74 3.09 2 3.42 4.29.42 5.3-1.42zM39.64 214.74c.37-.66-.16-1.36-.82-1.8a10.42 10.42 0 0 0-2.68-.72c-.73-.2-1.5-1.2-2.54-1.21s-1.48.65-1.25 1.77.74 3.09 1.95 3.42 4.33.38 5.34-1.46zm0-126.31c.37-.67-.15-1.36-.82-1.8a9.87 9.87 0 0 0-2.67-.72c-.73-.2-1.51-1.2-2.55-1.21s-1.47.65-1.25 1.76.74 3.1 2 3.43 4.23.38 5.24-1.46zM26 101.1c.6-1.09-.26-2.22-1.34-2.94s-3.17-.85-4.36-1.17S17.8 95 16.11 95s-2.41 1.07-2 2.88 1.2 5 3.18 5.59 7.02.62 8.71-2.37zm1.17 36.34c.42-.77-.18-1.56-.95-2.07a11.33 11.33 0 0 0-3.08-.83c-.84-.23-1.74-1.38-2.93-1.4s-1.71.75-1.45 2 .85 3.57 2.26 3.94 4.98.48 6.11-1.64zM83 121.85c.43-.77-.18-1.56-1-2.07a11.33 11.33 0 0 0-3-.78c-.84-.23-1.73-1.38-2.93-1.4s-1.7.75-1.44 2 .85 3.57 2.25 3.94 4.96.46 6.12-1.69zm-6.5-33c.42-.76-.18-1.56-1-2.07a11.33 11.33 0 0 0-3.03-.78c-.84-.23-1.74-1.38-2.93-1.4s-1.7.75-1.45 2 .86 3.57 2.26 3.94 4.99.46 6.15-1.67zM9.19 129.44c.43-.77-.18-1.57-.94-2.08a11.88 11.88 0 0 0-3.09-.83c-.84-.22-1.73-1.38-2.93-1.4s-1.7.76-1.44 2 .85 3.57 2.25 4 4.96.42 6.15-1.69zm36.45 54.38c.76-1.38-.33-2.82-1.71-3.74s-4-1.08-5.54-1.49-3.13-2.48-5.28-2.52-3.07 1.36-2.6 3.67 1.53 6.43 4.05 7.11 8.99.78 11.08-3.03zM51 145.26c.81-1.49-.36-3-1.83-4s-4.32-1.17-5.94-1.6-3.39-2.66-5.69-2.66-3.28 1.46-2.78 3.93 1.64 6.87 4.34 7.6 9.61.8 11.9-3.27zm16.39-22.53c.81-1.49-.35-3-1.83-4s-4.32-1.17-5.93-1.6-3.35-2.66-5.65-2.7-3.28 1.46-2.78 3.93 1.64 6.87 4.34 7.6 9.56.84 11.8-3.23zm38.44 2.4c.82-1.48-.35-3-1.82-4s-4.37-1.13-6.01-1.6-3.34-2.65-5.64-2.69-3.28 1.45-2.79 3.93 1.64 6.87 4.34 7.6 9.63.83 11.87-3.24zm5.87 22.62c.82-1.48-.35-3-1.82-4s-4.32-1.17-5.94-1.6-3.34-2.66-5.64-2.69-3.28 1.45-2.79 3.92 1.64 6.87 4.34 7.6 9.56.84 11.8-3.23zM129.9 131c.7-1.27-.3-2.58-1.56-3.42s-3.69-1-5.07-1.37-2.86-2.27-4.82-2.3-2.81 1.25-2.38 3.36 1.4 5.87 3.71 6.49 8.22.76 10.12-2.76zm6.61-14.92c.69-1.26-.3-2.58-1.56-3.41s-3.69-1-5.07-1.37-2.86-2.27-4.83-2.3-2.8 1.24-2.37 3.35 1.4 5.88 3.7 6.5 8.21.75 10.13-2.73zm-23-7.21c.48-.87-.21-1.77-1.08-2.35s-2.54-.68-3.49-.94-2-1.56-3.32-1.58-1.92.86-1.63 2.31 1 4 2.55 4.47 5.63.53 6.95-1.87zm-18.81-9c.48-.88-.21-1.78-1.08-2.36s-2.53-.68-3.48-.94-2-1.56-3.32-1.58-1.93.86-1.64 2.31 1 4 2.55 4.47 5.63.53 6.95-1.86zm-13.57 4.14c.87-1.58-.38-3.22-2-4.27s-4.61-1.25-6.34-1.71-3.57-2.84-6-2.88-3.51 1.56-3 4.2 1.75 7.34 4.63 8.12 10.29.94 12.69-3.42zm-33.32-.57c.58-1-.25-2.15-1.3-2.85s-3.08-.82-4.23-1.14-2.38-1.89-4-1.91-2.34 1-2 2.79 1.17 4.9 3.09 5.42 6.82.63 8.42-2.27zM28.46 197.6c.58-1.06-.25-2.15-1.3-2.85s-3.07-.83-4.23-1.14-2.38-1.89-4-1.92-2.33 1-2 2.8 1.17 4.89 3.09 5.41 6.85.6 8.44-2.3zm30.6-111.7c.58-1.05-.25-2.14-1.3-2.84s-3.08-.83-4.23-1.14S51.15 80 49.51 80s-2.34 1-2 2.8 1.17 4.89 3.09 5.41 6.86.59 8.46-2.31zM39 119.69c.71-1.27-.3-2.6-1.57-3.45s-3.73-1-5.12-1.38-2.89-2.29-4.87-2.32-2.83 1.26-2.4 3.39 1.41 5.93 3.74 6.56 8.22.72 10.22-2.8zm102.9 40.84c.88-1.58-.37-3.22-2-4.27s-4.61-1.25-6.34-1.71-3.57-2.84-6-2.88-3.51 1.55-3 4.2 1.76 7.34 4.64 8.12 10.31.89 12.7-3.46zm-34.69 30.64c.88-1.58-.37-3.22-1.95-4.27s-4.61-1.25-6.34-1.71-3.57-2.84-6-2.88-3.51 1.55-3 4.2 1.76 7.34 4.64 8.12 10.26.89 12.65-3.46zm44.58-45.12c.64-1.18-.28-2.4-1.45-3.17s-3.43-.93-4.72-1.28-2.65-2.1-4.48-2.13-2.6 1.15-2.21 3.12 1.31 5.45 3.45 6 7.62.69 9.41-2.54z" fill="#cc90ff" id="Heart"/><g id="Web"><rect class="cls-2" x="80" y="64" width="453" height="280" rx="16" ry="16"/><path class="cls-6" d="M533 104H80V80a16 16 0 0 1 16-16h421a16 16 0 0 1 16 16z"/><circle class="cls-2" cx="104" cy="84" r="8"/><circle class="cls-2" cx="128" cy="84" r="8"/><circle class="cls-2" cx="152" cy="84" r="8"/><path class="cls-4" d="M112 136h389v176H112.92L112 136z"/><path class="cls-6" d="M144 168h12v12h-12zm0 28h12v12h-12zm0 28h12v12h-12zm0 28h12v12h-12zm24-84h301v12H168zm0 56.32h285v11.36H168zm0 27.68h253v12H168zm0-56h64v12h-64zm76 1.28h177v9.44H244z"/></g><g id="Small_elipse" data-name="Small elipse"><circle class="cls-7" cx="564" cy="44" r="12"/><circle class="cls-7" cx="332" cy="396" r="12"/><circle class="cls-7" cx="288" cy="376" r="16"/></g><path class="cls-8" d="M277 48.19l.37-.44a1.56 1.56 0 0 1-.37.25zm0-2.5v2.17a5.5 5.5 0 0 1 1.82-1.41l1.52-1.8c0 .1-.23.4-.41.67.72-1.06.34 0 1-1-.15.07 0-.15-.06-.2a12.79 12.79 0 0 0 2.07-1.95v.24c1.26-1.2 2.54-2.65 3.92-4-.55.45-.63.14-.24-.29h.33c.16-.36-.48.36-.08-.31.54-.49.55-.15.31.21l.56-.69c.09 0 0 .19 0 .29.15-.36 1.25-.91 1.44-1.46h.09c1.38-1.38 1.95-2.06 3.06-3.2-.12-.16.32-.55.54-1h-2.49c-1.18 1.27-2 2.44-3.23 3.77-1.22.72-3.4 3.19-5.1 4.61.28-.2.14.22-.11.52-.42.32-.85 1.18-1 .91l.14-.13c-.49.07-1.19.88-1.78 1.46l.18.38a11.58 11.58 0 0 0-2.48 2.21zm3.67 19.4h-.42c-1.07 1.07-2.27 2-3.25 3.17v2.15a60.08 60.08 0 0 1 5.06-4.75c0-.49 1.89-1.69 1.69-2.12a18.92 18.92 0 0 0 2.5-1.87c.4-.37.38-.77.83-1.28l.17.15.48-.82.54-.15.41-.49c-.19.17-.45.31-.47.23a5.76 5.76 0 0 1 1.92-1.53l1.52-1.78c0 .1-.22.4-.4.66.72-1.05.33 0 1-1-.15.07 0-.16-.05-.21a13.21 13.21 0 0 0 2.06-1.95v.24c1.26-1.2 2.54-2.64 3.93-4-.55.44-.63.13-.25-.29h.34c.15-.37-.49.36-.08-.31.53-.5.54-.15.3.2l.57-.69c.08 0 0 .19 0 .3.15-.37 1.26-.91 1.44-1.47h.09c1.38-1.38 1.95-2.07 3.06-3.2-.12-.17.35-.58.57-1 .87-.78 1.9-1.58 2.89-2.58.62-.78.07-.33.3-.74.19.09 1.17-.92.75-.31 1.17-1.21 1.5-1.55 2.9-3.17-.22.11-.43.27-.38.12.26-.29.68-.56.71-.46l-.06.09c1.21-1.54 3.27-2.89 4.59-4.22h-2.75a41 41 0 0 1-3.67 3.9v-.2c-.25.3-.33.64-.76.9 0-.05 0-.19-.1-.06a6.49 6.49 0 0 1-1 1.2l.23-.41c-1.56 1.35-2 2.45-3.18 3.72-.23-.24-1.45.83-2.05 1.36-1.72 1.66-2.68 3.07-4.15 4.73-1.23.72-3.4 3.18-5.11 4.6.28-.19.15.23-.11.53-.41.32-.85 1.17-1 .9l.14-.13c-.49.07-1.19.88-1.78 1.46l.18.38c-1.94 1.13-3.88 4.18-5.09 4.66-.3.44-.76.9-1.06 1.34l-.13-.17c-1.06 1-1.6 1.48-2.83 2.79l.15-.37c-.79.65-.53 1.28-1.19 1.95zm-3.24 25.12l.16.43a6.53 6.53 0 0 1 .5-.48c-.14-.13-.86.54-.49-.2zm.21.58a8 8 0 0 0 .48 1l.1-.08-.09.09.14.24a74.06 74.06 0 0 1 3.58-3.26l.41-.72c.13-.13.31-.17.2 0 .63-.51-.07-.13.14-.46s.52-.35.36-.09a24.16 24.16 0 0 1 3.84-4.07l-.16.25c.89-.76.61-1.25 1.53-1.88l-.12.18a68.62 68.62 0 0 1 5.33-5c0-.49 1.88-1.69 1.69-2.11a21.8 21.8 0 0 0 2.49-1.88c.41-.38.39-.78.83-1.29l.18.16.48-.83.54-.15.4-.49c-.18.17-.45.31-.47.24a5.49 5.49 0 0 1 1.93-1.53l1.52-1.8c0 .1-.23.4-.41.66.72-1 .33 0 1-1-.14.07 0-.16-.05-.21a12.33 12.33 0 0 0 2.07-2v.25c1.26-1.2 2.54-2.65 3.92-4-.55.44-.63.13-.24-.29h.33c.16-.37-.49.36-.08-.31.54-.49.54-.15.3.2l.57-.68c.09 0 0 .19 0 .29.15-.37 1.25-.91 1.44-1.47h.08c1.39-1.38 1.95-2.07 3.07-3.2-.13-.17.34-.58.56-1 .87-.78 1.91-1.58 2.89-2.59.63-.77.08-.33.3-.73.19.08 1.17-.93.76-.31a66.56 66.56 0 0 0 2.9-3.18c-.22.11-.43.27-.38.13.25-.3.68-.57.7-.46l-.05.08c1.49-1.9 4.31-3.52 5.38-5.15l-.07.09 1.26-1.55c.66-.62-.29.49.27.1 1.29-1.74 2.42-2.36 3.52-3.76 1.36-.56 3.39-3.44 4.94-4.49h-.17c.25-.42.47-.35.73-.57-.1 0-.44.28-.29 0l.19-.2H336c-1 1-2.11 1.9-3.23 3.06.92-.29-.48.5-.05.72-.38.42-.53.56-.59.57l-1.39 1c-.37.19.31-.44.2-.48-.89.84-.5.23-1.16.71.23 0-.13.47-.67.91L330 38c-1 1.38-1.31.77-2.35 2.16l.28-.49c-.56.68-2.3 2.3-2.65 3.17-.15.07-.38.13-.13-.17-1.53 1.45-3 3.59-4.36 4.59v-.19c-.25.3-.33.63-.76.9 0-.05 0-.19-.1-.07a6.43 6.43 0 0 1-1 1.2l.22-.4c-1.55 1.34-2 2.44-3.17 3.71-.23-.23-1.45.84-2.06 1.37-1.72 1.66-2.68 3.06-4.16 4.72-1.22.72-3.4 3.19-5.1 4.61.28-.2.14.22-.11.52-.42.32-.86 1.18-1 .9l.13-.12c-.48.06-1.18.87-1.78 1.46l.19.37c-1.95 1.14-3.89 4.19-5.09 4.66-.3.44-.76.9-1.06 1.34l-.14-.24c-1.07 1-1.6 1.49-2.84 2.79l.15-.36c-.72.71-.47 1.34-1.12 2h-.43a34.13 34.13 0 0 0-3.74 3.77c0-.05 0-.16.15-.37-.59.59-2.43 2.13-1.91 2.22-.21-.18-1.31 1.28-1.9 2v-.25a5.14 5.14 0 0 1-1.16 1.66c-.21.17-.29.05 0-.16-.71.55-.35.63-1.19 1.31l.19-.37a2.45 2.45 0 0 0-.8 1.1c-.35.46-1.27 1.19-1.5 1.15a1.85 1.85 0 0 1-.67 1c-.1 0 0-.17.06-.26a10.65 10.65 0 0 0-1.45 1.56zm17.84 4.56l-.05-.25a7.83 7.83 0 0 1-.47.9h1.73a14 14 0 0 1 1.42-1.28L298 95c.89-.77.62-1.26 1.53-1.88l-.12.17a70.61 70.61 0 0 1 5.33-5c0-.48 1.89-1.68 1.69-2.11a20.34 20.34 0 0 0 2.5-1.87c.4-.37.38-.77.83-1.28l.17.15.48-.82.54-.15.41-.49c-.19.17-.46.3-.48.23a5.58 5.58 0 0 1 1.93-1.53l1.52-1.8c0 .11-.23.41-.4.67.71-1.06.33 0 1-1-.15.08 0-.15-.06-.2a12.79 12.79 0 0 0 2.07-1.95v.24c1.26-1.2 2.54-2.65 3.92-4-.54.45-.63.14-.24-.29h.34c.15-.37-.49.35-.09-.31.54-.5.55-.16.31.2l.56-.69c.09 0 0 .19 0 .29.15-.36 1.26-.91 1.44-1.46h.09c1.38-1.38 1.95-2.06 3.06-3.2-.12-.17.35-.57.56-1 .88-.78 1.91-1.58 2.89-2.59.63-.77.08-.33.31-.73.19.08 1.17-.92.75-.31 1.17-1.22 1.5-1.55 2.9-3.17-.22.1-.43.26-.38.12.25-.29.68-.57.71-.46l-.06.09c1.49-1.9 4.31-3.52 5.38-5.16l-.06.09 1.25-1.55c.67-.62-.28.49.28.1 1.28-1.74 2.42-2.36 3.51-3.75 1.37-.56 3.39-3.45 4.95-4.49h-.17c.24-.43.46-.35.73-.58-.11 0-.45.28-.29 0 2.73-3 6-5.74 9-8.57 1.1-1 .12-1.1 1.69-2.22l-.2.56c.36-.44.75-.86 1.14-1.28h-2.3a2.55 2.55 0 0 1-.38.41v-.13c-1 1.1-.85 1.33-2 2.46l.18-.05c-.43.83-.65.41-1.12 1.19h-.4c-.37.47-1.25 1.66-2 2.44a19.47 19.47 0 0 1 1.51-2.16 10.3 10.3 0 0 0-1.5 1.73 3.05 3.05 0 0 1 .5-.57 9.09 9.09 0 0 1-1.75 2.23c-.26-.55-2.24 2-3.15 2.31-1.3 1.6-2.94 2.82-4.6 4.53.91-.28-.49.5-.06.72a2.68 2.68 0 0 1-.59.58l-1.38 1c-.38.19.3-.45.19-.48-.89.83-.5.22-1.15.7.23 0-.14.47-.67.92l.84-.55c-1 1.38-1.32.77-2.36 2.16l.28-.49c-.56.69-2.3 2.3-2.65 3.17-.15.07-.38.13-.13-.17-1.53 1.45-3 3.6-4.36 4.59v-.19c-.26.3-.34.63-.76.9 0 0 0-.19-.11-.07a5.49 5.49 0 0 1-1 1.2l.23-.4c-1.56 1.35-2 2.45-3.18 3.72-.23-.24-1.45.83-2.06 1.36V65c-1.72 1.66-2.68 3.07-4.15 4.72-1.23.72-3.4 3.19-5.11 4.61.28-.19.14.22-.11.52-.41.32-.85 1.18-1 .91l.14-.13c-.49.07-1.19.88-1.78 1.46l.18.38c-1.95 1.13-3.88 4.18-5.09 4.66-.3.44-.76.9-1.06 1.33l-.13-.17c-1.07 1-1.6 1.49-2.84 2.8l.16-.37c-.73.71-.48 1.34-1.13 2h-.42a33.28 33.28 0 0 0-3.75 3.76s0-.15.15-.36c-.59.58-2.43 2.12-1.91 2.22-.28-.21-1.38 1.25-1.96 2.01zm24.14-1.92c-.31.44-.77.9-1.06 1.34l-.13-.17c-.59.54-1 .94-1.49 1.4h2.78l.47-.41c.4-.37.38-.77.83-1.28l.18.15.47-.82.54-.15.41-.49c-.19.17-.45.31-.47.23a5.86 5.86 0 0 1 1.92-1.53l1.52-1.79c0 .1-.22.4-.4.66.72-1 .33 0 1-.95-.14.07 0-.16-.05-.21a13.21 13.21 0 0 0 2.06-2v.25c1.26-1.21 2.54-2.65 3.93-4-.55.44-.63.13-.25-.29h.34c.15-.37-.49.36-.08-.31.53-.5.54-.15.3.2l.57-.69c.09 0 0 .19 0 .3.15-.37 1.26-.91 1.44-1.47h.09c1.38-1.38 1.95-2.07 3.07-3.2-.13-.17.34-.58.56-1 .87-.77 1.9-1.57 2.89-2.58.62-.78.08-.33.3-.74.19.09 1.17-.92.75-.31a53.46 53.46 0 0 0 2.9-3.17c-.22.11-.42.27-.38.13.26-.3.69-.57.71-.47l-.06.09c1.5-1.9 4.31-3.52 5.38-5.15l-.06.09 1.25-1.55c.67-.62-.28.49.28.09 1.29-1.74 2.42-2.35 3.52-3.75 1.36-.56 3.39-3.44 4.94-4.49h-.17c.25-.43.46-.35.73-.58-.11 0-.45.28-.29 0 2.73-3 6-5.74 9-8.57 1.09-1 .12-1.09 1.69-2.21l-.21.55c1.94-2.36 4.41-4.39 6.34-6.68-.08.16 0 .22-.24.43a5.08 5.08 0 0 0 1.56-1.75c.34-.31.17 0 .42-.13.52-.37 1-1.28 1.33-1.39.06 0-.09.16-.16.25.23-.35 1.37-1.34.95-1.2.85-.72 1.43-1.56 2.14-2.11h-2.07c-.69.76-1.52 1.66-2.16 2.32 0-.08 0-.06.08-.17-1 .8-.25.85-1.39 1.77-.69.35.46-.64.07-.37-.49-.21-1.19 1.28-2.08 1.77l.14-.19c-.64.41-1.15 1.42-2 2.25 0 0 0-.07 0 0a20.3 20.3 0 0 1-2.25 2.81c.12-.39.3-.45 0-.42-.36.39.33.11-.38.89-.31.16-.91.63-1.13.56l.69-.71c-.54.17-.9.91-1.3 1.25v-.13c-1.05 1.1-.85 1.32-2 2.46l.18-.06c-.42.84-.64.41-1.12 1.19h-.4c-.36.47-1.25 1.66-1.95 2.44a18.84 18.84 0 0 1 1.5-2.15 10.26 10.26 0 0 0-1.49 1.73 2.33 2.33 0 0 1 .5-.58 9.34 9.34 0 0 1-1.75 2.23c-.26-.55-2.24 2-3.15 2.32-1.3 1.6-2.94 2.81-4.61 4.53.91-.29-.49.5-.06.72a2.84 2.84 0 0 1-.58.57l-1.39 1c-.38.19.3-.44.19-.48-.88.84-.49.22-1.15.71.23 0-.13.46-.67.91l.84-.54c-1 1.38-1.31.77-2.36 2.15l.29-.48c-.57.68-2.3 2.29-2.66 3.16-.14.08-.38.13-.13-.16-1.52 1.45-3 3.59-4.35 4.59v-.2c-.25.31-.33.64-.76.9 0-.05 0-.19-.1-.06a6.77 6.77 0 0 1-1 1.2l.22-.41c-1.56 1.35-2 2.45-3.18 3.72-.23-.23-1.44.83-2.05 1.37v-.06c-1.72 1.67-2.68 3.07-4.15 4.73-1.23.72-3.4 3.19-5.11 4.61.29-.2.15.22-.11.52-.41.32-.85 1.17-1 .9l.13-.13c-.49.07-1.18.88-1.78 1.46l.18.38c-2.11 1.08-4.05 4.18-5.25 4.61zm82.76-57.38c1.24-1.44 2.42-2.77 3.59-4h-1.92c-.14.14-.28.28-.45.42l.47-.35c-.05.3-.77.8-1.13 1.27-.07-.15-.36.07-.61.18.1.06-.93.93-.84 1.25l-.71.43c-1.08 1-.87 1.47-1.89 2.42.18-.41-.34 0 .24-.78-.33.33-.65.61-.58.68-.26.13-.77 1.06-1.17 1.26a1.34 1.34 0 0 1-.41.7h-.05s-.51.65-.07.44c-1.34.69-2.81 2.86-4 3.47-.68.75-1.51 1.65-2.16 2.31 0-.07 0 0 .08-.17-1 .81-.25.86-1.38 1.77-.69.36.45-.63.06-.37-.49-.2-1.19 1.28-2.08 1.77l.15-.18c-.65.41-1.16 1.41-2 2.25 0 0 0-.07-.05-.06a19.62 19.62 0 0 1-2.25 2.82c.12-.4.3-.45 0-.43-.35.39.33.11-.37.89-.32.17-.92.64-1.14.56l.7-.71c-.55.17-.9.92-1.3 1.25v-.13c-1 1.1-.85 1.32-2 2.46l.18-.06c-.42.84-.64.42-1.11 1.2h-.4c-.37.46-1.26 1.65-2 2.44a19.47 19.47 0 0 1 1.51-2.16 9.93 9.93 0 0 0-1.5 1.73 2.55 2.55 0 0 1 .5-.58 8.91 8.91 0 0 1-1.75 2.23c-.26-.55-2.24 2-3.15 2.32-1.3 1.6-2.94 2.81-4.61 4.53.92-.28-.48.5-.05.72a3 3 0 0 1-.59.58l-1.39 1c-.37.18.31-.45.2-.49-.89.84-.5.23-1.16.71.24 0-.13.47-.67.91l.84-.54c-1 1.38-1.31.77-2.35 2.16l.28-.49c-.56.68-2.3 2.3-2.65 3.17-.15.07-.38.13-.13-.17-1.53 1.45-3 3.59-4.36 4.59v-.19c-.26.3-.34.63-.77.9 0 0 0-.19-.1-.07a6.13 6.13 0 0 1-1 1.2l.22-.4c-1.55 1.35-2 2.44-3.17 3.72-.23-.24-1.45.83-2.06 1.36-1.72 1.66-2.68 3.06-4.16 4.72a37 37 0 0 0-4 3.66h2.76l1-1c-.55.44-.63.14-.24-.29h.33c.16-.37-.49.36-.08-.31.54-.49.54-.15.3.2l.57-.68c.09 0 0 .19 0 .29.15-.36 1.25-.91 1.44-1.47h.09c1.38-1.38 1.94-2.06 3.06-3.2-.13-.17.35-.58.56-1 .87-.78 1.91-1.58 2.89-2.59.63-.77.08-.33.31-.73.18.08 1.16-.93.75-.31 1.17-1.22 1.5-1.56 2.9-3.18-.22.11-.43.27-.38.13.25-.3.68-.57.7-.46l-.05.08c1.49-1.9 4.31-3.52 5.38-5.15l-.07.09 1.26-1.55c.67-.62-.29.49.27.1 1.29-1.74 2.43-2.36 3.52-3.75 1.36-.57 3.39-3.45 4.95-4.5h-.17c.24-.42.46-.35.73-.57-.11 0-.45.28-.3 0 2.74-3 6-5.74 9-8.58 1.09-1 .12-1.09 1.69-2.21l-.21.56c1.95-2.37 4.42-4.4 6.35-6.69-.09.17 0 .22-.25.43a4.87 4.87 0 0 0 1.56-1.75c.34-.32.17 0 .43-.14.52-.37 1-1.28 1.32-1.39.06 0-.08.17-.16.26.23-.35 1.38-1.34.95-1.21.86-.72 1.45-1.58 2.17-2.12.24-.58 1.43-1.28 1.33-1.64.18.29 1.58-1.2 2-1.81-.1.24.51-.36.41-.06.57-.58 1.05-1.15.83-1.17 1.27-.95 1.81-2.53 2.77-2.75zm3.91-4.05h-.14c-.39.4-.75.79-.6.88.28-.31.52-.6.74-.88zm22.11 0h-1.6a.3.3 0 0 1-.06.11c-.39.26-.92 1.06-1.2 1 1.08-1-.28 0 .56-.95a4 4 0 0 1-.62.61c-.06 0 0-.07.06-.14-1.14.83-.27.64-1.29 1.65 0-.22-.41.06-.56.25.41-.41.35 0 .05.41-.73.57-.65.76-1 1.09l.43-.35c0 .22-.38.54-.8 1-.11 0 .36-.46.17-.33-.34.67-1.32 1-1.91 1.78-.39.27-.21-.14-.54.1-.67.91-1 .73-1.71 1.66.36-.11.37-.19-.09.52l1.27-1.41-.69 1.06c.41-.41.79-.95 1.05-1.18-.31.52-.3.45 0 .36-.75.37-1 1.23-1.78 1.75l-.29-.33c-1.12.84-1.58 1.9-2.93 3.09l.46-.36c-.05.3-.77.81-1.13 1.27-.07-.14-.36.08-.6.19.1 0-.94.92-.85 1.24l-.7.43c-1.08 1-.87 1.47-1.9 2.42.19-.41-.34 0 .24-.77-.33.32-.64.6-.58.68-.25.13-.77 1-1.17 1.26a1.3 1.3 0 0 1-.41.7c-.06 0 0-.06 0-.06s-.51.65-.07.45c-1.34.68-2.81 2.86-4 3.46-.69.75-1.52 1.65-2.17 2.31 0-.07 0-.05.09-.16-1 .8-.25.85-1.39 1.77-.69.35.45-.64.06-.38-.48-.2-1.19 1.29-2.08 1.78l.15-.19c-.64.41-1.15 1.42-2 2.25 0 0 0-.07-.05-.05a20.15 20.15 0 0 1-2.25 2.81c.13-.39.31-.45 0-.43-.35.39.33.11-.37.89-.32.17-.91.64-1.13.57l.69-.71c-.55.17-.9.91-1.3 1.25v-.13c-1 1.09-.85 1.32-2 2.45l.18-.05c-.42.83-.65.41-1.12 1.19h-.4c-.36.47-1.25 1.66-2 2.44a19.47 19.47 0 0 1 1.51-2.16 11.32 11.32 0 0 0-1.5 1.73 3.05 3.05 0 0 1 .5-.57 9.26 9.26 0 0 1-1.74 2.23c-.26-.55-2.24 2-3.15 2.31-1.31 1.61-2.95 2.82-4.61 4.53.91-.28-.49.51-.06.73a2.84 2.84 0 0 1-.58.57l-1.39 1c-.38.19.3-.45.19-.48-.88.83-.5.22-1.15.71.23 0-.14.46-.67.91l.84-.54c-1 1.37-1.31.76-2.36 2.15l.28-.49c-.56.69-2.3 2.3-2.65 3.17-.15.08-.38.13-.13-.17-1.53 1.45-3 3.6-4.35 4.59v-.19c-.26.3-.34.63-.76.9 0 0 0-.19-.1-.06a6.18 6.18 0 0 1-1 1.19l.23-.4a11.59 11.59 0 0 0-1.89 2.1h2.37c1-1 1.39-1.44 2.7-3-.22.1-.43.26-.38.12.25-.29.68-.56.71-.46l-.06.09c1.49-1.9 4.31-3.52 5.38-5.16l-.06.09 1.25-1.55c.67-.62-.28.49.28.1 1.28-1.74 2.42-2.36 3.51-3.75 1.37-.56 3.39-3.45 4.95-4.49L383 78c.24-.43.46-.35.73-.58-.11 0-.45.28-.29 0 2.73-3 6-5.74 9-8.57 1.09-1 .11-1.1 1.68-2.22l-.2.56c1.94-2.36 4.41-4.4 6.34-6.68-.08.16 0 .22-.24.42a4.91 4.91 0 0 0 1.55-1.75c.35-.32.17 0 .43-.13.52-.37 1-1.29 1.32-1.4.06 0-.08.17-.15.26.23-.35 1.37-1.34.94-1.21.87-.72 1.45-1.58 2.17-2.12.25-.58 1.43-1.28 1.33-1.64.19.3 1.58-1.19 2-1.81-.09.24.51-.36.42-.06.56-.57 1-1.14.82-1.17 1.34-.76 1.88-2.34 2.84-2.57 1.57-1.82 3.06-3.48 4.53-5.06.18.29-1.67 1.71-1.35 1.89a43.89 43.89 0 0 1 3.47-4c.41-.34-.11.31-.19.48 1.35-1.54 2.82-2.77 4-4.19 0 0-.09.19-.2.34.24-.26.62-.56.48-.64l-.21.28c-.57.25.67-1.34.64-1.47-.12.74 1.35-1.19 1.05-.11.15-.19.31-.45.2-.49.27-.22.39-.26.22.08.85-1 .41-.76 1.24-1.59 0 .06-.1.25-.12.39a6.62 6.62 0 0 1 .95-1.24zm22 .56l.12-.39a1.37 1.37 0 0 1 .25-.17h-1.17a18.17 18.17 0 0 1-1.82 1.27c-1 .81-.59 1.1-1.59 2 .18-.06.46 0-.18.76s-1.08.54-.71.08c.15-.17.25-.22.26-.2.19-.23.44-.54.11-.35v.15c-.39.27-1.29 1.18-1.18.86-.43.56-.11.32.29 0-.93.75-1.32 1.32-2.25 2.12.18-.1.38-.15.24 0-1.35 1.2-.44.68-1.28 1.58-.58.39 0-.41-.84.54-.6.47-.28 0-.12-.32a10.68 10.68 0 0 1-2 1.83l.36-.47a6.24 6.24 0 0 1-.63.69l.36-.11c-.26.23-.47.43-.52.38-.17.33.41 0 0 .62-.39.27-.93 1.07-1.21 1 1.09-1-.28 0 .56-1a4 4 0 0 1-.62.62c-.05 0 0-.07.06-.15-1.13.83-.26.64-1.28 1.66 0-.23-.42 0-.57.24.42-.41.36 0 .05.41-.72.58-.65.76-1 1.1l.42-.36c0 .23-.37.54-.8 1-.11 0 .36-.47.17-.34-.34.67-1.31 1-1.91 1.79-.39.26-.21-.15-.53.1-.67.91-1 .72-1.72 1.65.37-.11.38-.18-.08.53l1.27-1.46-.69 1.06c.41-.41.79-1 1.06-1.17-.32.52-.3.44 0 .35-.75.38-1 1.23-1.79 1.75l-.29-.33c-1.12.84-1.58 1.9-2.93 3.09l.46-.35c0 .29-.76.8-1.13 1.26-.06-.14-.36.08-.6.19.1.06-.94.92-.84 1.25l-.71.43c-1.08 1-.87 1.47-1.89 2.42.18-.41-.34 0 .24-.78-.33.33-.65.6-.58.68-.26.13-.77 1.06-1.18 1.26a1.3 1.3 0 0 1-.4.7h-.05s-.51.65-.07.44c-1.34.69-2.82 2.86-4 3.46-.68.76-1.52 1.66-2.16 2.32 0-.07 0-.06.08-.17-1 .8-.25.86-1.38 1.77-.7.36.45-.63.06-.37-.49-.2-1.19 1.28-2.08 1.77l.14-.19c-.64.41-1.15 1.42-2 2.26v-.06a20.3 20.3 0 0 1-2.25 2.81c.12-.39.3-.44 0-.42-.35.39.33.11-.38.89-.31.16-.91.63-1.13.56l.69-.71c-.54.17-.9.91-1.3 1.25v-.13c-1.05 1.1-.85 1.32-2 2.46l.18-.06c-.42.84-.64.41-1.12 1.19h-.4c-.36.47-1.25 1.66-1.95 2.45a19.31 19.31 0 0 1 1.5-2.16 10.26 10.26 0 0 0-1.49 1.73 2.33 2.33 0 0 1 .5-.58 9.15 9.15 0 0 1-1.75 2.23c-.26-.55-2.24 2-3.15 2.32-1.3 1.6-2.94 2.81-4.61 4.53.92-.29-.48.5-.06.72-.37.41-.52.56-.58.57l-1.39 1c-.38.19.3-.44.2-.48-.89.84-.5.22-1.16.71.23 0-.13.46-.67.91l.84-.54c-.8 1.06-1.15 1-1.75 1.48h2.61a23.06 23.06 0 0 0 2.13-2.17c1.36-.56 3.39-3.44 4.94-4.49h-.17c.25-.43.46-.35.73-.58-.11 0-.45.28-.29 0 2.73-3 6-5.73 9-8.57 1.09-1 .12-1.09 1.69-2.21l-.21.55c1.95-2.36 4.41-4.39 6.34-6.68-.08.17 0 .22-.24.43a5 5 0 0 0 1.56-1.76c.34-.31.17 0 .42-.13.53-.37 1-1.28 1.33-1.39.06 0-.09.16-.16.26.23-.36 1.37-1.34.95-1.21.86-.72 1.45-1.58 2.16-2.13.25-.57 1.44-1.27 1.34-1.64.18.3 1.58-1.19 2-1.8-.1.24.51-.36.41-.07.57-.57 1.05-1.14.82-1.16 1.34-.77 1.89-2.35 2.85-2.57 1.57-1.83 3.05-3.49 4.52-5.07.18.3-1.66 1.71-1.35 1.9a42.69 42.69 0 0 1 3.47-4c.41-.34-.1.32-.19.48 1.35-1.54 2.82-2.77 4-4.19 0 0-.1.19-.21.34.25-.26.62-.55.49-.63l-.22.27c-.56.25.68-1.33.64-1.46-.12.74 1.35-1.2 1.06-.12.15-.19.3-.45.19-.48.27-.23.39-.26.22.07.85-1 .41-.76 1.24-1.58 0 0-.1.24-.12.39a6.2 6.2 0 0 1 1.37-1.69c0 .07.11 0-.1.24a44 44 0 0 1 3.18-3.52c-.16.61.52-.38.79-.25l.64-.76-.38.19a22.32 22.32 0 0 1 1.62-1.77l-.38.54 1.12-1.2-.73.58c.53-.72-.31-.18.56-1a13.15 13.15 0 0 1 1.06-.82 4.65 4.65 0 0 1 1-1.15c.19-.06.13.31.25.28.13-.47 1.4-1.49 1.6-2.05-.26.26-.17.37-.1.35zm-.94-.56h-.12a4.28 4.28 0 0 1-.42.26c-.17.34.29-.09.54-.26zm1.54 0h-.05zm14.32 8.5c1-1.07 2-2.29 3-3.38a7.08 7.08 0 0 0-.3-.62c-.13.07-.24.09-.22 0a6.74 6.74 0 0 1-1.37 1.39c.45-.64-.26.1.49-.63a6.81 6.81 0 0 0-1.59 1.62c.12-.38-.7.36-1 .73l.59-.39c-.36.39-.69.71-1 1v-.32c-1.65 1.22-2.22 2.94-3.66 3.67-.26.5.86-.69.67-.2a20.52 20.52 0 0 1-1.83 1.27c-1 .8-.58 1.09-1.59 2 .18-.06.46 0-.18.76s-1.07.54-.71.08c.15-.16.25-.22.26-.19.19-.24.45-.54.12-.35v.15c-.4.26-1.29 1.17-1.18.86-.44.55-.11.31.29 0-.94.75-1.32 1.31-2.25 2.12.17-.11.37-.16.23 0-1.35 1.19-.44.68-1.27 1.57-.59.39-.06-.41-.85.54-.59.47-.28 0-.12-.31a10.73 10.73 0 0 1-2 1.83l.37-.47a7.32 7.32 0 0 1-.64.69l.37-.11c-.27.22-.48.43-.52.37-.17.33.4 0 0 .63-.39.26-.92 1.06-1.2 1 1.08-1-.29-.06.56-1a5.15 5.15 0 0 1-.62.61c-.06 0 0-.07.05-.14-1.13.83-.26.64-1.28 1.65 0-.22-.42.06-.56.24.41-.4.35 0 .05.41-.73.58-.66.77-1 1.1l.43-.36c0 .23-.38.54-.81 1-.11 0 .37-.46.17-.33-.34.67-1.31 1-1.9 1.78-.39.26-.21-.14-.54.1-.67.91-1 .73-1.71 1.66.36-.12.37-.19-.09.52l1.28-1.45-.7 1.06c.42-.41.79-1 1.06-1.18-.31.52-.3.45 0 .36-.75.37-1 1.22-1.78 1.75l-.3-.34c-1.12.84-1.58 1.9-2.93 3.1L438 66c-.05.3-.77.8-1.13 1.27-.07-.15-.36.07-.6.18.09.06-.94.93-.85 1.25l-.7.43c-1.09 1-.88 1.47-1.9 2.42.18-.41-.34 0 .24-.78-.33.33-.65.61-.58.69-.26.12-.77 1-1.17 1.25a1.39 1.39 0 0 1-.41.71c-.06 0-.05-.06-.05-.06s-.51.65-.07.44c-1.34.69-2.81 2.86-4 3.47-.68.75-1.51 1.65-2.16 2.31 0-.07 0 0 .09-.16-1 .8-.26.85-1.39 1.77-.69.35.45-.64.06-.38-.48-.2-1.19 1.29-2.08 1.77l.15-.18c-.65.41-1.16 1.41-2 2.25 0 0 0-.07-.05-.06a19.62 19.62 0 0 1-2.25 2.82c.12-.4.31-.45 0-.43-.35.39.33.11-.37.89-.32.17-.92.64-1.13.56l.69-.7c-.55.16-.9.91-1.3 1.24v-.13c-1 1.1-.85 1.32-2 2.46h.19c-.43.83-.65.41-1.12 1.19h-.4c-.37.46-1.25 1.66-2 2.44a19.47 19.47 0 0 1 1.51-2.16 9.93 9.93 0 0 0-1.5 1.73 3.48 3.48 0 0 1 .5-.58 9 9 0 0 1-1.67 2.08h1.66c1.63-1.51 3.29-3 4.88-4.49 1.1-1.05.12-1.1 1.69-2.22l-.21.56c1.95-2.37 4.42-4.4 6.35-6.69-.09.17 0 .23-.24.43a4.91 4.91 0 0 0 1.55-1.75c.34-.32.17 0 .43-.13.52-.38 1-1.29 1.32-1.4.06 0-.08.17-.16.26.23-.35 1.38-1.34.95-1.21.86-.72 1.45-1.58 2.17-2.12.25-.58 1.43-1.28 1.33-1.64.18.29 1.58-1.2 2-1.81-.1.24.51-.36.41-.06.57-.58 1.05-1.15.83-1.17 1.34-.76 1.88-2.35 2.84-2.57 1.57-1.83 3.05-3.48 4.52-5.06.19.29-1.66 1.71-1.34 1.89a42.56 42.56 0 0 1 3.47-4c.4-.34-.11.31-.19.48 1.34-1.55 2.82-2.78 4-4.19 0 0-.09.18-.21.33.25-.26.63-.55.49-.63l-.22.28c-.56.24.68-1.34.64-1.47-.12.74 1.35-1.19 1.06-.12.15-.18.31-.44.2-.48.26-.22.39-.26.22.07.85-1 .41-.76 1.23-1.58 0 .06-.09.24-.12.39a6.4 6.4 0 0 1 1.37-1.69c0 .07.12 0-.09.24a43.77 43.77 0 0 1 3.11-3.45c-.16.61.52-.37.79-.24l.65-.77-.38.19c.62-.61 1-1.3 1.61-1.77l-.37.54 1.12-1.19-.73.58c.52-.73-.32-.19.56-1a8.75 8.75 0 0 1 1.05-.82 4.57 4.57 0 0 1 1-1.16c.18-.05.12.32.24.28.14-.47 1.4-1.49 1.61-2-.09.17 0 .28.07.26l.12-.39c.33-.24.39-.26.43-.13.88-.84-.53 0 .6-.89-.07.09 0 .07-.15.26 1.08-1 1.89-2.07 2.9-2.95.48-.1-.78.85-.29.7zM469 57.94v-.2a1.8 1.8 0 0 1-.2.18.23.23 0 0 1 .2.02zm0 1.33v-.06l-.51.41c.51-.71-.27-.22.51-.91v-.59a1.84 1.84 0 0 1-.38.56c-.68.64-1.07.55-.7.08.15-.16.24-.22.26-.19.19-.23.44-.54.11-.35v.15c-.39.26-1.29 1.17-1.18.86-.44.56-.11.31.29 0-.93.75-1.32 1.31-2.25 2.12.17-.1.37-.16.24 0-1.36 1.2-.45.68-1.28 1.57-.59.4 0-.4-.84.55-.6.46-.28-.06-.12-.32a10.74 10.74 0 0 1-2 1.83l.37-.47a7.3 7.3 0 0 1-.63.69l.36-.11c-.26.22-.47.43-.52.37-.17.34.4 0 0 .63-.39.26-.92 1.06-1.2 1 1.08-1-.28 0 .56-1a4.5 4.5 0 0 1-.62.62c-.06 0 0-.07.06-.15-1.13.83-.27.64-1.29 1.65 0-.22-.41.06-.56.25.41-.41.36 0 .05.41-.72.58-.65.76-1 1.09l.42-.35c0 .22-.38.54-.8 1-.11 0 .36-.46.17-.33-.34.67-1.32 1-1.91 1.79-.39.26-.21-.15-.54.09-.66.92-1 .73-1.71 1.66.37-.11.38-.18-.09.52l1.28-1.45-.74 1.11c.41-.41.79-.95 1.06-1.17-.32.52-.31.44 0 .35-.76.37-1 1.23-1.79 1.75l-.29-.33c-1.12.84-1.58 1.9-2.93 3.09l.46-.35c-.05.29-.77.8-1.13 1.26-.06-.14-.36.08-.6.19.1 0-.94.92-.84 1.24l-.71.43c-1.08 1-.87 1.47-1.9 2.43.19-.42-.34 0 .24-.78-.33.32-.64.6-.57.68-.26.13-.78 1-1.18 1.26a1.3 1.3 0 0 1-.41.7h-.05s-.51.65-.07.44c-1.34.69-2.81 2.86-4 3.46-.69.76-1.52 1.66-2.16 2.32 0-.08-.05-.06.08-.17-1 .8-.25.85-1.39 1.77-.69.35.46-.64.07-.37-.49-.21-1.19 1.28-2.08 1.77l.14-.19c-.64.41-1.15 1.42-2 2.25 0 0 0-.07-.05 0l-.05.08h2.19c.48-.5 1-1 1.39-1.52-.08.16 0 .22-.24.42a5 5 0 0 0 1.56-1.75c.34-.32.17 0 .42-.13.52-.37 1-1.28 1.32-1.39.07 0-.08.16-.15.25.23-.35 1.37-1.34.94-1.21.87-.72 1.45-1.57 2.17-2.12.25-.58 1.44-1.28 1.33-1.64.19.3 1.59-1.19 2-1.81-.09.24.51-.36.42-.06.57-.57 1-1.14.82-1.17 1.34-.76 1.89-2.34 2.85-2.57 1.56-1.82 3.05-3.48 4.52-5.06.18.29-1.67 1.71-1.35 1.9a42.69 42.69 0 0 1 3.47-4c.41-.34-.1.32-.19.48 1.35-1.54 2.82-2.77 4-4.19a1.24 1.24 0 0 1-.21.34c.24-.26.62-.56.48-.64l-.21.28c-.57.25.67-1.34.64-1.47-.12.75 1.35-1.19 1.06-.11.14-.19.3-.45.19-.48.27-.23.39-.27.22.07.85-1 .41-.76 1.24-1.58 0 0-.1.24-.12.38a6.35 6.35 0 0 1 1.37-1.69c0 .08.11 0-.1.24a45.76 45.76 0 0 1 3.17-3.52c-.15.62.53-.37.79-.24l.65-.76-.38.18c.62-.61 1-1.3 1.62-1.77l-.38.54zm0 22.93v-2c-.72.58-.65.76-1 1.1l.42-.36c0 .23-.37.54-.8 1-.11 0 .36-.47.17-.34-.34.67-1.31 1-1.91 1.79-.39.26-.2-.15-.53.1-.67.91-1 .72-1.72 1.65.37-.11.38-.18-.08.53l1.27-1.46-.69 1.06c.42-.41.79-1 1.06-1.17-.31.52-.3.45 0 .35-.75.38-1 1.23-1.79 1.75l-.29-.33c-1.12.84-1.58 1.9-2.93 3.09l.46-.35c0 .29-.76.8-1.12 1.26-.07-.14-.37.08-.61.19.1.06-.93.92-.84 1.25l-.71.43c-1.08 1-.87 1.47-1.89 2.42.18-.41-.34 0 .24-.78-.33.33-.65.61-.58.68-.26.13-.77 1.06-1.18 1.26a1.25 1.25 0 0 1-.36.65h2c.4-.43.66-.79.49-.81 1.33-.77 1.88-2.35 2.84-2.57 1.57-1.83 3.05-3.49 4.52-5.07.18.3-1.66 1.71-1.35 1.9a41.36 41.36 0 0 1 3.48-4c.4-.33-.11.32-.2.49 1.24-1.33 2.54-2.47 3.63-3.71zM453.49 96zM469 79.74l-.05.05z" id="Shadow"/><g id="Button"><path d="M484.57 120H309.43a8.44 8.44 0 0 1-8.43-8.43V64.43a8.44 8.44 0 0 1 8.43-8.43h175.14a8.44 8.44 0 0 1 8.43 8.43v47.14a8.44 8.44 0 0 1-8.43 8.43z" fill="#00d1b4"/><rect class="cls-2" x="381" y="77" width="96" height="4" rx="2" ry="2"/><rect class="cls-2" x="381" y="95" width="57.6" height="4" rx="2" ry="2"/><path class="cls-2" d="M365 84a2 2 0 0 1-1.56-.75c-.3-.37-7.67-9.25-22.44-9.25s-22.14 8.88-22.44 9.25a2 2 0 1 1-3.12-2.5C315.79 80.31 324.23 70 341 70s25.21 10.31 25.56 10.75a2 2 0 0 1-.31 2.81A2 2 0 0 1 365 84zm-24 22c-16.77 0-25.21-10.31-25.56-10.75a2 2 0 1 1 3.12-2.5c.3.37 7.67 9.25 22.44 9.25s22.14-8.88 22.44-9.25a2 2 0 0 1 3.12 2.5c-.35.44-8.79 10.75-25.56 10.75z"/><path class="cls-2" d="M341 80a8 8 0 1 1-8 8 8 8 0 0 1 8-8m0-4a12 12 0 1 0 12 12 12 12 0 0 0-12-12z"/></g><g id="Veronica"><path d="M341 173.48l-35 38.07-92.95 33.75c-9.63 13.15-22.78 14.28-30.2 25.31-8.74 13-15.59 36.28-37.58 44.26-11.92 4.33-23.49 4.95-33.8 2v25.64c-1.09 9 5.75 64.46 5.75 64.46h118L247 304.74l-3.55-10.29s74-36 87.91-43.3 27.64-36.5 27.64-36.5z" fill="#6786f6"/><path class="cls-11" d="M218.78 407h16.52l11.73-102.26-3.55-10.29-24.7 12.88V407zM105.5 361.47l6.15-9.45c-.1-1.64-.17-3.14-.21-4.47v-4.22a1.09 1.09 0 0 0 0-.18q0-.35.06-.63v-25.64a45.59 45.59 0 0 1-16.07-8.28c-12.29 15.52-27.21 35-28.94 40.13-3 8.93-2.73 11.37-1.91 14.07s16.23 31.75 29.61 44.2h23.08s-1.74-13.31-3.32-28.68z"/><path class="cls-12" d="M430 123.16c-2.33-.88-3.26.26-5 1.46a29.86 29.86 0 0 0-4 3.91l7.83-10.62s4.32-4.07 1.7-6.84-6.14.25-6.14.25c2.09-1.95 3.66-4.39 1.83-6.07a5.24 5.24 0 0 0-6.79 0c-2.07 1.67-5.62 4.6-5.62 4.6a3.15 3.15 0 0 0-1.5-4.39c-1.82-.8-3.34.26-4.9 1.71s-19.27 21.5-19.27 21.5c-.11-6.2 1.7-19.71-4.59-17.32-4.89 1.85.27 9.16-8.45 22.34-4.73 9.31-4.91 21.19-4.91 21.19L344 180.56l14.49 33.09 36.19-45.59c12.27-7.32 21.81-21.54 23.24-23.73s10.22-12.47 12.54-15 1.84-5.33-.46-6.17z"/><path d="M187.42 90.79s39.78-12.35 44.73 14.93-14.22 41.88-14.22 41.88-11.42 9-11.79 23.42 21.18 44.72 11.65 66-26.21 20.57-34.94 33.56-15.59 36.28-37.58 44.26-42.78 3.37-56.7-12.86-10.35-42.25-5.33-57 25.15-59.42 30.19-73.72S127 82.53 187.42 90.79z" fill="#ff7c6e"/><path class="cls-11" d="M213.05 245.3c-9.63 13.15-22.78 14.28-30.2 25.31-8.74 13-15.59 36.28-37.58 44.26-11.92 4.33-23.49 4.95-33.8 2v2.66c11.28 4.36 24.32 4.21 37.8-.69 22-8 28.84-31.27 37.58-44.26 8.55-12.72 24.72-12.28 34.33-32.27z"/><path class="cls-12" d="M233.59 160c-1.72-8.95-3.35-17.39-5.84-24.6a41 41 0 0 1-9.82 12.22s-11.42 9-11.79 23.42c-.24 9.79 9.58 26.87 13 43.5 14.04-9.85 18.96-31.18 14.45-54.54z"/><path d="M217.93 147.6s-11.42 9-11.79 23.42c-.24 9.79 9.58 26.87 13 43.5a30.46 30.46 0 0 0 2.54-2c-4.13-14.63-11.71-28.9-11.5-37.51.37-14.44 11.79-23.42 11.79-23.42a39.08 39.08 0 0 0 7.93-9.06 93.2 93.2 0 0 0-2.11-7.16 41 41 0 0 1-9.86 12.23z" fill="#e6bbb6"/><path class="cls-8" d="M323.74 198.12c.1.22.29 0 .46 0 .2.22-.12.21-.21.36.15.13.44.14.49.27s0 .06-.1.06c.28.07.26.5.61.58l-.05.05a1.32 1.32 0 0 1 .33-.2c.05.1.24.11.1.22 0-.06-.09 0-.16 0l.12.06c-.18.21-.15-.1-.32 0 .18.16.48.3.49.49-.21.14-.25-.32-.35 0v-.28c-.27.36-.05-.16-.35.2.09.35.29.29.38.64.16 0 .17-.12.33-.11.45.33-.4.63.07.8.19 0 .5-.1.46.21h-.3c.12.31.46 0 .44.39-.13 0-.2-.2-.21-.14-.1.31.22.08.29.24l-.21.14c.2.3.54.58.75.91-.08 0-.18 0-.21.11a2.84 2.84 0 0 1 .52 1.47l.28.07s-.05.12-.11.1c0 .2.13-.06.24 0s-.05.18-.14.15c.32.21.78.67.72 1.09h-.09c0 .28.54.08.47.4h-.06c.17.57.64 1.07.53 1.63.33-.06.13.58.54.43 0 .4-.16.34-.09.84 0 .12.33 0 .44.17l-.2.1.31.09-.21.22.12.11a.18.18 0 0 1 .11-.18.52.52 0 0 1 0 .64l.41.4c-.09 0-.16 0-.25-.08.34.17-.19.16.12.3h.17a.74.74 0 0 0 .21.63h-.16c.14.38.43.73.62 1.15 0-.18.26-.27.35-.16l-.2.15c.17 0 0-.16.26-.08.05.17-.2.22-.31.17l.16.15h-.21c.18 0-.07.43.22.42h-.06c.19.41.36.56.52.89.2-.09.22.07.42.09a3 3 0 0 0 .18.91c.19.16.19 0 .35 0-.17.09 0 .38-.21.29a3.36 3.36 0 0 0 .59.82c.05-.08.06-.15.13-.15a.18.18 0 0 1-.08.25c.5.39 0 1.4.57 1.64l.38.33c.05.2-.19-.06-.23.13.5.32.28.74.64 1-.39.52.5 1 .34 1.55l.11-.08c.17.05 0 .15 0 .24s.06-.16.16-.13a10.18 10.18 0 0 1 .87 2.77c.11.33.71-.1.6.44h-.28c.55.53.56 1.33 1.07 1.87-.07 0-.14 0-.17-.05-.11.2.21.49.34.44 0 .11-.11.07-.15.17s.35.24.22.39-.07 0-.1 0 .15.42.31.25c0 .28.28.43.24.66.27 0 .07.46.39.37-.32.11-.07.52.14.61-.12 0-.05.18-.2.17.07.17.19.31.34.21-.24.47.57.52.16.9a9 9 0 0 1 .95 1.31c-.32.1-.24-.5-.56-.35.31.38.67.53.77 1 0 .13-.16 0-.23 0 .3.39.31.87.63 1.19h-.12c-.04 0 0 .2.17.13l-.07-.06c.16-.2.56.14.67.11-.46 0 .05.43-.55.42a.2.2 0 0 0 .23 0c0 .09-.05.14-.19.1.19.25.3.09.39.35h-.2c.18.07.36.15.39.38-.05 0-.1.05-.12 0 .16.36.6.49.62.94-.35 0-.05.17-.3.29l.16.19.09-.14c.07.19.32.29.29.49l-.16-.1.18.33v-.23c.2.14.32-.15.34.13-.05 0 .07.2-.05.35.12.07.25.13.23.3s-.3.07-.35.11c.25 0 .22.43.5.46a.37.37 0 0 0-.23 0h.2c0 .11 0 .13-.16.15.06.28.31-.2.27.17h-.09c0 .34.32.57.33.89-.23.18-.15-.23-.34 0 .19.4.62.76.69 1.19v-.09c.4-.06-.08.37.16.52h-.18c0 .3.27.54.52.93h-.11a2.82 2.82 0 0 0 .09.64c.12 0 .13.14.25 0-.39.72.6 1 .27 1.6 0-.06-.12-.12-.11-.07l.21.4c.16-.08.09-.09.19-.21a.34.34 0 0 1 .25.23c-.16-.16-.26.07-.34.18s.11 0 .16 0c-.24.29.35 0 .22.3h-.09c.07.1.21.18.22.31-.19.09-.12-.1-.29-.07.06.17.45.25.3.45-.07-.06-.1-.16-.17-.23-.19.23-.13.23-.14.37v.31l.05-.08c.56.1.19.41.58.64-.37-.22-.2 0-.42 0 0 .09-.1.21-.17.19.21.1-.1.25.2.4-.07 0 0 .14-.17.14.09.17.12-.06.21-.06.3.24-.17.69.2 1 .18.32.43.36.59.68-.1.12-.28-.07-.28-.07a.49.49 0 0 0 0 .47c-.06 0-.12 0-.2.06s.27.08.16.25a1.19 1.19 0 0 1-.29-.12c.07.14.2.29.27.45-.12 0-.19-.1-.28-.15.06.17.13.45.32.52a.76.76 0 0 0 .08-.11c0 .07-.18 0-.21 0s.06-.22.14-.23l.05.12c.42-.11-.08-.47-.05-.69l.31.09-.26-.23c.08 0 .25-.1.3 0 .15-.17-.11-.14 0-.3h.05l-.11-.16c.07 0 .22 0 .18.06.15-.32-.28-.46-.06-.6-.15-.4-.23 0-.53-.29l.53-.28h-.23s0-.13.1-.13c-.18-.13-.09 0-.25 0 .16-.24-.2-.54.15-.65-.19 0-.1.22-.26 0 .38-.13-.11-.23 0-.45.2 0 .13.22.27 0-.35-.05 0-.38-.08-.52-.27.05-.19-.31-.34-.55.09 0 0-.52.07-.79-.28 0-.28-.24-.39-.4a.31.31 0 0 1 .33.06v-.17a.3.3 0 0 1-.22-.16h.21c-.07-.22-.36-.39-.3-.71-.19 0-.46.37-.66.1.09 0 .26-.1.32 0s-.11-.07-.08-.13l.2.07c0-.15-.15 0-.17-.14.15 0 .08-.1.2-.12s0 .11 0 .13a.5.5 0 0 1 .14-.37c-.08 0-.2.06-.24 0s.15-.13.19-.28c-.12 0-.05-.2-.27-.14 0-.06.08-.11.13-.15-.13-.08-.2-.52-.38-.33-.33-.31-.12-.81-.33-1.16h.07c-.15-.2-.2-.48-.41-.58 0-.07.08-.2.17-.2-.11-.15-.19-.14-.16-.42.18.13.09-.1.15.14 0-.24.08-.33-.19-.5.21 0 .17-.24.08-.32l-.07.19a.76.76 0 0 1-.11-.32h.26c.14-.55-.76-.64-.41-1.15-.2-.06 0 .29-.26.25 0-.22.22-.55.2-.61 0-.33-.44-.14-.45-.47a.29.29 0 0 1-.44 0c0-.22.26-.38.37-.28s0 .08 0 .09.12.13.18 0H343c.05-.13-.06-.41.1-.4-.14-.12-.16 0-.16.12 0-.31-.15-.41-.17-.71 0 .06-.11.14-.13.09 0-.43-.22-.11-.36-.36.07-.2.33-.06.12-.29 0-.2.21-.12.3-.08-.25-.18-.07-.5-.09-.65l.12.11a.46.46 0 0 1-.12-.19l-.14.13c0-.08 0-.15.05-.17-.14 0-.26.16-.46.06 0-.13-.21-.27 0-.39 0 .35.21-.12.34.14a.27.27 0 0 1-.07-.19h.07c.09-.38-.3 0-.41-.36.14 0 .2-.16.16-.2 0 .13-.19.14-.33.06 0-.24-.15-.19-.18-.3v-.1c-.14 0-.16-.1-.26-.22.09-.05.12.1.14 0-.28-.07.09-.44-.14-.6 0-.13.23-.1.25-.21-.26-.18.06-.33-.17-.53-.14.14-.09.14-.32 0l.28.37-.35-.17c.05.13.21.23.21.31-.18-.07-.14-.07-.25 0 .18-.27-.28-.28-.19-.55l.41-.16c.07-.37-.42-.45-.48-.88v.16c-.18 0-.12-.23-.23-.33.14-.05.16-.14.22-.23-.1 0-.11-.29-.4-.21l.11-.25c0-.34-.53-.2-.61-.52.19 0 .23-.15.42 0 0-.1 0-.2-.15-.16.06-.1-.3-.2-.21-.35-.07 0-.22 0-.26-.09h.07c-.07 0-.17-.14-.28 0 .3-.49-.39-.85-.13-1.27a5 5 0 0 1-.39-.64h.07c0-.32-.46 0-.45-.37s.19.12.23 0c.43-.23-.22-.35 0-.67.08-.22-.34-.31-.42-.59a.09.09 0 0 0 .07 0 1.52 1.52 0 0 1-.7-.6c.21 0 .15.07.3-.05-.07-.1-.27.15-.41 0 .06-.11.07-.31.25-.42l.11.21c.19-.21-.13-.27-.14-.4h.12c-.18-.31-.45-.2-.58-.55l-.07.07c-.35-.07.08-.22-.2-.33l.25-.17a3.88 3.88 0 0 1-.61-.53 2.07 2.07 0 0 1 .67.37c-.05-.13-.21-.41-.37-.42 0 0 .14.07.12.14a.73.73 0 0 1-.57-.46c.54-.19-.15-.7.17-1.06-.39-.35-.3-.91-.56-1.4-.33.36-.08-.14-.48.08-.08-.11-.1-.16-.07-.18l.08-.47c.09-.14.15.07.24 0-.09-.28.12-.19.16-.41-.14.1-.26 0-.27-.17l-.09.29c-.39-.26.2-.47-.18-.73l.18.05c-.16-.15-.31-.69-.73-.72 0-.05.13-.15.2-.08-.16-.47-.81-.83-.76-1.27h.11c-.06-.07-.25-.06-.2-.21s.12 0 .1-.06-.28-.13-.27-.27h.16c-.07-.5-.59-.54-.82-.87.3-.14.24-.52.2-.72h.05c-.2-.52-.65-.74-1-1.15.18-.45-.33-1.05-.37-1.6 0 .1-.23.1-.3 0s-.35-.2-.07-.32c.23-.2 0-.4 0-.57l-.37.14c.3-.71-.76-1.11-.42-1.58-.14-.07-.2-.21-.34-.27l.19-.09a2.93 2.93 0 0 0-.37-.85h.17c-.09-.22-.68 0-.79-.19l.26-.2c-.18-.37-.11-.86-.55-1.11h.18c-.08-.18-.14-.77-.5-.52.25-.13-.16-.4-.37-.54l.2-.06c-.32-.05-.39 0-.57-.23 0-.07.13-.12.12 0 0-.24-.25-.06-.26-.34h.16c-.08-.2-.13-.15-.33-.19a.34.34 0 0 1 0-.5c-.12 0-.31 0-.31-.15a.14.14 0 0 1 .14 0c0-.38-.45-.37-.37-.68.06 0 .08-.06.09-.09a2.28 2.28 0 0 1 .19.45c.17-.08.1-.3.42-.26-.21-.1-.63-.24-.65-.48v-.06a.16.16 0 0 0-.09-.11.38.38 0 0 0 0-.19c.13-.09 0-.27-.08-.38-.19.1-.22-.05-.32.16l.08.07c.08.07 0 0 0 0l.14.25c-.14 0-.26-.08-.21-.24h-.38c.2-.27.21-.61.35-.73-.26-.26-.43-.7-.88-.72-.09-.07.05-.15.09-.22s.08.1.15.1c-.18-.13-.3-.5-.57-.42 0-.28.29 0 .1-.28h.1c.09-.8-1.12-.67-.95-1.59 0 .06 0 .09-.05.12-.15-.87-1-1.46-1-2.39 0-.25-.2-.19-.39-.26l.18-.15-.35-.11c-.33-.22.22-.79-.3-1l-.11.12c0-.15-.32-.41-.15-.47 0 0-.16 0-.12-.06l.1-.06-.36-.26c-.06-.31.44-.17.26-.58-.12-.13-.52-.26-.57-.17a.19.19 0 0 1-.09.24l-.12-.1c-.32.13-.69.19-.74.64l.31.13-.12.15-.1-.19c-.09.18.07.19.2.22a.32.32 0 0 0-.12.18l.41.08c-.1.09-.29 0-.28.21.19 0 .22-.24.4-.12-.08.19-.21.21 0 .28a.17.17 0 0 1-.2 0c.16.06.2.28.4.26-.12.2.24.36-.06.5a.65.65 0 0 1 .4.19c-.45 0 .18.4-.22.54.39 0 .4.45.71.62h-.1c.05.16 0 .25 0 .37.27-.11.44.08.67.12-.17.3-.37 0-.58.23.21-.12.36.19.51 0-.09.22 0 .16-.2.34.34-.14.12.09.38.1-.07.28-.28.21-.08.37-.05.4-.31.27-.31.27zm3.1 4.81l-.06-.1zm.21.43l-.08-.19s.13-.06.15 0-.05.1-.07.19zm.86-1.55c.07.05 0 .09 0 .12l-.09-.1zm-87.06 92.66c-.1 0 .08.27.13.42s-.14-.16-.25-.26v.37c0 .02 0 0-.06-.1 0 .23-.21.12-.17.41a.12.12 0 0 1-.05-.05 2.44 2.44 0 0 1 .19.33s0 .2-.1 0v-.13.1c-.16-.21 0-.12-.07-.29 0 .12 0 .37-.15.34-.13-.22.12-.16-.08-.31h.15c-.27-.32.08 0-.2-.35-.17 0-.09.19-.26.2 0 .14.11.18.14.32-.07.32-.44-.49-.43-.12 0 .17.18.47 0 .37l-.1-.27c-.15 0 .11.4-.11.3 0-.11.06-.14 0-.16-.19-.15 0 .18-.06.22l-.13-.22c-.12.11-.19.35-.32.47 0-.07 0-.15-.11-.2-.14.21-.43.19-.69.15v.23s-.08-.07-.08-.12.06.13.06.23-.11-.09-.11-.16c-.05.23-.19.55-.44.41v-.07c-.15 0 .09.46-.1.33-.28 0-.44.35-.77.14.11.3-.3 0-.11.4-.23-.13-.23-.22-.48-.25-.06 0 0 .28 0 .35l-.11-.2v.26l-.17-.22v.08s.09.07.12.13-.29 0-.35-.14l-.12.29a.36.36 0 0 1 0-.2c0 .27-.13-.21-.14 0a.65.65 0 0 1 .08.17.19.19 0 0 0-.3.06l-.05-.15c-.18.05-.3.24-.48.33.1 0 .21.29.17.34l-.13-.21c0 .15.1.06.11.26-.08 0-.17-.23-.17-.32v.12a1.82 1.82 0 0 1-.08-.19c0 .15-.25-.15-.17.11v-.06c-.18.09-.22.21-.36.29.09.19 0 .18.05.35-.14 0-.33-.09-.45 0s.06.17.07.3c-.09-.17-.21-.08-.21-.24a.78.78 0 0 0-.3.37c.06.06.1.08.12.15s-.12 0-.16-.12c-.08.37-.76-.24-.75.21l-.08.28c-.1 0 0-.16-.14-.23 0 .38-.32.12-.38.39-.39-.44-.42.26-.76 0l.07.11c0 .14-.09 0-.13-.05s.1.08.11.16c-.29.34-.85.22-1.28.31-.15 0 .24.65-.08.46l-.06-.24c-.14.4-.57.28-.73.65v-.14c-.14-.13-.22.1-.15.23s-.07-.11-.13-.16 0 .28-.15.13a.06.06 0 0 1 0-.07c0 .09-.19.07-.05.23-.15 0-.16.19-.29.12.05.23-.23 0-.09.29-.15-.3-.31-.15-.3 0 0-.11-.1-.07-.15-.21-.07 0-.1.13 0 .28-.32-.29-.12.43-.44 0a2.44 2.44 0 0 1-.44.66c-.14-.3.21-.14 0-.45-.12.22-.09.53-.31.56-.07 0 0-.15 0-.21-.13.23-.38.16-.46.41a.28.28 0 0 1 0-.1s-.09 0 0 .13v-.05c.16.17.09.48.14.59-.15-.42-.22 0-.39-.55a.4.4 0 0 0 .05.2s-.08-.06-.1-.18c-.08.14 0 .26-.07.31s0-.1-.05-.18c0 .15 0 .31-.1.3s-.05-.09 0-.1c-.14.1-.08.48-.32.44-.1-.31-.1-.06-.24-.31v.12l.1.11c-.09 0-.06.25-.17.2v-.13l-.12.13.13.05c0 .17.17.31 0 .29s-.08 0-.2-.08c0 .1 0 .21-.08.18s-.13-.28-.17-.33c.07.23-.16.15-.09.4a.9.9 0 0 0-.1-.22l.06.19c-.07 0-.08-.06-.13-.17s.2.3 0 .23v-.07c-.17 0-.2.24-.36.22-.17-.24.07-.12-.08-.31-.15.14-.21.49-.41.52H223c.16.36-.22-.11-.22.1l-.06-.17c.01.04-.19.21-.3.41v-.1c-.11 0-.2.05-.3.05s0 .11.07.22c-.49-.39-.29.51-.71.18v-.1l-.12.17c.09.15.07.09.17.19s0 .2 0 .22c0-.14-.13-.25-.21-.32a1 1 0 0 1 .07.15c-.23-.23.15.32-.07.2v-.09c0 .07 0 .2-.08.2-.11-.17 0-.11-.06-.26-.07.05 0 .41-.12.27s0-.09 0-.16c-.18-.17-.16-.11-.23-.12h-.17.06c.16.51-.13.18-.09.54 0-.34-.07-.17-.16-.38-.06 0-.14-.08-.16-.14 0 .19-.15-.08-.11.2 0-.07-.06 0-.13-.15-.05.09.07.11.11.19 0 .28-.4-.13-.4.25-.07.2 0 .43-.06.61a.38.38 0 0 1-.08-.26c-.12-.06-.17 0-.19.1a.38.38 0 0 0-.12-.17c0 .05.09.26 0 .2s-.07-.21-.08-.29c0 .09 0 .24-.06.33-.08-.1-.05-.19-.07-.27a.43.43 0 0 0-.06.39h.08s-.1-.15-.09-.19.12 0 .16.08v.06c.25.36.15-.15.26-.18l.1.3v-.28c.05.06.15.21.12.27.14.1 0-.13.15 0a.06.06 0 0 1 0 .05v-.12c0 .06.11.19.05.17.2.1.08-.3.23-.12.11-.17-.09-.21-.09-.51l.34.46-.09-.21s.06 0 .1.08c0-.17-.06-.08-.09-.23.17.14.17-.2.36.11 0-.17-.14-.08-.11-.23.21.34.07-.11.22 0s0 .13.11.26c-.11-.33.18 0 .21-.1-.12-.24.08-.17.14-.31 0 .09.26 0 .4.07-.11-.26 0-.26.06-.35a.54.54 0 0 1 .09.3h.06a.24.24 0 0 1 0-.19l.08.19c.08-.05.07-.31.25-.25-.09-.17-.34-.42-.28-.6a.9.9 0 0 1 .13.3v-.07.18c.08 0 0-.14 0-.15s.08.08.12.19-.06 0-.05 0a.34.34 0 0 1 .23.14c0-.07-.09-.18-.07-.21s.12.14.2.18.08 0 0-.24l.12.13c0-.11.2-.14 0-.32.05-.28.37-.06.48-.22v.07c.05-.13.18-.15.17-.33 0 0 .13.09.16.17 0-.08 0-.16.17-.1 0 .15.07.09 0 .12.12 0 .19.1.2-.13.05.19.17.18.19.11l-.13-.09a.21.21 0 0 1 .14-.07l.09.24c.33.17.09-.63.47-.25 0-.18-.16-.06-.21-.27.1 0 .35.26.38.25s-.06-.38.11-.36c-.06-.07-.19-.27-.13-.39s.27.27.25.36 0 0-.05 0a.14.14 0 0 0 .05.17v-.09c.08.06.19 0 .23.14a.12.12 0 0 0-.11-.16c.17 0 .17-.09.33-.07 0 0-.11-.12-.09-.13.21 0 0-.18.09-.28.12.09.12.3.18.14.11.05.13.2.13.28 0-.2.24 0 .32 0v.09c0-.05 0-.06.06-.08l-.11-.14c.05 0 .07 0 .11.06 0-.12-.17-.24-.18-.42.09.06.09-.15.21.05-.17 0 .13.2 0 .29s0 0 .08 0a.07.07 0 0 1 0 .06c.22.12-.07-.27.07-.33 0 .13.14.21.15.17s-.13-.18-.12-.3c.13.05.05-.11.1-.13h-.07v-.21c.05.09 0 .1 0 .13 0-.25.26.13.28-.05.08.06.12.22.18.25 0-.2.2.11.24-.08-.11-.14-.1-.1-.1-.29l-.12.2v-.29s-.06.16-.11.15 0-.11-.09-.23c.2.2.07-.22.24-.1l.2.39c.22.11.12-.31.34-.3h-.09c-.06-.17.09-.07.11-.17a.71.71 0 0 0 .18.24c0-.1.13-.05 0-.32l.16.13c.17 0-.05-.45.1-.47 0 .16.15.22.12.37 0 0 .09 0 0-.11.07.07 0-.24.13-.13 0-.07-.08-.21 0-.22a.15.15 0 0 1 0 .06c0-.06 0-.13-.09-.25.34.34.35-.22.65.07a1.06 1.06 0 0 1 .23-.24v.06c.18.06-.12-.42.08-.35s0 .15.08.21c.24.42.12-.14.34.07.14.11.08-.25.2-.27a.29.29 0 0 0 0 .06.64.64 0 0 1 .14-.52c.05.18 0 .11.1.27 0-.05-.15-.27-.08-.36a.92.92 0 0 1 .29.3l-.08.05c.17.22.11-.07.18-.05l.05.11c.12-.11 0-.37.14-.43l-.06-.07c0-.3.15.11.13-.12l.16.25a1.59 1.59 0 0 1 .12-.45 1.5 1.5 0 0 1 0 .53.23.23 0 0 0 .13-.26v.09c-.05-.24 0-.39.09-.44.25.52.34 0 .63.34.09-.28.41-.11.61-.25-.28-.36.06-.05-.17-.45 0-.05.06-.05.08 0l.28.16c.1.1 0 .12.05.21s.14.14.27.21c-.09-.13-.07-.22 0-.2l-.19-.14c0-.3.31.27.36 0v.16c0-.12.29-.15.2-.52 0 0 .12.14.1.19.21-.05.24-.57.49-.45v.11s0-.22.06-.14 0 .1.06.1 0-.22.08-.19v.13c.25 0 .14-.42.26-.57a.52.52 0 0 0 .45.32c.24-.07.24-.43.38-.65.29.25.5-.09.79 0a.38.38 0 0 1-.09-.28c.07 0 0-.27.15 0 .18.25.24.13.32.09l-.18-.35c.47.4.42-.46.77-.06 0-.11.06-.14.06-.25l.1.19a.6.6 0 0 0 .38-.17v.16c.1 0-.16-.61-.09-.66l.18.26c.16-.08.45.08.47-.26 0 0 .06.13 0 .15s.39 0 .16-.33c.13.25.18-.06.21-.22l.08.19c-.05-.27-.08-.34 0-.46s.1.14 0 .11c.13 0 0-.21.12-.16v.14c.09 0 0-.09 0-.26s.18 0 .28.13c0-.11-.06-.27 0-.24a.19.19 0 0 1 0 .13c.21.05.1-.33.29-.19a.32.32 0 0 0 .07.1c-.11.05-.2.09-.2.07.09.17.19.15.24.43 0-.17 0-.51.11-.48a.13.13 0 0 1 0 .06v-.06c0-.06.07 0 .09 0h.2c-.11-.18 0-.18-.17-.31v.05l-.11.07c0-.11 0-.21.09-.13l-.1-.33c.2.22.39.3.49.46.08-.18.28-.24.18-.64 0-.06.1.08.14.13s0 .06 0 .11c0-.13.21-.15.1-.41.15.06.06.26.17.15v.08c.47.26.1-.85.66-.5l-.08-.06c.45 0 .58-.57 1.09-.39.13 0 .06-.14 0-.29l.13.19v-.28c.05-.24.5.37.51 0l-.1-.13c.08 0 .16-.18.23 0 0 0-.05-.15 0-.09l.06.1.06-.26c.16 0 .2.43.38.36a.66.66 0 0 0 0-.46s-.1 0-.15-.14v-.08c-.15-.32-.27-.66-.53-.8v.35l-.12-.13.09-.05c-.13-.12-.09 0-.08.12a.61.61 0 0 0-.13-.14l.05.35c-.07-.12-.08-.27-.18-.3 0 .16.19.25.16.38-.12-.11-.17-.24-.16-.09a.24.24 0 0 1-.06-.18c0 .13-.12.11-.06.29-.14-.14-.14.14-.29-.16v.31c-.1-.39-.19.08-.36-.31.1.35-.15.26-.18.49v-.08l-.21-.11a1.38 1.38 0 0 1 .09.56c-.21-.21-.11-.33-.26-.56.11.21 0 .28.09.44a.71.71 0 0 1-.23-.25c.16.34 0 .09 0 .31-.17-.11-.18-.29-.23-.14a.31.31 0 0 1 .51-.28zm-1.93 1.73zm-.19.1h.09c0 .06.07.13.05.14s-.08-.1-.14-.14zm1.08 1.09h-.07v-.05z"/><path d="M80.8 408c.78 0 .37-.27.53-.43.92-.08.43.21.74.35a12.55 12.55 0 0 1 1.44-.32c0 .05.12.06 0 .12.61-.22 1.8 0 2.51-.29a.25.25 0 0 1 .09.07.43.43 0 0 1-.1-.38c.34 0 .64-.17.77 0-.21 0-.23.07-.33.12l.36-.08c.33.26-.49.09-.49.29a10.21 10.21 0 0 1 2.07-.23c.11.25-1.27.09-.55.31l-.83-.1c.64.41-.51 0 .08.41 1.1.07 1.23-.13 2.33-.06.25-.14-.08-.21.16-.35 1.57-.25 1.23.64 2.38.3a1.2 1.2 0 0 1 1.23-.32l-.28.29c1.07 0 .61-.42 1.73-.22-.2.11-.84.09-.68.13.73.22.52-.17 1.07-.17l.12.26c1.13 0 2.38-.23 3.64-.27-.07.07-.28.15 0 .23a28.7 28.7 0 0 1 4.92.18l.58-.22c.14 0 .26.1.11.15.6.08 0-.14.32-.23s.45.13.23.19a13.44 13.44 0 0 1 4.11-.16l-.22.06c.87.09 1-.45 1.78-.24h-.16a38.72 38.72 0 0 1 5.38.23c.27-.32 1.85.14 2-.3a11.39 11.39 0 0 0 2.27.45c.4 0 .6-.28 1.09-.33v.23l.67-.24.36.28.47-.06c-.19 0-.4-.1-.37-.17a3.11 3.11 0 0 1 1.8.28l1.72-.2c0 .1-.33.13-.55.19.92-.24.16.24 1 0-.12-.05.06-.13.08-.18a6.83 6.83 0 0 0 2.08.08l-.13.16c1.28 0 2.7-.08 4.13-.07-.51-.08-.39-.35 0-.38l.17.24c.27-.15-.44-.09.11-.27.54 0 .36.28.06.36l.65-.09c0 .07-.12.11-.16.2.27-.15 1.13.25 1.52 0v.07c1.44 0 2.09-.08 3.26-.1 0-.21.48-.16.83-.33.86.07 1.81.23 2.85.22.72-.11.21-.18.54-.31.05.19 1.08.18.55.31a30.36 30.36 0 0 0 3.16-.19c-.17-.08-.37-.11-.27-.18.29 0 .65.08.61.17h-.07c1.76-.28 4.07.56 5.47.16h-.08l1.46-.21c.67 0-.4.15.09.27 1.58-.32 2.49 0 3.78-.17 1 .57 3.56 0 4.91.32l-.08-.13c.35-.13.42.08.68.11 0-.11-.38-.12-.16-.2 3-.16 6.11.2 9.14.32 1.11 0 .63-.69 2-.37l-.39.24c2.24-.29 4.58 0 6.77-.24-.13.06-.13.13-.35.13a2.77 2.77 0 0 0 1.72-.13c.34 0 .08.13.29.2.47.11 1.17-.23 1.42-.05 0 0-.14.06-.22.07.3-.08 1.41 0 1.12-.18.82.1 1.58-.09 2.23 0 .43-.23 1.41.11 1.55-.22-.06.34 1.44.28 2 .12-.17.1.45.1.25.25.59 0 1.14-.07 1-.25 1.1.41 2.2-.32 2.82.2a86.2 86.2 0 0 1 5-.39c0 .34-1.75 0-1.68.39a23 23 0 0 1 3.86-.35c.39.05-.22.15-.35.21 1.51-.14 2.91 0 4.25-.16 0 0-.15.07-.28.1.26 0 .61 0 .58-.11h-.26c-.42-.22 1.05-.46 1.1-.58-.45.44 1.32.11.61.67.17 0 .39-.11.35-.21.26 0 .34.09.08.21.94-.09.61-.25 1.46-.25 0 .08-.17.11-.26.2a3.45 3.45 0 0 1 1.59-.23s0 .1-.18.1a24.29 24.29 0 0 1 3.49-.25c-.41.33.46.11.53.39l.73-.08-.29-.14a14 14 0 0 1 1.76-.11l-.48.12 1.21-.05-.68-.11c.65-.14-.07-.35.78-.28a6.81 6.81 0 0 1 1 .17 2.38 2.38 0 0 1 1.11-.11c.13.09-.09.31 0 .37.31-.24 1.5-.07 1.9-.32-.14.06-.14.21-.1.24l.26-.19c.3.06.34.09.3.21.89 0-.29-.36.77-.21-.08 0 0 .05-.21.08 1.06.08 2.06-.12 3 0 .29.28-.86.07-.53.31 1.41-.05 2.93-.34 4.29-.27h-.25c.19-.39 1 .2 1.71 0-.17 0-.22.22-.18.18a24.72 24.72 0 0 0 3.33-.22l-.17.1c.55.09 1.45.05 2.05.1.17-.1.52-.09.31-.24 1.84.59 3.5-.31 5.13.18-.19 0-.46.09-.31.09l1.39-.1c-.11-.17-.18-.1-.47-.24a2.22 2.22 0 0 1 .91-.18c-.62.12 0 .28.28.38-.05-.06 0-.12 0-.17.73.31.12-.35 1.11-.14l-.05.09a5 5 0 0 1 1.11-.14c.17.2-.39.09-.42.26.56 0 1.11-.38 1.62-.18-.24.05-.58.05-.82.11a2.07 2.07 0 0 0 1 .21l.95.1-.24-.06c.7-.52 1.43-.1 2.37-.44-.92.33-.15.19-.22.42.24.06.61.13.5.19.45-.18.75.15 1.38-.12 0 .07.48 0 .38.19.58-.06-.14-.13-.09-.22.9-.25 2.11.31 3.4 0 1.11-.14 1.32-.38 2.35-.51.35.12-.29.27-.29.27a3.89 3.89 0 0 0 1.52 0c-.11.07 0 .12.16.2.43 0 .29-.26.85-.16a1.28 1.28 0 0 1-.43.3c.5-.07 1-.21 1.52-.27.13.13-.32.19-.5.28a4.58 4.58 0 0 0 1.69-.32l-.37-.07c.21 0 .1.17-.05.21-.5.15-.72-.07-.75-.15h.37c-.38-.43-1.48.06-2.23 0l.31-.31-.76.26c-.16-.08-.27-.26.09-.31-.53-.15-.47.12-.92-.06-.05 0 0 0 0-.05l-.52.09c.11-.06-.08-.22.24-.17-.94-.18-1.51.23-1.86 0h.08c-1.3.1-.13.22-1.1.49l-.66-.56-.12.23c-.14 0-.4 0-.35-.12-.5.16.08.1-.21.25-.64-.21-1.77.1-1.92-.27-.23.17.62.13-.07.26-.19-.4-.79.06-1.38-.12.18-.2.74-.09.15-.27-.36.34-1.15-.08-1.64 0 0 .27-1.08.11-1.91.2a22.32 22.32 0 0 0-2.34-.25c-.15.27-1 .22-1.53.28 0-.17.13-.23.44-.31h-.54a1.44 1.44 0 0 1-.66.16l.14-.2a12.14 12.14 0 0 1-2.4.1c-.06.19.74.54-.25.66 0-.1-.07-.28.19-.32a1.16 1.16 0 0 1-.48 0l.4-.17c-.43-.08-.22.14-.56.13 0-.15-.26-.11-.21-.23s.3.07.43 0a2.67 2.67 0 0 1-1-.23c0 .09 0 .2-.28.22-.73 0-.25-.18-.68-.25-.17.1-.64 0-.65.21-.21 0-.25-.1-.34-.16-.37.1-1.75 0-1.33.26h.1-.06c-1.24.22-2.57-.13-3.79 0v-.08a17.2 17.2 0 0 0-2.15.21c-.22 0-.51-.13-.42-.22a3.9 3.9 0 0 1-1.43 0c.56-.13-.19-.12.58-.1a3.63 3.63 0 0 0-1.67 0c.26-.19-.55-.24-.89-.18l.5.13a9.54 9.54 0 0 1-1.07 0l.19-.25c-1.49-.3-2.68.52-3.81 0-.4.17.8.12.45.32a11.09 11.09 0 0 1-1.61-.39c-.93-.14-.87.37-1.85.27.13.09.24.33-.49.41s-.84-.37-.41-.44c.17 0 .25 0 .24.05.22 0 .51-.07.24-.17l-.09.09c-.34-.09-1.28-.08-1.06-.23-.52.09-.22.15.16.2-.87-.13-1.37 0-2.27-.1.14 0 .27.16.13.16-1.32-.11-.58.17-1.48.21-.51-.14.18-.33-.72-.21-.55-.1-.12-.24.1-.31a6 6 0 0 1-2-.15l.44-.07a4.23 4.23 0 0 1-.69 0l.25.18c-.26 0-.47 0-.47-.11-.26.12.2.3-.32.46-.34-.09-1 .1-1.15-.14 1.07.08-.12-.24.79-.28a2.27 2.27 0 0 1-.64 0s0-.05.1-.06c-1-.21-.47.26-1.53.26.14-.13-.24-.25-.41-.22.42 0 .2.22-.19.32-.68-.1-.74.08-1.1.06l.41.05c-.14.14-.48.12-1 .16 0-.1.43-.07.26-.12-.52.24-1.19-.24-1.92-.08-.34-.09 0-.25-.33-.31-.82.17-.89-.18-1.75 0 .25.18.29.13-.32.31l1.42-.13-.91.26c.43 0 .9-.11 1.16-.08-.43.15-.39.1-.18.25-.59-.27-1.16.16-1.84 0v-.45c-1-.2-1.81.23-3.13.12l.42.07c-.17.18-.81 0-1.24.1 0-.15-.23-.2-.41-.29 0 .11-1 0-1.09.28l-.59-.19c-1.07-.08-1.22.42-2.24.37.31-.16-.16-.27.53-.38-.35 0-.65 0-.66.07-.2-.09-1 .2-1.26.06-.15.07-.2.22-.58.21v-.07s-.6.1-.27.26c-1.05-.46-2.95 0-3.86-.36-.75 0-1.65.09-2.33.1 0 0 0-.07.13-.05-.94-.14-.58.42-1.64.27-.55-.24.56-.13.22-.22-.14-.49-1.28.06-2-.22h.18c-.55-.17-1.34.18-2.24.15v-.07a11.47 11.47 0 0 1-2.64.4c.27-.19.4-.1.23-.3-.38 0 .12.31-.66.37-.25-.11-.8-.2-.88-.41h.73c-.37-.26-.94 0-1.32 0v-.12c-1.12 0-1.13.33-2.33.31l.12.09c-.65.29-.55-.17-1.2.05l-.2-.29c-.43.07-1.51.28-2.28.34a11 11 0 0 1 1.9-.46 5.64 5.64 0 0 0-1.68.16 1.35 1.35 0 0 1 .56-.05 5 5 0 0 1-2.06.34c.15-.57-2.23-.14-2.85-.59a42.5 42.5 0 0 1-4.75-.06c.63.45-.51 0-.4.47h-.6l-1.25-.28c-.29-.13.39-.1.36-.2-.9 0-.38-.2-1-.32.12.17-.32.24-.83.17l.72.22c-1.25.24-1.08-.39-2.34-.15l.4-.14a11.17 11.17 0 0 0-3 .36c-.11 0-.26-.17 0-.21-1.55-.05-3.45.39-4.65.17l.12-.11c-.29 0-.51.21-.87.09 0 0 .12-.11 0-.12a3.44 3.44 0 0 1-1.15.14l.33-.13c-1.51-.15-2.32.31-3.58.38 0-.33-1.19-.43-1.78-.49a39.72 39.72 0 0 0-4.62.4c-1-.36-3.42-.15-5.05-.35.25.06 0 .26-.33.29s-1.05.23-1-.07h.13c-.28-.3-1.07-.22-1.68-.23l-.1.4c-1.6-.58-4.19.21-5.07-.3-.38.1-.86.09-1.24.19v-.21a27.81 27.81 0 0 0-2.93 0l.27-.15c-.75 0-.94.61-1.63.62l-.21-.31a17.63 17.63 0 0 0-3.91 0c0-.05.06-.14.28-.15-.62 0-2.38-.21-2.15.22 0-.28-1.35 0-2 .1l.11-.21a2.92 2.92 0 0 1-1.44.41c-.2 0-.17-.16.09-.11-.66-.11-.51.2-1.3.09l.29-.14a1.55 1.55 0 0 0-1 .21c-.42.09-1.28-.05-1.38-.24a1.07 1.07 0 0 1-.85.22c-.06-.08.09-.12.16-.14-1.12-.14-1.67.24-2.45 0a.16.16 0 0 0-.13-.13h1.55c0-.19-.72-.22-.15-.49a6.93 6.93 0 0 1-2.27.37l-.1-.07h.08a1.31 1.31 0 0 0-.45 0 3.9 3.9 0 0 0-.58-.05c-.09-.16-.83-.09-1.19-.1 0 .21-.44.18 0 .35h1.35a1.39 1.39 0 0 1-1 .08 4.48 4.48 0 0 1-.5.34c-.5-.29-1.45-.45-1.58-.63a11.23 11.23 0 0 0-3.28.47c-.31.05-.36-.11-.48-.17a3.54 3.54 0 0 0 .5-.09c-.63.1-1.86 0-2 .31-.78-.12.45-.25-.64-.21l.15-.08c-2.13-.44-3.46.7-5.82.14.16 0 .24.05.27.09-2.69-.25-5.55.24-8.2-.16a2.24 2.24 0 0 0-1.3.23l-.16-.22-.79.26c-1.12.19-1.94-.56-3.35-.2l.18.16c-.51 0-1.61.09-1.52-.09a.36.36 0 0 1-.37.08v-.12l-1.24.2c-1-.08.15-.47-1.26-.49-.53 0-1.5.35-1.3.43s.54.07.56.19l-.48.06c-.09.35-.46.71.72.95l.82-.21.26.17h-.69a1.1 1.1 0 0 0 .92-.08.59.59 0 0 0 .35.19l.8-.34c.1.14-.36.27.18.35.38-.16-.36-.31.26-.41.4.16.28.29.74.15.07.09 0 .15-.21.19.41-.11 1.08-.05 1.3-.23.41.19 1.38 0 1.34.28a3.53 3.53 0 0 1 1.1-.28c-.69.4 1.41 0 1.23.45.51-.35 1.84-.16 2.74-.35a.41.41 0 0 1-.23.06 4.41 4.41 0 0 1 1 .21c.06-.3.85-.36 1.28-.54.62.28-.38.34-.18.61 0-.24 1.08-.23.87-.43.47.17.41.08.65.33.09-.37.45-.07.84-.29.69.18.18.34.94.23.6.08-.08.23-.08.23zm18-.63zm1.52 0h-.66c0-.08 0-.15.16-.15-.07.02.28.06.51.12zm-3.2-1.46c.24 0 .32 0 .35.06h-.42a.35.35 0 0 1 .08-.09z" fill="#3c3c3c"/></g></g></svg>