<svg xmlns="http://www.w3.org/2000/svg" viewBox="0 0 613 408"><defs><style>.cls-2{fill:#fff}.cls-3{fill:#bbc8f9}.cls-4{fill:#f0f3ff}.cls-5{fill:#cc90ff}.cls-6{fill:#bcebe3}.cls-7{fill:#d8dbe6}.cls-8{fill:none}.cls-9{fill:#202020}.cls-15{fill:#ffd5d0}.cls-16{fill:#e6bbb6}</style></defs><g id="_4" data-name="4"><g id="Dark_bg" data-name="Dark bg"><path d="M568 123a76 76 0 0 0-76-76c-84 0-117.72 71.17-133 96-40 65-108 56-175 56A104 104 0 0 0 80 303c0 57.44 47 104 104 104s74-40 191.67-40c63.33 0 89.16 6.87 138.83 16 43.5 8 90.5-8 90.5-64 0-67-37-78-37-196z" fill="#4d3faf"/><path class="cls-2" d="M354.56 200.65c-6.14-11-12-21.49-16.72-31.87-.52.47-1 .94-1.57 1.39 4.74 10.25 10.49 20.58 16.54 31.46 19.85 35.66 42.35 76.08 40 136.34a179.66 179.66 0 0 1-3.72 29.15h2a180.89 180.89 0 0 0 3.69-29.1c2.4-60.79-20.24-101.48-40.22-137.37zM480.79 193.61c1.9-78.22 28.69-109.47 56.75-131.46l-1.7-1.21c-28.26 22.23-55.13 53.89-57.05 132.62-1.62 66.65-18.22 125.16-39.71 176.61l2.13.25a576.3 576.3 0 0 0 15.26-40.59c15.25-45.77 23.21-90.33 24.32-136.22zM539.37 289.94a4.4 4.4 0 0 1-1.56-3.38c.06-5.73 10.2-14.67 20.92-24.13 9.35-8.24 19.4-17.12 26.34-26.36l-.81-2.37c-7 9.68-17.6 19.07-26.85 27.23-12 10.61-21.53 19-21.6 25.61a6.34 6.34 0 0 0 2.21 4.87c2.63 2.43 8.1 3.48 15.35 3.48 12.6 0 30.6-3.18 48.43-7.73l-.43-2c-30.91 7.89-56.27 10.06-62 4.78zM570.67 173.21c-7.88-8.49-14.75-16.78-14.75-27 0-11.31 3.87-21.61 11.52-32.31-.11-1-.23-1.92-.38-2.87-8.73 11.65-13.14 22.8-13.14 35.18 0 11.76 8.25 20.83 17.16 30.33l-.41-3.33zM524.78 384.43l2.24.19c18.46-29.58 47.17-46.69 77.58-57q.1-1.08.18-2.19c-31.37 10.49-61.09 28.12-80 59zM280 379.16l2.07-.6c.69-7.24 1.46-14.56 2.26-22 3.18-29.85 6.48-60.71 5.26-94.88-.87-24.27-3.69-45.84-6.55-66.64-.65.14-1.31.27-2 .39 2.85 20.71 5.65 42.2 6.52 66.32 1.22 34-2.07 64.82-5.25 94.59-.77 7.73-1.58 15.32-2.31 22.82zM129.34 391.37c3.57-19.15 6.38-39.92 1.94-59.74-5.37-24-18.68-35.53-31.55-46.68A170 170 0 0 1 85 271.09q-.36 1.11-.69 2.22a179.86 179.86 0 0 0 14.11 13.15c13.21 11.45 25.68 22.26 30.91 45.6 4.3 19.19 1.66 39.42-1.81 58.15zM260.93 385.55c.94-29.59-10.9-56.45-22.38-82.49-12.15-27.56-23.63-53.6-20.1-81.53a143.45 143.45 0 0 1 4.7-22.12h-2.08a144.46 144.46 0 0 0-4.6 21.88c-3.6 28.48 8 54.76 20.25 82.59 11.5 26.06 23.35 53 22.18 82.44z"/></g><g id="Big_elipse" data-name="Big elipse"><circle class="cls-3" cx="437" cy="328" r="80"/><circle class="cls-3" cx="192" cy="80" r="80"/></g><g id="Gray_bg" data-name="Gray bg"><path class="cls-4" d="M408 0c-64 0-88 48-168 48-48 0-64-24-112-24-35.35 0-80 24-80 72 0 40 8 48 8 80 0 47-56 75-56 120s32 80 80 80c72.23 0 81.15-51.09 95-72 25.71-38.81 62.87-66.32 103.27-84.36A325.08 325.08 0 0 1 408 192a96 96 0 0 0 0-192z"/><path class="cls-3" d="M488.81 98.63c4 7.11 8 14.42 12 22 .26-1 .51-1.94.74-2.92a851.1 851.1 0 0 0-11-20.1c-15.58-28-29.1-52.29-28.37-80.9-.65-.44-1.3-.88-2-1.3-1.13 29.73 12.68 54.59 28.63 83.22zM273.42 164.11a312.72 312.72 0 0 0-6.55 60.89l2-1a310.84 310.84 0 0 1 6.48-59.53c8-39.3 25.38-65.79 42.15-91.41 12.2-18.64 24-36.62 31.38-58.42l-2.54 1.2C339 36.66 327.62 54 315.85 72c-16.85 25.79-34.32 52.44-42.43 92.11zM73.37 375.75l2 .14c.72-6.43 1.91-13 3.13-19.73 3.1-17.06 6.31-34.71 2.24-53-3.92-17.62-29.38-39.21-57-60.77l-1.2 1.6c27.29 21.33 52.43 42.62 56.21 59.6 4 17.94.81 35.38-2.25 52.25-1.2 6.77-2.4 13.4-3.13 19.91zM221.75 94c6.61-14.89 13.31-30 18.5-46h-2.1c-5.15 15.68-11.73 30.56-18.23 45.21-10.5 23.67-20.41 46-23.45 70.07-3.6 28.48 8 54.76 20.25 82.59q1.91 4.31 3.8 8.65l1.62-1.28c-1.19-2.74-2.39-5.46-3.59-8.18-12.15-27.56-23.63-53.6-20.1-81.53 3.01-23.76 12.86-45.98 23.3-69.53zM76.67 61.51c-10.14 20.87-20.46 42.12-27.16 61.65.19 1.56.39 3.06.61 4.52 6.56-20.43 17.56-43.08 28.35-65.3a1096.47 1096.47 0 0 0 14.71-31.09c-.91.39-1.83.79-2.74 1.22-4.22 9.33-8.96 19.09-13.77 29z"/><path class="cls-3" d="M79.73 227c-9.82-8.51-19.85-17.21-26.93-31.58-.29.89-.6 1.76-.93 2.64 7.16 13.63 17 22.14 26.55 30.45 13.21 11.45 25.68 22.26 30.91 45.6 5.15 23 .33 47.5-3.92 69.12-2.2 11.14-4.26 21.66-5 31.26l2-.35c.72-9.36 2.74-19.64 4.88-30.52 4.29-21.82 9.16-46.54 3.91-69.94-5.29-24.04-18.6-35.58-31.47-46.68zM47.46 362.19c-12.27-25.71-24.89-52.14-46.8-55.32l.25 2c20.46 3.26 32.31 28.09 44.74 54.16l3.62 7.55 2.7 1c-1.52-3.13-2.97-6.27-4.51-9.39z"/></g><g id="Heart"><path class="cls-5" d="M553.07 219c-2.89-.78-4.11-5.48-4.64-8.12s.51-4.24 3-4.2 4.31 2.41 6 2.88 4.76.66 6.34 1.71 2.82 2.69 2 4.27c-2.43 4.34-9.77 4.22-12.7 3.46zm-14.14-12.14c.76-1.38-.33-2.81-1.7-3.73s-4-1.08-5.53-1.49-3.11-2.47-5.26-2.5-3.05 1.35-2.59 3.65 1.53 6.4 4 7.08 8.99.76 11.08-3.03zm-24.08 42c.76-1.38-.33-2.81-1.7-3.73s-4-1.08-5.53-1.49-3.11-2.47-5.26-2.51-3.05 1.36-2.59 3.66 1.53 6.4 4 7.08 8.99.73 11.08-3.06zm42.26-58.72c.82-1.48-.35-3-1.82-4s-4.32-1.17-5.94-1.6-3.34-2.66-5.65-2.69-3.27 1.45-2.78 3.92 1.64 6.88 4.34 7.6 9.61.79 11.85-3.28zm-84.28 6.2c.59-1.07-.25-2.19-1.32-2.9s-3.13-.84-4.31-1.16-2.42-1.93-4.09-1.95-2.38 1.05-2 2.84 1.19 5 3.15 5.52 6.95.55 8.57-2.4zm.4-38.36c.59-1.07-.25-2.18-1.32-2.9s-3.13-.84-4.31-1.16-2.42-1.92-4.09-2-2.38 1.06-2 2.85 1.19 5 3.15 5.51 6.95.61 8.57-2.35zm43 55.49c.6-1.08-.25-2.19-1.32-2.9s-3.13-.85-4.3-1.16-2.43-1.93-4.1-2-2.38 1.05-2 2.84 1.19 5 3.15 5.52 7 .6 8.62-2.35zm-24.43-7c.51-.92-.22-1.87-1.13-2.48s-2.68-.72-3.68-1-2.07-1.65-3.5-1.67-2 .9-1.73 2.43 1 4.27 2.69 4.72 6.01.53 7.4-2.02zm83.4 59.81c.59-1.08-.26-2.19-1.33-2.9s-3.13-.85-4.3-1.16-2.42-1.93-4.1-2-2.37 1.06-2 2.85 1.19 5 3.14 5.51 7.01.63 8.64-2.32zm-14.93 10.11c.59-1.08-.26-2.19-1.33-2.9s-3.13-.85-4.3-1.16-2.42-1.93-4.1-1.95-2.37 1.05-2 2.84 1.19 5 3.14 5.52 7.01.58 8.64-2.37zm31.24-49.67c.87-1.58-.38-3.22-1.95-4.27s-4.62-1.25-6.35-1.71-3.57-2.84-6-2.88-3.51 1.56-3 4.2 1.75 7.34 4.63 8.12 10.32.88 12.72-3.48zm-3.72 24c.76-1.38-.33-2.81-1.7-3.72s-4-1.08-5.53-1.49-3.11-2.47-5.26-2.51-3.05 1.36-2.59 3.66 1.53 6.4 4 7.08 9.04.8 11.13-3zm-107.2-30.49c.59-1.07-.26-2.19-1.33-2.9s-3.13-.84-4.3-1.16-2.43-1.92-4.1-1.95-2.38 1.05-2 2.85 1.18 5 3.14 5.51 7 .61 8.59-2.35zm60.3 12c.87-1.58-.38-3.22-2-4.27s-4.61-1.24-6.34-1.71-3.57-2.84-6-2.88-3.51 1.56-3 4.2 1.75 7.34 4.63 8.12 10.31.89 12.71-3.47zm-5.42 29.87c.87-1.58-.38-3.23-2-4.28s-4.61-1.24-6.34-1.71-3.57-2.83-6-2.87-3.51 1.55-3 4.19 1.76 7.35 4.64 8.13 10.3.88 12.7-3.47zm18-8.6c.87-1.59-.38-3.23-2-4.28s-4.62-1.24-6.35-1.71-3.57-2.84-6-2.88-3.5 1.56-3 4.2 1.75 7.35 4.63 8.12 10.36.89 12.76-3.46zm57.68-76.5c.36-.67-.16-1.36-.83-1.8a10.25 10.25 0 0 0-2.67-.72c-.73-.2-1.51-1.2-2.54-1.21s-1.48.65-1.26 1.77.74 3.09 2 3.42 4.29.41 5.3-1.46zm-97.9 96.47c.37-.66-.16-1.36-.82-1.8a10.42 10.42 0 0 0-2.68-.72c-.73-.2-1.5-1.2-2.54-1.21s-1.48.65-1.25 1.77.73 3.09 2 3.42 4.28.41 5.29-1.43zm22.93 3c.37-.67-.16-1.36-.82-1.81a10.42 10.42 0 0 0-2.68-.72c-.73-.19-1.5-1.19-2.54-1.21s-1.48.66-1.25 1.77.74 3.1 2 3.42 4.28.45 5.29-1.38zm62.12-35.22c.37-.66-.16-1.36-.82-1.8a10.32 10.32 0 0 0-2.68-.72c-.72-.2-1.5-1.2-2.54-1.21s-1.48.65-1.25 1.77.74 3.09 2 3.42 4.28.45 5.29-1.39zm8.29-12.95c.36-.67-.16-1.36-.83-1.8a10.25 10.25 0 0 0-2.67-.72c-.73-.2-1.51-1.2-2.55-1.21s-1.47.65-1.25 1.77.74 3.09 2 3.42 4.29.45 5.3-1.39zm-106 33.37c.37-.66-.16-1.36-.82-1.8a10.42 10.42 0 0 0-2.68-.72c-.73-.2-1.5-1.2-2.54-1.21s-1.48.65-1.25 1.77.74 3.09 1.95 3.42 4.38.45 5.39-1.39zm-.05-126.31c.37-.67-.15-1.36-.82-1.8a9.87 9.87 0 0 0-2.67-.72c-.73-.2-1.51-1.2-2.55-1.21s-1.47.65-1.25 1.76.74 3.1 2 3.43 4.33.45 5.34-1.39zM487 148.1c.6-1.09-.26-2.22-1.34-2.94s-3.17-.85-4.36-1.17-2.46-2-4.15-2-2.41 1.07-2 2.88 1.2 5.05 3.18 5.59 6.98.63 8.67-2.36zm-2.83 40.34c.42-.77-.18-1.56-.95-2.07a11.33 11.33 0 0 0-3.08-.83c-.84-.23-1.74-1.38-2.93-1.4s-1.71.75-1.45 2 .85 3.57 2.26 3.94 4.98.48 6.11-1.64zM544 168.85c.43-.77-.18-1.56-1-2.07a11.33 11.33 0 0 0-3-.78c-.84-.23-1.73-1.38-2.93-1.4s-1.7.75-1.44 2 .85 3.57 2.25 3.94 4.96.46 6.12-1.69zm-6.5-33c.42-.76-.18-1.56-1-2.07a11.33 11.33 0 0 0-3.08-.83c-.84-.23-1.74-1.38-2.93-1.4s-1.7.75-1.45 2 .86 3.57 2.26 3.94 5.04.51 6.2-1.62zm-67.31 40.57c.43-.77-.18-1.57-.94-2.08a11.88 11.88 0 0 0-3.09-.83c-.84-.22-1.73-1.38-2.93-1.4s-1.7.76-1.44 2 .85 3.57 2.25 4 4.96.44 6.15-1.67zm36.45 54.38c.76-1.38-.33-2.82-1.71-3.74s-4-1.08-5.54-1.49-3.13-2.48-5.28-2.52-3.07 1.36-2.6 3.67 1.53 6.43 4.05 7.11 8.99.8 11.08-3.01zm5.36-38.54c.81-1.49-.36-3-1.83-4s-4.32-1.17-5.94-1.6-3.34-2.66-5.64-2.7-3.28 1.46-2.78 3.93 1.64 6.87 4.34 7.6 9.56.84 11.85-3.23zm16.39-22.53c.81-1.49-.35-3-1.83-4s-4.32-1.17-5.93-1.6-3.35-2.66-5.65-2.7-3.28 1.46-2.78 3.93 1.64 6.87 4.34 7.6 9.56.84 11.8-3.23zm38.44 2.4c.82-1.48-.35-3-1.82-4s-4.32-1.16-5.94-1.6-3.34-2.65-5.64-2.69-3.28 1.45-2.79 3.93 1.64 6.87 4.34 7.6 9.56.83 11.8-3.24zm16.87 25.62c.82-1.48-.35-3-1.82-4s-4.32-1.17-5.94-1.6-3.34-2.66-5.64-2.69-3.28 1.45-2.79 3.92 1.64 6.87 4.34 7.6 9.56.84 11.8-3.23zm7.2-19.75c.7-1.27-.3-2.58-1.56-3.42s-3.69-1-5.07-1.37-2.86-2.27-4.82-2.3-2.81 1.25-2.38 3.36 1.4 5.87 3.71 6.49 8.22.76 10.12-2.76zm6.61-14.92c.69-1.26-.3-2.58-1.56-3.41s-3.69-1-5.07-1.37-2.86-2.27-4.83-2.3-2.8 1.24-2.37 3.35 1.4 5.88 3.7 6.5 8.21.75 10.13-2.73zm-23-7.21c.48-.87-.21-1.77-1.08-2.35s-2.54-.68-3.49-.94-2-1.56-3.32-1.58-1.92.86-1.63 2.31 1 4 2.55 4.47 5.63.53 6.95-1.87zm-18.81-9c.48-.88-.21-1.78-1.08-2.36s-2.53-.68-3.48-.94-2-1.56-3.32-1.58-1.93.86-1.64 2.31 1 4 2.55 4.47 5.63.53 6.95-1.86zm-13.57 4.14c.87-1.58-.38-3.22-2-4.27s-4.61-1.25-6.34-1.71-3.57-2.84-6-2.88-3.51 1.56-3 4.2 1.75 7.34 4.63 8.12 10.29.94 12.69-3.42zm-33.32-.57c.58-1-.25-2.15-1.3-2.85s-3.08-.82-4.23-1.14-2.38-1.89-4-1.91-2.34 1-2 2.79 1.17 4.9 3.09 5.42 6.82.63 8.42-2.27zm-19.35 94.16c.58-1.06-.25-2.15-1.3-2.85s-3.07-.83-4.23-1.14-2.38-1.89-4-1.92-2.33 1-2 2.8 1.17 4.89 3.09 5.41 6.85.6 8.44-2.3zm30.6-111.7c.58-1.05-.25-2.14-1.3-2.84s-3.08-.83-4.23-1.14-2.38-1.89-4-1.92-2.34 1-2 2.8 1.17 4.89 3.09 5.41 6.84.59 8.44-2.31zM500 163.69c.71-1.27-.3-2.6-1.57-3.45s-3.73-1-5.12-1.38-2.89-2.29-4.87-2.32-2.83 1.26-2.4 3.39 1.41 5.93 3.74 6.56 8.22.72 10.22-2.8zm108.9 46.84c.88-1.58-.37-3.22-1.95-4.27s-4.61-1.25-6.34-1.71-3.57-2.84-6-2.88-3.51 1.55-3 4.2 1.76 7.34 4.64 8.12 10.26.89 12.65-3.46zm-40.69 27.64c.88-1.58-.37-3.22-2-4.27s-4.61-1.25-6.34-1.71-3.57-2.84-6-2.88-3.51 1.55-3 4.2 1.76 7.34 4.64 8.12 10.31.89 12.7-3.46zm44.58-45.12c.64-1.18-.28-2.4-1.45-3.17s-3.43-.93-4.72-1.28-2.65-2.1-4.48-2.13-2.6 1.15-2.21 3.12 1.31 5.45 3.45 6 7.62.69 9.41-2.54zM92.07 172c-2.89-.78-4.11-5.48-4.64-8.12s.51-4.24 3-4.2 4.31 2.41 6 2.88 4.76.66 6.34 1.71 2.82 2.69 2 4.27c-2.43 4.34-9.77 4.22-12.7 3.46zm-14.14-12.16c.76-1.38-.33-2.81-1.7-3.73s-4-1.08-5.53-1.49-3.11-2.47-5.26-2.5-3 1.35-2.59 3.65 1.53 6.4 4 7.08 8.99.78 11.08-3.01zm-24.08 42c.76-1.38-.33-2.81-1.7-3.73s-4-1.08-5.53-1.49-3.11-2.47-5.26-2.51-3 1.36-2.59 3.66 1.53 6.4 4 7.08 8.99.75 11.08-3.04zm28.26-61.72c.82-1.48-.35-3-1.82-4s-4.32-1.17-5.94-1.6-3.35-2.69-5.65-2.72-3.27 1.45-2.78 3.92 1.64 6.88 4.34 7.6 9.61.84 11.85-3.23zm-70.28 9.2c.59-1.07-.25-2.19-1.32-2.9s-3.13-.84-4.31-1.16-2.42-1.93-4.09-1.95-2.38 1.05-2 2.84 1.19 5 3.15 5.52 6.95.57 8.57-2.38zm.4-38.36c.59-1.07-.25-2.18-1.32-2.9s-3.13-.84-4.31-1.16-2.42-1.92-4.09-2-2.38 1.06-2 2.85 1.19 5 3.15 5.51 6.95.63 8.57-2.33zm43.05 55.49c.6-1.08-.25-2.19-1.32-2.9s-3.13-.85-4.3-1.16-2.43-1.93-4.1-2-2.38 1.05-2 2.84 1.19 5 3.15 5.52 6.95.62 8.57-2.33zm-24.43-7c.51-.92-.22-1.87-1.13-2.48S27 156.25 26 156s-2.07-1.65-3.5-1.67-2 .9-1.73 2.43 1 4.27 2.69 4.72 6 .52 7.39-2.03zm83.4 59.81c.59-1.08-.26-2.19-1.33-2.9s-3.13-.85-4.3-1.16-2.42-1.93-4.1-2-2.37 1.06-2 2.85 1.19 5 3.14 5.51 6.96.65 8.59-2.3zm-14.93 10.11c.59-1.08-.26-2.19-1.33-2.9s-3.13-.85-4.3-1.16-2.42-1.93-4.1-1.95-2.37 1-2 2.84 1.19 5 3.14 5.52 6.96.6 8.59-2.35zm31.24-49.67c.87-1.58-.38-3.22-1.95-4.27s-4.62-1.25-6.35-1.71-3.57-2.84-6-2.88-3.51 1.56-3 4.2 1.75 7.34 4.63 8.12 10.27.9 12.67-3.46zm-3.72 24c.76-1.38-.33-2.81-1.7-3.72s-4-1.08-5.53-1.49-3.11-2.47-5.26-2.51-3 1.36-2.59 3.66 1.53 6.4 4 7.08 8.99.82 11.08-2.98zM19.59 173.23c.59-1.07-.26-2.19-1.33-2.9s-3.13-.84-4.3-1.16-2.43-1.92-4.1-1.95-2.38 1.05-2 2.85 1.18 5 3.14 5.51 7 .61 8.59-2.35zm60.3 12c.87-1.58-.38-3.22-2-4.27s-4.61-1.24-6.34-1.71-3.57-2.84-6-2.88-3.51 1.56-3 4.2 1.75 7.34 4.63 8.12 10.31.89 12.71-3.47zm-5.42 29.87c.87-1.58-.38-3.23-2-4.28s-4.61-1.24-6.34-1.71-3.57-2.83-6-2.87-3.51 1.55-3 4.19 1.76 7.35 4.64 8.13 10.3.88 12.7-3.47zm18-8.6c.87-1.59-.38-3.23-2-4.28s-4.62-1.24-6.35-1.71-3.57-2.84-6-2.88-3.5 1.56-3 4.2 1.75 7.35 4.63 8.12 10.36.89 12.76-3.46zm57.68-76.5c.36-.67-.16-1.36-.83-1.8a10.25 10.25 0 0 0-2.67-.72c-.73-.2-1.51-1.2-2.54-1.21s-1.48.65-1.26 1.77.74 3.09 2 3.42 4.29.41 5.3-1.46zm-97.9 96.5c.37-.66-.16-1.36-.82-1.8a10.42 10.42 0 0 0-2.68-.72c-.73-.2-1.5-1.2-2.54-1.21s-1.48.65-1.25 1.77.73 3.09 1.95 3.42 4.33.38 5.34-1.46zm22.93 3c.37-.67-.16-1.36-.82-1.81a10.42 10.42 0 0 0-2.68-.72c-.73-.19-1.5-1.19-2.54-1.21s-1.48.66-1.25 1.77.74 3.1 2 3.42 4.28.42 5.29-1.41zm62.12-35.22c.37-.66-.16-1.36-.82-1.8a10.32 10.32 0 0 0-2.68-.72c-.72-.2-1.5-1.2-2.54-1.21s-1.48.65-1.25 1.77.74 3.09 2 3.42 4.28.42 5.29-1.42zm8.29-17.95c.36-.67-.16-1.36-.83-1.8a10.25 10.25 0 0 0-2.67-.72c-.73-.2-1.51-1.2-2.55-1.21s-1.47.65-1.25 1.77.74 3.09 2 3.42 4.29.42 5.3-1.42zM39.64 214.74c.37-.66-.16-1.36-.82-1.8a10.42 10.42 0 0 0-2.68-.72c-.73-.2-1.5-1.2-2.54-1.21s-1.48.65-1.25 1.77.74 3.09 1.95 3.42 4.33.38 5.34-1.46zm0-126.31c.37-.67-.15-1.36-.82-1.8a9.87 9.87 0 0 0-2.67-.72c-.73-.2-1.51-1.2-2.55-1.21s-1.47.65-1.25 1.76.74 3.1 2 3.43 4.23.38 5.24-1.46zM26 101.1c.6-1.09-.26-2.22-1.34-2.94s-3.17-.85-4.36-1.17S17.8 95 16.11 95s-2.41 1.07-2 2.88 1.2 5 3.18 5.59 7.02.62 8.71-2.37zm1.17 36.34c.42-.77-.18-1.56-.95-2.07a11.33 11.33 0 0 0-3.08-.83c-.84-.23-1.74-1.38-2.93-1.4s-1.71.75-1.45 2 .85 3.57 2.26 3.94 4.98.48 6.11-1.64zM83 121.85c.43-.77-.18-1.56-1-2.07a11.33 11.33 0 0 0-3-.78c-.84-.23-1.73-1.38-2.93-1.4s-1.7.75-1.44 2 .85 3.57 2.25 3.94 4.96.46 6.12-1.69zm-6.5-33c.42-.76-.18-1.56-1-2.07a11.33 11.33 0 0 0-3.03-.78c-.84-.23-1.74-1.38-2.93-1.4s-1.7.75-1.45 2 .86 3.57 2.26 3.94 4.99.46 6.15-1.67zM9.19 129.44c.43-.77-.18-1.57-.94-2.08a11.88 11.88 0 0 0-3.09-.83c-.84-.22-1.73-1.38-2.93-1.4s-1.7.76-1.44 2 .85 3.57 2.25 4 4.96.42 6.15-1.69zm36.45 54.38c.76-1.38-.33-2.82-1.71-3.74s-4-1.08-5.54-1.49-3.13-2.48-5.28-2.52-3.07 1.36-2.6 3.67 1.53 6.43 4.05 7.11 8.99.78 11.08-3.03zM51 145.26c.81-1.49-.36-3-1.83-4s-4.32-1.17-5.94-1.6-3.39-2.66-5.69-2.66-3.28 1.46-2.78 3.93 1.64 6.87 4.34 7.6 9.61.8 11.9-3.27zm16.39-22.53c.81-1.49-.35-3-1.83-4s-4.32-1.17-5.93-1.6-3.35-2.66-5.65-2.7-3.28 1.46-2.78 3.93 1.64 6.87 4.34 7.6 9.56.84 11.8-3.23zm38.44 2.4c.82-1.48-.35-3-1.82-4s-4.37-1.13-6.01-1.6-3.34-2.65-5.64-2.69-3.28 1.45-2.79 3.93 1.64 6.87 4.34 7.6 9.63.83 11.87-3.24zm5.87 22.62c.82-1.48-.35-3-1.82-4s-4.32-1.17-5.94-1.6-3.34-2.66-5.64-2.69-3.28 1.45-2.79 3.92 1.64 6.87 4.34 7.6 9.56.84 11.8-3.23zM129.9 131c.7-1.27-.3-2.58-1.56-3.42s-3.69-1-5.07-1.37-2.86-2.27-4.82-2.3-2.81 1.25-2.38 3.36 1.4 5.87 3.71 6.49 8.22.76 10.12-2.76zm6.61-14.92c.69-1.26-.3-2.58-1.56-3.41s-3.69-1-5.07-1.37-2.86-2.27-4.83-2.3-2.8 1.24-2.37 3.35 1.4 5.88 3.7 6.5 8.21.75 10.13-2.73zm-23-7.21c.48-.87-.21-1.77-1.08-2.35s-2.54-.68-3.49-.94-2-1.56-3.32-1.58-1.92.86-1.63 2.31 1 4 2.55 4.47 5.63.53 6.95-1.87zm-18.81-9c.48-.88-.21-1.78-1.08-2.36s-2.53-.68-3.48-.94-2-1.56-3.32-1.58-1.93.86-1.64 2.31 1 4 2.55 4.47 5.63.53 6.95-1.86zm-13.57 4.14c.87-1.58-.38-3.22-2-4.27s-4.61-1.25-6.34-1.71-3.57-2.84-6-2.88-3.51 1.56-3 4.2 1.75 7.34 4.63 8.12 10.29.94 12.69-3.42zm-33.32-.57c.58-1-.25-2.15-1.3-2.85s-3.08-.82-4.23-1.14-2.38-1.89-4-1.91-2.34 1-2 2.79 1.17 4.9 3.09 5.42 6.82.63 8.42-2.27zM28.46 197.6c.58-1.06-.25-2.15-1.3-2.85s-3.07-.83-4.23-1.14-2.38-1.89-4-1.92-2.33 1-2 2.8 1.17 4.89 3.09 5.41 6.85.6 8.44-2.3zm30.6-111.7c.58-1.05-.25-2.14-1.3-2.84s-3.08-.83-4.23-1.14S51.15 80 49.51 80s-2.34 1-2 2.8 1.17 4.89 3.09 5.41 6.86.59 8.46-2.31zM39 119.69c.71-1.27-.3-2.6-1.57-3.45s-3.73-1-5.12-1.38-2.89-2.29-4.87-2.32-2.83 1.26-2.4 3.39 1.41 5.93 3.74 6.56 8.22.72 10.22-2.8zm102.9 40.84c.88-1.58-.37-3.22-2-4.27s-4.61-1.25-6.34-1.71-3.57-2.84-6-2.88-3.51 1.55-3 4.2 1.76 7.34 4.64 8.12 10.31.89 12.7-3.46zm-34.69 30.64c.88-1.58-.37-3.22-1.95-4.27s-4.61-1.25-6.34-1.71-3.57-2.84-6-2.88-3.51 1.55-3 4.2 1.76 7.34 4.64 8.12 10.26.89 12.65-3.46zm44.58-45.12c.64-1.18-.28-2.4-1.45-3.17s-3.43-.93-4.72-1.28-2.65-2.1-4.48-2.13-2.6 1.15-2.21 3.12 1.31 5.45 3.45 6 7.62.69 9.41-2.54z"/></g><g id="Small_elipse" data-name="Small elipse"><circle class="cls-6" cx="564" cy="44" r="12"/><circle class="cls-6" cx="332" cy="396" r="12"/><circle class="cls-6" cx="288" cy="376" r="16"/></g><g id="Web"><rect class="cls-2" x="80" y="64" width="453" height="280" rx="16" ry="16"/><path class="cls-7" d="M533 104H80V80a16 16 0 0 1 16-16h421a16 16 0 0 1 16 16z"/><circle class="cls-2" cx="104" cy="84" r="8"/><circle class="cls-2" cx="128" cy="84" r="8"/><circle class="cls-2" cx="152" cy="84" r="8"/><path class="cls-4" d="M112 136h256v176H112.61L112 136zM384 136h117v88H384.28l-.28-88z"/><path class="cls-7" d="M220 256v-64l48 32-48 32zM384 240h117v12H384zM384 268h64v12h-64zM384 296h88v12h-88z"/></g><g id="Shadow"><path class="cls-8" d="M332 121.82c-.19.1-.45.3-.43.21-.1.1-.08.19 0 .21zM319.68 111.49l-.23.25.23-.25zM317.54 111.55a.23.23 0 0 0 0 .14l.25-.29c-.03-.05-.11-.03-.25.15zM331 122.8l-.23.26.23-.25zM320.66 110.5c-.19.11-.45.31-.43.22-.1.1-.09.19 0 .2l.43-.42zM328.86 122.87a.29.29 0 0 0 0 .13l.26-.3c.07-.08-.12-.01-.26.17z"/><path class="cls-9" d="M329.67 32a.67.67 0 0 0-.14.26z"/><path class="cls-9" d="M317 44.25v2.23c1-1.21 2.87-2.08 3.46-3.2v.07l.8-1.1c.46-.41-.16.37.24.13.8-1.25 1.65-1.59 2.34-2.58 1.06-.25 2.29-2.34 3.42-3l-.14-.05c.13-.32.33-.22.52-.36-.1 0-.34.16-.25 0A51.68 51.68 0 0 1 332 32h-2c-.16.22-.32.43-.48.62a3.57 3.57 0 0 1 .31-.62h-.11a4.46 4.46 0 0 1-1 1.44c-.3-.5-1.54 1.35-2.26 1.43a35.21 35.21 0 0 1-3.13 3.06c.72-.09-.33.34.07.59-.25.29-.36.39-.4.39l-1 .61c-.29.1.18-.32.08-.37-.6.56-.38.11-.85.41.19 0 0 .36-.41.65l.61-.32c-.64 1-1 .44-1.62 1.43L320 41c-.36.48-1.55 1.55-1.71 2.22-.11 0-.3 0-.13-.16a12.07 12.07 0 0 0-1.16 1.19zM323.33 61c-.23-.23-1.08.47-1.51.81a32.32 32.32 0 0 0-2.71 3.29 9.45 9.45 0 0 0-2.11 1.72v2.81c.74-.73 1.47-1.58 2.27-2.38-.39.28-.51 0-.25-.28l.28.06c.07-.28-.35.22-.12-.27.37-.33.43 0 .29.22l.36-.49c.08 0 0 .16.05.25.06-.28.9-.56 1-1h.07c.94-.93 1.3-1.42 2.06-2.19-.14-.16.19-.42.3-.77a25.3 25.3 0 0 0 2-1.7c.4-.55 0-.27.14-.57.17.1.83-.58.58-.14a28.11 28.11 0 0 0 1.92-2.19c-.17.06-.32.16-.3 0s.48-.37.52-.28v.07c.95-1.36 3-2.26 3.68-3.45v.06l.8-1.09c.46-.42-.16.36.25.12.79-1.25 1.65-1.58 2.34-2.57 1.05-.26 2.28-2.35 3.42-3h-.15c.14-.32.33-.22.52-.37-.1-.05-.33.16-.24 0 1.81-2 4.11-3.84 6.17-5.73.75-.69-.08-.9 1.06-1.58l-.09.43c1.25-1.66 3-3 4.24-4.57 0 .12 0 .18-.13.31.42-.17 1.12-1.1 1-1.21.23-.21.14 0 .33 0 .38-.23.6-.93.89-1 0 0-.05.13-.09.19.13-.26.93-.9.6-.86.6-.46.95-1.09 1.47-1.43a.7.7 0 0 1 .15-.26h-2c-.44.51-1 1.11-1.39 1.54 0-.06-.05 0 0-.12-.71.51-.07.67-.88 1.26-.52.18.28-.46 0-.31-.44-.25-.79.89-1.46 1.15l.09-.13c-.47.24-.74 1-1.35 1.56v-.06a9.59 9.59 0 0 1-1.43 2c0-.31.18-.33-.06-.36-.24.27.29.15-.17.69-.24.09-.67.38-.86.29l.46-.49c-.43.06-.6.62-.88.84v-.12c-.7.76-.5 1-1.3 1.74h.15c-.22.63-.48.24-.75.82l-.34-.08c-.23.33-.78 1.19-1.24 1.73a9.89 9.89 0 0 1 .91-1.57 4.76 4.76 0 0 0-1 1.21 1.26 1.26 0 0 1 .32-.4 4.27 4.27 0 0 1-1.1 1.59c-.31-.51-1.55 1.34-2.27 1.43a36.62 36.62 0 0 1-3.13 3.05c.72-.09-.32.34.07.6-.25.28-.35.38-.4.38l-1 .62c-.28.09.18-.33.09-.38-.61.56-.39.11-.86.41.2 0 0 .37-.41.66l.62-.32c-.65 1-1 .43-1.63 1.42l.16-.36c-.36.48-1.56 1.55-1.71 2.23-.11 0-.3 0-.14-.16-1.05 1-2 2.52-2.91 3.14v-.16c-.17.21-.18.48-.49.63 0 0 0-.15-.1-.07a2.74 2.74 0 0 1-.66.84l.13-.3c-1.17.9-1.37 1.75-2.14 2.6zM376.87 32h-2s-.07.06-.09.11c-.29.15-.2-.16-.44 0-.41.66-.71.45-1.17 1.11.29 0 .29-.09 0 .43l.83-1-.41.77c.28-.28.51-.67.7-.81-.18.38-.18.32.06.3-.58.19-.65.86-1.22 1.17l-.3-.32c-.8.52-1 1.33-1.95 2.12l.33-.23c0 .24-.52.55-.74.88-.08-.13-.29 0-.48.06.09.06-.64.62-.5.91l-.53.25c-.75.63-.49 1.09-1.19 1.72.08-.32-.29-.09.07-.62-.22.23-.44.41-.37.48-.2.07-.48.76-.78.87-.05.14 0 .28-.23.52-.05 0-.05-.05-.05-.05s-.32.46 0 .36c-1 .36-1.89 1.94-2.77 2.26-.45.52-1 1.14-1.44 1.59 0-.06-.05-.06 0-.13-.7.51-.07.68-.87 1.26-.53.18.27-.46 0-.3-.44-.25-.79.88-1.46 1.15l.1-.14c-.48.24-.74 1-1.35 1.56 0 0 0-.06-.05 0a9.44 9.44 0 0 1-1.43 2c0-.31.18-.32-.06-.36-.23.28.29.15-.17.69-.24.09-.66.39-.86.29l.47-.48c-.43 0-.61.62-.89.83v-.11c-.7.75-.5 1-1.29 1.73h.14c-.22.63-.47.24-.75.81l-.33-.08c-.23.33-.79 1.19-1.25 1.73a9.39 9.39 0 0 1 .91-1.56 4.59 4.59 0 0 0-1 1.21 1.11 1.11 0 0 1 .33-.41 4.36 4.36 0 0 1-1.11 1.59c-.31-.5-1.55 1.34-2.26 1.43a38.36 38.36 0 0 1-3.14 3c.73-.09-.32.35.07.6-.24.29-.35.38-.39.39l-1 .61c-.29.1.18-.33.08-.37-.61.55-.38.1-.85.4.19 0 0 .37-.42.66l.62-.32c-.64 1-1 .43-1.63 1.43l.16-.37c-.36.49-1.56 1.56-1.71 2.23-.11 0-.3 0-.14-.16-1 1-2 2.52-2.9 3.14v-.15c-.16.21-.18.47-.49.63 0 0 0-.16-.1-.07a3.12 3.12 0 0 1-.65.84l.12-.31c-1.08.88-1.29 1.73-2.06 2.61-.23-.24-1.08.46-1.5.81v-.05a33.59 33.59 0 0 0-2.72 3.29c-.91.4-2.33 2.12-3.53 3 .2-.12.15.21 0 .42s-.53.84-.7.59l.09-.08c-.4 0-.85.54-1.25.93l.21.35c-1.45.63-2.58 2.88-3.51 3.08-.18.32-.49.63-.67 1l-.14-.16a20.74 20.74 0 0 0-1.87 1.83l.07-.28c-.49.47-.18 1-.62 1.5l-.36-.09c-.33.33-.69.64-1.05 1v2.21a15.66 15.66 0 0 1 2.67-2.39c-.05-.4 1.3-1.11 1.07-1.5a9.85 9.85 0 0 0 1.79-1.16c.28-.25.2-.59.49-.94l.17.15.27-.61h.43l.26-.34c-.13.11-.33.18-.36.11a2.76 2.76 0 0 1 1.37-1l1-1.26c0 .09-.13.3-.23.49.43-.76.28.07.67-.63-.11 0-.05-.14-.07-.19a5.65 5.65 0 0 0 1.41-1.3v.21c.86-.81 1.7-1.81 2.63-2.75-.38.29-.5 0-.25-.28l.29.07c.07-.29-.36.22-.12-.28.37-.33.43 0 .28.22l.37-.48c.07 0 0 .15 0 .24.07-.28.91-.56 1-1h.08c.93-.93 1.3-1.41 2.05-2.18-.14-.17.2-.43.3-.78a22 22 0 0 0 2-1.7c.4-.55 0-.26.13-.56.17.1.83-.59.58-.14a24.92 24.92 0 0 0 1.92-2.2c-.17.06-.32.16-.3 0 .17-.21.48-.37.52-.27v.06c.94-1.35 3-2.25 3.67-3.45v.06l.8-1.09c.46-.41-.16.36.25.12.8-1.24 1.65-1.58 2.34-2.57 1.05-.25 2.29-2.34 3.42-3h-.14c.13-.32.32-.22.51-.37-.09 0-.33.17-.24 0 1.81-2 4.11-3.83 6.17-5.72.75-.7-.07-.9 1.06-1.59l-.08.44c1.25-1.67 3-3 4.23-4.58 0 .12 0 .18-.13.32.43-.18 1.12-1.11 1-1.22.24-.21.15 0 .34 0 .37-.23.59-.92.88-1 0 0 0 .13-.09.2.14-.26.93-.91.6-.86.6-.47 1-1.09 1.47-1.43.12-.45 1-.84.85-1.16.21.28 1.14-.75 1.36-1.2 0 .19.37-.22.34 0 .38-.38.69-.78.5-.84 1-.42 1.2-1.66 2-1.69 1-1.28 2-2.43 3-3.52.2.28-1.12 1.17-.82 1.37a20.2 20.2 0 0 1 2.27-2.76c.28-.22 0 .25-.09.37.55-.82 1.3-1.47 1.94-2.17zM317.29 114l.26.1c.71-.76 1.39-1.71 2.18-2.56 0 .1-.08.3.17.16a24.1 24.1 0 0 1 3.33-3.07l.22-.54c.09-.08.24-.09.17 0 .45-.33-.08-.12.05-.37s.38-.2.28 0a11.67 11.67 0 0 1 2.56-2.79l-.1.19c.63-.5.32-1 1-1.33l-.08.13a33.36 33.36 0 0 1 3.67-3.32c-.05-.4 1.31-1.11 1.07-1.5a9.66 9.66 0 0 0 1.8-1.16c.27-.25.19-.58.48-.94l.17.15.27-.61h.43l.26-.35c-.13.11-.33.18-.36.12a2.69 2.69 0 0 1 1.37-1l1-1.26c0 .09-.12.3-.23.49.43-.77.28.06.68-.64-.11 0-.06-.14-.08-.18a6.09 6.09 0 0 0 1.42-1.3v.2c.86-.8 1.7-1.81 2.64-2.74-.39.28-.51 0-.25-.28l.28.06c.07-.28-.35.22-.12-.27.37-.33.43 0 .29.21l.36-.48c.08 0 0 .15.05.25.06-.29.9-.56 1-1h.07c.94-.94 1.3-1.42 2.05-2.19-.13-.16.2-.43.31-.77a25.55 25.55 0 0 0 2-1.71c.4-.54 0-.26.14-.56.17.1.83-.59.58-.14a28.21 28.21 0 0 0 1.91-2.19c-.16 0-.31.15-.29 0s.48-.36.51-.27v.06c.94-1.35 3-2.25 3.68-3.45v.07l.8-1.1c.46-.41-.16.37.25.13.79-1.25 1.64-1.58 2.33-2.58 1.06-.25 2.29-2.34 3.42-3h-.14c.13-.32.33-.22.52-.36-.1-.05-.33.16-.24 0 1.81-2 4.11-3.84 6.17-5.73.75-.7-.08-.9 1.06-1.58l-.09.43c1.25-1.67 3-3 4.24-4.58-.05.13 0 .18-.14.32.43-.17 1.12-1.11 1-1.21.23-.22.14 0 .33-.05.38-.22.6-.92.88-.95 0 0 0 .12-.09.19.14-.26.94-.9.6-.86.61-.47 1-1.09 1.48-1.43.11-.44 1-.84.85-1.16.2.28 1.13-.74 1.36-1.2-.05.19.37-.21.33 0 .39-.39.7-.79.5-.85 1-.42 1.2-1.66 2-1.69 1-1.28 2-2.43 3-3.51.2.27-1.11 1.16-.82 1.37a19.06 19.06 0 0 1 2.27-2.76c.28-.22 0 .24-.08.37.88-1.08 1.91-1.87 2.65-2.87 0 0 0 .14-.12.25.17-.18.44-.37.31-.46l-.14.2c-.43.12.35-1 .3-1.13 0 .61.94-.78.87.08.09-.13.18-.33.08-.37.19-.15.29-.16.2.09.55-.67.22-.57.78-1.12.05.05 0 .18 0 .3a2.93 2.93 0 0 1 .88-1.19c0 .06.1 0 0 .18A20.09 20.09 0 0 1 394 37c0 .49.37-.22.62-.07l.42-.54-.29.1c.42-.42.64-.93 1.07-1.22l-.23.39.74-.82-.51.37c.32-.53-.3-.21.31-.71-.09.13.42-.41.76-.52a2 2 0 0 1 .64-.81c.15 0 .16.28.25.27 0-.37.92-1 1-1.45h-1.13a8.72 8.72 0 0 0-.84.44c-.71.51-.31.83-1 1.4.15 0 .39.07 0 .6s-.81.29-.58 0c.1-.12.17-.15.19-.12.12-.17.28-.38 0-.28v.12c-.29.16-.89.78-.85.53-.28.4 0 .25.24 0-.66.48-.89.89-1.54 1.42.13-.06.29-.07.19 0-.94.78-.26.5-.81 1.11-.43.24-.12-.35-.62.32-.43.29-.25-.09-.15-.28a5.08 5.08 0 0 1-1.41 1.2l.23-.33a3.31 3.31 0 0 1-.42.47h.29c-.19.14-.33.28-.38.23-.09.25.34.07.11.53-.28.15-.6.74-.84.65.75-.64-.25-.09.31-.71a2.07 2.07 0 0 1-.42.42v-.12c-.82.52-.12.5-.81 1.18 0-.18-.34 0-.43.12.28-.28.29 0 .1.35-.51.36-.42.53-.66.75l.3-.23c0 .19-.23.4-.51.73-.1 0 .23-.33.09-.25-.18.51-.95.6-1.31 1.19-.28.16-.2-.16-.44 0-.41.66-.7.45-1.16 1.12.28 0 .28-.1 0 .42l.83-1-.4.77c.28-.27.5-.66.69-.81-.18.39-.18.33.06.3-.57.19-.65.87-1.21 1.18l-.3-.33c-.81.52-1 1.34-2 2.12l.33-.22c0 .24-.51.55-.74.87-.08-.13-.29 0-.47.06.09.07-.64.63-.51.91l-.52.25c-.75.64-.5 1.09-1.2 1.72.09-.31-.29-.08.08-.61-.23.22-.45.4-.38.48-.19.06-.48.76-.78.86-.05.14 0 .28-.23.52h-.05s-.32.46 0 .36c-1 .36-1.89 1.94-2.77 2.26-.45.52-1 1.14-1.44 1.59 0-.06-.05-.05.05-.13-.71.52-.08.68-.88 1.26-.52.19.28-.46 0-.3-.44-.25-.79.88-1.45 1.15l.09-.13c-.47.24-.74 1-1.35 1.55h-.05a9.19 9.19 0 0 1-1.43 2c0-.3.19-.32-.06-.35-.23.27.3.14-.17.68-.23.09-.66.39-.85.29l.46-.48c-.43.05-.6.62-.89.84v-.12c-.7.75-.5 1-1.29 1.74h.14c-.22.63-.47.24-.74.82l-.34-.08c-.23.33-.78 1.18-1.25 1.73a9.26 9.26 0 0 1 .92-1.57 5.05 5.05 0 0 0-1 1.21c.1-.13.19-.33.33-.4a4.5 4.5 0 0 1-1.1 1.58c-.31-.5-1.55 1.35-2.27 1.44a36.62 36.62 0 0 1-3.13 3.05c.72-.09-.33.34.07.59-.25.29-.35.39-.4.39l-1 .61c-.29.1.18-.32.08-.37-.6.56-.38.11-.85.41.2 0 0 .37-.41.65l.61-.31c-.64 1-1 .43-1.62 1.42l.15-.36c-.36.48-1.55 1.55-1.71 2.22-.11 0-.29 0-.13-.16-1.05 1-2 2.52-2.91 3.15V80c-.17.21-.18.48-.5.63 0 0 0-.15-.09-.07a2.74 2.74 0 0 1-.66.84l.13-.3c-1.09.88-1.3 1.72-2.06 2.6-.24-.23-1.09.46-1.51.81a33.74 33.74 0 0 0-2.72 3.28c-.91.41-2.33 2.13-3.53 3 .2-.12.16.21 0 .42s-.52.85-.7.59l.09-.08c-.39 0-.85.54-1.25.94l.21.34c-1.44.64-2.57 2.88-3.51 3.08-.18.32-.49.63-.67 1l-.14-.16a23.67 23.67 0 0 0-1.92 1.88l.07-.28c-.5.48-.18 1-.62 1.5l-.36-.09a14.89 14.89 0 0 0-2.53 2.55s-.06-.13.07-.28c-.41.39-1.7 1.39-1.25 1.55-.21-.19-.89.86-1.26 1.4l-.07-.21a2.69 2.69 0 0 1-.65 1.23c-.15.1-.23 0 0-.14-.5.35-.19.47-.79.91l.1-.29a1.33 1.33 0 0 0-.5.79c-.21.34-.86.8-1.06.73a1 1 0 0 1-.41.71c-.08 0 0-.14 0-.21-.83.64-.91 1.26-1.56 1.62a.17.17 0 0 0-.18 0c.59-.58 1.07-1 1-1-.13-.14-.63.31-.44-.26a6.29 6.29 0 0 1-1.22 1.75h-.11v-.06a.94.94 0 0 0-.26.31 2.83 2.83 0 0 0-.42.34c-.17-.06-.6.47-.84.7.16.13-.17.42.24.25 0 0 0-.06.18-.22a.62.62 0 0 0 .08-.12l.57-.59a1.16 1.16 0 0 1-.58.69c0 .22-.06.45-.08.57a2.22 2.22 0 0 0-.45.16v1.55h.06s0 .07-.06.11v.23c.22-.28.03-.42.32-.7zm2.94-3.28c0 .09.24-.11.43-.22a8.2 8.2 0 0 0-.43.42c-.09-.01-.1-.1 0-.2zm-.55.77l-.23.25zm-2.12.16a.23.23 0 0 1 0-.14c.14-.18.22-.2.27-.19z"/><path class="cls-9" d="M398.85 32.22V32h-.13c-.01.12.08.23.13.22zM326.81 127.51c.07-.31-.08-.61.57-1v.39c.71-.67.1-.69 1-1.28 0 .21-.47.61-.34.53.63-.31.21-.45.57-.81l.26.11c.71-.77 1.39-1.71 2.18-2.57 0 .1-.08.3.17.16a24.69 24.69 0 0 1 3.33-3.07l.22-.53c.09-.09.24-.1.17 0 .45-.33-.08-.12.05-.37s.38-.2.29 0a11.08 11.08 0 0 1 2.55-2.79l-.09.18c.62-.49.31-1 1-1.32l-.07.12a31.36 31.36 0 0 1 3.65-3.33c0-.41 1.31-1.11 1.08-1.5a9.79 9.79 0 0 0 1.79-1.17c.28-.24.19-.58.49-.94l.17.16.26-.61h.43l.27-.35c-.13.11-.33.19-.36.12a2.72 2.72 0 0 1 1.36-1l1-1.26c0 .09-.13.3-.23.49.43-.76.28.07.67-.64-.11 0-.06-.13-.08-.18a5.7 5.7 0 0 0 1.42-1.3v.2c.86-.8 1.7-1.81 2.64-2.74-.39.28-.5 0-.25-.28l.28.06c.07-.28-.35.22-.12-.27.37-.33.43 0 .29.22l.36-.49c.08 0 0 .16.05.25.07-.28.9-.56 1-1h.07c.94-.93 1.3-1.42 2.06-2.18-.14-.17.19-.43.3-.78a23.62 23.62 0 0 0 2-1.7c.4-.55 0-.27.14-.57.17.1.83-.58.58-.14a26.15 26.15 0 0 0 1.92-2.19c-.17.06-.32.16-.3 0s.48-.37.52-.28v.07c.95-1.35 3-2.26 3.68-3.45v.06l.8-1.09c.46-.42-.16.36.25.12.79-1.25 1.65-1.58 2.34-2.57 1.05-.25 2.28-2.34 3.42-3h-.15c.14-.32.33-.22.52-.37-.1-.05-.33.16-.24 0 1.81-2 4.11-3.84 6.17-5.73.75-.69-.08-.89 1.06-1.58l-.08.43c1.24-1.66 3-3 4.23-4.57 0 .12 0 .18-.13.32.43-.18 1.12-1.11 1-1.22.23-.21.14 0 .33 0 .38-.23.6-.92.89-1 .05 0-.05.13-.09.19.13-.26.93-.9.6-.86.6-.46 1-1.09 1.47-1.43.11-.44 1-.83.85-1.15.2.27 1.13-.75 1.36-1.2 0 .18.37-.22.34 0 .38-.39.69-.79.5-.84 1-.43 1.2-1.66 2-1.7 1-1.27 2-2.42 3-3.51.2.28-1.12 1.16-.83 1.37a20.46 20.46 0 0 1 2.27-2.76c.29-.22 0 .25-.08.37.88-1.08 1.91-1.87 2.66-2.87a.63.63 0 0 1-.13.25c.17-.18.44-.36.31-.45l-.14.19c-.43.12.35-1 .3-1.12 0 .6.94-.78.87.07.09-.13.18-.32.09-.37.18-.15.28-.16.19.1.56-.68.22-.58.78-1.13.05 0 0 .19 0 .31a3 3 0 0 1 .87-1.2c0 .06.1 0 0 .19a19.36 19.36 0 0 1 2.09-2.44c0 .49.38-.23.62-.08l.42-.53-.29.09c.42-.41.65-.93 1.07-1.22l-.23.39.75-.82-.52.37c.32-.52-.3-.21.32-.71-.1.14.42-.41.75-.51a2 2 0 0 1 .65-.81c.14 0 .15.29.25.27 0-.36.93-1 1-1.45a.17.17 0 0 0 .1.23v-.31c.24-.15.29-.16.34 0 .6-.56-.44-.07.36-.65 0 .06 0 .06-.09.19.75-.64 1.25-1.43 2-2 .39 0-.51.61-.13.56.89-.95 1.67-2.14 2.6-3l-.18.14c-.16-.4.8-.52 1.11-1.1-.08.13 0 .3 0 .24a20.6 20.6 0 0 0 2-2.33l-.05.19c.43-.3 1-.91 1.41-1.27 0-.18.27-.39 0-.36a4.85 4.85 0 0 0 1.68-1.48q-.5-.12-1-.21a.38.38 0 0 1-.09.18c-.47.48-.29 0-.62.26 0 .19-.42.42-.27.58-.14.14-.24.09-.34.1-.17.32-1.12 1.17-.68 1.06l.07-.06a31.7 31.7 0 0 1-2.48 2.44l-.06-.05a14.66 14.66 0 0 0-1.25 1.55c-.14.14-.42.23-.43.11a3.14 3.14 0 0 1-.91.94c.27-.46-.21.05.3-.44-.51.43-.7.45-1.07 1.1 0-.31-.52.19-.71.45l.43-.23a7.54 7.54 0 0 1-.7.69l-.06-.3c-1.18.76-1.38 2.11-2.47 2.49-.13.38.61-.44.53-.07a9.8 9.8 0 0 1-1.33.77c-.7.51-.31.83-1 1.4.14 0 .39.07 0 .61s-.81.28-.58 0c.1-.11.17-.14.19-.12.12-.17.28-.38 0-.27v.12c-.28.15-.89.77-.85.53-.27.39 0 .24.24 0-.66.48-.89.89-1.54 1.41.13-.06.29-.07.2 0-.94.79-.26.5-.82 1.11-.43.24-.11-.34-.62.32-.42.3-.24-.09-.15-.28a4.78 4.78 0 0 1-1.41 1.2l.23-.33a3.43 3.43 0 0 1-.42.48h.29c-.19.15-.33.29-.38.23-.08.25.34.08.12.53-.29.16-.61.74-.85.65.75-.64-.24-.09.32-.71a2.08 2.08 0 0 1-.42.42c-.05 0 0-.06 0-.11-.81.51-.12.49-.81 1.18 0-.19-.34 0-.43.11.28-.28.29 0 .11.35-.52.37-.43.53-.67.76l.3-.23c0 .18-.23.39-.5.73-.1 0 .22-.33.08-.26-.17.51-.94.61-1.31 1.19-.28.16-.19-.15-.43 0-.41.65-.71.45-1.17 1.11.29 0 .29-.09 0 .42l.84-1-.41.78c.28-.28.51-.67.7-.81-.18.38-.19.32.05.29-.57.19-.64.87-1.21 1.18l-.3-.33c-.8.53-1 1.34-2 2.12l.34-.22c0 .24-.52.55-.75.88-.08-.13-.29 0-.47.06.09.06-.64.62-.51.91l-.52.24c-.75.64-.49 1.09-1.2 1.73.09-.32-.29-.09.08-.62-.22.22-.44.4-.37.48-.2.07-.48.76-.79.87 0 .14 0 .28-.22.52-.05 0-.05-.06-.05-.06s-.33.47 0 .36c-1 .36-1.9 1.95-2.78 2.26-.45.53-1 1.14-1.43 1.59 0-.06-.05 0 0-.12-.71.51-.07.67-.87 1.26-.53.18.27-.46 0-.31-.44-.24-.79.89-1.46 1.15l.09-.13c-.47.24-.74 1-1.34 1.56 0 0 0-.06-.05-.06a9.59 9.59 0 0 1-1.43 2c0-.31.18-.33-.06-.36-.23.27.29.15-.17.69-.24.09-.67.38-.86.29l.47-.48c-.44 0-.61.61-.89.83v-.11c-.7.75-.5 1-1.3 1.73h.15c-.22.63-.48.24-.75.82l-.34-.08c-.23.33-.78 1.19-1.24 1.73a9.89 9.89 0 0 1 .91-1.57 4.93 4.93 0 0 0-1 1.21 1.26 1.26 0 0 1 .32-.4 4.2 4.2 0 0 1-1.2 1.58c-.31-.51-1.55 1.34-2.27 1.43a36.62 36.62 0 0 1-3.13 3.05c.72-.09-.32.34.07.6-.24.28-.35.38-.4.38l-1 .62c-.28.09.19-.33.09-.38-.61.56-.38.11-.86.41.2 0 0 .37-.41.66l.62-.32c-.64 1-1 .43-1.63 1.42l.16-.36c-.36.48-1.56 1.55-1.71 2.23-.11 0-.3 0-.14-.16-1 1-2 2.52-2.91 3.14v-.16c-.17.21-.18.48-.49.64 0-.05 0-.16-.1-.08a2.84 2.84 0 0 1-.65.84l.12-.3c-1.09.88-1.29 1.73-2.06 2.61-.23-.24-1.08.46-1.51.81A32.32 32.32 0 0 0 353 99c-.91.4-2.34 2.12-3.54 3 .21-.11.16.21 0 .42s-.52.85-.69.6l.09-.09c-.4 0-.85.55-1.26.94l.22.34c-1.45.64-2.58 2.88-3.51 3.09-.19.32-.5.63-.68 1l-.13-.17a22.34 22.34 0 0 0-1.93 1.89l.07-.29c-.5.48-.18 1-.62 1.51l-.36-.09a15.26 15.26 0 0 0-2.53 2.55s-.06-.14.07-.28c-.41.39-1.69 1.39-1.24 1.55-.21-.19-.9.85-1.26 1.4l-.08-.22a2.64 2.64 0 0 1-.65 1.23c-.14.11-.23 0 0-.14-.5.35-.19.47-.78.91l.09-.29a1.27 1.27 0 0 0-.49.8c-.22.33-.87.79-1.07.72a1 1 0 0 1-.4.71c-.09 0 0-.14 0-.2-.84.63-.92 1.26-1.57 1.62a.17.17 0 0 0-.17 0c.58-.57 1.06-1 1-1-.14-.14-.63.31-.45-.25A5.92 5.92 0 0 1 330 122a.2.2 0 0 1-.11 0v-.06a1.12 1.12 0 0 0-.27.31 3.66 3.66 0 0 0-.42.34c-.17-.06-.6.48-.84.71.17.13-.16.41.25.25-.05 0 0-.07.17-.23l.09-.11.57-.59a1.24 1.24 0 0 1-.58.7c0 .21-.06.44-.09.56-.53.12-1.26.62-1.47.58a9.42 9.42 0 0 0-1.8 2.47c-.17.24-.32.16-.44.19.09-.15.24-.28.26-.39-.17.25-.47.56-.72.85a10.35 10.35 0 0 0 1.86.34 1.1 1.1 0 0 0 .35-.41zm4.73-5.48c0 .09.24-.11.43-.21l-.43.42c-.08-.02-.1-.11 0-.24zm-.55.77l-.23.25zm-2.12.17a.29.29 0 0 1 0-.13c.13-.18.21-.2.27-.2s-.14.2-.27.36zM349.14 127.58l-.1.19c.63-.5.32-1 1-1.33l-.07.13a30.67 30.67 0 0 1 3.66-3.34c-.05-.4 1.3-1.11 1.07-1.5a9.33 9.33 0 0 0 1.79-1.16c.28-.25.2-.59.49-.94l.17.15.27-.61h.43l.26-.34c-.13.11-.33.18-.36.12a2.73 2.73 0 0 1 1.37-1l1-1.26c0 .1-.12.31-.23.5.43-.77.28.06.68-.64-.11 0-.06-.14-.08-.18a6.07 6.07 0 0 0 1.41-1.3v.2c.86-.81 1.7-1.81 2.63-2.74-.38.28-.5 0-.25-.29l.29.07c.07-.29-.35.22-.12-.28.37-.33.43 0 .28.22l.37-.48c.08 0 0 .15 0 .24.07-.28.91-.56 1-1h.08c.93-.93 1.3-1.41 2.05-2.18-.13-.17.2-.43.3-.78a22 22 0 0 0 2-1.7c.4-.55 0-.26.13-.56.17.1.83-.59.58-.14a26.15 26.15 0 0 0 1.92-2.19c-.17 0-.31.15-.3 0 .17-.21.48-.36.52-.27v.06c.94-1.35 3-2.25 3.67-3.45v.07l.8-1.1c.46-.41-.16.36.24.13.8-1.25 1.65-1.59 2.34-2.58 1.05-.25 2.29-2.34 3.42-3h-.14c.13-.32.33-.22.51-.37-.09 0-.33.17-.24 0 1.82-2 4.12-3.83 6.18-5.72.74-.7-.08-.9 1.05-1.59l-.08.44c1.25-1.67 3-3 4.24-4.58-.05.13 0 .18-.14.32.43-.17 1.12-1.11 1-1.22.24-.21.15 0 .34 0 .38-.23.59-.92.88-.95.05 0 0 .12-.09.19.14-.26.94-.91.6-.86.61-.47 1-1.09 1.47-1.43.12-.45 1-.84.86-1.16.2.28 1.13-.75 1.35-1.2 0 .19.37-.22.34 0 .38-.39.69-.79.5-.85 1-.42 1.2-1.66 2-1.69 1-1.28 2-2.43 3-3.52.2.28-1.12 1.17-.82 1.37a20.2 20.2 0 0 1 2.27-2.76c.28-.22 0 .25-.09.37.88-1.07 1.92-1.87 2.66-2.87 0 0-.05.15-.12.25.16-.18.43-.36.3-.45l-.13.2c-.43.11.35-1 .3-1.13 0 .61.93-.78.87.08.09-.14.18-.33.08-.38.19-.14.28-.15.2.1.55-.67.22-.57.78-1.13.05.06 0 .19 0 .31a3 3 0 0 1 .88-1.2c0 .06.09 0 0 .19a22 22 0 0 1 2.09-2.44c0 .49.38-.22.63-.07l.41-.54-.28.1c.42-.42.64-.93 1.07-1.23l-.23.4.74-.82-.52.36c.32-.52-.29-.2.32-.7-.09.13.42-.42.75-.52a2.11 2.11 0 0 1 .65-.8c.14 0 .15.28.25.27 0-.37.93-1 1-1.46 0 .13.06.24.11.23v-.31c.24-.15.29-.15.34 0 .61-.56-.44-.07.36-.65 0 .07 0 .06-.09.19.75-.63 1.26-1.42 2-2 .39 0-.51.6-.12.56.88-1 1.66-2.15 2.6-3l-.19.15c-.16-.41.8-.53 1.12-1.11-.09.13 0 .3 0 .24a12.69 12.69 0 0 0 1.5-1.7v-.88c-.61.6-1.35 1.1-1.88 1.74l-.05-.06a13.27 13.27 0 0 0-1.25 1.55c-.14.14-.43.24-.43.11a3.22 3.22 0 0 1-.92 1c.27-.46-.21 0 .31-.45-.52.43-.71.45-1.07 1.1 0-.3-.53.19-.71.46l.42-.24a6.48 6.48 0 0 1-.7.69l-.05-.29c-1.18.75-1.38 2.11-2.48 2.48-.13.38.62-.44.53-.06a9.86 9.86 0 0 1-1.32.77c-.71.51-.31.82-1 1.39.15 0 .39.08 0 .61s-.81.28-.58 0c.1-.11.18-.14.19-.11.12-.17.29-.39 0-.28v.12c-.29.16-.89.78-.85.53-.28.4 0 .25.24 0-.66.48-.9.89-1.55 1.42.13-.06.29-.08.2 0-.94.78-.26.5-.82 1.11-.43.23-.11-.35-.62.32-.42.29-.24-.09-.15-.29a5 5 0 0 1-1.41 1.21l.24-.34a3.43 3.43 0 0 1-.42.48h.28c-.18.14-.32.28-.37.22-.09.26.34.08.11.53-.28.16-.6.74-.85.65.76-.63-.24-.09.32-.7a1.83 1.83 0 0 1-.42.41v-.11c-.81.51-.11.49-.8 1.18 0-.18-.34 0-.44.11.28-.27.29 0 .11.35-.51.37-.42.54-.66.76l.3-.23c0 .18-.23.39-.51.73-.1 0 .23-.33.09-.25-.18.51-.95.6-1.31 1.19-.29.15-.2-.16-.44 0-.41.66-.71.45-1.17 1.11.29 0 .29-.09 0 .43l.83-1-.41.77c.28-.27.51-.66.7-.81-.18.39-.18.32.06.3-.57.19-.65.86-1.22 1.17l-.3-.32c-.8.52-1 1.34-1.95 2.12l.33-.23c0 .24-.51.55-.74.88-.08-.13-.29 0-.48.06.09.06-.63.62-.5.91l-.52.25c-.76.63-.5 1.09-1.2 1.72.09-.32-.29-.09.07-.61-.22.22-.44.4-.37.47-.2.07-.48.76-.78.87-.05.14 0 .28-.23.52h-.05s-.32.46 0 .36c-1 .36-1.89 1.94-2.77 2.26-.45.52-1 1.14-1.44 1.59 0-.06-.05-.06 0-.13-.7.51-.07.68-.87 1.26-.52.19.28-.46 0-.3-.44-.25-.79.88-1.46 1.15l.1-.14c-.48.24-.74 1-1.35 1.56 0 0 0-.06-.05 0a9.44 9.44 0 0 1-1.43 2c0-.31.18-.32-.06-.35-.23.27.29.14-.17.68-.24.09-.66.39-.86.29l.47-.48c-.43 0-.61.62-.89.83v-.11c-.7.75-.5 1-1.29 1.73h.14c-.22.63-.47.24-.74.82l-.34-.09a19.41 19.41 0 0 1-1.25 1.73 9.39 9.39 0 0 1 .91-1.56 4.59 4.59 0 0 0-1 1.21 1.11 1.11 0 0 1 .33-.41 4.36 4.36 0 0 1-1.22 1.33c-.3-.5-1.55 1.35-2.26 1.43a35.17 35.17 0 0 1-3.13 3c.72-.09-.33.35.07.6-.25.29-.36.38-.4.39l-1 .61c-.29.1.18-.32.08-.37-.61.56-.38.1-.85.4.19 0 0 .37-.42.66l.62-.32c-.64 1-1 .43-1.63 1.43l.16-.36c-.36.48-1.55 1.55-1.71 2.22-.11 0-.3 0-.13-.16-1.05 1-2 2.52-2.91 3.14v-.15c-.16.21-.17.47-.49.63 0 0 0-.16-.09-.07a3.43 3.43 0 0 1-.66.84l.12-.3c-1.08.87-1.29 1.72-2.06 2.6-.23-.24-1.08.46-1.5.81a35.08 35.08 0 0 0-2.72 3.29c-.91.41-2.33 2.12-3.53 3 .2-.12.15.21 0 .42s-.53.85-.7.59l.09-.08c-.4 0-.85.54-1.25.93l.21.35c-1.45.63-2.58 2.88-3.51 3.08-.18.32-.49.63-.67 1l-.14-.16a23.6 23.6 0 0 0-1.93 1.88l.07-.28c-.49.47-.18 1-.62 1.5l-.35-.09a15.32 15.32 0 0 0-2.54 2.55.27.27 0 0 1 .07-.28c-.4.39-1.69 1.39-1.24 1.55-.21-.19-.89.86-1.26 1.4l-.08-.22-.18.54h1.83a4 4 0 0 1 .5-.42zM429 68.3c-.27.22-.56.47-.53.29-.28.4 0 .25.24 0-.66.48-.89.89-1.54 1.42.13-.06.29-.07.19 0-.94.78-.26.5-.81 1.11-.43.24-.11-.35-.62.32-.43.3-.24-.09-.15-.28a5.08 5.08 0 0 1-1.41 1.2l.23-.33a3.31 3.31 0 0 1-.42.47h.29c-.19.14-.33.28-.38.23-.09.25.34.08.11.53-.28.15-.6.74-.84.65.75-.64-.25-.09.31-.71a2.07 2.07 0 0 1-.42.42v-.12c-.82.52-.12.5-.81 1.18 0-.18-.34 0-.43.12.28-.28.29 0 .11.35-.52.37-.43.53-.67.75l.3-.23c0 .19-.23.4-.51.73-.1 0 .23-.33.09-.25-.18.51-.94.6-1.31 1.19-.28.16-.2-.15-.43 0-.42.65-.71.45-1.17 1.11.29 0 .28-.1 0 .42l.84-1-.41.78c.28-.28.51-.67.69-.82-.18.39-.18.33.06.3-.57.19-.64.87-1.21 1.18l-.3-.33c-.81.52-1 1.34-2 2.12l.33-.22c0 .24-.51.55-.74.88-.08-.13-.29 0-.47.06.09.06-.64.62-.51.9l-.52.25c-.75.64-.5 1.09-1.2 1.72.09-.31-.29-.08.08-.61-.23.22-.45.4-.38.48-.19.06-.47.76-.78.86-.05.14 0 .28-.23.52h-.05s-.32.46 0 .36c-1 .36-1.9 1.94-2.78 2.26-.45.52-1 1.14-1.44 1.59 0-.06-.05 0 .05-.12-.71.51-.08.67-.88 1.25-.52.19.28-.45 0-.3-.44-.25-.79.89-1.45 1.15l.09-.13c-.47.24-.74 1-1.35 1.56 0 0 0-.06-.05-.06a9.13 9.13 0 0 1-1.43 2c0-.31.19-.33-.06-.36-.23.27.3.15-.17.69-.23.08-.66.38-.85.28l.46-.48c-.43.06-.6.62-.89.84v-.12c-.69.76-.5 1-1.29 1.74h.14c-.22.63-.47.24-.74.82l-.34-.08c-.23.33-.78 1.18-1.24 1.73a9.89 9.89 0 0 1 .91-1.57 4.76 4.76 0 0 0-1 1.21 1.26 1.26 0 0 1 .32-.4 4.48 4.48 0 0 1-1.1 1.59c-.31-.51-1.55 1.34-2.27 1.43a36.62 36.62 0 0 1-3.13 3c.72-.09-.33.34.07.59-.25.29-.35.39-.4.39l-1 .61c-.28.1.18-.32.09-.37-.61.56-.39.11-.86.41.2 0 0 .37-.41.65l.62-.31c-.65 1-1 .43-1.63 1.42l.16-.36c-.37.48-1.56 1.55-1.71 2.23-.12 0-.3 0-.14-.17-1.05 1-2 2.52-2.91 3.15v-.16c-.17.21-.18.48-.5.63 0 0 0-.15-.09-.07a2.74 2.74 0 0 1-.66.84l.13-.3c-1.09.88-1.29 1.72-2.06 2.6-.24-.23-1.08.46-1.51.81a33.74 33.74 0 0 0-2.72 3.28c-.91.41-2.33 2.13-3.53 3 .2-.12.16.21 0 .42s-.52.85-.7.6l.1-.09c-.4 0-.86.54-1.26.94l.22.34a4.7 4.7 0 0 0-1.42 1.11h2.69l.1-.16c-.11 0-.06-.14-.08-.18a6.09 6.09 0 0 0 1.42-1.3v.2c.86-.8 1.7-1.81 2.64-2.74-.39.28-.51 0-.25-.28l.28.06c.07-.28-.35.22-.12-.27.37-.33.43 0 .29.22l.36-.49c.08 0 0 .15.05.25.06-.28.9-.56 1-1h.07c.94-.94 1.3-1.42 2.05-2.19-.13-.16.2-.43.31-.77a25.3 25.3 0 0 0 2-1.7c.4-.55 0-.27.14-.57.17.1.83-.58.58-.14a28.21 28.21 0 0 0 1.91-2.19c-.16 0-.31.16-.29 0s.48-.36.52-.27v.06c.94-1.35 3.05-2.25 3.68-3.45v.07l.8-1.1c.46-.41-.16.37.25.13.79-1.25 1.64-1.58 2.34-2.58 1.05-.25 2.28-2.34 3.42-3h-.15c.14-.32.33-.23.52-.37-.1 0-.33.16-.24 0 1.81-2 4.11-3.84 6.17-5.73.75-.7-.08-.9 1.06-1.58l-.09.43c1.25-1.67 3-3 4.24-4.58-.05.13 0 .18-.14.32.43-.17 1.13-1.1 1-1.21.23-.21.14 0 .33-.05.38-.22.6-.92.88-.95 0 0 0 .13-.08.19.13-.26.93-.9.59-.86.61-.47 1-1.09 1.48-1.43.11-.44 1-.84.85-1.16.2.28 1.13-.74 1.36-1.19 0 .18.37-.22.33 0 .39-.39.7-.79.51-.84 1-.43 1.2-1.67 2-1.7 1-1.28 2-2.43 3-3.51.21.27-1.11 1.16-.82 1.37a19.06 19.06 0 0 1 2.27-2.76c.29-.22 0 .24-.08.37.88-1.08 1.91-1.87 2.65-2.87 0 0-.05.14-.12.25.17-.18.44-.37.31-.46l-.14.2c-.43.12.35-1 .3-1.12 0 .6.94-.79.87.07.09-.13.18-.33.08-.37.19-.15.29-.16.2.09.56-.67.22-.57.78-1.12.05 0 0 .18 0 .3a2.93 2.93 0 0 1 .88-1.19c0 .06.1 0 0 .18a19.29 19.29 0 0 1 1.92-2.34c0 .49.37-.23.62-.08l.42-.54-.29.1A3.57 3.57 0 0 0 429 70zM427.05 95.26c.66-.83 1.31-1.6 1.95-2.34v-2.24a14.94 14.94 0 0 1-1.51 1.74l.33-.22c0 .24-.52.55-.75.88-.07-.13-.29 0-.47.06.09.06-.64.62-.51.91l-.52.24c-.75.64-.49 1.1-1.19 1.73.08-.32-.3-.09.07-.62-.22.22-.44.41-.37.48-.2.07-.48.76-.79.87 0 .14 0 .28-.22.52h-.05c.05 0-.33.46 0 .36-1 .35-1.9 1.94-2.77 2.25-.46.53-1 1.15-1.44 1.6 0-.06-.05-.06 0-.13-.7.51-.07.67-.87 1.26-.53.18.27-.46 0-.3-.44-.25-.79.88-1.46 1.14l.09-.13c-.47.24-.74 1-1.34 1.56v-.06a9.23 9.23 0 0 1-1.43 2c0-.31.18-.33-.06-.36-.23.27.29.15-.17.69-.24.09-.66.39-.86.29l.47-.48c-.44 0-.61.62-.89.83v-.11c-.7.75-.5 1-1.3 1.73h.15c-.22.64-.48.24-.75.82l-.33-.08c-.24.33-.79 1.19-1.25 1.73a9.89 9.89 0 0 1 .91-1.57 4.93 4.93 0 0 0-1 1.21 1.26 1.26 0 0 1 .32-.4 4.2 4.2 0 0 1-1.1 1.59c-.31-.51-1.55 1.34-2.27 1.43a36.62 36.62 0 0 1-3.13 3.05c.72-.09-.32.34.07.6-.24.29-.35.38-.39.38l-1 .62c-.28.09.19-.33.09-.38-.61.56-.38.11-.86.41.2 0 0 .37-.41.66l.62-.32c-.64 1-1 .43-1.63 1.42l.16-.36c-.36.48-1.56 1.56-1.71 2.23-.11 0-.3.05-.14-.16-1 1-2 2.52-2.91 3.14v-.16c-.16.22-.18.48-.49.64 0 0 0-.16-.1-.08a2.84 2.84 0 0 1-.65.84l.12-.3a6.29 6.29 0 0 0-1.4 1.7h2.28c.58-.62.85-.92 1.65-1.91-.17.06-.32.16-.3 0s.48-.37.52-.28v.07c.95-1.35 3-2.26 3.68-3.45v.06l.8-1.09c.46-.41-.16.36.25.12.8-1.25 1.65-1.58 2.34-2.57 1.05-.25 2.28-2.34 3.42-3h-.15c.14-.32.33-.22.52-.37-.09-.05-.33.16-.24 0 1.81-2 4.11-3.84 6.17-5.73.75-.69-.08-.89 1.06-1.58l-.08.44c1.24-1.67 3-3 4.23-4.58 0 .12 0 .18-.13.32.43-.18 1.12-1.11 1-1.22.23-.21.15 0 .34 0 .37-.23.59-.92.88-1 .05 0 0 .13-.09.19.13-.25.93-.9.6-.86.6-.46 1-1.09 1.47-1.43.11-.44 1-.83.85-1.15.2.27 1.13-.75 1.36-1.2 0 .19.37-.22.34 0 .38-.39.69-.78.5-.84.9-.48 1.1-1.71 1.87-1.75zM429 115.74v-2.15c-.32.21-.65.92-1.17 1.13l.1-.14c-.48.24-.74 1-1.35 1.56 0 0 0-.06-.05 0a9.44 9.44 0 0 1-1.43 2c0-.31.19-.32-.06-.35-.23.27.3.14-.17.68-.23.09-.66.39-.85.29l.46-.48c-.43 0-.61.62-.89.84V119c-.7.75-.5 1-1.29 1.74h.14c-.22.63-.47.24-.74.82l-.34-.08a21.08 21.08 0 0 1-1.25 1.72 9.19 9.19 0 0 1 .92-1.56 4.82 4.82 0 0 0-1 1.21 1.33 1.33 0 0 1 .33-.41 4.36 4.36 0 0 1-1.11 1.59c-.3-.5-1.54 1.35-2.26 1.43a21.55 21.55 0 0 1-2.68 2.62h2.64a3.82 3.82 0 0 1 .82-.65h-.14c.13-.32.33-.22.52-.36-.1 0-.34.16-.25 0 1.82-2 4.12-3.84 6.18-5.73.74-.7-.08-.9 1.05-1.58l-.13.24c1.19-1.53 2.78-2.79 4-4.26z"/></g><g id="Button"><path d="M442.67 152h-91.34A10.32 10.32 0 0 1 341 141.67V66.33A10.32 10.32 0 0 1 351.33 56h91.34A10.32 10.32 0 0 1 453 66.33v75.34A10.32 10.32 0 0 1 442.67 152z" fill="#00d1b4"/><path class="cls-2" d="M367 105.75v-3.5a4.45 4.45 0 0 0 3.78-1.69 7.81 7.81 0 0 0 1.28-4.78V85.4q0-3.84 1.92-5.57a7.22 7.22 0 0 1 5-1.72h4v3.15h-3.07c-2.43 0-3.65 1.62-3.65 4.84v10.38c0 2.45-.65 4.26-1.95 5.45a7 7 0 0 1-3.75 2v.12a7 7 0 0 1 3.75 2c1.3 1.19 1.95 3 1.95 5.45v10.4c0 3.22 1.22 4.84 3.65 4.84H383v3.15h-4a7.22 7.22 0 0 1-5-1.72q-1.92-1.72-1.92-5.57v-10.38a7.81 7.81 0 0 0-1.28-4.78 4.45 4.45 0 0 0-3.8-1.69zM427 102.25v3.5a4.45 4.45 0 0 0-3.78 1.69 7.81 7.81 0 0 0-1.28 4.78v10.38q0 3.84-1.92 5.57a7.22 7.22 0 0 1-5 1.72h-4v-3.15h3.07c2.43 0 3.65-1.62 3.65-4.84v-10.38c0-2.45.65-4.26 1.95-5.45a7 7 0 0 1 3.75-2v-.12a7 7 0 0 1-3.75-2c-1.3-1.19-1.95-3-1.95-5.45V86.1c0-3.22-1.22-4.84-3.65-4.84H411v-3.15h4a7.22 7.22 0 0 1 5 1.72q1.92 1.73 1.92 5.57v10.38a7.81 7.81 0 0 0 1.28 4.78 4.45 4.45 0 0 0 3.8 1.69z"/></g><g id="Veronica"><path d="M280.07 323.7l-29-7.17c-4-1-5.51-4.79-3.38-8.49l38.64-66.92a10.67 10.67 0 0 1 11.11-4.89l29 7.17c4 1 5.52 4.79 3.39 8.48l-38.65 66.92a10.69 10.69 0 0 1-11.11 4.9z" fill="#c0c2cc"/><path class="cls-2" d="M310.98 270.17l-28.99-7.18 11.59-20.07 28.99 7.17-11.59 20.08zM288.76 308.64l-28.98-7.17 11.59-20.07 28.99 7.17-11.6 20.07zM308.08 275.18l-28.98-7.17.96-1.67 28.99 7.17-.97 1.67zM297.94 278.41l-21.74-5.38.96-1.67 21.74 5.38-.96 1.67zM302.29 285.22l-28.99-7.17.96-1.67 28.99 7.17-.96 1.67z"/><path class="cls-7" d="M298.54 259.44l3.86-6.69 3.5 4.69-7.36 2z"/><path class="cls-2" d="M275.78 315l-12.68-3.14a.67.67 0 0 1-.42-1.06 1.34 1.34 0 0 1 1.39-.61l12.68 3.14a.67.67 0 0 1 .42 1.06 1.33 1.33 0 0 1-1.39.61z"/><path d="M183 90s43.66-11 47.34 18.83c2.5 20.23-6.63 33.48-12.75 39.9A115.31 115.31 0 0 0 203 167.36c-4.38 7-8.87 15.15-10 20.52-2.4 11.24 2.65 39.14-8.93 61.63S149.32 274.1 142 280.37s-13.68 37.66-37.88 45-45.76-8.9-51.54-22-6.31-41.32 0-57S92 187.79 98.3 172.62 118.29 77.42 183 90z" fill="#ff7c6e"/><path d="M176.14 261l-.31-.19c-12.07 12.18-28 14.53-33.87 19.54-7.37 6.28-13.68 37.66-37.88 45-17.63 5.33-33.86-1.84-43.61-11.18C52.92 357.63 57 407 57 407h170.16c.53-12.55.53-44-3.15-80.07S176.14 261 176.14 261z" fill="#6786f6"/><path d="M110.08 335.36c24.2-7.33 30.51-38.71 37.88-45 6.36-5.42 24.52-7.73 36.8-22.79-5.12-4.2-8.62-6.56-8.62-6.56l-.31-.19c-12.07 12.18-28 14.53-33.87 19.54-7.37 6.28-13.68 37.66-37.88 45-17.63 5.33-33.86-1.84-43.61-11.18l-.37 2.17c7.46 12.4 27.59 25.78 49.98 19.01z" fill="#5875dc"/><path class="cls-15" d="M217.57 148.71A115.31 115.31 0 0 0 203 167.36c-4.38 7-8.87 15.15-10 20.52-1.47 6.89-.15 20-1.57 34.35 16.39-6.26 28-25.5 31.57-49.63 1.94-12.93 3.74-24.91 2.51-35a48.21 48.21 0 0 1-7.94 11.11z"/><path class="cls-16" d="M225.47 137.61a48.21 48.21 0 0 1-7.9 11.1A115.31 115.31 0 0 0 203 167.36c-4.38 7-8.87 15.15-10 20.52-1.47 6.89-.15 20-1.57 34.35a34 34 0 0 0 4.46-2.08c.64-11.89-.15-22.37 1.11-28.27 1.14-5.37 5.63-13.49 10-20.52a115.31 115.31 0 0 1 14.6-18.65 48.44 48.44 0 0 0 4.26-5.15 64.6 64.6 0 0 0-.39-9.95z"/><path class="cls-15" d="M280.07 323.7l-29-7.17a6.49 6.49 0 0 1-1.46-.55c2.62-5.2.06-9 .8-12.65l1.38-2.39c3.24-2.21 11.95-.31 17.54-2.83 6.38-2.89 6.38-10.38 6.38-10.38-16.24 1.15-22.62.57-27.84 1.73s-15.65 15-23.19 23.64a23.43 23.43 0 0 1-3.05 2.93 53.08 53.08 0 0 1 2.37 10.9c.89 8.74 1.56 17.26 2.07 25.34 8.74-8.12 17.15-15.5 20.08-16.72 7-2.88 13.79-2.34 26.1-5.24 2.5-.59 5.38-3.2 8.17-6.54z"/><path class="cls-16" d="M238 330.93a61.94 61.94 0 0 0-8.13-24c-1.81 2.15-3.56 4.25-5.17 6.1a23.43 23.43 0 0 1-3.05 2.93 53.08 53.08 0 0 1 2.35 10.97c.89 8.74 1.56 17.26 2.07 25.34 4.64-4.31 9.17-8.4 12.85-11.48-.27-3.25-.57-6.54-.92-9.86z"/><path class="cls-9" d="M176.29 402.39c0-.2-.36-.09-.58-.13-.11-.23.27-.11.46-.2-.1-.15-.44-.26-.43-.37a.28.28 0 0 1 .16 0c-.3-.15 0-.47-.4-.64a.47.47 0 0 1 .09 0 1.83 1.83 0 0 1-.5 0c0-.09-.24-.16 0-.2 0 .06.09.06.17.08l-.11-.09c.34-.09.12.13.38.12-.12-.18-.41-.39-.32-.53.34 0 .13.33.42.13l-.12.22c.53-.18 0 .14.54 0 .08-.29-.19-.32-.1-.61-.19-.06-.28 0-.47 0-.35-.39.85-.35.39-.63-.23-.07-.66-.09-.44-.31l.38.06c0-.28-.55-.14-.31-.44.16 0 .14.22.18.17.3-.19-.22-.12-.22-.27h.33c-.06-.29-.32-.61-.39-.93.1 0 .21.06.31 0a1.63 1.63 0 0 1 .19-1.28l-.3-.14s.13-.08.19 0c.11-.16-.18 0-.3-.07s.16-.12.25-.07c-.26-.26-.57-.76-.27-1.06h.09c.11-.23-.61-.22-.34-.44h.05c.11-.49-.19-1 .24-1.4-.43 0 .16-.49-.43-.5.28-.29.39-.21.57-.62 0-.1-.38-.13-.44-.26h.3l-.33-.16.37-.11-.09-.12c0 .05-.13.11-.22.11-.15-.18.19-.47.35-.48l-.28-.44c.12 0 .17.08.25.13-.33-.22.32-.06 0-.26h-.25a.43.43 0 0 0 .09-.55h.21a8.58 8.58 0 0 0-.15-1.07c-.09.14-.46.13-.5 0l.32-.06c-.21-.06-.12.12-.37 0 0-.14.36-.11.47 0l-.12-.16h.28c-.21-.06.31-.31-.05-.39h.1c0-.37-.14-.54-.17-.84-.28 0-.23-.11-.46-.19.08-.23.29-.49.25-.76s-.24 0-.41-.11c.25 0 .21-.3.4-.17a1.81 1.81 0 0 0-.3-.8c-.1.05-.14.1-.23.08s.1-.18.22-.17c-.41-.44.68-1.1.13-1.44l-.3-.36c0-.18.2.09.35 0-.45-.39 0-.65-.28-1 .74-.3-.1-.92.36-1.3h-.18c-.18-.08.1-.11.13-.18-.13 0-.15.11-.25.06-.26-.76.17-1.6.28-2.4 0-.29-.93-.11-.52-.49l.33.08c-.43-.56-.06-1.19-.43-1.74.08 0 .18 0 .18.08.24-.13 0-.44-.21-.43 0-.09.18 0 .28-.09s-.33-.29-.09-.37c0 0 .08 0 .1.05s0-.36-.27-.27c.12-.22-.15-.4 0-.58-.32-.09.12-.38-.32-.38.46 0 .35-.4.13-.52.13 0 .13-.13.32-.09a.25.25 0 0 0-.34-.24c.53-.32-.47-.55.22-.75a6.22 6.22 0 0 1-.6-1.26c.45 0 .08.45.55.41-.21-.38-.61-.58-.53-1 .06-.1.2 0 .28.08-.21-.38 0-.76-.27-1.09a.17.17 0 0 1 .12.07c0-.07.06-.17-.14-.15l.06.07c-.29.12-.64-.24-.8-.24.6.08.13-.35.88-.21a.31.31 0 0 0-.28-.08c0-.07.12-.09.28 0-.13-.24-.34-.14-.35-.36h.26c-.2-.1-.4-.2-.33-.39h.14c-.05-.32-.55-.51-.39-.88.44.08.14-.13.51-.17l-.13-.18-.17.09c0-.17-.29-.3-.17-.45l.16.11-.09-.3-.13.18c-.21-.16-.47.05-.38-.18 0 0 0-.17.2-.27-.13-.07-.26-.15-.17-.28a4.27 4.27 0 0 1 .49 0c-.32-.06-.11-.39-.45-.47a.83.83 0 0 0 .31 0l-.25-.05c.07-.09.11-.1.27-.1 0-.23-.47.11-.29-.18 0 0 .06 0 .1.05.09-.28-.19-.53-.08-.79.37-.1.1.22.42.11-.1-.36-.5-.73-.44-1.09v.07c-.54 0 .24-.28 0-.44a.48.48 0 0 0 .24 0c.07-.25-.17-.49-.36-.84h.14c.11-.15.05-.38.1-.54-.14 0-.12-.12-.32-.06.75-.52-.47-.88.15-1.34 0 .05.12.11.12.07l-.15-.35c-.23 0-.13.06-.31.14a.32.32 0 0 1-.26-.22c.17.16.37 0 .5-.1a1.62 1.62 0 0 1-.22 0c.39-.22-.47 0-.21-.28h.12c-.07-.09-.23-.17-.21-.28.27-.06.14.1.36.09 0-.15-.53-.25-.27-.4.08 0 .08.14.16.2.31-.17.23-.18.27-.29l.13-.25-.08.07c-.71-.14-.16-.36-.63-.58.45.21.25 0 .56 0 .08-.07.17-.17.25-.15-.25-.1.18-.2-.19-.34.1 0 0-.13.25-.12-.08-.14-.17 0-.29 0-.35-.21.37-.58-.11-.88-.21-.28-.54-.31-.72-.56.15-.1.36.05.36.05a.26.26 0 0 0 0-.4c.08 0 .15 0 .26-.06s-.36-.05-.22-.2a2.7 2.7 0 0 1 .39.08c-.09-.12-.28-.24-.38-.36.17-.05.26.06.38.1-.09-.15-.19-.38-.46-.41l-.09.1c0-.05.23 0 .28 0 .22.11-.08.19-.17.2l-.07-.09c-.57.14.12.38.1.57l-.42-.05.35.18c-.1.05-.33.09-.4 0-.2.15.16.11-.07.25h-.07l.13.12h-.23c-.23.25.34.37 0 .48.16.33.31 0 .68.24l-.74.22h.31s0 .11-.15.1c.22.12.13 0 .33 0-.27.19.16.45-.32.52.23.05.17-.17.34 0-.52.09.1.2-.13.37-.27 0-.14-.19-.37 0 .47.06-.08.31 0 .43.36 0 .17.27.3.48-.12 0-.17.41-.29.62h-.06c.37 0 .32.23.4.37a.52.52 0 0 1-.41-.09v.15a.26.26 0 0 1 .23.15h-.27c0 .19.35.36.18.62.25 0 .7-.24.88 0h-.43c-.06 0 .12.07.06.12l-.24-.09c-.09.12.2.05.19.14-.2 0-.14.07-.3.07s.08-.08 0-.11a.48.48 0 0 1-.28.28h.29c.03 0-.23.08-.33.2.14 0 0 .16.31.15 0 .05-.14.07-.22.1.14.09.07.45.38.32.31.3-.13.67 0 1h-.1c.13.18.1.42.32.54 0 .05-.17.14-.29.12.08.14.19.15 0 .37-.18-.13-.15.06-.13-.14-.08.2-.23.25.05.43-.25 0-.31.16-.23.25l.18-.14a.5.5 0 0 1 0 .27h-.34c-.38.41.73.65.08 1 .24.09.15-.22.42-.14 0 .18-.49.39-.49.45-.17.25.5.19.39.45.11 0 .43-.09.55.1 0 .18-.48.24-.58.14s0-.07.06-.07-.1-.12-.22 0h.12c-.12.1-.09.34-.29.29.12.13.2.05.25-.05-.15.23 0 .35-.08.59.06 0 .2-.08.2-.05-.12.36.24.14.3.37-.17.14-.43 0-.27.2-.11.16-.31.05-.41 0 .24.2-.12.41-.16.54l-.1-.11a.27.27 0 0 1 .07.17l.23-.07c0 .06 0 .12-.14.12.16.06.4-.07.62.05-.12.09.14.26-.17.31.09-.28-.31.05-.38-.18a.13.13 0 0 1 0 .16.07.07 0 0 1-.09 0c-.26.28.36.1.37.38-.18 0-.33.08-.29.12s.29-.07.44 0c-.13.19.11.19.1.28l.06-.11c.18 0 .16.12.22.24-.13 0-.1-.11-.16-.06.32.11-.3.33-.08.5-.11.1-.33 0-.41.11.25.2-.22.25 0 .46.23-.08.17-.09.42.06l-.19-.36.36.21c0-.11-.17-.22-.13-.29.2.1.14.09.33 0-.34.17.23.28 0 .47h-.59c-.25.28.33.45.21.8l.09-.12c.24 0 .05.21.15.31a.78.78 0 0 0-.39.14c.15 0 0 .25.4.25l-.25.17c-.09.28.58.28.53.55-.22-.06-.35.06-.51-.1 0 .09 0 .17.1.16-.12.06.28.23.1.32.09 0 .3 0 .29.14h-.1c.1 0 .14.15.36.05-.6.31.09.76-.43 1a2.47 2.47 0 0 1 .18.59h-.08c-.17.26.58.12.39.41s-.18-.14-.3 0c-.64.07.11.32-.26.53-.21.15.27.33.24.56h-.1a1.1 1.1 0 0 1 .57.65c-.26-.06-.14-.09-.39 0 0 .1.41-.05.49.15a1.14 1.14 0 0 1-.52.25v-.18c-.35.11 0 .24 0 .34h-.16c.07.28.46.27.45.58h.11c.4.15-.21.15.09.31l-.39.07a2.56 2.56 0 0 1 .49.57 2.2 2.2 0 0 1-.64-.46c0 .11.05.37.25.42 0 0-.14-.09-.09-.14.32.12.48.29.49.51-.77 0-.16.58-.74.78.3.37-.08.78 0 1.23.59-.19 0 .13.64.07v.16l-.34.34c-.18.09-.14-.09-.28-.08 0 .24-.25.12-.41.28.22 0 .32.06.24.2l.28-.2c.34.3-.5.31-.16.61l-.2-.09c.12.16 0 .62.53.76-.07 0-.23.08-.28 0 0 .4.57.86.29 1.19h-.16c.05.07.29.11.15.21s-.15 0-.16 0 .27.18.19.29l-.17-.08c-.18.4.44.58.56.9a.67.67 0 0 0-.63.5h-.06c0 .46.4.76.6 1.17-.47.29-.16.9-.4 1.33.07-.07.34 0 .39.07s.32.25-.09.26c-.39.1-.28.29-.28.45h.53c-.75.46.33 1.08-.34 1.33.13.1.14.22.27.31h-.28a1.31 1.31 0 0 0 0 .76l-.21-.06c0 .2.83.21.85.38l-.42.08c0 .33-.33.69.07 1-.06 0-.19 0-.21-.06 0 .16-.25.62.32.54-.38 0 0 .35.15.52h-.27c.36.13.46.14.56.35 0 .05-.22.05-.15 0-.14.17.27.12.13.33l-.18-.07c0 .18.08.16.29.25s-.06.33-.31.37c.16 0 .37.1.3.21a.28.28 0 0 1-.19 0c-.18.3.34.42.08.63a.7.7 0 0 0-.17 0 1.1 1.1 0 0 1 0-.4c-.26 0-.29.2-.65.07.19.14.63.38.51.56h-.09v.12a.29.29 0 0 0-.07.15c-.21 0-.11.22-.12.31.28 0 .24.11.47 0v-.08c0-.08 0 0 0 0v-.23c.15.07.27.14.12.25l.45.12c-.38.14-.59.39-.83.43.17.28.13.67.66.83.07.08-.14.1-.23.13s0-.1-.12-.12c.14.16.07.48.44.5-.16.21-.35-.1-.28.18h-.11c-.57.57 1 .87.22 1.5a.24.24 0 0 1 .13-.07c-.32.7.34 1.43-.19 2.12-.11.19.13.21.31.33h-.3l.34.21c.26.29-.74.48-.27.85h.21c0 .12.1.41-.13.38 0 0 .21 0 .1.1h-.16l.25.33c-.13.22-.62-.07-.68.21a2.46 2.46 0 0 0 .52.34s.11-.08.26-.05l.06.14c.44.14.85.5 1.27.09a1.39 1.39 0 0 0-.23-.36l.23-.05a1 1 0 0 1 0 .24c.25-.16 0-.21-.07-.31a.5.5 0 0 0 .26-.08l-.43-.27c.18 0 .35.13.46 0-.19-.12-.41.08-.53-.11.22-.1.38-.06.21-.19a.31.31 0 0 1 .25.07c-.14-.12-.06-.3-.3-.36.26-.1-.06-.38.38-.36-.1 0-.34-.2-.36-.29.53.18 0-.38.6-.32-.47-.14-.21-.5-.47-.73 0 0 .11 0 .09.06 0-.14.18-.17.27-.26-.39 0-.49-.22-.73-.33.38-.17.46.09.82 0-.31 0-.32-.28-.58-.22a.81.81 0 0 1 .44-.18c-.49 0-.09-.12-.39-.22.24-.18.46-.05.31-.25.14-.23.32-.06.32-.06zm-1-4.67v.1zm0-.39a.91.91 0 0 0 0 .17h-.19l.19-.17zm-1.92.9c0-.06 0-.08.07-.09v.1z"/><path d="M43.61 408c.89 0 .42-.27.61-.43 1.06-.08.49.21.85.35.67-.08 1.18-.33 1.68-.32 0 .05.13.06 0 .12.7-.22 2.09 0 2.91-.29l.11.07a.38.38 0 0 1-.13-.38c.4 0 .75-.17.9 0-.25 0-.27.07-.39.12l.42-.08c.38.26-.57.09-.57.29a13.7 13.7 0 0 1 2.4-.23c.13.25-1.47.09-.63.31l-1-.1c.74.41-.59 0 .09.41 1.28.07 1.43-.13 2.71-.06.28-.14-.1-.21.19-.35 1.81-.25 1.42.64 2.76.3a1.52 1.52 0 0 1 1.48-.33l-.32.29c1.24 0 .71-.42 2-.22-.23.11-1 .09-.78.13.84.22.59-.17 1.24-.17l.13.26c1.32 0 2.77-.23 4.23-.27-.08.07-.33.15 0 .23a38.53 38.53 0 0 1 5.7.18l.68-.22c.15 0 .29.1.12.15.69.08 0-.14.37-.23s.52.13.27.19a18 18 0 0 1 4.76-.16l-.25.06c1 .09 1.13-.45 2.06-.24h-.18a52 52 0 0 1 6.23.23c.32-.32 2.15.14 2.29-.3a15.19 15.19 0 0 0 2.64.45c.46 0 .69-.28 1.27-.33v.23l.79-.24.41.28.54-.06c-.21 0-.45-.1-.42-.17a4.09 4.09 0 0 1 2.08.28l2-.2c0 .1-.38.13-.64.19 1.06-.24.19.24 1.17 0-.13-.05.07-.13.09-.18a9.22 9.22 0 0 0 2.42.08l-.16.16c1.49 0 3.13-.08 4.79-.07-.59-.08-.46-.35 0-.38l.2.24c.31-.15-.51-.09.14-.27.62 0 .41.28.06.36l.75-.09c0 .07-.13.11-.18.2.31-.15 1.31.25 1.76 0v.07c1.66 0 2.42-.08 3.77-.1 0-.21.56-.16 1-.33 1 .07 2.11.23 3.31.22.84-.11.24-.18.62-.31.07.19 1.26.18.64.31 1.44 0 1.84 0 3.67-.19-.2-.08-.43-.11-.31-.18.33 0 .75.08.71.17h-.09c2-.28 4.72.56 6.35.16h-.09l1.69-.21c.77 0-.47.15.1.27 1.83-.32 2.88 0 4.38-.17 1.16.57 4.12 0 5.69.32l-.09-.13c.41-.13.49.08.79.11 0-.11-.44-.12-.19-.2 3.43-.16 7.09.2 10.61.32 1.28 0 .73-.69 2.35-.37l-.46.24c2.6-.29 5.31 0 7.85-.24-.15.06-.15.13-.4.13a3.69 3.69 0 0 0 2-.13c.4 0 .09.13.34.2.54.11 1.35-.23 1.64-.05.05 0-.15.06-.25.07.35-.08 1.63 0 1.3-.18.95.1 1.82-.09 2.58 0 .5-.23 1.64.11 1.79-.22-.06.34 1.68.28 2.28.12-.2.1.52.1.29.25.69 0 1.32-.07 1.2-.25 1.27.41 2.55-.32 3.26.2 2-.19 3.94-.31 5.78-.39-.07.34-2 0-2 .39a30.84 30.84 0 0 1 4.48-.35c.45.05-.26.15-.41.21 1.75-.14 3.37 0 4.93-.16a.9.9 0 0 1-.33.1c.3 0 .71 0 .67-.11h-.3c-.48-.22 1.22-.46 1.27-.58-.52.44 1.54.11.71.67.2 0 .46-.11.41-.21.3 0 .39.09.09.21 1.1-.09.71-.25 1.7-.25 0 .08-.2.11-.31.2a4.6 4.6 0 0 1 1.85-.23c-.05 0 0 .1-.2.1a32.29 32.29 0 0 1 4-.25c-.47.33.54.11.62.39l.85-.08-.34-.14a18.66 18.66 0 0 1 2-.11l-.55.12 1.39-.05-.79-.11c.76-.14-.08-.35.91-.28a9 9 0 0 1 1.14.17 3.25 3.25 0 0 1 1.3-.11c.14.09-.11.31 0 .37.36-.24 1.74-.07 2.2-.32-.15.06-.16.21-.11.24l.31-.19c.34.06.39.09.34.21 1 0-.33-.36.9-.21-.1 0-.05.05-.25.08 1.23.08 2.38-.12 3.52 0 .34.28-1 .07-.61.31 1.64-.05 3.39-.34 5-.27h-.3c.22-.39 1.18.2 2 0-.19 0-.25.22-.2.18a33.21 33.21 0 0 0 3.86-.22l-.2.1c.64.09 1.68.05 2.38.1.2-.1.6-.09.36-.24 2.13.59 4.06-.31 5.95.18-.23 0-.54.09-.36.09l1.61-.1c-.13-.17-.21-.1-.55-.24a2.94 2.94 0 0 1 1.06-.18c-.73.12 0 .28.32.38-.05-.06 0-.12 0-.17.84.31.14-.35 1.29-.14l.02.2a6.8 6.8 0 0 1 1.29-.14c.2.2-.45.09-.48.26.65 0 1.28-.38 1.87-.18-.28.05-.67.05-.95.11a2.74 2.74 0 0 0 1.19.21l1.1.1-.28-.06c.81-.52 1.66-.1 2.75-.44-1.06.33-.17.19-.25.42.28.06.7.13.58.19.52-.18.87.15 1.6-.12 0 .07.55 0 .44.19.67-.06-.16-.13-.11-.22 1-.25 2.45.31 3.94 0 1.29-.14 1.53-.38 2.73-.51.4.12-.34.27-.34.27a5.2 5.2 0 0 0 1.76 0c-.12.07 0 .12.19.2.49 0 .33-.26 1-.16a1.43 1.43 0 0 1-.49.3c.58-.07 1.15-.21 1.75-.27.16.13-.36.19-.57.28a6.07 6.07 0 0 0 2-.32l-.44-.07c.25 0 .13.17 0 .21-.58.15-.84-.07-.87-.15h.43c-.44-.43-1.72.06-2.58 0l.36-.31-.89.26c-.18-.08-.31-.26.11-.31-.61-.15-.54.12-1.07-.06-.06 0 0 0 0-.05l-.61.09c.12-.06-.1-.22.27-.17-1.08-.18-1.74.23-2.15 0h.09c-1.5.1-.14.22-1.27.49l-.76-.56-.15.23c-.15 0-.46 0-.4-.12-.58.16.09.1-.24.25-.75-.21-2.06.1-2.23-.27-.26.17.72.13-.08.26-.23-.4-.92.06-1.6-.12.21-.2.85-.09.17-.27-.41.34-1.33-.08-1.9 0 0 .27-1.25.11-2.22.2.06-.09-1.81-.15-2.71-.25-.18.27-1.1.22-1.78.28 0-.17.15-.23.51-.31H230a1.87 1.87 0 0 1-.76.16l.16-.2a16.24 16.24 0 0 1-2.78.1c-.06.19.86.54-.29.66 0-.1-.08-.28.22-.32a1.5 1.5 0 0 1-.55 0l.46-.17c-.5-.08-.26.14-.66.13 0-.15-.29-.11-.23-.23s.34.07.49 0a3.55 3.55 0 0 1-1.16-.23c0 .09 0 .2-.32.22-.85 0-.29-.18-.79-.25-.2.1-.74 0-.75.21a.53.53 0 0 1-.39-.16c-.44.1-2 0-1.55.26h.12-.08c-1.43.22-3-.13-4.39 0v-.08a23.28 23.28 0 0 0-2.49.21c-.25 0-.59-.13-.48-.22a5.24 5.24 0 0 1-1.66 0c.65-.13-.22-.12.67-.1a4.88 4.88 0 0 0-1.94 0c.31-.19-.63-.24-1-.18l.59.13h-1.25l.22-.25c-1.72-.3-3.11.52-4.42 0-.45.17.94.12.53.32a14.39 14.39 0 0 1-1.87-.39c-1.08-.14-1 .37-2.15.27.15.09.29.33-.56.41s-1-.37-.48-.44c.19 0 .29 0 .28.05.25 0 .59-.07.28-.17l-.11.09c-.39-.09-1.48-.08-1.22-.23-.6.09-.26.15.18.2-1-.13-1.59 0-2.63-.1.16 0 .32.16.15.16-1.53-.11-.68.17-1.72.21-.59-.14.22-.33-.83-.21-.64-.1-.14-.24.12-.31a7.93 7.93 0 0 1-2.33-.15l.5-.07a5.63 5.63 0 0 1-.8 0l.29.18c-.29 0-.54 0-.54-.11-.3.12.23.3-.37.46-.39-.09-1.2.1-1.33-.14 1.23.08-.14-.24.91-.28a3.11 3.11 0 0 1-.75 0s.05-.05.13-.06c-1.19-.21-.55.26-1.78.26.16-.13-.28-.25-.48-.22.49 0 .24.22-.22.32a5.2 5.2 0 0 0-1.26.06l.47.05c-.16.14-.56.12-1.11.16 0-.1.5-.07.31-.12-.61.24-1.38-.24-2.23-.08-.39-.09 0-.25-.38-.31-1 .17-1-.18-2 0 .28.18.33.13-.37.31l1.64-.13-1 .26c.5 0 1-.11 1.34-.08-.5.15-.45.1-.21.25-.68-.27-1.35.16-2.13 0v-.45c-1.18-.2-2.09.23-3.63.12l.5.07c-.21.18-.95 0-1.45.1 0-.15-.26-.2-.47-.29 0 .11-1.12 0-1.26.28l-.69-.19c-1.24-.08-1.41.42-2.6.37.36-.16-.18-.27.61-.38-.39 0-.75 0-.76.07-.23-.09-1.1.2-1.46.06a1 1 0 0 1-.67.21v-.07s-.7.1-.31.26c-1.22-.46-3.42 0-4.48-.36-.87 0-1.91.09-2.7.1 0 0 0-.07.15-.05-1.09-.14-.67.42-1.9.27-.63-.24.65-.13.26-.22-.17-.49-1.49.06-2.32-.22h.2a19 19 0 0 0-2.59.15s.05 0 0-.07a15.37 15.37 0 0 1-3.06.4c.31-.19.46-.1.27-.3-.45 0 .13.31-.76.37-.29-.11-.94-.2-1-.41h.84c-.43-.26-1.09 0-1.54 0l.06-.12c-1.29 0-1.31.33-2.7.31l.14.09c-.75.29-.63-.17-1.39.05l-.23-.29c-.5.07-1.75.28-2.65.34a14.56 14.56 0 0 1 2.21-.46 7.4 7.4 0 0 0-1.94.16 1.79 1.79 0 0 1 .65-.05 6.71 6.71 0 0 1-2.4.34c.17-.57-2.58-.14-3.3-.59-1.75.21-3.47-.09-5.51-.06.73.45-.59 0-.47.47a2.08 2.08 0 0 1-.69 0l-1.44-.28c-.34-.13.45-.1.4-.2-1 0-.43-.2-1.12-.32.14.17-.36.24-1 .17l.83.22c-1.45.24-1.25-.39-2.72-.15l.46-.14a14.76 14.76 0 0 0-3.5.36c-.14 0-.31-.17 0-.21-1.8-.05-4 .39-5.39.17l.13-.11c-.33 0-.58.21-1 .09 0 0 .13-.11 0-.12a4.64 4.64 0 0 1-1.33.14l.38-.13c-1.76-.15-2.69.31-4.16.38 0-.33-1.38-.43-2.06-.49a53.11 53.11 0 0 0-5.35.4c-1.17-.36-4-.15-5.86-.35.29.06 0 .26-.38.29s-1.22.23-1.15-.07h.16c-.34-.3-1.25-.22-2-.23l-.12.4c-1.86-.58-4.86.21-5.88-.3-.44.1-1 .09-1.44.19v-.21c-1.24-.05-1.86-.08-3.39 0l.31-.15c-.87 0-1.09.61-1.89.62l-.24-.31A23.64 23.64 0 0 0 79 406c0-.05.07-.14.31-.15-.71 0-2.74-.21-2.49.22 0-.28-1.55 0-2.37.1l.13-.21a3.83 3.83 0 0 1-1.67.41c-.23 0-.2-.16.1-.11-.76-.11-.59.2-1.51.09l.34-.14a2 2 0 0 0-1.15.21 2.59 2.59 0 0 1-1.59-.24 1.4 1.4 0 0 1-1 .22c-.07-.08.1-.12.19-.14-1.31-.14-2 .24-2.84 0a.2.2 0 0 0-.15-.13h1.79c0-.19-.84-.22-.17-.49a9.2 9.2 0 0 1-2.64.37.41.41 0 0 1-.11-.07h.09a1.76 1.76 0 0 0-.52 0 5.31 5.31 0 0 0-.68-.05c-.09-.16-1-.09-1.37-.1 0 .21-.52.18 0 .35h1.53a1.85 1.85 0 0 1-1.14.08 5.2 5.2 0 0 1-.58.34c-.57-.29-1.67-.45-1.83-.63a15 15 0 0 0-3.8.47c-.36.05-.42-.11-.55-.17a4.59 4.59 0 0 0 .57-.09c-.73.1-2.15 0-2.32.31-.92-.12.51-.25-.75-.21l.17-.08c-2.47-.44-4 .7-6.75.14.19 0 .28.05.32.09-3.12-.25-6.43.24-9.51-.16a3 3 0 0 0-1.51.23l-.19-.22-.91.26c-1.29.19-2.24-.56-3.88-.2l.21.16c-.59 0-1.87.09-1.77-.09a.44.44 0 0 1-.42.08v-.12l-1.45.2c-1.12-.08.18-.47-1.46-.49-.61 0-1.73.35-1.5.43s.62.07.64.19l-.55.06c-.11.35-.53.71.83.95l1-.21.3.17h-.8a1.47 1.47 0 0 0 1.07-.08.68.68 0 0 0 .39.19l.94-.34c.11.14-.42.27.21.35.44-.16-.42-.31.3-.41.46.16.33.29.86.15.07.09 0 .15-.25.19.48-.11 1.26-.05 1.5-.23.48.19 1.61 0 1.56.28a4.66 4.66 0 0 1 1.28-.28c-.8.4 1.64 0 1.42.45.6-.35 2.14-.16 3.19-.35a.57.57 0 0 1-.27.06 5.71 5.71 0 0 1 1.14.21c.07-.3 1-.36 1.49-.54.72.28-.44.34-.22.61 0-.24 1.26-.23 1-.43.56.17.48.08.76.33.1-.37.52-.07 1-.29.8.18.2.34 1.08.23.35.12-.43.27-.43.27zm20.88-.63zm1.75 0h-.76c-.06-.08 0-.15.18-.15-.09.02.34.06.58.12zm-3.71-1.46c.28 0 .37 0 .41.06h-.49a.38.38 0 0 1 .08-.09z" fill="#3c3c3c"/></g></g></svg>