<svg xmlns="http://www.w3.org/2000/svg" viewBox="0 0 742 528"><defs><style>.cls-2{fill:#fff}.cls-3{fill:#b7c7ff}.cls-4{fill:#f0f3ff}.cls-7{fill:#d8dbe6}.cls-8{fill:#bcebe3}.cls-9{fill:#202020}.cls-10{fill:#00d1b4}.cls-11{fill:#ffd5d0}.cls-13{fill:#f38f80}.cls-14{fill:#e6bbb6}.cls-15{fill:#d97c6f}.cls-17{fill:#5875dc}</style></defs><g id="_1" data-name="1"><g id="Dark_bg" data-name="Dark bg"><path d="M688 240c0-16 16-56 16-80a48 48 0 0 0-32.3-45.4c-4-1.6-9-2.6-15.7-2.6-31.8 0-80 48-112 48s-32-24-80-24c-32 0-47.8 36.1-70 47.1-34 16.9-82 16.9-98 16.9-80 0-104-72-176-72a72 72 0 0 0-72 72c0 40 8 67 8 88 0 48-56 58-56 120 0 39.8 24 72 72 72s80-32 152-32 112 48 160 48 88-24 112-24c40 0 64 24 126 24a120 120 0 0 0 120-120c0-80-54-96-54-136z" fill="#4d3faf"/><path class="cls-2" d="M594 494.2l2.2.3 10.5-18.8a729.3 729.3 0 0 0 52.8-117.9 460.4 460.4 0 0 0 24.3-136.2c.9-35.7 7-61.7 16-81.4a52 52 0 0 0-1.2-2.4c-9.4 20.2-15.9 46.8-16.8 83.7-2.5 102.3-40.2 185.4-76.8 253.2a837 837 0 0 1-11 19.5zm-34.8-7.6l2 .6c19.7-42.6 35.2-84.2 36.6-121.2 2.4-60.8-20.3-101.5-40.2-137.4-13.7-24.6-25.8-46.3-28-70.6l-2.1-.7c2 25 14.4 47.2 28.3 72.3 19.9 35.7 42.4 76 40 136.3-1.4 36.7-16.9 78.3-36.6 120.7zm181.2-133.4c-34.1 10.8-66.7 29.7-86.1 64.5a162.7 162.7 0 0 0-19 77.5l2.2-.2c.5-27.5 5.8-53.5 18.5-76.3 19-34.1 51-52.8 84.7-63.4l-.3-2zM384.5 204.1c5.4-8.2 10.7-16.3 15.6-24.6l-3.8 2.4c-4.3 7.1-8.8 14.1-13.4 21.1-17 25.8-34.4 52.4-42.5 92.1-11.3 55.3-5.7 95.6.1 138.2 2.4 17.3 4.8 35 6.2 54.3l2 .8a801.4 801.4 0 0 0-6.2-55.4c-5.8-42.4-11.4-82.5-.1-137.5 8-39.3 25.4-65.8 42.1-91.4zM109.8 445.5a90.8 90.8 0 0 1 1.4 28l2-.7a91.9 91.9 0 0 0-1.5-27.7c-4.5-20.3-37.6-45.9-69.6-70.6-8.4-6.5-16.7-12.9-24.4-19.1l-1.1 1.6c7.6 6.2 15.9 12.6 24.3 19 31.7 24.6 64.5 50 68.9 69.5zm59.2-305l-1.7-1a546.8 546.8 0 0 1-23.6 53c-18.8 38.5-38.1 78.4-34.1 106.3 4.9 33.8 20.6 47.5 35.8 60.6 13.2 11.5 25.7 22.3 31 45.7 3.5 15.7 2.3 32.2-.1 48l2-.5c2.5-15.7 3.5-32.2 0-48-5.4-24-18.7-35.5-31.6-46.7-14.9-12.9-30.3-26.3-35.1-59.4-4-27.3 15.3-66.8 33.9-105.1 9-18.8 18-37 23.6-53zm-72.5 17.2c4.8-10.1 9.5-20 14.3-29.1l-2.5.3c-4.5 8.8-9 18.3-13.6 28-13.4 28.4-27.1 57.6-45.3 72.1l.2 2.4c19-14.6 33.2-44.5 47-73.7zM288.8 225c3.6-8.2 7.3-16.6 10.7-25h-2.1c-3.4 8.2-7 16.2-10.5 24.2-10.5 23.7-20.4 46-23.4 70-3.6 28.5 8 54.8 20.2 82.7 12.2 27.7 24.8 56.3 21.8 88a66 66 0 0 1-.4 3.4l1.9.8.5-4c3-32.3-9.6-61-22-89-12.1-27.6-23.6-53.6-20-81.6 3-23.7 12.8-46 23.3-69.5zM54.5 475.2C41 446.9 27 417.7.7 419.6l.3 2c24.8-1.8 37.9 25.6 51.6 54.4l1.1 2.2 2.4.4z"/></g><g id="Big_elipse" data-name="Big elipse"><circle class="cls-3" cx="216" cy="448" r="80"/><circle class="cls-3" cx="536" cy="80" r="80"/></g><g id="Gray_bg" data-name="Gray bg"><path class="cls-4" d="M440 16c-64 0-104 32-184 32-99 0-96-24-160-24-35.4 0-64 32-64 80 0 72 72 64 72 184 0 35.3 16 64 64 64 72 0 152-144 272-144a96 96 0 1 0 0-192z"/><path d="M129 342.6a53.1 53.1 0 0 0 7 3.6 157.6 157.6 0 0 1 16 4.6c2.6.4 5.3.7 8.1.9-9.2-4-20.2-7-31.1-9zm61-52.6c-13.8-13.1-25.7-24.6-49.8-20.3a126 126 0 0 0-36.2 15.8v2.3c14.4-8.2 26.4-14.4 36.5-16.1 23.1-4.1 34.7 7 48 19.8 11.8 11.3 24.6 23.6 47 29.6l2.1-1.6c-22.9-5.7-35.8-18.1-47.6-29.4zm233-113.6h-.3c-69.7.4-138.3-1.3-168.4-17-17.9-9.4-35.3-33.8-53.8-59.5-13-18.1-26.4-36.9-40.6-51.1-7-7-14.6-13.7-22-20.2l-4.3-1c8.5 7.2 17 14.7 24.9 22.6a417.3 417.3 0 0 1 40.4 50.9c18.6 25.9 36.1 50.4 54.5 60 30.4 16 99.3 17.8 169.3 17.3h.3c14.5 0 37 6.8 63.5 17.6l2.2-1.3c-27.5-11.2-50.7-18.3-65.7-18.3zm-304.2 12.4c5.6-11.6.4-32.3-14.1-56.6a240 240 0 0 0-64.1-69.9l-1 2c3.2 2.2 6 4.4 8.8 6.6a243 243 0 0 1 54.6 62.3c14 23.4 19.2 43.9 14 54.7-6.3 13.2-19 14-34.4 10.4l1.5 2.4c15.4 3.4 28 2 34.7-12zm393-13c-36.8-41-52.4-107-61.8-159.3l-2-.2c9.4 52.6 25.2 119.5 62.4 161l1.4-1.5z" fill="#bbc8f9"/><path class="cls-3" d="M418.4 29.8c11.3 40 16.2 73.2 14.2 80.9-.3 1-.6 1.2-.6 1.2a13.8 13.8 0 0 1-3.8.6c-11.5 0-22.5-14.4-33.1-28.4C384 69.7 373.6 56 362 56c-11.3 0-22 8.7-33.5 17.8-13 10.5-27.8 22.3-45.6 22.8-21.7.5-43.7-20.9-65.3-50l-2.6-.3c22 30 44.6 52.3 67.1 52.3h.9c18.5-.5 33.5-12.6 46.8-23.2 11.1-9 21.6-17.4 32.2-17.4s21.2 13.9 31.4 27.3c11 14.4 22.2 29.2 34.7 29.2a15.8 15.8 0 0 0 4.4-.6c1-.3 1.6-1.2 2-2.7 2.3-9.2-4-46-14.2-82l-3.5-11.8-2 .2q1.9 6 3.6 12.2z"/></g><path d="M682 156c-2.8-.8-4-5.5-4.6-8.1s.5-4.3 3-4.2 4.3 2.4 6 2.9 4.8.6 6.4 1.7 2.8 2.7 2 4.2c-2.5 4.4-9.8 4.3-12.7 3.5zm-14-12.2c.7-1.3-.4-2.8-1.8-3.7s-4-1-5.5-1.5-3.1-2.4-5.3-2.5-3 1.4-2.5 3.7 1.5 6.4 4 7 9 .8 11-3zm-24.1 42c.7-1.3-.4-2.8-1.7-3.7s-4-1-5.6-1.5-3-2.4-5.2-2.5-3 1.4-2.6 3.7 1.5 6.4 4 7 9 .8 11-3zm42.2-58.7c.8-1.4-.3-3-1.8-4s-4.3-1.1-6-1.6-3.3-2.6-5.6-2.7-3.3 1.5-2.8 4 1.7 6.8 4.4 7.6 9.6.8 11.8-3.3zm-84.3 6.2c.6-1-.2-2.2-1.3-2.9s-3.1-.8-4.3-1.1-2.4-2-4-2-2.5 1-2 2.8 1.1 5 3 5.5 7 .6 8.6-2.3zm.4-38.3c.6-1-.2-2.2-1.3-3s-3.1-.8-4.3-1-2.4-2-4-2-2.5 1-2 2.8 1.1 5 3 5.5 7 .6 8.6-2.4zm43 55.5c.6-1.1-.2-2.2-1.3-3s-3.1-.8-4.3-1.1-2.4-2-4-2-2.5 1-2 2.9 1.1 5 3 5.5 7 .6 8.7-2.4zm-24.4-7c.5-1-.2-2-1.1-2.5s-2.7-.7-3.7-1-2-1.7-3.5-1.7-2 1-1.7 2.5 1 4.2 2.7 4.7 6 .5 7.4-2zm83.4 59.8c.6-1.1-.3-2.2-1.3-3s-3.2-.8-4.3-1-2.4-2-4.1-2-2.4 1-2 2.8 1.2 5 3.1 5.5 7 .6 8.6-2.3zm-15 10c.7-1-.2-2.1-1.3-2.8s-3-.9-4.3-1.2-2.4-2-4-2-2.4 1-2 2.9 1.1 5 3 5.5 7 .6 8.7-2.3zm31.3-49.6c.9-1.6-.4-3.2-2-4.3s-4.6-1.2-6.3-1.7-3.6-2.8-6-2.8-3.5 1.5-3 4.1 1.8 7.4 4.6 8.2 10.4.9 12.8-3.5zm-3.7 24c.8-1.4-.3-2.8-1.7-3.7s-4-1-5.5-1.5-3.1-2.5-5.3-2.5-3 1.4-2.6 3.6 1.5 6.5 4 7.1 9 .8 11.1-3zm-107.2-30.5c.6-1-.3-2.2-1.3-2.9s-3.2-.8-4.3-1.1-2.5-2-4.1-2-2.4 1-2 2.8 1.1 5 3.1 5.5 7 .7 8.6-2.3zm60.3 12c.9-1.6-.4-3.2-2-4.2s-4.6-1.3-6.3-1.8-3.6-2.8-6-2.8-3.6 1.5-3 4.2 1.7 7.3 4.6 8 10.3 1 12.7-3.4zm-5.4 29.9c.8-1.6-.4-3.2-2-4.3s-4.6-1.2-6.4-1.7-3.5-2.8-6-2.9-3.5 1.6-3 4.2 1.8 7.4 4.7 8.1 10.3 1 12.7-3.4zm18-8.6c.8-1.6-.4-3.2-2-4.3s-4.6-1.2-6.4-1.7-3.6-2.8-6-2.9-3.5 1.6-3 4.2 1.8 7.4 4.6 8.1 10.4 1 12.8-3.4zM740 114c.4-.7-.1-1.4-.8-1.8a9.9 9.9 0 0 0-2.7-.7c-.7-.2-1.5-1.2-2.5-1.2s-1.5.6-1.3 1.7.8 3.1 2 3.5 4.3.4 5.4-1.5zm-97.9 96.5c.4-.7-.1-1.4-.8-1.8a10.4 10.4 0 0 0-2.7-.8c-.7-.2-1.5-1.2-2.5-1.2s-1.5.7-1.2 1.8.7 3 2 3.4 4.2.4 5.3-1.4zm23 3c.3-.7-.2-1.4-.8-1.8a9.7 9.7 0 0 0-2.7-.8c-.8-.2-1.5-1.2-2.6-1.2s-1.4.7-1.2 1.8.7 3 2 3.4 4.3.5 5.3-1.4zm62.1-35.3c.4-.6-.2-1.3-.8-1.8a10.3 10.3 0 0 0-2.7-.7c-.7-.2-1.5-1.2-2.5-1.2s-1.5.7-1.3 1.8.7 3 2 3.4 4.3.5 5.3-1.4zm8.3-12.9c.3-.7-.2-1.4-.8-1.8a10.3 10.3 0 0 0-2.7-.7c-.7-.2-1.5-1.2-2.6-1.2s-1.4.6-1.2 1.7.7 3.1 2 3.4 4.3.5 5.3-1.3zm-106 33.4c.4-.7-.2-1.4-.8-1.8a10.4 10.4 0 0 0-2.7-.8c-.7-.2-1.5-1.2-2.6-1.2s-1.4.7-1.2 1.8.7 3.1 2 3.4 4.3.5 5.3-1.4zm0-126.3c.4-.7-.2-1.4-.8-1.8a9.5 9.5 0 0 0-2.7-.8c-.7-.2-1.5-1.2-2.6-1.2s-1.4.7-1.2 1.8.7 3 2 3.4 4.3.5 5.3-1.4zM616 85c.6-1-.3-2.2-1.3-3s-3.2-.8-4.4-1.1-2.5-2-4.2-2-2.4 1-2 2.9 1.2 5 3.2 5.5 7 .7 8.7-2.3zm-2.8 40.3c.4-.7-.2-1.5-1-2a11.7 11.7 0 0 0-3.1-.9c-.9-.2-1.8-1.3-3-1.4s-1.7.8-1.4 2 .9 3.6 2.3 4 5 .5 6.1-1.7zm59.8-19.6c.4-.7-.2-1.5-1-2a11.7 11.7 0 0 0-3-.9c-1-.2-1.8-1.3-3-1.4s-1.7.8-1.4 2 .8 3.6 2.2 4 5 .5 6.2-1.7zm-6.5-33c.4-.7-.2-1.5-1-2a11.7 11.7 0 0 0-3-.9c-1-.2-1.8-1.3-3-1.4s-1.7.8-1.5 2 .9 3.6 2.3 4 5 .5 6.2-1.6zm-67.3 40.6c.4-.8-.2-1.6-1-2a11.5 11.5 0 0 0-3-.9c-.9-.2-1.8-1.4-3-1.4s-1.7.8-1.4 2 .8 3.6 2.2 4 5 .5 6.2-1.7zm36.4 54.4c.8-1.4-.3-2.8-1.7-3.7s-4-1.1-5.5-1.5-3.1-2.5-5.3-2.6-3 1.4-2.6 3.7 1.5 6.4 4 7.1 9 .8 11.1-3zm5.4-38.6c.8-1.4-.4-3-1.8-4s-4.4-1.1-6-1.6-3.3-2.6-5.6-2.6-3.3 1.4-2.8 3.9 1.6 6.9 4.3 7.6 9.6.8 11.9-3.3zm16.4-22.5c.8-1.5-.4-3-1.8-4s-4.4-1.1-6-1.6-3.3-2.6-5.6-2.7-3.3 1.5-2.8 4 1.6 6.8 4.3 7.6 9.6.8 11.8-3.3zm38.4 2.4c.8-1.4-.3-3-1.8-4s-4.3-1.1-6-1.6-3.3-2.6-5.6-2.7-3.3 1.5-2.8 4 1.7 6.8 4.4 7.6 9.5.8 11.8-3.3zm16.9 25.6c.8-1.4-.4-3-1.8-4s-4.3-1.1-6-1.6-3.3-2.6-5.6-2.6-3.3 1.4-2.8 3.9 1.6 6.9 4.3 7.6 9.6.8 11.9-3.3zm7.2-19.7c.7-1.3-.3-2.6-1.6-3.4s-3.6-1-5-1.4-2.9-2.3-4.8-2.3-2.9 1.3-2.4 3.4 1.4 5.8 3.7 6.5 8.2.7 10.1-2.8zm6.6-15c.7-1.2-.3-2.5-1.6-3.3s-3.6-1-5-1.4-2.9-2.2-4.9-2.3-2.8 1.2-2.3 3.4 1.4 5.8 3.7 6.4 8.2.8 10.1-2.7zm-23-7.1c.5-.9-.2-1.8-1-2.4s-2.6-.6-3.6-1-2-1.5-3.3-1.5-1.9.9-1.6 2.3 1 4 2.5 4.5 5.7.5 7-1.9zm-18.8-9c.5-.9-.2-1.8-1-2.4s-2.6-.6-3.6-1-2-1.5-3.3-1.5-2 .9-1.6 2.3 1 4 2.5 4.5 5.7.5 7-1.9zM671.1 88c.9-1.5-.4-3.2-2-4.2s-4.6-1.3-6.3-1.8-3.6-2.8-6-2.8-3.5 1.5-3 4.2 1.7 7.3 4.6 8 10.3 1 12.7-3.4zm-33.3-.5c.6-1.1-.2-2.2-1.3-2.9s-3-.8-4.2-1.1-2.4-2-4-2-2.4 1-2 2.9 1.2 4.9 3 5.4 6.9.6 8.5-2.3zm-19.3 94c.6-1-.3-2-1.3-2.8s-3-.8-4.3-1.1-2.3-2-4-2-2.3 1-2 2.9 1.2 4.9 3.1 5.4 6.9.6 8.5-2.3zM649 70c.5-1-.3-2.1-1.3-2.9s-3.1-.8-4.3-1-2.4-2-4-2-2.3 1-2 2.8 1.2 4.9 3.1 5.4 6.9.6 8.5-2.3zm-20 30.7c.7-1.3-.3-2.6-1.6-3.5s-3.7-1-5-1.3-3-2.3-5-2.4-2.8 1.3-2.4 3.4 1.4 6 3.8 6.6 8.2.7 10.2-2.8zm108.9 46.8c.9-1.6-.4-3.2-2-4.2s-4.6-1.3-6.3-1.8-3.6-2.8-6-2.8-3.5 1.5-3 4.2 1.8 7.3 4.6 8 10.3 1 12.7-3.4zm-40.7 27.7c.9-1.6-.4-3.3-2-4.3s-4.6-1.3-6.3-1.7-3.6-2.9-6-2.9-3.5 1.6-3 4.2 1.7 7.3 4.6 8.1 10.3 1 12.7-3.4zm44.6-45.1c.6-1.2-.3-2.4-1.5-3.2s-3.4-1-4.7-1.3-2.6-2.1-4.5-2.1-2.6 1.1-2.2 3 1.3 5.5 3.5 6 7.6.8 9.4-2.4zM92 292c-2.8-.8-4-5.5-4.6-8.1s.5-4.3 3-4.2 4.3 2.4 6 2.9 4.8.6 6.4 1.7 2.8 2.7 2 4.2c-2.5 4.4-9.8 4.3-12.7 3.5zm-14-12.2c.7-1.4-.4-2.8-1.8-3.7s-4-1-5.5-1.5-3.1-2.5-5.3-2.5-3 1.4-2.6 3.7 1.6 6.4 4 7 9 .8 11.1-3zm-24.1 42c.7-1.4-.4-2.8-1.7-3.7s-4-1-5.6-1.5-3-2.5-5.2-2.5-3 1.4-2.6 3.7 1.5 6.4 4 7 9 .8 11-3zM93 262.1c.8-1.5-.3-3-1.8-4s-4.3-1.2-6-1.6-3.3-2.6-5.6-2.7-3.3 1.5-2.8 4 1.7 6.8 4.4 7.5 9.6.8 11.8-3.2zm-81.3 7.2c.6-1-.2-2.2-1.3-2.9s-3.1-.8-4.3-1.1-2.4-2-4-2-2.5 1-2 2.8 1.1 5 3 5.5 7 .6 8.6-2.3zm.4-38.3c.6-1.1-.2-2.2-1.3-3s-3.1-.8-4.3-1.1-2.4-2-4-2-2.5 1-2 2.9 1.1 5 3 5.5 7 .6 8.6-2.4zm43 55.4c.7-1-.2-2.1-1.2-2.8s-3.2-.9-4.3-1.2-2.5-2-4.1-2-2.4 1-2 2.8 1.2 5 3.1 5.6 7 .6 8.6-2.4zm-24.3-7c.5-.9-.3-1.8-1.2-2.4s-2.7-.8-3.7-1-2-1.6-3.5-1.7-2 1-1.7 2.5 1 4.2 2.7 4.7 6 .5 7.4-2zm83.4 59.9c.5-1.1-.3-2.2-1.4-3s-3.1-.8-4.3-1.1-2.4-2-4-2-2.4 1.1-2 2.9 1.1 5 3 5.5 7 .6 8.7-2.4zm-15 10c.6-1-.2-2.1-1.3-2.8s-3.1-.9-4.3-1.2-2.4-2-4.1-2-2.4 1-2 2.8 1.2 5 3.1 5.6 7 .6 8.6-2.3zm31.3-49.6c.8-1.6-.4-3.2-2-4.3s-4.6-1.2-6.3-1.7-3.6-2.8-6-2.9-3.5 1.6-3 4.2 1.7 7.4 4.6 8.2 10.3.8 12.7-3.5zm-3.8 24c.8-1.4-.3-2.8-1.7-3.7s-4-1.1-5.5-1.5-3.1-2.5-5.3-2.5-3 1.4-2.5 3.7 1.5 6.4 4 7 9 .8 11-3zM19.6 293.2c.6-1-.3-2.2-1.3-2.9s-3.2-.8-4.3-1.1-2.5-2-4.1-2-2.4 1-2 2.8 1.1 5 3.1 5.6 7 .6 8.6-2.4zm60.3 12c.9-1.6-.4-3.2-2-4.2s-4.6-1.3-6.4-1.8-3.5-2.8-6-2.8-3.5 1.5-3 4.2 1.8 7.3 4.7 8 10.3 1 12.7-3.4zm-5.4 29.9c.8-1.6-.4-3.2-2-4.3s-4.6-1.2-6.4-1.7-3.5-2.8-6-2.9-3.5 1.6-3 4.2 1.8 7.4 4.7 8.1 10.3 1 12.7-3.4zm18-8.6c.8-1.6-.4-3.2-2-4.3s-4.7-1.2-6.4-1.7-3.5-2.8-6-2.9-3.5 1.6-3 4.2 1.8 7.4 4.7 8.1 10.3 1 12.7-3.4zm57.7-76.5c.3-.7-.2-1.4-.9-1.8a10.3 10.3 0 0 0-2.7-.7c-.7-.2-1.5-1.2-2.5-1.2s-1.5.6-1.2 1.7.7 3.1 2 3.5 4.2.4 5.3-1.5zm-98 96.5c.4-.7-.1-1.4-.8-1.8a10 10 0 0 0-2.6-.7c-.8-.3-1.5-1.3-2.6-1.3s-1.5.7-1.2 1.8.7 3.1 2 3.4 4.2.4 5.3-1.4zm23 3c.4-.7-.2-1.4-.8-1.8a10.4 10.4 0 0 0-2.7-.7c-.7-.3-1.5-1.3-2.6-1.3s-1.4.7-1.2 1.8.7 3.1 2 3.4 4.3.5 5.3-1.4zm62.1-35.2c.4-.7-.2-1.4-.8-1.8a10.3 10.3 0 0 0-2.7-.8c-.7-.2-1.5-1.2-2.5-1.2s-1.5.7-1.3 1.8.8 3 2 3.4 4.3.4 5.3-1.4zm8.3-13c.4-.7-.2-1.3-.8-1.8a9.9 9.9 0 0 0-2.7-.7c-.7-.2-1.5-1.2-2.6-1.2s-1.4.6-1.2 1.7.7 3.1 2 3.5 4.3.4 5.3-1.4zm-106 33.4c.4-.6-.1-1.3-.8-1.8a10 10 0 0 0-2.7-.7c-.7-.2-1.5-1.2-2.5-1.2s-1.5.7-1.3 1.8.8 3 2 3.4 4.3.4 5.3-1.5zm0-126.3c.4-.6-.1-1.3-.8-1.8a10.3 10.3 0 0 0-2.6-.7c-.8-.2-1.6-1.2-2.6-1.2s-1.5.6-1.3 1.8.8 3 2 3.4 4.3.4 5.3-1.5zM26 221.1c.6-1.1-.3-2.2-1.3-3s-3.2-.8-4.4-1.1-2.5-2-4.2-2-2.4 1-2 2.9 1.2 5 3.2 5.5 7 .7 8.7-2.3zm-2.8 40.3c.4-.7-.2-1.5-1-2a11.3 11.3 0 0 0-3-.9c-.9-.2-1.8-1.3-3-1.4s-1.7.8-1.4 2 .8 3.6 2.2 4 5 .4 6.1-1.7zM81 241.8c.4-.7-.2-1.5-1-2a11.3 11.3 0 0 0-3-.9c-1-.2-1.8-1.3-3-1.4s-1.7.8-1.5 2 .9 3.6 2.3 4 5 .5 6.2-1.7zm-4.5-33c.4-.7-.2-1.5-1-2a11.7 11.7 0 0 0-3-.9c-1-.2-1.8-1.4-3-1.4s-1.7.8-1.5 2 .9 3.6 2.3 4 5 .5 6.2-1.6zM9.2 249.4c.4-.7-.2-1.5-1-2a11.9 11.9 0 0 0-3-.9c-.9-.2-1.8-1.4-3-1.4s-1.7.8-1.4 2 .8 3.6 2.2 4 5 .4 6.2-1.7zm36.4 54.4c.8-1.4-.3-2.8-1.7-3.7s-4-1.1-5.5-1.5-3.1-2.5-5.3-2.5-3 1.3-2.6 3.6 1.5 6.5 4 7.1 9 .8 11.1-3zm5.4-38.6c.8-1.4-.4-3-1.8-4s-4.4-1.1-6-1.5-3.4-2.7-5.7-2.7-3.2 1.4-2.7 4 1.6 6.8 4.3 7.5 9.6.8 11.9-3.3zm14.4-17.5c.8-1.5-.4-3-1.8-4s-4.4-1.1-6-1.6-3.3-2.6-5.6-2.7-3.3 1.5-2.8 4 1.6 6.8 4.3 7.6 9.6.8 11.8-3.3zm40.4-2.6c.9-1.5-.3-3-1.8-4s-4.4-1.1-6-1.6-3.3-2.6-5.6-2.7-3.3 1.5-2.8 4 1.6 6.8 4.3 7.6 9.6.8 11.9-3.3zm16.9 25.6c.8-1.4-.3-3-1.8-4s-4.3-1.1-6-1.6-3.3-2.6-5.6-2.7-3.3 1.5-2.8 4 1.7 6.8 4.4 7.6 9.5.8 11.8-3.3zm7.2-19.7c.7-1.3-.3-2.6-1.6-3.4s-3.7-1-5-1.4-2.9-2.2-4.8-2.3-2.9 1.3-2.4 3.4 1.4 5.8 3.7 6.5 8.2.7 10.1-2.8zm6.6-15c.7-1.2-.3-2.5-1.5-3.3s-3.7-1-5.1-1.4-2.9-2.3-4.8-2.3-2.8 1.2-2.4 3.4 1.4 5.8 3.7 6.5 8.2.7 10.1-2.8zm-23-7.1c.5-.9-.2-1.8-1-2.4s-2.6-.7-3.6-1-2-1.5-3.3-1.5-1.9.9-1.6 2.3 1 4 2.5 4.5 5.7.5 7-1.9zm-18.8-9c.5-.9-.2-1.8-1-2.4s-2.6-.7-3.6-1-2-1.5-3.3-1.5-2 .8-1.6 2.3 1 4 2.5 4.4 5.7.6 7-1.8zM79.1 226c.9-1.6-.4-3.2-2-4.3s-4.6-1.2-6.3-1.7-3.6-2.8-6-2.9-3.5 1.6-3 4.2 1.7 7.4 4.6 8.2 10.3.9 12.7-3.5zm-31.3-2.6c.6-1-.3-2.1-1.3-2.8s-3-.8-4.2-1.1-2.4-2-4-2-2.4 1-2 2.8 1.1 5 3 5.4 6.9.7 8.5-2.2zm-19.3 94.2c.5-1-.3-2.2-1.3-2.9s-3.1-.8-4.3-1.1-2.3-1.9-4-2-2.3 1-2 2.9 1.2 4.9 3.1 5.4 6.9.6 8.5-2.3zM59 205.9c.5-1-.3-2.1-1.3-2.9s-3.1-.8-4.3-1-2.3-2-4-2-2.3 1-2 2.8 1.2 4.9 3.1 5.4 6.9.6 8.5-2.3zm-23 35.8c.7-1.3-.3-2.6-1.6-3.5s-3.7-1-5-1.3-3-2.3-5-2.4-2.8 1.3-2.4 3.4 1.4 6 3.8 6.6 8.2.7 10.2-2.8zm111.9 41.8c.9-1.6-.4-3.2-2-4.3s-4.6-1.2-6.3-1.7-3.6-2.8-6-2.8-3.5 1.5-3 4.2 1.7 7.3 4.6 8 10.3 1 12.7-3.4zm-40.7 27.7c.9-1.6-.4-3.3-2-4.3s-4.5-1.3-6.3-1.7-3.6-2.9-6-2.9-3.5 1.6-3 4.2 1.8 7.3 4.7 8.1 10.2 1 12.6-3.4zm44.6-45.2c.6-1.2-.3-2.4-1.5-3.2s-3.4-.9-4.7-1.2-2.6-2.2-4.5-2.2-2.6 1.2-2.2 3.1 1.3 5.5 3.5 6 7.6.8 9.4-2.5z" fill="#cc90ff" id="Heart"/><g id="Web"><rect class="cls-2" x="80" y="96" width="582" height="336" rx="16" ry="16"/><path class="cls-7" d="M662 136H80v-24a16 16 0 0 1 16-16h550a16 16 0 0 1 16 16z"/><circle class="cls-2" cx="104" cy="116" r="8"/><circle class="cls-2" cx="128" cy="116" r="8"/><circle class="cls-2" cx="152" cy="116" r="8"/><path class="cls-4" d="M619.9 168H438v232h192V168h-10.1zM112 168h294v232H112z"/><path class="cls-7" d="M144 200h12v12h-12zm0 28h12v12h-12zm0 28h12v12h-12zm0 28h12v12h-12zm0 24h12v12h-12zm0 28h12v12h-12zm24-136h206v12H168zm0 56h206v12H168zm0 28h140v12H168zm0 24h206v12H168zm0-80h64v12h-64zm76 0h96v12h-96zm-76 108h104v12H168zm116 0h66v12h-66z"/></g><g id="Small_elipse" data-name="Small elipse"><circle class="cls-8" cx="120" cy="32" r="24"/><circle class="cls-8" cx="718" cy="304" r="16"/><circle class="cls-8" cx="204" cy="12" r="12"/></g><path class="cls-9" d="M168 392.2l.4-.5a1.1 1.1 0 0 1-.4.3zm0-2.5v2.1a5.7 5.7 0 0 1 1.8-1.4l1.5-1.8-.4.7c.8-1 .4 0 1-1-.1.1 0-.1 0-.2a12 12 0 0 0 2-2v.3l4-4c-.6.5-.7.2-.3-.2h.3c.2-.4-.4.3 0-.4.5-.5.5-.1.3.2l.5-.6v.3c.2-.4 1.3-1 1.5-1.5l3.1-3.2c0-.2.3-.6.6-1h-2.5l-3.3 3.8c-1.2.7-3.4 3.1-5 4.6.2-.2 0 .2-.2.5-.4.3-.8 1.2-1 .9l.2-.1c-.5 0-1.2.8-1.8 1.4l.2.4a11.9 11.9 0 0 0-2.5 2.2zm3.7 19.3h-.5c-1 1.1-2.2 2-3.2 3.2v2.2a60.3 60.3 0 0 1 5-4.7c0-.5 2-1.7 1.8-2.2a21 21 0 0 0 2.4-1.8c.5-.4.4-.8.9-1.3l.2.1.4-.8.6-.1.4-.5-.5.2a5.5 5.5 0 0 1 2-1.5l1.4-1.8-.4.7c.8-1.1.4 0 1-1v-.3a12.6 12.6 0 0 0 2-1.9v.2l4-4c-.6.5-.6.2-.3-.2h.4c.1-.4-.5.3-.1-.4.5-.4.5-.1.3.3l.6-.7v.3c.1-.4 1.2-1 1.4-1.5h.1l3-3.2c0-.2.4-.6.6-1 .9-.8 2-1.6 3-2.6.5-.8 0-.3.2-.7.2 0 1.2-1 .8-.3l2.9-3.2-.4.1c.2-.3.7-.6.7-.5v.1c1.1-1.5 3.2-2.9 4.5-4.2h-2.7a40.7 40.7 0 0 1-3.7 3.9v-.2c-.2.3-.3.6-.8 1v-.2a5.9 5.9 0 0 1-1 1.2l.2-.4c-1.6 1.4-2 2.5-3.2 3.8-.2-.3-1.4.8-2 1.3-1.7 1.7-2.7 3-4.2 4.7-1.2.8-3.4 3.2-5 4.7.2-.2 0 .2-.2.5s-.8 1.2-1 .9l.2-.1c-.5 0-1.2.8-1.8 1.4l.2.4c-2 1.1-4 4.2-5.1 4.6l-1 1.4-.2-.2-2.8 2.8.1-.4c-.8.7-.6 1.3-1.2 2zm-3.3 25.2l.2.4a4.9 4.9 0 0 1 .5-.5c-.1 0-.9.6-.5-.2zm.2.6a8.6 8.6 0 0 0 .5 1h.1v.2l3.6-3.2.5-.7c0-.2.3-.2.2 0 .6-.6-.1-.2.1-.5s.5-.4.4-.1a24.6 24.6 0 0 1 3.8-4l-.2.2c1-.8.6-1.3 1.6-1.9l-.2.2a70.6 70.6 0 0 1 5.4-5c0-.5 1.9-1.7 1.7-2.1a19.6 19.6 0 0 0 2.5-1.9c.4-.4.3-.8.8-1.3l.2.2.4-.8.6-.2.4-.5c-.2.2-.5.3-.5.2a5.5 5.5 0 0 1 2-1.5l1.5-1.8-.4.7c.7-1 .3 0 1-1-.2.1 0-.1 0-.2a13.2 13.2 0 0 0 2-2v.3l3.9-4c-.6.5-.6.1-.2-.3h.3c.1-.3-.5.4 0-.3.4-.5.4-.1.2.2l.6-.7v.3c.1-.3 1.2-.9 1.4-1.4h.1l3-3.2c0-.2.4-.6.6-1 .9-.8 2-1.6 3-2.6.5-.8 0-.4.2-.8.2.1 1.2-.9.8-.3l2.9-3.1c-.2 0-.5.2-.4 0l.7-.4v.1c1.5-1.9 4.3-3.5 5.4-5.1l1.2-1.5c.6-.6-.3.5.2 0 1.3-1.6 2.5-2.3 3.6-3.7 1.3-.5 3.3-3.4 4.9-4.4h-.2c.3-.5.5-.4.8-.6-.1 0-.5.3-.3 0l.2-.2H227l-3.2 3c.9-.2-.5.5 0 .8l-.7.5-1.4 1c-.3.2.4-.4.2-.4-.9.8-.5.2-1.1.7.2 0-.2.4-.7.9l.9-.6c-1 1.4-1.4.8-2.4 2.2l.3-.5c-.6.7-2.3 2.3-2.7 3.2-.1 0-.3 0-.1-.2-1.5 1.5-3 3.6-4.4 4.6v-.2c-.2.3-.3.6-.7.9 0 0 0-.2-.1 0a6.4 6.4 0 0 1-1 1.1l.2-.4c-1.5 1.4-2 2.5-3.2 3.7-.2-.2-1.4.9-2 1.4-1.7 1.7-2.7 3-4.2 4.7-1.2.7-3.4 3.2-5 4.6.2-.2 0 .3-.2.6-.4.3-.9 1.1-1 .9l.1-.2c-.4.1-1.1 1-1.7 1.5l.1.4c-2 1.1-3.8 4.2-5 4.6l-1.1 1.4-.1-.2-2.9 2.8.2-.4c-.7.7-.5 1.4-1.1 2h-.5a33.2 33.2 0 0 0-3.7 3.8l.1-.4c-.6.6-2.4 2.1-1.9 2.2-.2-.1-1.3 1.3-1.9 2v-.2a5.3 5.3 0 0 1-1 1.7c-.3.1-.4 0 0-.2-.8.6-.4.6-1.3 1.3l.2-.4a2.5 2.5 0 0 0-.8 1.1c-.3.5-1.2 1.2-1.5 1.2a1.8 1.8 0 0 1-.6 1v-.3a10.7 10.7 0 0 0-1.5 1.5zm17.9 4.5v-.2a6.4 6.4 0 0 1-.5.9h1.7a12.7 12.7 0 0 1 1.5-1.3l-.2.3c.9-.8.6-1.3 1.5-1.9v.2a68.6 68.6 0 0 1 5.2-5c0-.5 2-1.7 1.7-2.1a21.1 21.1 0 0 0 2.5-1.9c.4-.4.4-.8.9-1.3l.1.2.5-.8.5-.2.5-.5c-.2.2-.5.3-.5.2a5.9 5.9 0 0 1 2-1.5l1.4-1.8-.4.7c.7-1 .4 0 1-1-.1.1 0-.1 0-.2a12 12 0 0 0 2-2v.3l4-4c-.6.5-.7.2-.3-.3h.4c.1-.3-.5.4-.1-.3.5-.5.5-.1.3.2l.5-.7v.3c.2-.3 1.3-.9 1.5-1.4l3.1-3.2c0-.2.4-.6.6-1l2.9-2.6c.6-.8 0-.3.3-.8.2.1 1.2-.9.7-.3l3-3.1c-.3 0-.5.2-.4 0 .2-.2.6-.5.7-.4v.1c1.4-1.9 4.2-3.5 5.3-5.1l1.2-1.5c.6-.6-.3.5.3 0 1.2-1.6 2.4-2.3 3.5-3.7 1.3-.5 3.4-3.4 5-4.5h-.2c.2-.4.5-.3.7-.5 0 0-.4.2-.3 0 2.8-3 6-5.8 9-8.6 1.1-1 .2-1 1.7-2.2l-.2.5 1.2-1.2H250a3.8 3.8 0 0 1-.4.4v-.1c-1 1-.9 1.3-2 2.4h.2c-.5.8-.7.4-1.2 1.1h-.4c-.3.5-1.2 1.7-2 2.5a19.5 19.5 0 0 1 1.6-2.2 10 10 0 0 0-1.5 1.8 2.8 2.8 0 0 1 .5-.6 9 9 0 0 1-1.8 2.2c-.3-.5-2.2 2-3.1 2.3-1.3 1.6-3 2.8-4.6 4.6.9-.3-.5.5-.1.7l-.6.6-1.4 1c-.4.1.3-.5.2-.5-.9.8-.5.2-1.1.7.2 0-.2.4-.7.9l.8-.5c-1 1.3-1.3.7-2.3 2.1l.3-.5c-.6.7-2.3 2.3-2.7 3.2-.1 0-.4.1-.1-.2-1.6 1.5-3 3.6-4.4 4.6v-.2l-.7 1c0-.1 0-.3-.2-.2a5.7 5.7 0 0 1-1 1.2l.3-.4c-1.6 1.4-2 2.5-3.2 3.8-.2-.3-1.5.8-2 1.3v-.1c-1.8 1.7-2.7 3-4.2 4.7-1.2.8-3.4 3.2-5.1 4.6.3-.2.1.3-.1.6-.4.3-.9 1.1-1 .9l.1-.2c-.5.1-1.2 1-1.8 1.5l.2.4c-2 1.1-3.9 4.1-5 4.6l-1.1 1.4-.2-.2-2.8 2.8.1-.4c-.7.7-.4 1.4-1 2h-.5a34.2 34.2 0 0 0-3.8 3.8l.2-.4c-.6.6-2.4 2.2-2 2.2-.2-.2-1.3 1.3-2 2zm24.1-1.9l-1 1.4-.2-.2-1.5 1.4h2.8l.5-.4c.4-.4.4-.8.8-1.3l.2.1.5-.8.5-.1.4-.5-.4.2a5.6 5.6 0 0 1 1.9-1.5l1.5-1.8-.4.7c.7-1.1.3 0 1-1-.1 0 0-.1 0-.2a12.6 12.6 0 0 0 2-2v.3c1.3-1.2 2.5-2.7 4-4-.6.4-.7.1-.3-.3h.3c.2-.4-.5.4 0-.3.5-.5.5-.2.2.2l.6-.7v.3c.2-.4 1.3-1 1.4-1.5h.1c1.4-1.3 2-2 3.1-3.2-.1-.1.3-.5.6-1 .8-.7 1.9-1.5 2.9-2.6.6-.7 0-.3.3-.7.1 0 1.1-1 .7-.3l3-3.2-.5.2.7-.5c1.5-1.8 4.3-3.4 5.4-5h-.1l1.3-1.5c.6-.7-.3.5.2 0 1.3-1.7 2.5-2.3 3.6-3.7 1.3-.6 3.3-3.4 4.9-4.5h-.2c.3-.4.5-.3.8-.6-.2 0-.5.3-.3 0 2.7-3 6-5.7 9-8.5 1-1 0-1.1 1.7-2.2l-.3.5c2-2.4 4.5-4.4 6.4-6.7-.1.2 0 .3-.3.5a5 5 0 0 0 1.6-1.8c.3-.3.2 0 .4-.1.5-.4 1-1.3 1.4-1.4l-.2.2c.2-.3 1.4-1.3 1-1.2l2-2h-2l-2.2 2.2.1-.1c-1 .8-.2.8-1.4 1.7-.7.4.5-.6.1-.3-.5-.2-1.2 1.3-2 1.7v-.1c-.6.4-1 1.4-2 2.2a20.3 20.3 0 0 1-2.2 2.8c.1-.4.3-.5 0-.5-.3.4.3.1-.4 1-.3 0-.9.6-1 .5l.6-.7c-.5.2-.9.9-1.3 1.2v-.1c-1 1-.9 1.3-2 2.5l.2-.1c-.4.8-.7.4-1.1 1.2h-.4l-2 2.4a18 18 0 0 1 1.5-2.1 10.7 10.7 0 0 0-1.5 1.7 2.7 2.7 0 0 1 .5-.6 9.4 9.4 0 0 1-1.7 2.3c-.3-.6-2.3 2-3.2 2.3-1.3 1.6-3 2.8-4.6 4.5 1-.3-.5.5 0 .7a3.1 3.1 0 0 1-.6.6l-1.4 1c-.4.2.3-.5.2-.5-1 .8-.5.2-1.2.7.2 0-.1.5-.7 1l.9-.6c-1 1.4-1.3.8-2.4 2.1l.3-.4c-.6.6-2.3 2.3-2.6 3.1-.2.1-.4.2-.2-.1-1.5 1.4-3 3.5-4.3 4.5v-.1l-.8.9v-.1a6.1 6.1 0 0 1-1 1.2l.1-.4c-1.5 1.3-2 2.4-3.1 3.7-.3-.2-1.5.8-2 1.4-1.8 1.6-2.8 3-4.2 4.7-1.3.7-3.4 3.2-5.2 4.6.3-.2.2.2 0 .5s-1 1.2-1 1v-.2c-.4 0-1.1.9-1.7 1.5l.2.3c-2.1 1-4 4.1-5.3 4.6zm82.8-57.4l3.6-4h-2l-.4.4.5-.4c0 .3-.8.8-1.2 1.3 0-.2-.3 0-.6.2.1 0-.9.9-.8 1.2l-.7.4c-1.1 1-.9 1.5-2 2.5.3-.4-.2 0 .3-.8-.3.3-.6.6-.5.7-.3.1-.8 1-1.2 1.2a1.4 1.4 0 0 1-.4.7s-.6.6-.1.4c-1.4.7-2.9 2.9-4 3.5l-2.2 2.3v-.2c-1 .8-.2.9-1.3 1.8-.7.3.4-.6 0-.4-.4-.2-1.1 1.3-2 1.8l.1-.2c-.6.4-1.1 1.4-2 2.3 0 0 0-.1 0 0a20.1 20.1 0 0 1-2.3 2.7c.1-.4.3-.4 0-.4-.3.4.3.1-.4.9-.3.1-.9.6-1 .5l.6-.7c-.5.2-.9 1-1.3 1.3v-.1c-1 1-.8 1.3-2 2.4h.2c-.4.8-.7.4-1.1 1.1h-.4l-2 2.5a21.5 21.5 0 0 1 1.5-2.2 10 10 0 0 0-1.5 1.8 2.5 2.5 0 0 1 .5-.6 9 9 0 0 1-1.8 2.2c-.2-.5-2.2 2-3.1 2.3-1.3 1.6-3 2.8-4.6 4.6.9-.3-.5.5 0 .7l-.7.6-1.4 1c-.3.1.4-.5.3-.5-1 .8-.6.2-1.2.7.2 0-.1.4-.7.9l.9-.5c-1 1.3-1.3.7-2.4 2.1l.3-.5c-.6.7-2.3 2.3-2.7 3.2-.1 0-.3.1 0-.2-1.6 1.5-3 3.6-4.4 4.6v-.2l-.8 1s0-.3-.1-.1a6.4 6.4 0 0 1-1 1.1l.2-.4c-1.6 1.4-2 2.5-3.2 3.8-.2-.3-1.4.8-2 1.3-1.8 1.7-2.7 3.1-4.2 4.8a35.7 35.7 0 0 0-4 3.6h2.8l1-1c-.6.4-.7.1-.3-.3h.4c.1-.4-.5.4-.1-.3.5-.5.5-.1.3.2l.5-.7v.3c.2-.4 1.3-.9 1.5-1.5 1.5-1.3 2-2 3.1-3.1 0-.2.4-.6.6-1 .9-.8 2-1.6 2.9-2.6.6-.8 0-.4.3-.8.2.1 1.2-.9.8-.3l2.8-3.1c-.2 0-.4.2-.3 0 .2-.2.6-.5.7-.4v.1c1.4-1.9 4.2-3.5 5.3-5.2v.1l1.2-1.5c.7-.6-.3.5.3 0 1.2-1.7 2.4-2.3 3.5-3.7 1.3-.5 3.4-3.4 5-4.5h-.2c.2-.4.4-.3.7-.5-.1 0-.5.2-.3 0 2.7-3 6-5.8 9-8.6 1-1 .1-1 1.7-2.2l-.2.5c2-2.3 4.4-4.4 6.3-6.6l-.2.4a4.8 4.8 0 0 0 1.5-1.8c.4-.3.2 0 .5-.1.5-.4 1-1.3 1.3-1.4l-.2.3c.2-.4 1.4-1.4 1-1.2l2.1-2.2c.3-.5 1.5-1.2 1.4-1.6.1.3 1.5-1.2 2-1.8-.1.2.5-.4.4 0 .5-.7 1-1.2.8-1.2 1.3-.9 1.8-2.4 2.8-2.7zm3.9-4h-.1c-.4.4-.8.8-.6.9l.7-.9zm22.1 0h-1.6a.6.6 0 0 1 0 .1c-.5.3-1 1-1.3 1 1.1-1-.2 0 .6-1a4.5 4.5 0 0 1-.6.7v-.2c-1.1.9-.2.7-1.3 1.7 0-.2-.4 0-.5.2.4-.4.3 0 0 .4-.7.6-.6.8-1 1.1l.5-.3c0 .2-.4.5-.8 1-.1 0 .3-.5.1-.4-.3.7-1.3 1-1.9 1.8-.4.3-.2-.1-.5.1-.7 1-1 .7-1.7 1.7.3-.1.3-.2-.1.5l1.3-1.5-.7 1.1 1-1.2c-.3.6-.3.5 0 .4-.7.4-1 1.2-1.8 1.7l-.2-.3c-1.2.8-1.6 1.9-3 3l.5-.3c0 .3-.8.8-1.1 1.3-.1-.1-.4 0-.6.2 0 0-1 1-.9 1.2l-.7.5c-1 1-.9 1.4-1.9 2.4.2-.4-.3 0 .2-.8-.3.3-.6.6-.5.7-.3.1-.8 1-1.2 1.3a1.3 1.3 0 0 1-.4.7s-.5.6 0 .4c-1.4.7-2.9 2.9-4 3.5L293 401l.1-.2c-1 .8-.2.9-1.4 1.8-.6.3.5-.7.1-.4-.5-.2-1.2 1.3-2 1.8v-.2c-.6.4-1 1.4-2 2.2a19.6 19.6 0 0 1-2.2 2.8c.1-.4.3-.4 0-.4-.4.4.3 0-.4.9-.3.1-.9.6-1.1.5l.7-.7c-.6.2-1 1-1.3 1.3v-.2c-1 1.1-.9 1.4-2 2.5h.1c-.4.8-.6.3-1 1.1h-.5c-.3.5-1.2 1.7-2 2.5a19.5 19.5 0 0 1 1.5-2.2 10.9 10.9 0 0 0-1.5 1.7 2.8 2.8 0 0 1 .5-.5 9 9 0 0 1-1.7 2.2c-.3-.6-2.2 2-3.2 2.3-1.3 1.6-2.9 2.8-4.6 4.5 1-.2-.5.5 0 .8a2.8 2.8 0 0 1-.6.5l-1.4 1c-.4.2.3-.4.2-.4-.9.8-.5.2-1.2.7.3 0 0 .4-.6.9l.8-.6c-1 1.4-1.3.8-2.3 2.2l.2-.5c-.5.7-2.3 2.3-2.6 3.2-.2 0-.4.1-.1-.2-1.6 1.5-3 3.6-4.4 4.6v-.2c-.3.3-.3.6-.8.9 0 0 0-.2 0 0a6.2 6.2 0 0 1-1 1.1l.2-.4a12 12 0 0 0-2 2.1h2.5l2.7-3-.4.2c.2-.3.7-.6.7-.5 1.4-1.8 4.2-3.5 5.3-5l1.2-1.5c.7-.7-.3.4.3 0 1.3-1.7 2.4-2.3 3.5-3.7 1.4-.6 3.4-3.4 5-4.5h-.2c.2-.4.4-.3.7-.6-.1 0-.5.3-.3 0 2.7-3 6-5.7 9-8.5 1.1-1 .1-1.1 1.7-2.3l-.2.6c2-2.4 4.4-4.4 6.3-6.7l-.2.4a5 5 0 0 0 1.5-1.7c.4-.3.2 0 .5-.1.5-.4 1-1.3 1.3-1.4l-.2.2c.3-.3 1.4-1.3 1-1.2.8-.7 1.4-1.6 2.1-2.1.3-.6 1.5-1.3 1.4-1.6.2.3 1.6-1.2 2-1.8-.1.2.5-.4.4-.1.6-.6 1-1.2.8-1.2 1.4-.7 1.9-2.3 2.9-2.5 1.5-1.9 3-3.5 4.5-5.1.2.3-1.7 1.7-1.4 1.9a41.3 41.3 0 0 1 3.5-4c.4-.4-.1.3-.2.5l4-4.2s0 .2-.2.3l.5-.6-.2.2c-.6.3.7-1.3.6-1.4 0 .7 1.4-1.2 1-.1l.3-.5c.2-.2.4-.3.2 0 .8-1 .4-.7 1.2-1.5v.4a6.6 6.6 0 0 1 .8-1.3zm22 .5l.1-.3.3-.2h-1.2c-.7.7-1.6 1.1-1.8 1.3-1 .8-.6 1.1-1.6 2 .2 0 .5 0-.2.8s-1 .5-.7 0l.3-.1c.2-.3.4-.6 0-.4v.2c-.3.2-1.2 1.1-1.1.8-.4.6-.1.3.3 0l-2.3 2.1h.3c-1.4 1.2-.5.7-1.3 1.6-.6.4 0-.4-.8.6-.6.4-.3-.1-.2-.4a11 11 0 0 1-2 1.9l.4-.5a7.3 7.3 0 0 1-.6.7l.3-.1c-.2.2-.4.4-.5.3-.2.4.4 0 0 .7-.4.2-1 1-1.2 1 1-1-.3 0 .6-1a3.6 3.6 0 0 1-.7.6v-.1c-1 .8-.2.6-1.2 1.6 0-.2-.4.1-.6.3.5-.4.4 0 0 .4l-1 1.1.5-.4c0 .3-.4.6-.8 1-.1 0 .4-.4.2-.3-.4.7-1.3 1-2 1.8-.3.3-.1-.1-.5.1-.6 1-1 .7-1.7 1.7.4-.2.4-.2 0 .5l1.2-1.5-.7 1c.4-.3.8-1 1-1-.2.4-.2.4 0 .3-.7.3-1 1.2-1.7 1.7l-.3-.3c-1.1.8-1.6 1.9-3 3l.5-.3c0 .3-.7.8-1.1 1.3 0-.2-.4 0-.6.2.1 0-1 .9-.8 1.2l-.7.4c-1.1 1-1 1.5-2 2.5.2-.4-.3 0 .3-.8l-.6.7c-.2.1-.7 1-1.2 1.2a1.3 1.3 0 0 1-.4.7s-.5.6 0 .4c-1.4.7-2.9 2.9-4 3.5l-2.2 2.3v-.2c-1 .8-.2.9-1.3 1.8-.7.4.4-.6 0-.4-.5-.2-1.2 1.3-2 1.8v-.2c-.6.4-1 1.4-2 2.3 0 0 0-.1 0 0a20.3 20.3 0 0 1-2.2 2.7c.2-.4.3-.4 0-.4-.3.4.4.1-.3.9-.4.2-1 .6-1.2.5l.7-.7c-.5.2-.9 1-1.3 1.3v-.1c-1 1-.8 1.3-2 2.4h.2c-.4.8-.6.4-1.1 1.2h-.4l-2 2.4a19.3 19.3 0 0 1 1.5-2.2 10.3 10.3 0 0 0-1.5 1.8 2.7 2.7 0 0 1 .5-.6 9.4 9.4 0 0 1-1.7 2.2c-.3-.5-2.3 2-3.2 2.3-1.3 1.6-3 2.9-4.6 4.6 1-.3-.5.5 0 .7a2.8 2.8 0 0 1-.6.6l-1.4 1c-.4.2.3-.5.2-.5-.9.8-.5.2-1.2.7.3 0-.1.5-.6 1l.8-.6c-.8 1-1.1 1-1.7 1.4h2.6a21.8 21.8 0 0 0 2-2.1c1.5-.6 3.5-3.5 5-4.5h-.1c.2-.4.4-.4.7-.6-.1 0-.5.3-.3 0 2.7-3 6-5.7 9-8.6 1-1 .1-1 1.7-2.2l-.2.6c2-2.4 4.4-4.4 6.3-6.7l-.2.4a5 5 0 0 0 1.5-1.7c.4-.4.2 0 .5-.2.5-.3 1-1.3 1.3-1.4l-.2.3c.3-.4 1.4-1.3 1-1.2.8-.7 1.4-1.6 2.1-2.1.3-.6 1.5-1.3 1.4-1.7.2.3 1.6-1.2 2-1.8-.1.3.5-.3.4 0 .6-.6 1-1.2.8-1.2 1.4-.8 1.9-2.4 2.9-2.6 1.5-1.8 3-3.5 4.5-5 .2.2-1.7 1.7-1.4 1.8a43.9 43.9 0 0 1 3.5-4c.4-.3-.1.4-.2.5l4-4.2-.2.4c.3-.3.6-.6.5-.7l-.2.3c-.6.3.7-1.3.6-1.5-.1.8 1.4-1.1 1 0 .2-.3.4-.5.3-.6.2-.2.4-.2.2.1l1.2-1.6-.1.4a6.2 6.2 0 0 1 1.4-1.7l-.1.3a44 44 0 0 1 3.2-3.5c-.2.6.5-.4.7-.3l.7-.7-.4.1c.6-.6 1-1.3 1.6-1.7l-.4.5 1.2-1.2-.8.6c.6-.7-.3-.2.6-1a9.4 9.4 0 0 1 1-.8 4.5 4.5 0 0 1 1-1.2c.2 0 .2.3.3.3.1-.5 1.4-1.5 1.6-2-.3.1-.2.3-.1.2zm-.9-.5h-.2a4.3 4.3 0 0 1-.4.3c-.1.3.3-.2.6-.3zm1.5 0zm14.3 8.5l3-3.4a7 7 0 0 0-.3-.6h-.2a7 7 0 0 1-1.4 1.4c.5-.7-.2 0 .5-.6a6.6 6.6 0 0 0-1.6 1.6c.1-.4-.7.3-1 .7l.6-.4-1 1v-.3c-1.6 1.2-2.2 2.9-3.6 3.6-.3.5.8-.7.6-.2a16.9 16.9 0 0 1-1.8 1.3c-1 .8-.6 1-1.6 2 .2 0 .5 0-.2.8s-1 .5-.7 0l.3-.2c.2-.2.4-.5.1-.3v.1c-.4.3-1.3 1.2-1.2.9-.4.6 0 .3.3 0-1 .7-1.3 1.3-2.2 2.1.1 0 .3-.1.2 0-1.4 1.2-.4.7-1.3 1.6-.6.4 0-.4-.8.5-.6.5-.3 0-.1-.3a10.7 10.7 0 0 1-2 1.8l.3-.4a6.3 6.3 0 0 1-.6.7l.4-.2c-.3.3-.5.5-.6.4-.1.4.4 0 0 .6-.4.3-.9 1.1-1.2 1 1.1-1-.3 0 .6-1a5.1 5.1 0 0 1-.6.7v-.2c-1.1.8-.2.7-1.3 1.7 0-.2-.4 0-.5.2.4-.4.3 0 0 .4-.7.6-.6.8-1 1.1l.5-.3c0 .2-.4.5-.8 1-.2 0 .3-.5.1-.4-.3.7-1.3 1-1.9 1.8-.4.3-.2-.1-.5.1-.7 1-1 .8-1.7 1.7.3-.1.3-.2-.1.5l1.3-1.4-.7 1 1-1.2c-.3.6-.3.5 0 .4-.7.4-1 1.2-1.8 1.7l-.3-.3c-1 .9-1.5 2-2.9 3.1l.4-.3c0 .3-.8.8-1.1 1.3-.1-.2-.4 0-.6.1 0 .1-1 1-.9 1.3l-.7.4c-1 1-.9 1.5-1.9 2.4.2-.4-.3 0 .3-.7-.4.3-.7.6-.6.7-.3 0-.8 1-1.2 1.2a1.4 1.4 0 0 1-.4.7s-.6.6-.1.4c-1.4.7-2.8 2.9-4 3.5l-2.2 2.3.1-.2c-1 .8-.3.9-1.4 1.8-.7.3.5-.7 0-.4-.4-.2-1.1 1.3-2 1.8l.1-.2c-.6.4-1.1 1.4-2 2.2a20.1 20.1 0 0 1-2.3 2.8c.2-.4.4-.5 0-.4-.3.4.4 0-.3.9-.3.1-1 .6-1.2.5l.7-.7c-.5.2-.9 1-1.3 1.3v-.2c-1 1.1-.8 1.4-2 2.5h.2c-.4.8-.6.3-1 1.1h-.5c-.4.5-1.2 1.7-2 2.5a21.5 21.5 0 0 1 1.5-2.2 10 10 0 0 0-1.5 1.7 2.8 2.8 0 0 1 .5-.5 9 9 0 0 1-1.6 2.1h1.6l5-4.5c1-1 0-1 1.6-2.2l-.2.5c2-2.3 4.4-4.4 6.3-6.6l-.2.4a4.8 4.8 0 0 0 1.6-1.8c.3-.3.1 0 .4 0 .5-.5 1-1.4 1.3-1.5 0 0 0 .2-.2.3.3-.4 1.4-1.4 1-1.2.8-.8 1.4-1.6 2.2-2.2.2-.5 1.4-1.2 1.3-1.6.2.3 1.6-1.2 2-1.8-.1.2.5-.4.4 0 .6-.6 1-1.2.8-1.2 1.4-.8 2-2.4 2.9-2.6 1.5-1.8 3-3.5 4.5-5 .2.2-1.7 1.6-1.4 1.8a42.7 42.7 0 0 1 3.5-4c.4-.3 0 .3-.2.5l4-4.2-.2.4c.3-.3.6-.6.5-.7l-.2.3c-.6.2.7-1.3.6-1.5 0 .8 1.4-1.2 1 0 .2-.3.4-.5.3-.6.2-.2.4-.2.2.1.9-1 .4-.8 1.2-1.6v.4a6.6 6.6 0 0 1 1.3-1.7l-.1.3a43.9 43.9 0 0 1 3.2-3.6c-.2.7.5-.3.8-.2l.6-.8-.4.2a22.3 22.3 0 0 1 1.6-1.7l-.3.5 1-1.2-.6.6c.5-.8-.4-.2.5-1a12 12 0 0 1 1-.8 4.5 4.5 0 0 1 1-1.2c.3 0 .2.3.3.3.2-.5 1.4-1.5 1.6-2v.2l.2-.3c.3-.3.4-.3.4-.2 1-.8-.5 0 .6-.9l-.1.3 2.9-3c.4 0-.9 1-.4.8zM360 402v-.3l-.2.2h.2zm0 1.3v-.1l-.5.4c.5-.7-.3-.2.5-.9v-.6a2 2 0 0 1-.4.6c-.7.6-1 .5-.7 0l.3-.1c.2-.3.4-.6 0-.4v.2c-.3.2-1.2 1.1-1 .8-.5.6-.2.3.2 0-1 .8-1.3 1.3-2.2 2.1.1 0 .3-.1.2 0-1.4 1.2-.5.7-1.3 1.6-.6.4 0-.4-.8.5-.6.5-.3 0-.1-.3a10.6 10.6 0 0 1-2 1.9l.3-.5a7.3 7.3 0 0 1-.6.7l.4-.1c-.3.2-.5.4-.6.3-.1.4.4 0 0 .7-.4.2-.9 1-1.2 1 1.1-1-.2 0 .6-1a4.5 4.5 0 0 1-.6.6v-.1c-1.1.8-.2.6-1.3 1.6 0-.2-.4.1-.5.3.4-.4.3 0 0 .4-.7.6-.6.8-1 1.1l.5-.4c0 .3-.4.6-.8 1-.2 0 .3-.4.1-.3-.3.7-1.3 1-1.9 1.8-.4.3-.2-.1-.5 0-.7 1-1 .8-1.7 1.8.3-.2.3-.2-.1.5l1.3-1.5-.7 1 1-1.1c-.3.5-.3.5 0 .4-.7.3-1 1.2-1.8 1.7l-.3-.3c-1 .8-1.5 1.9-2.9 3l.5-.3c0 .3-.8.8-1.2 1.3 0-.2-.3 0-.6.2.1 0-.9.9-.8 1.2l-.7.4c-1 1-.9 1.5-2 2.5.3-.4-.2 0 .3-.8-.3.3-.6.6-.5.7-.3 0-.8 1-1.2 1.2a1.3 1.3 0 0 1-.4.7s-.6.6-.1.4c-1.4.7-2.9 2.9-4 3.5l-2.2 2.3v-.2c-1 .8-.2.9-1.3 1.8-.7.4.4-.6 0-.4-.4-.2-1.1 1.3-2 1.8l.1-.2c-.6.4-1.1 1.4-2 2.3v-.1h2.1l1.4-1.4-.2.4a5 5 0 0 0 1.5-1.8c.3-.3.2 0 .4-.1.6-.4 1-1.3 1.4-1.4l-.2.3c.2-.4 1.4-1.4 1-1.2l2.1-2.2c.3-.5 1.5-1.2 1.3-1.6.2.3 1.6-1.2 2-1.8 0 .2.6-.4.5 0 .5-.6 1-1.2.8-1.2 1.3-.8 1.9-2.4 2.8-2.6 1.6-1.8 3-3.5 4.6-5 .1.2-1.7 1.6-1.4 1.8a42.7 42.7 0 0 1 3.5-4c.4-.3-.1.3-.2.5l4-4.2a1.2 1.2 0 0 1-.2.4c.2-.3.6-.6.5-.7l-.3.3c-.5.2.7-1.3.7-1.5-.1.8 1.3-1.2 1 0 .2-.3.3-.5.2-.6.3-.2.4-.2.3.1.8-1 .4-.8 1.2-1.6l-.1.4a6.2 6.2 0 0 1 1.3-1.7s.2 0 0 .3a45.8 45.8 0 0 1 3.1-3.6c-.1.7.5-.3.8-.2l.7-.8-.4.2a20.6 20.6 0 0 1 1.6-1.7l-.4.5zm0 22.9v-2l-1 1 .4-.3c0 .3-.3.6-.8 1 0 0 .4-.4.2-.3-.3.7-1.3 1-2 1.8-.3.3-.1-.2-.5 0-.6 1-1 .8-1.7 1.7.4 0 .4-.1 0 .6l1.2-1.5-.7 1 1-1.1c-.2.5-.2.4 0 .4-.7.3-1 1.2-1.7 1.7l-.3-.3c-1.1.8-1.6 1.9-3 3l.5-.3c0 .3-.7.8-1 1.3-.2-.2-.5 0-.7.2.1 0-1 .9-.8 1.2l-.7.4c-1.1 1-1 1.5-2 2.5.2-.5-.3 0 .3-.8l-.6.7c-.2 0-.7 1-1.2 1.2a1.3 1.3 0 0 1-.3.7h2l.5-.8c1.3-.8 1.9-2.4 2.8-2.6 1.6-1.8 3-3.5 4.5-5 .2.2-1.6 1.6-1.3 1.8a42.5 42.5 0 0 1 3.5-4c.4-.3-.1.3-.2.5l3.6-3.7zM344.5 440zm15.5-16.3z" id="Shadow_2" data-name="Shadow 2"/><g id="Button_2" data-name="Button 2"><path class="cls-10" d="M375.6 464H200.4a8.4 8.4 0 0 1-8.4-8.4v-47.2a8.4 8.4 0 0 1 8.4-8.4h175.2a8.4 8.4 0 0 1 8.4 8.4v47.2a8.4 8.4 0 0 1-8.4 8.4z"/><rect class="cls-2" x="272" y="421" width="96" height="4" rx="2" ry="2"/><rect class="cls-2" x="272" y="439" width="57.6" height="4" rx="2" ry="2"/><path class="cls-2" d="M256 428a2 2 0 0 1-1.6-.8c-.3-.3-7.6-9.2-22.4-9.2s-22.1 8.9-22.4 9.3a2 2 0 0 1-2.8.3 2 2 0 0 1-.4-2.8c.4-.5 8.8-10.8 25.6-10.8s25.2 10.3 25.6 10.8a2 2 0 0 1-1.6 3.2zm-24 22a33.4 33.4 0 0 1-25.6-10.8 2 2 0 0 1 3.2-2.4c.3.3 7.6 9.2 22.4 9.2s22.1-8.9 22.4-9.3a2 2 0 0 1 3.2 2.6c-.4.4-8.8 10.7-25.6 10.7z"/><path class="cls-2" d="M232 424a8 8 0 1 1-8 8 8 8 0 0 1 8-8m0-4a12 12 0 1 0 12 12 12 12 0 0 0-12-12z"/></g><g id="Veronica"><path class="cls-11" d="M513.7 203.7a33 33 0 0 1-24.5 8.2 22 22 0 0 1-3.6-.7l-1.2 32.7c.9 2.7 4.4 9 18.4 9 18 0 17.3-12.5 17.3-12.5l.2.4z"/><path class="cls-11" d="M529.2 160.7a11.7 11.7 0 0 0-3.6.3c-25.6.1-33.6-21.2-36.1-36.5-17.6 3.3-24.7 20.3-25 41-.3 24.6 7.2 44.9 24.7 46.3 14.7 1.2 30.6-7.4 36.5-28a13.8 13.8 0 0 0 1.6.3 11.7 11.7 0 0 0 2-23.4z"/><path d="M527.4 177.6s6.9 1.2 7.3-5-6-6-6-6" stroke="#e6bbb6" stroke-linecap="round" stroke-miterlimit="10" fill="none"/><path class="cls-13" d="M457.5 411L448 527h142.6s-4-69.8-6.3-74.9-20.5-42.3-20.5-42.3z"/><path class="cls-14" d="M569 409c4 0 5.1 0 6.4 3.3s0 4.5 0 4.5a6.8 6.8 0 0 1 3.2 2.7c.9 1.7-.7 3.8-.7 3.8s1.8-.3 3 2a3.8 3.8 0 0 1 .4 1l25.4-17.3-17.5-23.6-25.3 24v.4l.3.6a16.2 16.2 0 0 1 4.7-1.4zm-66-251c14.1 10.1 28 0 37 13.9a11.7 11.7 0 0 0-14.4-10.9c-25.6.1-33.6-21.2-36.1-36.5 0 0-.5 23.5 13.5 33.5zm10.7 45.7a33 33 0 0 1-24.5 8.2 22 22 0 0 1-3.6-.7l-.2 4a20.8 20.8 0 0 0 6.8 1.7 33 33 0 0 0 22.6-6.7z"/><path class="cls-15" d="M584.3 452.1c-.7-1.6-3-6.6-6-12.5a132.9 132.9 0 0 1-26.4 11.1 3.9 3.9 0 0 1-3.1-2 7.6 7.6 0 0 0 6.5 4c4.6 0 12.7-2 12.7-2s6 6 6.2 7.1 3.8 68.3 3.8 69.2h12.5s-3.9-69.8-6.2-74.9z"/><path class="cls-11" d="M332 191.7c-.2-3.8-2.7-14.4-2.7-14.4s-10.4-9.7-10.6-12.3-12.7-25-15.6-26.6-6.7.7-5.2 3.9c0 0-2-3.8-4-5.2a3.7 3.7 0 0 0-5 0c-1.3 1-1 2.9-.3 4.4l1.3 2a5 5 0 0 0-5-1.6c-3.2.8-2.5 4.7-2.5 4.7l4.1 10.4s-2.2-3-5-1.6-1.4 5.1-1.4 5.1 3.8 8 8 15.2a9.7 9.7 0 0 1 1.2 3.1c.8 4.2 6.7 9.9 11.2 13.8a52.2 52.2 0 0 1 10.1 11.9L335 236l15.1-22.6c-10-11-18-20.3-18.1-21.8z"/><path class="cls-13" d="M588.2 253.2a24.3 24.3 0 0 0-4-9c-1.7-2.8-3.7-5.4-5.8-8-4.2-5.4-8.6-10.8-12.5-16.6a74 74 0 0 1-8.8-17.5 57.3 57.3 0 0 1-2.6-20.6c.5-13.3.5-26.6-3.6-39.5a65.7 65.7 0 0 0-8.4-17.5 61.2 61.2 0 0 0-12.2-13.5c-10-8-23.5-8.6-35.4-5a47.4 47.4 0 0 0-4.5 1.6l-.5.3a35 35 0 0 0-21.6 6.6c-6 4.4-9.4 10.9-11.4 18-2.2 7.6-3.3 15.6-4.4 23.4-1.2 8.3-2.2 16.7-4 25a62.3 62.3 0 0 1-3.8 12.7c-1.9 4.1-4.7 7.4-7.4 10.9-9 11.5-20.8 27.9-14.1 43.2a22 22 0 0 0 13.8 12.5c7.3 2 15-.8 21.2-4.8a44 44 0 0 0 5.1-3.9 42 42 0 0 0 4.2-4.8 23.7 23.7 0 0 1 10-6.6 25.5 25.5 0 0 1 7-1.7l1-27.2-1.5-.4-1.4-.6-1.4-.6h-.1l-1.3-.8-1.3-.8a4 4 0 0 1-1.2-1 31 31 0 0 1-2.3-2.2 26.2 26.2 0 0 1-1.8-2.2l-1.6-2.5-.1-.2a34 34 0 0 1-.7-1.2v-.2l-.7-1.2v-.2l-.8-1.7v-.1l-.7-1.7v-.2l-.7-1.8v-.1l-1-3.5-.4-1.7-.1-.7-.3-1.7v-.3l-.4-1.6v-.4l-.3-1.8a.8.8 0 0 0 0-.2l-.3-3v-.4l-.1-1.7v-.6l-.2-2.8v-8.4l.2-2.4.1-.8v-.6l1-6.5.1-.8 1-4.2.2-.6.5-1.3v-.2l.4-1 .7-1.8.4-1.1v-.1a34.5 34.5 0 0 1 2.5-4.4v-.1a30.3 30.3 0 0 1 3-3.9l1-1 1-.8a25.4 25.4 0 0 1 2.1-1.7l.2-.2a24.1 24.1 0 0 1 2.2-1.4 27.3 27.3 0 0 1 2.8-1.2 27.9 27.9 0 0 1 2.7-1l1.3-.3 1.5-.4.2 1.5v.5a1.4 1.4 0 0 0 0 .2v.1l.2.7v.1l.2 1v.4l.4 1.3v.1c0 .6.2 1.1.4 1.7l.4 1.5a1.4 1.4 0 0 1 0 .2l.5 1.4.7 2.2.2.4.3.9.3.5.3.8.3.7.6 1 .2.5.1.4.4.6.4.7.3.6.5.8.3.5.3.5.5.7.3.4.6.9 1 1.2 1 1 .3.5.1.1 1 1.1.6.5.6.6.5.3.1.2.8.6.3.2 1.3 1 .3.2.3.1.8.5 1.1.7.4.2.5.2c.4.3 1 .5 1.5.7l1.6.7.5.1h.2l1 .4.5.2.8.2.6.1.4.1.5.1 1.4.3h.4l1.5.3h.7l1.4.1h2.8a11.7 11.7 0 0 1 3.6-.2 9 9 0 0 1 1 .2h.5l.5.2.6.2h.2a11.7 11.7 0 0 1 6.2 5l.4.6c.2.2 0 .2.1.3l.3.6.2.6.1.3a9.5 9.5 0 0 1 .3 1v.4l.2.7v2.5a11.7 11.7 0 0 1-3.5 7.5h-.1l-.6.6a5 5 0 0 1-.5.3l-.4.4-.7.4-.6.3-.4.2-.7.3-.3.1-.9.2-.2.1a9.4 9.4 0 0 1-.9.2H527a13.8 13.8 0 0 1-1.6-.2l-.9 3-.2.4-1 2.6-.1.3a43.1 43.1 0 0 1-2.7 5.2l-1.6 2.4a35.4 35.4 0 0 1-5.5 6l6 33.8v.3l.1.7c1 5.7.8 11.6.7 17.4s-.5 11.5-.7 17.2c-.4 8.2-1 19.1 7.4 23.8 3.9 2.2 9 2.6 13.4 1.7a14.7 14.7 0 0 0 10.4-8c2-4 2.9-9.3 7.7-10.9 4-1.3 8.2-.5 12.2-1.6 10.6-3 19.4-14.3 17.7-25.1z"/><path class="cls-15" d="M539.6 169.7l.1.4.1.7v2.5a11.7 11.7 0 0 1-3.5 7.5l-.7.6a5 5 0 0 1-.4.4c-.2 0-.3.2-.5.3l-.6.4h-.1l-.5.3-.5.2-.7.3-.3.1-.8.3h-.2a9.4 9.4 0 0 1-1 .2l-1 .1h-1.8a13.8 13.8 0 0 1-1.6-.2l-1 2.9-.1.4-1 2.6-.1.4a43.1 43.1 0 0 1-2.8 5.2l-1.5 2.3h-.1a35.4 35.4 0 0 1-5.4 6l1.1 6.6c6-4.6 11.1-11.7 14-21.4a13.8 13.8 0 0 0 1.5.3 11.7 11.7 0 0 0 9.3-20.1l.1.7z"/><path d="M585.4 266.5a24.8 24.8 0 0 1-14.5 11.5c-4 1-8.3.3-12.2 1.6-4.8 1.6-5.7 7-7.7 11a14.7 14.7 0 0 1-10.4 8c-4.4.8-9.5.4-13.4-1.8-8.3-4.7-7.8-15.6-7.4-23.8v-2l.4-8.5.2-6.6a123.4 123.4 0 0 0-.3-15.5c0 1.2-.3 12.4-17.3 12.3-14 0-17.5-6.2-18.3-9l.1-5.3-1.5.1-.7.1-1 .2-.6.2-1.5.4-.4.1-1.2.4-.6.3-.6.2-1.1.5a28.4 28.4 0 0 0-4.7 2.7 19 19 0 0 0-3.2 3l-.7.9-.3.3a16.6 16.6 0 0 1-2.5 3l-.7.6-.5.5-1.7 1.4-.6.4-2 1.4-.3.2a29 29 0 0 1-18 5.4l-1.1-.1-.7-.1a18.2 18.2 0 0 1-8-3.7 19 19 0 0 1-.8-.6l-.2-.2a23.7 23.7 0 0 1-6.2-8.4 23 23 0 0 1-1.7-6c-16.2-1.6-33.3-3.6-36.5-5.6-3.5-2.2-30.5-29-30.5-29L330 243.8s32.5 37.2 36.1 40.7 79.7 11.7 79.7 11.7l-1.7 23 13.5 91.8 106.3-1.2 7.6-82.6s33 30.2 34.5 33.2-21.6 18.5-21.6 18.5l24.7 33.2s40.9-30.7 46.7-50c4.4-14.6-45.8-70-70.3-95.6z" fill="#6786f6"/><path class="cls-9" d="M488 124.9c0 .4.3.1.5.2.1.5-.2.3-.3.5l.5.7s-.1.1-.2 0c.3.3.2 1 .6 1.4a.6.6 0 0 1 .3 0c0 .1.2.2 0 .4v-.2.2c-.2.2-.1-.3-.3-.2l.5 1c-.3.2-.3-.6-.4-.2v-.5c-.3.5 0-.2-.4.2 0 .6.3.6.3 1.3.2 0 .2-.1.4 0 .5.8-.4.8 0 1.4.2 0 .5 0 .5.6l-.3-.1c0 .6.5.2.4.9l-.2-.4c-.1.5.3.3.3.6l-.2.1.9 2c-.1 0-.2-.2-.2 0a12.5 12.5 0 0 1 .7 2.7l.4.3s0 .1-.2 0c0 .4.2 0 .3.2s0 .2-.1.1a4.7 4.7 0 0 1 1 2.2v-.1c0 .5.6.3.6.8l.6 1.4a4 4 0 0 1 .6 1.4c.3 0 .4 1 .8.8a4.2 4.2 0 0 0 .3 1.3c.1.2.4.2.6.4l-.2.1.4.2v.3l.1.2v-.2a1.2 1.2 0 0 1 .4 1l.8.6-.4-.1c.5.3 0 .2.4.5h.1a2.3 2.3 0 0 0 .8 1h-.2a15.7 15.7 0 0 0 1.6 1.6c-.1-.2.1-.4.3-.2v.2c.1 0-.2-.2.2-.1.2.2 0 .3-.3.3l.4.2h-.3c.3 0 .3.7.7.7l1.5 1.2h.5a6 6 0 0 0 1.2 1.3c.4.1.2-.1.4 0 0 0 .4.4.1.4a6 6 0 0 0 1.6.8v-.2l.2.3a3.6 3.6 0 0 1 1.3 1 2.4 2.4 0 0 0 1.4.7l.8.2c.3.2-.3 0-.1.3 1 .1 1.3.6 2 .7a1.7 1.7 0 0 0 1.2.7 3.4 3.4 0 0 1 1.5.5v-.1c.2 0 .2.1.3.2 0-.1-.2-.2 0-.2l1.3.3 1.2.4a19.9 19.9 0 0 0 2.6.8c.6 0 .5-.7 1.2-.3l-.2.3a10.8 10.8 0 0 1 2 0 9 9 0 0 0 2 0c-.2 0-.2.2-.3.2.3.2 1 0 1-.1.2 0 0 .1.2.2s.6-.2.8 0h-.2c.2 0 .8 0 .7-.1h1.3c.2-.2.8 0 .8-.2 0 .3.9.2 1.2 0-.1.2.2.2.1.3.4 0 .7-.1.6-.3.6.4 1.2-.4 1.6.1l2.8-.6c0 .4-1 .1-.9.5a9.5 9.5 0 0 1 2.1-.6c.3 0 0 .2-.1.2l2.4-.4h-.2.3-.1c-.3-.2.5-.6.5-.7-.2.5.8 0 .5.6 0 0 .2-.1.1-.2.2 0 .2 0 .1.2.5-.2.3-.3.8-.4l-.1.2a1.2 1.2 0 0 1 .8-.4v.1c.6-.1 1-.5 1.8-.6-.1.4.3 0 .4.4l.4-.2-.2-.1c.4-.1.6-.4 1-.3l-.2.1.6-.2h-.4c.4-.2 0-.3.4-.3h.6a.9.9 0 0 1 .6-.3v.4c.2-.3.9-.3 1-.6a.2.2 0 0 0 0 .2l.1-.2c.2 0 .3 0 .3.2.5-.1-.3-.3.3-.3.5 0 1-.3 1.6-.4.2.2-.5.2-.2.4.8-.3 1.5-.8 2.2-1 0-.4.5 0 .8-.2v.2a6.8 6.8 0 0 0 1.7-.8v.1a9.4 9.4 0 0 0 1-.3c.2-.1.3-.2.2-.3 1.2.2 1.8-1 2.8-.8l-.2.2.7-.4-.3-.1a.8.8 0 0 1 .4-.4c-.3.2.1.3.3.3v-.2c.5.2 0-.3.5-.3a2.2 2.2 0 0 1 .6-.3c.1.2-.2.2-.2.4.3-.2.5-.6.8-.6l-.4.3a.8.8 0 0 0 .7 0l.5-.1h-.2c.2-.6.8-.4 1.1-1-.3.6 0 .3 0 .5h.4c.1-.2.4 0 .6-.3 0 0 .3-.2.3 0 .3-.2-.1 0-.1-.1.3-.5 1.2-.2 1.7-.9.5-.4.5-.7 1-1 .2 0 0 .3 0 .3a1.3 1.3 0 0 0 .8-.3h.1c.2 0 0-.2.4-.3a1 1 0 0 1 0 .4l.6-.6-.2.4c.3-.2.7-.5.7-.8h-.2c.1 0 .2.1.1.2-.2.3-.4.2-.4 0h.1c-.4-.3-.7.4-1 .6v-.4l-.4.4s-.2-.1 0-.3c-.4 0-.2.3-.5.2l-.3.2c0-.1-.1-.2 0-.2-.5 0-.6.5-.9.4-.6.4 0 .3-.4.7l-.5-.3v.2h-.3v.3c-.4 0-.8.5-1 .2 0 .2.3 0 0 .2-.2-.3-.4.3-.7.3 0-.3.3-.3 0-.3 0 .4-.7.1-.9.3.1.3-.5.4-1 .6l-1.2.3c0 .2-.4.3-.7.5l.1-.4-.3.1a.6.6 0 0 1-.3.3v-.2c-.3.2-.7.5-1.2.6 0 .2.6.3.1.7 0-.1-.1-.3 0-.4l-.2.1.1-.2c-.2 0 0 .2-.2.2l-.2-.1.2-.1a1 1 0 0 1-.6 0 .2.2 0 0 1 0 .2c-.5.2-.3 0-.5 0 0 0-.4 0-.3.2h-.2c-.2.1-1 .3-.6.4-.6.5-1.4.4-2 .7v-.1a6 6 0 0 0-1 .6c-.2 0-.4 0-.4-.2a1.2 1.2 0 0 1-.7.3c.2-.3-.2-.1.2-.2-.4 0-.5 0-.9.2.1-.2-.3-.1-.5 0l.3.1a2.2 2.2 0 0 1-.6.2v-.3c-.8 0-1.3.9-2 .6-.2.2.4 0 .3.2l-1-.2c-.5 0-.4.5-1 .5.1 0 .2.3-.2.5s-.5-.3-.3-.4.1 0 .1 0 .3-.1.1-.2v.1h-.5a11 11 0 0 0-1.2.3s.2 0 0 .1c-.7 0-.2.3-.7.4-.3-.1 0-.4-.4-.2-.4 0-.1-.2 0-.3-.5.3-.9 0-1.2 0h.3a1.1 1.1 0 0 1-.4 0l.2.2h-.3c-.1.1.1.2-.1.4-.2 0-.6.2-.7 0 .6 0 0-.2.4-.3a.9.9 0 0 1-.3 0c-.6-.1-.3.3-.8.4 0-.2-.2-.2-.3-.2.2 0 .1.2 0 .3-.4 0-.5.2-.7.2h.3l-.5.2s.2 0 .1-.1c-.3.2-.7-.2-1 0-.3 0-.1-.2-.3-.3-.4.3-.5 0-1 .1.2.2.2.1-.1.4l.7-.3-.4.4.6-.2c-.2.2-.2.1 0 .3-.4-.3-.7.2-1 0v-.4c-.7-.1-1 .4-1.8.3h.2c0 .2-.4 0-.7.2 0-.1 0-.2-.2-.3 0 .1-.5 0-.6.4l-.3-.2c-.6 0-.7.5-1.3.4.2-.1 0-.2.3-.4l-.4.1s-.5.3-.7.1c0 .1 0 .3-.3.3v-.1s-.3 0-.1.2c-.6-.4-1.7 0-2.2-.3l-1.3.1c-.4-.2-.3.4-.9.2-.3-.2.4-.1.2-.2 0-.5-.7 0-1.1-.3-.2-.2-.7.2-1.2 0a3 3 0 0 1-1.5.3c.2-.2.2 0 .2-.3-.2 0 0 .3-.4.3-.2-.1-.5-.2-.5-.4h.4c-.1-.3-.5-.1-.7-.2v-.1c-.6 0-.7.3-1.3.1v.1c-.4.3-.2-.2-.6 0v-.3a8.4 8.4 0 0 1-1.4 0 4.7 4.7 0 0 1 1.1-.2c-.2 0-.8-.2-1 0h.3a1.8 1.8 0 0 1-1.2 0c.1-.2-.1-.3-.5-.4s-.7-.2-.8-.5a9.6 9.6 0 0 1-2.5-.9c.2.6-.3 0-.4.4l-.3-.1-.5-.5c-.1-.2.2 0 .2-.2-.4-.2 0-.2-.3-.5 0 .2-.3.2-.5 0l.3.4c-.8 0-.4-.6-1.2-.7h.3c-.3 0-1.2-.6-1.6-.4v-.2c-.7-.4-1.8-.6-2.2-1.1l.1-.1c-.1 0-.3 0-.5-.2h.1a1 1 0 0 1-.6-.3h.2c-.5-.6-1.2-.5-1.8-.9.2-.2-.2-.7-.4-1a20.2 20.2 0 0 0-2.2-1.4c0-.7-1.2-1.4-1.6-2.3 0 .2-.2.2-.3 0s-.6-.2-.3-.4c.1-.3-.2-.5-.4-.8l-.3.2c0-1-1.6-1.7-1.4-2.5-.2 0-.4-.3-.6-.4l.2-.1a13 13 0 0 0-.8-1.4h.2c-.2-.4-.8-.2-1-.5l.2-.3c-.3-.6-.4-1.3-1-1.9a.2.2 0 0 1 .2.1c-.1-.3-.4-1.3-.7-1 .2-.1-.3-.7-.5-1h.2c-.4-.2-.5-.2-.7-.6 0 0 .1-.1.1 0 0-.3-.3-.2-.4-.6h.2c0-.3-.2-.2-.4-.3s-.2-.7 0-.8a.5.5 0 0 1-.4-.4h.2c-.1-.7-.6-.8-.5-1.3a.2.2 0 0 0 0-.1 6.2 6.2 0 0 1 .3.8c.2 0 .1-.4.5-.2-.3-.3-.7-.7-.8-1.1a.4.4 0 0 0 0-.3 1.2 1.2 0 0 0 0-.3l-.2-.7c-.2 0-.2-.2-.3.1v.2c0 .2 0 0 .1 0l.2.5a.5.5 0 0 1-.3-.5l-.4-.2c.2-.3.2-.9.4-1-.3-.5-.5-1.3-1-1.6 0-.2.1-.2.2-.3l.1.2c-.2-.3-.3-1-.6-1 0-.4.3.2.2-.4v.1c.2-1.2-1-1.7-.7-3.2v.2c0-1.5-.8-3-.6-4.6 0-.4 0-.4-.3-.7h.3l-.3-.5c-.3-.6.4-1.1 0-1.9l-.1.1c0-.3-.2-.9 0-.8 0 0-.2-.1-.1-.2h.1l-.2-.7c0-.6.4 0 .5-.7 0-.3-.4-.9-.5-.8l-.2.4v-.3c-.4 0-.7-.3-1 .4l.2.5-.1.1v-.4c-.2.2 0 .4 0 .5a.3.3 0 0 0-.1.3l.3.4c-.1 0-.3-.2-.3.1.1.2.3-.2.4.2-.2.2-.3.1-.1.4l-.2-.1c0 .2 0 .6.2.7-.1.2.1.8-.2.8a1.4 1.4 0 0 1 .3.6c-.4-.4 0 .8-.4.7.4.3.3 1 .6 1.6l-.1-.2a1.9 1.9 0 0 1-.2.6c.3 0 .5.5.7.7-.3.4-.4-.2-.7 0 .3 0 .4.6.5.4-.1.3 0 .3-.2.4.3 0 0 .3.3.5-.1.4-.3.1-.1.5-.2.1-.3-.2-.3-.2zm3 9.8v-.1zm.3.9l-.1-.4h.1v.4zm.8-2.2v.2-.2a.2.2 0 0 1-.1 0zm-10.8 121.2l.4-.3c.2 0 0 .2-.1.4l.4-.1c0 .1 0 0 0 0 .2 0 .3.3.6.2a2.2 2.2 0 0 1 .2-.3s.2 0 .1.1h-.1c0 .3 0 0-.2.3h.5c-.1.3-.2 0-.3.2v-.2l-.3.4c.2.2.3 0 .5.2 0 0 0-.2.2-.2.4 0-.1.6.2.5.2-.1.4-.4.4-.1l-.2.2c.2.1.4-.3.5 0h-.2c0 .2.2-.1.3 0l-.2.2c.3 0 .6 0 .8.2l-.1.2a1.4 1.4 0 0 1 .8.7l.2-.2v.2l.2-.2c.2 0 0 .2-.1.2.3 0 .8 0 .8.3 0 .1.4-.3.4 0 .3.2.8.2 1 .7.1-.3.2.3.5-.1l.2.6.3-.2v.2l.2-.2v.3a.2.2 0 0 1 0-.2c.3 0 .4.3.3.4h.5l-.2.1c.2-.2 0 .2.2.1v-.2c0 .2.3.3.4.3v.1a6.7 6.7 0 0 0 .8.2l.1-.3v.2l.1-.2-.1.3h.2a1.1 1.1 0 0 1-.1.2c0-.1.1.3.3.1a3.2 3.2 0 0 0 .7.2c0-.2.1-.1.2-.3l.6.4c.3 0 0-.2.2-.3v.3a1.7 1.7 0 0 0 .7 0v-.1.2c.5-.2.7.7 1.1.4l.4-.2v.3c.4-.3.5.1.8 0 .1.6.8 0 1 .5v-.2l.1.2c.1 0 0-.2 0-.2a8 8 0 0 1 2 .5c.2 0 .1-.7.4-.4l-.1.3c.5-.3 1 0 1.5-.2l-.1.2c0 .1.3 0 .3-.2l.1.2c.1 0 .3-.2.3 0v.1s.3 0 .2-.2h.5c.1-.2.3.1.3-.2 0 .3.4.3.5 0v.3c.1 0 .3 0 .2-.2.3.4.5-.4.6.1a5.5 5.5 0 0 1 1-.4c0 .3-.3 0-.3.4.3-.1.5-.4.8-.4v.2c.2-.2.6 0 .8-.3v.1h.1c-.1-.2.2-.5.2-.6 0 .4.3 0 .2.6a.3.3 0 0 0 0-.2s.1 0 0 .2c.2-.1.1-.3.3-.3v.2c0-.2.1-.3.3-.3v.1c.3 0 .4-.4.7-.3 0 .3 0 0 .2.3v-.2c.1 0 .2-.3.4-.2l-.1.1h.2l-.1-.1v-.3l.3.1s.1-.2.2-.1v.3c0-.2.4 0 .4-.4a.7.7 0 0 0 0 .3v-.2l.1.2c.2 0-.1-.4.1-.3v.1l.6-.2v.3c.3 0 .5-.4.8-.5-.1-.3.2.2.3 0v.1l.6-.3h.5c.2 0 0 0 0-.2.5.5.6-.5 1-.1v.1l.3-.2-.2-.2a.3.3 0 0 1 .2-.2c-.1.2 0 .3.1.3v-.1c.3.2 0-.4.2-.3v.1s0-.2.2-.2v.3s0-.4.2-.3l-.1.2c.2.2.2.1.3.1h.2c0-.6.2-.2.2-.6l.1.4.2.2c0-.2.2 0 .2-.3l.2.2-.1-.2c0-.3.5.1.6-.3.2-.2.1-.5.3-.6.1 0 0 .2 0 .2a.2.2 0 0 0 .3 0h.1c.1 0 0-.2.1-.1a1.4 1.4 0 0 1 0 .3l.2-.4v.3l.2-.4h-.1v.2h-.1v-.2c-.2-.3-.2.2-.4.2v-.3l-.1.3-.1-.3c-.2 0 0 .2-.2 0v.1s-.2-.2 0-.2c-.3 0-.3.4-.4.2-.2.2 0 .2 0 .5l-.3-.5v.2h-.1v.2c-.2-.1-.4.2-.5 0 0 0 .2 0 0 .1-.1-.3 0 .2-.2 0s0 0-.1-.2c0 .3-.2 0-.3 0 0 .4-.2.3-.3.4h-.5c0 .2-.2.2-.3.3a.4.4 0 0 1 0-.3.2.2 0 0 1-.1.2v-.2c-.2 0-.2.3-.5.2 0 .2.3.5.2.7v-.3h-.2v-.2.2l-.2-.2c0-.2.1 0 .1 0a.3.3 0 0 1-.2-.2v.2l-.2-.2c0 .2-.2 0-.1.3l-.1-.1s-.4 0-.2.3c-.2.3-.5 0-.8.2v-.1c0 .1-.3.1-.3.3l-.2-.2s0 .2-.3 0h.1c-.1 0-.2-.2-.3 0 0-.1-.2-.1-.2 0h.1a.3.3 0 0 1-.2.1v-.2c-.3-.3-.4.6-.7.2l.1.3-.4-.4c-.2 0 0 .4-.3.4 0 0 .1.3 0 .4s-.2-.4-.2-.4a.1.1 0 0 0 0-.2l-.2-.1.1.2h-.5s.1.1 0 .1c-.2 0 0 .2-.2.3-.1-.1 0-.4-.2-.2v-.3c-.1.2-.3 0-.4-.1v.5h-.3c.2 0 0-.3.1-.4h-.1c-.3-.2 0 .2-.3.3l-.1-.3c-.1 0 0 .3 0 .4-.2-.1-.1 0-.2 0l-.1.3c-.1 0 0-.1 0-.2 0 .3-.3-.2-.4 0l-.1-.3c-.2.2-.2-.1-.4 0v.3l.3-.1-.1.3s.1-.2.2-.1v.2c-.2-.2-.2.2-.4 0v-.4c-.2-.2-.4.2-.6.1 0 .3-.1 0-.2.2a.5.5 0 0 0 0-.3c0 .1-.3 0-.3.3l-.1-.2c-.2 0-.2.5-.5.4l.1-.4-.1.1s-.2.2-.3 0v.3s-.2 0-.1.2c-.2-.5-.6 0-.8-.3a3.4 3.4 0 0 1-.5 0c-.2-.1-.1.5-.3.3s.1-.1 0-.2c0-.5-.2 0-.4-.3 0-.2-.3.2-.4.1a.8.8 0 0 1-.6.3v-.3.4a1 1 0 0 1-.2-.4h.1c0-.3-.2 0-.3 0v-.1c-.2 0-.2.3-.5.3-.1.3 0-.1-.2 0v-.3a1.7 1.7 0 0 1-.5.4 1.8 1.8 0 0 1 .4-.5s-.3 0-.3.2c0 0 0-.1.1 0-.1.1-.3.3-.5.2.1-.5-.4-.2-.5-.7-.3.2-.5-.1-.9-.2 0 .5-.1 0-.2.5l-.3-.3.1-.2-.1-.4c0 .2-.1.3-.2.2l.1.2c-.3.2-.1-.4-.4-.2v-.1s-.4 0-.6.2v-.2c-.2-.1-.7.2-.9 0v-.2s-.1.2-.2 0h-.3.1c-.2-.3-.5.1-.8.1a.5.5 0 0 0-.2-.5c-.3-.2-.6 0-1 0 0-.4-.6-.4-.8-.7a.3.3 0 0 1-.2.3c0-.1-.3.1-.1-.2 0-.3-.2-.2-.3-.3l-.1.4c-.1-.7-.9-.1-.9-.7h-.3l.1-.1a1.2 1.2 0 0 0-.5-.3l.1-.1c-.1 0-.4.5-.6.4l.1-.3c-.2 0-.3-.5-.7-.3l.1-.1s-.3-.4-.4 0c0-.3-.3-.2-.4-.1v-.2l-.4.2s0-.1 0 0c0-.2 0 0-.2-.1l.1-.1h-.2c-.1 0-.2-.1-.2-.3l-.2.1c0-.3-.4 0-.4-.3a.3.3 0 0 0 0-.1c.2 0 .3.2.3.2 0-.2 0-.3.2-.5-.2.1-.5.3-.6.1a.2.2 0 0 0-.1-.2l-.2-.2c0 .2-.2.1-.2.3h.1l.2.1c-.1 0-.2.1-.2 0l-.3.2v-.7c-.2 0-.4-.2-.8 0v-.2h.2-.5c-.1-.2.2-.1 0-.2 0-.7-1 0-1-.7a.1.1 0 0 1 0 .1c-.3-.5-1-.5-1.2-1.1 0-.2-.2 0-.3 0l.1-.2h-.3c-.3 0 .1-.6-.3-.6l-.1.2c0-.1-.3-.2-.2-.3h-.3c-.1-.3.3-.4.1-.6l-.4.1-.1.2h-.1c-.3.2-.6.4-.6.8a1.3 1.3 0 0 0 .2 0v.1a.3.3 0 0 0 0 .2l.3-.1c0 .1-.2.1-.2.3.2 0 .2-.3.3-.3 0 .2-.1.3 0 .2a.2.2 0 0 1-.1.1c.1 0 .2.2.3 0 0 .2.3.2 0 .4a.6.6 0 0 1 .4 0c-.4.2.2.2-.1.5.3-.1.4.2.7.2h-.1v.2c.2-.2.4-.1.5-.2 0 .3-.2.2-.4.5.2-.2.3 0 .4-.3v.4c.2-.3 0 0 .3-.1 0 .2-.2.3 0 .3h-.3zm3.5 1.7zm.3.1h-.1v-.2l.1.2zm.2-1.6v.1zm-11.5 167.6c.8 0 .4-.3.5-.4 1-.2.5.1.8.3.6-.1 1-.4 1.5-.4 0 0 .1.1 0 .2.6-.3 1.8 0 2.6-.4v.1a.5.5 0 0 1 0-.4c.3 0 .6-.2.7 0-.2 0-.2.1-.3.2l.4-.1c.3.2-.5 0-.5.3a10.2 10.2 0 0 1 2-.3c.2.3-1.2.1-.5.3h-.8c.6.3-.6 0 0 .4 1.2 0 1.3-.2 2.5-.1.2-.2-.1-.2.1-.4 1.6-.3 1.3.6 2.5.3a1.2 1.2 0 0 1 1.2-.4l-.3.3c1.1 0 .7-.4 1.8-.2-.2 0-.9 0-.7.1.8.2.5-.2 1.1-.2l.1.3c1.2 0 2.5-.3 3.8-.3-.1 0-.3.1 0 .2a30.3 30.3 0 0 1 5 .1l.6-.2c.2 0 .3 0 .1.1.6.1 0-.1.4-.2s.4.1.2.2a14 14 0 0 1 4.2-.2h-.2c.9.1 1-.4 1.8-.2h-.1a40.4 40.4 0 0 1 5.5.1c.2-.3 1.9.1 2-.3a12.6 12.6 0 0 0 2.3.4c.4 0 .6-.3 1.1-.4v.3l.7-.3.4.3h.5l-.4-.2a3.3 3.3 0 0 1 1.9.2l1.7-.2-.5.2c.9-.3.1.2 1 0-.2 0 0-.2 0-.2a7.3 7.3 0 0 0 2.2 0l-.2.2 4.3-.1c-.5-.1-.4-.4 0-.4l.2.2c.2-.1-.5 0 0-.2.6 0 .5.2.1.3h.7l-.2.1c.3-.1 1.2.3 1.6 0v.1l3.3-.1c0-.3.5-.2.9-.4l3 .2c.7-.1.1-.2.5-.3 0 .2 1 .1.5.3 1.3 0 1.7 0 3.3-.3-.2 0-.4 0-.3-.1.3 0 .7 0 .6.1a6.2 6.2 0 0 1 1.1 0h.6a1.6 1.6 0 0 1 .2 0 6.1 6.1 0 0 0 .8 1.2 4.5 4.5 0 0 0 1 1.1l1 1c.4.5-.4-.3-.1.2 1.3 1 1.6 2 2.6 2.9.2 1.1 2.3 2.8 3 4 .3.1.2.3.4.5 0 0-.2-.3 0-.2 2 2.2 3.8 5 5.7 7.4.7 1 1 0 1.6 1.4l-.4-.2c1.7 1.6 3 3.7 4.6 5.2-.1 0-.2 0-.3-.2.1.5 1 1.4 1.2 1.3.2.3 0 .2 0 .4.2.4 1 .8 1 1h-.2c.3.1.9 1 .9.7.4.7 1 1.2 1.4 1.8.5.2.8 1.2 1.2 1-.3.3.7 1.4 1.2 1.7-.2 0 .2.4 0 .4.4.4.8.8.8.6.5 1.2 1.7 1.6 1.7 2.4l.8.7.4.4a1.3 1.3 0 0 0 .1.1v.6l.1.7.2 1.5c-.4 0-.2-1.8-.5-1.7a24.3 24.3 0 0 1 .6 4c0 .3-.2-.3-.3-.4.3 1.5.2 3 .4 4.3v-.2.6-.3c.2-.5.5 1 .6 1-.4-.4 0 1.4-.6.7l.2.4c0 .3 0 .3-.2 0 .2 1 .3.7.4 1.6l-.2-.3a3.9 3.9 0 0 1 .3 1.6l-.1-.1a25.9 25.9 0 0 1 .4 3.5c-.4-.4 0 .5-.4.6l.2.7v-.3a13.7 13.7 0 0 1 .3 1.8l-.2-.5.2 1.3v-.7c.2.6.4-.1.4.8a6.3 6.3 0 0 1-.2 1 2.5 2.5 0 0 1 .2 1c0 .2-.3 0-.4 0 .3.4.2 1.6.5 2h-.3l.2.2c0 .3 0 .4-.2.3 0 1 .4-.3.3.8l-.1-.2.2 3c-.3.4-.1-.8-.3-.4 0 1.4.5 3 .5 4.4v-.3c.4.2-.2 1 0 1.7l-.1-.1a24.3 24.3 0 0 0 .4 3.4l-.1-.2v2.1c0 .2 0 .5.2.3-.5 2 .5 3.6.1 5.3v-.3l.1 1.4c.2-.1 0-.2.2-.5a2.1 2.1 0 0 1 .2 1c-.1-.7-.2 0-.3.2h.1c-.2.8.4.1.3 1.2h-.1a5.3 5.3 0 0 1 .2 1c-.2.3-.2-.3-.3-.3 0 .6.4 1 .2 1.6l-.1-.8a2.3 2.3 0 0 0-.2 1v1-.2c.6.7.2 1.5.6 2.4-.4-1-.2-.1-.4-.2 0 .3-.1.6-.2.5.2.5 0 .8.2 1.4 0 0 0 .5-.2.4.1.6.2-.1.3 0 .3.8-.2 2.1.2 3.4.2 1.2.5 1.4.6 2.4 0 .4-.3-.3-.3-.3a4.5 4.5 0 0 0 .1 1.6l-.2.2c0 .4.3.2.2.8a1.4 1.4 0 0 1-.3-.4l.4 1.5c-.1.2-.2-.3-.3-.5a4.7 4.7 0 0 0 .4 1.8v-.4c0 .2-.2 0-.2 0-.2-.5 0-.8 0-.8l.1.4c.5-.5-.1-1.6-.1-2.3l.3.3-.3-.8c0-.2.2-.3.3 0v-1.4s.2-.1.1.2c.2-1-.3-1.5 0-2v.2c-.2-1.4-.3-.1-.6-1.1l.5-.7-.2-.2v-.3c-.1-.5 0 0-.2-.2.2-.7-.2-1.8.2-2-.2-.2-.1.6-.3 0 .4-.3-.1-.9 0-1.5.2.2.1.8.3.1-.4-.3 0-1.1-.1-1.6-.3 0-.2-1.1-.3-2a22 22 0 0 0 .1-2.5c-.3-.1-.3-1-.4-1.5.2 0 .3.1.4.4v-.5a1.4 1.4 0 0 1-.2-.7l.2.1a12.6 12.6 0 0 1-.3-2.4c-.2 0-.4.8-.6-.2 0 0 .2-.1.3.1a1 1 0 0 1 0-.4l.1.4-.1-.6c.1 0 0-.3.2-.2s0 .3 0 .4a2.5 2.5 0 0 1 .2-1c-.1 0-.2 0-.3-.3 0-.7.2-.2.2-.7 0-.2 0-.6-.2-.6l.1-.4c-.1-.4-.1-1.8-.3-1.3a38.8 38.8 0 0 1-.2-4 20.2 20.2 0 0 0-.2-2.1c0-.2 0-.5.2-.5a3.8 3.8 0 0 1-.1-1.4v.6a3.7 3.7 0 0 0 0-1.7c.2.2.2-.6.1-1l-.1.6a8.5 8.5 0 0 1 0-1.1l.2.1c.2-1.5-.7-2.7-.2-3.9-.2-.4-.1.9-.3.5a11.8 11.8 0 0 1 .3-1.7c0-1-.4-.8-.4-1.8 0 0-.3.2-.4-.5s.3-1 .4-.5v.3c0 .2 0 .5.2.2h-.1c0-.4 0-1.4.1-1.2 0-.5-.1-.2-.1.2v-2.3c0 .1-.2.3-.2.1 0-1.3-.2-.6-.3-1.5.1-.5.4.2.2-.7 0-.6.2-.2.3 0a6.2 6.2 0 0 1 0-2l.1.4a3.9 3.9 0 0 1 0-.7l-.2.3v-.5c0-.3-.2.2-.4-.3 0-.4-.2-1 0-1.2 0 1.1.3-.1.4.8a2.2 2.2 0 0 1 0-.7v.1c.2-1-.3-.4-.3-1.5.1.1.2-.3.2-.4 0 .4-.2.2-.3-.2 0-.7-.2-.8-.2-1.1v.4l-.2-1c.1 0 .1.4.2.2-.3-.5.1-1.2 0-2 0-.3.2 0 .3-.3-.3-.9 0-1-.1-1.8-.2.2-.1.3-.3-.3l.2 1.4-.3-1 .1 1.3c-.2-.5-.1-.4-.3-.2.3-.6-.2-1.2 0-1.9h.4c.2-1-.3-1.8-.3-3.2v.5c-.2-.2-.1-.5-.2-1.2a3.1 3.1 0 0 0-.3-.3v-.6c-.1.1-.7-.7-1-.6l-.2-.6c-.7-1-1.1-.7-1.8-1.6.4.2.1-.3.7.2l-.5-.5c0-.2-.8-.6-.9-1-.1 0-.3 0-.5-.3s-.4-.4-.4 0c-.3-1.2-2-2.4-2.2-3.3l-1.6-1.8h.1c-.5-.8-.7-.1-1.3-1-.1-.6.5.3.4 0 .2-.5-1-1-1.2-1.8l.1.1c-.2-.5-1-1-1.5-1.6a11.8 11.8 0 0 1-2-1.9c.4.1.4.3.4 0-.3-.3-.2.3-.7-.3-.1-.2-.4-.7-.3-1l.5.7c0-.5-.6-.8-.8-1.1-.7-.9-1-.7-1.7-1.7v.2c-.6-.3-.2-.5-.8-1l.1-.3-1.8-1.6a11.2 11.2 0 0 1 1.6 1.3 6.4 6.4 0 0 0-1.2-1.3 1.8 1.8 0 0 1 .4.4 5.3 5.3 0 0 1-1.6-1.4c.6-.2-1.3-1.8-1.4-2.6a44.3 44.3 0 0 1-3-3.8c0 .8-.4-.4-.7 0l-.4-.5-.6-1.1c0-.4.4.2.4.1-.5-.7 0-.4-.4-1 0 .2-.4 0-.7-.5l.4.7c-1-.9-.5-1.1-1.5-2l.4.2c-.5-.4-1.6-1.8-2.3-2.1 0-.1 0-.3.2-.1l-.5-.6-.8-1-2.2.2a6.5 6.5 0 0 1-1.4 0v-.1c-.2 0-.4.2-.8.1 0 0 .1-.1 0-.1a3.7 3.7 0 0 1-1.2.1h.3c-1.5-.2-2.3.3-3.6.3 0-.3-1.3-.4-1.9-.4a41.2 41.2 0 0 0-4.7.4c-1-.3-3.5 0-5.2-.3.3 0 0 .3-.3.3s-1.1.3-1 0h.4c-.3-.3-1.1-.2-1.7-.2l-.1.4c-1.7-.6-4.3.2-5.2-.3l-1.3.2v-.2a27.6 27.6 0 0 0-3 0l.3-.1c-.8 0-1 .6-1.7.6l-.2-.3a19.9 19.9 0 0 0-4 0h.2c-.6 0-2.4-.2-2.2.2 0-.3-1.3 0-2 .1v-.2a3.2 3.2 0 0 1-1.4.4c-.2 0-.2-.1 0 0-.6-.2-.5.1-1.3 0l.3-.1a1.6 1.6 0 0 0-1 .2c-.4.1-1.3 0-1.4-.2a1.1 1.1 0 0 1-.9.2l.2-.1c-1.1-.1-1.7.3-2.5 0h-.1 1.6c0-.2-.8-.3-.2-.5a7.6 7.6 0 0 1-2.3.4.3.3 0 0 1-.1-.1 1.6 1.6 0 0 0-.4 0 4.2 4.2 0 0 0-.6 0c-.1-.2-.9-.1-1.2-.1 0 .2-.5.2 0 .3h.3a.6.6 0 0 0 .1 0h1a1.5 1.5 0 0 1-1 .1 7 7 0 0 1-.6.4c-.5-.3-1.4-.5-1.6-.6a11.3 11.3 0 0 0-3.3.5c-.4 0-.4-.1-.5-.2a2.4 2.4 0 0 0 .5-.1c-.7.1-2 0-2 .3-.8 0 .4-.2-.7-.2h.2c-2.2-.4-3.6.7-6 .2h.2c-2.7-.1-5.7.4-8.4 0a2.3 2.3 0 0 0-1.3.3l-.2-.2-.8.3c-1.1.2-2-.5-3.4-.2l.2.2h-1.6a.3.3 0 0 1-.4 0v-.1l-1.3.2c-1 0 .2-.5-1.3-.5-.5 0-1.5.4-1.3.5s.6 0 .6.2h-.5c0 .4-.5.7.7 1l.9-.3.3.2h-.7a1.2 1.2 0 0 0 .9 0 .6.6 0 0 0 .4.1l.8-.3s-.4.2.2.3c.3-.2-.4-.3.2-.4.4.1.3.3.8.1 0 .1 0 .2-.2.2.4-.1 1 0 1.3-.2.4.1 1.4-.1 1.4.2a3.4 3.4 0 0 1 1.1-.3c-.7.4 1.5 0 1.3.5.5-.4 1.9-.2 2.8-.4a.4.4 0 0 1-.2 0 4.7 4.7 0 0 1 1 .2c0-.3.8-.3 1.3-.5.6.2-.4.3-.2.6 0-.2 1.1-.3.9-.5.5.2.4.1.7.4 0-.4.4-.1.8-.3.7.1.2.3 1 .2.3.1-.4.3-.4.3zm18.5-1h-.4zm1.5 0h-.6.6zm-3.3-1.3h.4-.4zm-128-198.3c-.1.2.2.3.3.4 0 .3-.2 0-.4 0 0 .2.2.4 0 .5 0 .2-.2.4 0 .7h-.2a1.8 1.8 0 0 1 .4.1c0 .1 0 .3-.1.2v-.1.1c-.4 0 0-.1-.3-.2v.6c-.3 0 0-.4-.2-.3l.1-.2c-.4 0 .1 0-.3-.1-.2.2 0 .4-.3.6.1.1.2 0 .3.2 0 .5-.7 0-.6.5.2.1.4.3.2.4l-.3-.2c-.1.3.3.4 0 .6v-.3c-.3.1.1.2 0 .4l-.2-.1-.2 1s-.1-.2-.2-.1a2.5 2.5 0 0 1-.8 1.1v.3c-.2 0 0 0 0 .2s0 0-.1 0c0 .3 0 .9-.4 1-.2.2.3.4 0 .5-.3.4-.4 1-1 1.2.3.2-.3.4 0 .7-.3.1-.3 0-.6.3l.1.4h-.2l.1.2h-.3v.2a.2.2 0 0 1 .2 0c0 .2-.3.3-.4.3l-.1.5v-.2c0 .3-.3 0-.2.2l.1.1c-.2 0-.3.3-.3.5l-.2-.1-.5 1 .4.2h-.3c.1.1.2-.1.2.1s-.2 0-.3-.1v.2l-.1-.2c0 .2-.4.2-.2.4-.3.4-.3.6-.4.9l.1.3-.5.6c-.1.2 0 .2.2.3-.2 0-.3.2-.4 0a2.9 2.9 0 0 0-.3.9h.2s-.1.1-.2 0c0 .7-1 .8-.9 1.3v.5c-.1.2 0-.2-.2-.1 0 .5-.4.6-.4 1-.7 0-.5.9-1 1h.1c0 .2-.1.1-.2.2h.2a7.8 7.8 0 0 1-1.6 2.1c-.2.3.5.5 0 .7l-.1-.2c0 .7-.7 1-.8 1.7v-.1c-.3 0-.3.4-.2.5h-.2c-.1 0 0 .4-.2.3s-.2.3 0 .3c-.2.2-.1.4-.3.5.1.3-.3.3 0 .5-.3-.2-.5.2-.4.4h-.3l.1.3c-.5 0 0 .7-.6.6a8.3 8.3 0 0 1-.4 1.4c-.3-.2.2-.4 0-.6-.2.4 0 .8-.4 1.1v-.2c-.2.4-.5.7-.6 1.1a.2.2 0 0 1 0-.1s-.1.1 0 .2v-.1c.3 0 .2.5.3.6-.3-.4-.3.2-.6-.2a.2.2 0 0 0 0 .1h-.1c0 .2.1.2 0 .4l-.1-.1v.5s-.2 0-.1-.1c-.2.3 0 .7-.4 1-.2-.3-.1 0-.4-.1v.2h.2c-.1.1 0 .4-.2.5v-.2l-.2.3.2-.1c0 .2.4.2.1.3 0 0 0 .2-.2.2l-.1.3c-.1.1-.3-.2-.3-.2.1.2-.2.4 0 .6a.4.4 0 0 0-.3-.1l.2.1a.2.2 0 0 1-.3 0c-.1.2.4.2 0 .3-.2.1-.2.5-.4.6-.3 0 0-.2-.2-.3-.2.4-.2 1-.5 1.2.4.3-.3.1-.2.4l-.1-.2c-.2.2-.3.5-.4 1v-.2c-.2 0-.4.3-.5.4l.1.2c-.7 0-.3 1-1 1v-.1l-.1.4h.2a.3.3 0 0 1 0 .3c0-.2-.2-.2-.3-.2l.1.1c-.3 0 .3.3 0 .3h-.1l-.1.3c-.2 0 0-.1-.1-.2-.1 0 0 .4-.2.4v-.2h-.3l-.2.2c.3.5-.1.3 0 .8-.1-.4-.2-.2-.3-.4h-.3c0 .3-.2.1-.1.4h-.3c0 .2.2 0 .2.1 0 .4-.6.3-.6.8l-.1.8c-.2 0-.1-.3-.1-.3a.4.4 0 0 0-.4.3l-.1-.1v.3a1 1 0 0 1-.2-.3l-.1.5-.1-.3c0 .1-.3.3-.2.5h.2l-.2-.2h.3v.1c.3.3.2-.3.4-.4l.1.3v-.4c.1 0 .3.2.2.3.2 0 0-.2.2-.2v-.1l.1.1c.3 0 .2-.4.4-.3.2-.4-.1-.2-.1-.6l.5.3-.1-.2a.1.1 0 0 1 .1 0l-.1-.2c.3 0 .3-.5.6-.3-.1-.1-.3 0-.2-.1.3.2.1-.3.3-.3.2.2 0 .3.2.3-.2-.3.3-.2.3-.4-.2-.2.1-.3.2-.5l.7-.4c-.2-.2 0-.3 0-.5a.3.3 0 0 1 .2.3v-.1a.3.3 0 0 1 0-.3l.2.2c.1-.2 0-.5.3-.6 0-.2-.5-.2-.4-.5l.2.2v.1c.2 0 0-.1 0-.2l.3.1c0 .1-.1 0 0 0a.4.4 0 0 1 .3 0l-.2-.2h.4l-.1-.3h.2c0-.1.3-.4 0-.4 0-.4.5-.5.6-.9h.1l.2-.6h.2c.1-.1 0-.2.3-.3 0 .2.1 0 0 .2.1-.2.3-.1.2-.4.1.1.3 0 .3-.1h-.2a.7.7 0 0 1 .2-.3l.2.2c.5-.2 0-1 .6-.9 0-.2-.2.1-.3 0 .1-.2.5-.2.5-.2.3-.2-.1-.4.1-.6 0 0-.3-.1-.2-.4s.4 0 .4.2v.1s.2-.3.3-.1c0-.2 0-.2-.2-.1l.5-.5h-.2c.3-.3 0-.3 0-.5.3 0 .3.2.4 0 .1-.2.2 0 .2.1 0-.3.3-.3.4-.4v.2a.3.3 0 0 1 .1-.2h-.2c.1 0 .1-.1.2 0 0-.2-.3-.1-.3-.4 0 0 0-.3.3-.1-.3.2.2 0 0 .3a.2.2 0 0 1 .2-.2c.3 0-.2-.2 0-.4h.2s-.2 0-.2-.2c.2-.1 0-.2 0-.3v-.3.2c0-.3.4-.2.4-.5.2 0 .2.2.3.1 0-.3.3 0 .3-.4-.2 0-.1 0-.2-.2v.4l-.2-.4v.4c-.1-.2 0-.2-.3-.2.4 0 0-.4.3-.4l.4.2c.3-.1 0-.6.4-.8h-.1c-.2-.1 0-.2 0-.3h.4c-.1 0 .1-.2-.1-.4h.3c.2-.2-.2-.5 0-.8l.2.4c0-.1.1-.2 0-.2l.1-.4s-.1-.1 0-.2c0 0 0-.2-.2-.2.6 0 .4-.7.9-.8l.3-.6c.2 0-.3-.3 0-.5.2 0 0 .2.1.2.5.2.1-.3.5-.4.2 0 0-.3.2-.5a1.3 1.3 0 0 1 0-.9c.2.2 0 .2.3.2 0 0-.3-.1-.2-.3 0 0 .2-.1.4 0v.2c.2 0 0-.3.2-.3.2-.3 0-.4.1-.7-.2-.3.1 0 0-.3h.3a3.1 3.1 0 0 1 0-.6 2 2 0 0 1 .2.7c0-.1.2-.4 0-.5v.1a.6.6 0 0 1 0-.6c.5.3.5-.5 1-.5 0-.4.5-.6.7-1.1-.5 0 0-.1-.4-.3l.1-.2.4-.1.2.1c.1-.2.2 0 .4 0-.2-.1-.2-.2 0-.3h-.3c0-.4.5 0 .4-.5l.1.2c0-.2.3-.6.1-1 0 0 .2 0 .2.2.3-.4.1-1 .5-1.2v-.2h.2v-.3.1c.4-.3 0-.7.2-1 .3.1.5-.1.7-.3.2-.4.1-.8.2-1.3.5 0 .6-.8 1-1.1l-.2-.2c0-.1 0-.4.2-.2.3 0 .4-.2.5-.3l-.4-.3c.7 0 .4-1.1 1-1v-.5l.2.1a2.1 2.1 0 0 0 .4-.7v.1c.2-.1-.3-.5-.3-.7l.4.1c.1-.3.5-.5.5-1v.2c.1-.2.6-.5.1-.7.3.2.2-.3.2-.5h.2c-.2-.2-.2-.2-.2-.5 0 0 .2 0 .1.1.2-.1-.1-.2.1-.3.2 0 0-.1 0-.3s.2-.3.4-.2c0 0-.2-.2 0-.3.3-.1 0-.4.3-.5a.2.2 0 0 0 .2 0 2 2 0 0 1-.3.3c.2.1.3 0 .5.2 0-.2-.2-.6 0-.7h.1a.1.1 0 0 0 0-.1.3.3 0 0 0 .1-.2c.2.1.2-.1.3-.2-.2-.1-.1-.2-.3-.2v.1c0 .1 0 0 0 0l-.2.3.1-.3-.2-.3h.7c0-.4.3-.8 0-1 0-.2.2 0 .2 0 0-.1.3-.4 0-.6.3-.1.2.3.3 0 .7-.3-.1-1.1.7-1.5a.1.1 0 0 1-.1 0c.5-.5.5-1.5 1.2-2 .1-.1 0-.2 0-.4h.2l-.1-.3c0-.3.7-.2.6-.7h-.2c.1-.1.1-.5.3-.4 0 0-.2-.1 0-.1v-.4c.3-.2.5.3.7 0l-.2-.6a.2.2 0 0 1-.3 0c-.3-.3-.5-.5-1-.3l.2.3h-.2v.1a.3.3 0 0 0-.2 0l.2.3c-.1 0-.2-.2-.3-.1 0 .2.3 0 .3.3-.2 0-.3-.1-.2 0a.2.2 0 0 1-.2 0v.4c-.2 0 0 .3-.4.2a.6.6 0 0 1 .1.4c-.2-.4-.2.3-.5 0 .2.4-.1.6 0 1v-.1l-.3.1.3.6c-.4 0-.3-.3-.5-.3.2 0 0 .3.2.4h-.3c.3.2 0 .1.1.3-.2.1-.3-.1-.3.1-.3 0-.3-.2-.3-.2zm-1.8 4.9v-.1zm-.2.4a.9.9 0 0 0 .1-.2l.1.1c0 .1-.1 0-.2 0zm1.7-.2c0 .1 0 .1 0 0zM599 373c.2.1.3-.1.4-.2.2 0 0 .2 0 .3h.4c.1 0 0 .1 0 .1.2 0 .3.3.6.2v.1a1.6 1.6 0 0 1 .2-.3s.3 0 .2.1h-.2.1c0 .3-.1 0-.2.2l.5.1c-.2.2-.3-.1-.3.2l-.1-.2c-.2.4 0-.1-.3.3l.5.3.3-.2c.4 0-.3.7.2.6.2 0 .4-.3.4 0l-.2.2c.2.2.4-.2.5.1h-.3c0 .3.2 0 .3 0l-.1.3.8.4-.1.2a1.9 1.9 0 0 1 .7 1l.3-.1v.1c0 .2 0 0 .1 0 .3 0 .8.3.8.7 0 .2.4-.2.4 0 .3.5.8.7.8 1.2.3-.2.2.4.6 0 0 .4-.1.4 0 .8h.5l-.2.1h.3l-.1.2h.1a.2.2 0 0 1 0-.2c.3 0 .3.4.2.5l.4.2h-.2c.3 0-.1.2.2.2l.1-.1.3.4h-.1l.7.7c0-.1.2-.3.3-.2l-.1.2c.1 0 0-.2.2-.2l-.3.3h.2l-.1.1c.1 0 0 .4.2.3a7.3 7.3 0 0 0 .7.5h.3a2 2 0 0 0 .4.6l.3-.1-.1.3a2 2 0 0 0 .7.4v-.2.3c.5 0 .3 1 .9 1l.4.1c0 .2-.2 0-.2.2.5 0 .4.5.8.6-.3.6.6.6.6 1.1v-.1c.2 0 0 .1 0 .2.1 0 0-.2.2-.2.6.4.8 1.2 1.3 1.9.1.2.6-.4.6.1h-.3c.6.3.8 1 1.3 1.2h-.1c0 .2.2.3.4.2l-.1.2c0 .2.3 0 .2.2s.1.3.3 0c0 .3.3.3.3.5.2 0 .1.3.4.1-.3.3 0 .5.2.5l-.1.2c.1.1.2.2.3 0 0 .5.6.2.3.6a6.5 6.5 0 0 1 1.1.7c-.2.2-.3-.3-.5 0 .3.2.7.1.8.5h-.2c.4.2.5.6.8.7a.2.2 0 0 1-.1 0s0 .2.2 0h-.1c.1-.2.5 0 .6-.1-.4.2.1.3-.4.5a.2.2 0 0 0 .2 0l-.2.1.5.1-.2.1c.2 0 .3 0 .4.2h-.1c.2.2.6.2.7.5-.3.1 0 .2-.2.3l.2.1v-.1c.1.1.4.1.4.3h-.2l.2.2v-.2c.2 0 .3-.3.4 0v.3l.2.1-.3.2c.2 0 .3.3.5.2a.5.5 0 0 0-.2.2l.2-.1-.1.2c.1.2.2-.3.3 0h-.1c0 .2.4.3.4.6-.2.2-.1-.2-.3 0 .3.3.7.4.8.8v-.1c.4-.2 0 .3.3.3l-.2.1c0 .2.3.3.6.6v.4h.3c-.2.7.7.6.5 1.2 0 0-.1 0 0 0l.1.2.2-.2a.3.3 0 0 1 .3.1c-.2 0-.3.1-.3.2a.7.7 0 0 1 .1 0c-.2.3.3-.2.3.1h-.1l.2.2c-.1.1 0 0-.2 0 0 .1.4 0 .3.3l-.2-.1v.5c.5-.1.2.2.6.3l-.4.1-.1.2c.2 0-.1.2.2.3l-.1.1c0 .1 0 0 .1 0 .4 0 0 .5.4.7l.6.3c0 .2-.2 0-.2 0a.3.3 0 0 0 0 .4h-.1c-.1 0 .3 0 .2.2a1.7 1.7 0 0 1-.3 0 4.4 4.4 0 0 1 .3.3h-.3c.1 0 .2.3.4.3v-.1h-.1c-.1 0 0-.2 0-.2h.1c.5-.1-.1-.3-.1-.5h.3-.3c0-.1.2-.2.3-.1.1-.2-.2-.1 0-.3 0 0 .1-.1.1 0 .1-.3-.3-.4-.1-.5-.2-.3-.3 0-.6 0l.5-.4h-.3a.1.1 0 0 1 .1-.1h-.2c.1-.2-.3-.4 0-.6-.1 0 0 .2-.2.1.3-.2-.1-.1 0-.3.2 0 .2.1.3-.1-.4 0 0-.3-.2-.4-.2.1-.2-.2-.4-.3v-.7c-.3.1-.3 0-.4-.2a.3.3 0 0 1 .3 0v-.1a.3.3 0 0 1-.3 0l.2-.1c-.1-.2-.4-.2-.4-.5-.2 0-.4.4-.6.3l.3-.2c.1 0-.1 0 0 0h.1c0-.2-.1 0-.2-.1.2 0 .1-.1.2-.2v.1a.4.4 0 0 1 0-.3s-.1.1-.2 0 .2 0 .2-.2-.1-.2-.3 0l.1-.2c-.1 0-.3-.3-.4-.1-.3-.2-.2-.6-.5-.8l-.4-.4.1-.2s-.2 0-.2-.3l.2.1c0-.2 0-.3-.3-.3a.1.1 0 0 0 0-.3v.2a.7.7 0 0 1-.1-.3h.2c0-.5-.8-.3-.6-.8-.2 0 0 .2-.2.3l.1-.6c0-.3-.4 0-.5-.2 0 0-.2.2-.4.1s.2-.4.3-.3c0 0 .2.1.2 0 0 0-.2-.2 0-.3-.2 0-.2 0-.2.2 0-.3-.2-.3-.3-.5 0 0 0 .1 0 0-.2-.2-.3 0-.5 0 0-.3.3-.2 0-.4l.3-.1c-.2 0-.1-.4-.2-.5h.2a.3.3 0 0 1-.2-.1v.1s-.1 0 0-.1l-.5.2c0-.1-.2-.1 0-.3 0 .2.1-.2.3 0a.2.2 0 0 1-.1-.1c0-.4-.2 0-.4-.2l.1-.2s-.1.2-.3.2c0-.2-.1-.1-.2-.2v.1h-.3c.1-.1.2 0 .2 0-.3 0 0-.5-.3-.5l.2-.3c-.2 0 0-.2-.2-.3l-.3.1.3.2h-.4l.3.2-.3.1c.1-.3-.3-.1-.3-.4l.4-.2c0-.4-.5-.2-.6-.6v.2c-.2 0-.1-.2-.3-.2l.2-.3c0 .1-.2-.2-.4 0v-.2c-.1-.3-.5 0-.6-.2.1 0 .1-.2.3-.1 0-.1 0-.2-.1-.1 0-.1-.3 0-.3-.2h-.5c.2-.4-.5-.5-.3-1a2.8 2.8 0 0 1-.5-.3c0-.3-.3.2-.4-.1s.2 0 .2-.1c.3-.4-.3-.2-.2-.5 0-.3-.3-.2-.5-.4a.2.2 0 0 0 .1 0 1.1 1.1 0 0 1-.7-.2l.2-.1s-.2.2-.4.1c0-.1 0-.3.2-.4l.1.1c.1-.3-.1-.2-.2-.3h.1c-.2-.2-.4 0-.6-.3v.1c-.3.1 0-.2-.2-.2l.3-.1a2.6 2.6 0 0 1-.6-.2 1.6 1.6 0 0 1 .6 0l-.4-.2h.1a.6.6 0 0 1-.6 0c.5-.4-.2-.6 0-1-.4 0-.4-.6-.8-.9-.2.5 0 0-.4.3 0 0-.1 0 0-.1v-.4c0-.2 0 0 .1-.1-.1-.2.1-.2 0-.4 0 .1-.1.1-.2 0v.3c-.4 0 .1-.5-.3-.5h.2c-.2-.1-.4-.5-.8-.3 0 0 0-.2.2-.2-.3-.3-1-.3-1-.7h.1l-.2-.1c0-.1.1 0 0-.1l-.2-.1h.1c-.1-.4-.6-.2-.9-.4a.5.5 0 0 0 0-.6c-.2-.4-.7-.4-1-.6 0-.4-.6-.7-.7-1h-.3s-.3 0-.1-.2c.2-.2 0-.3-.1-.4l-.3.3c0-.7-1-.6-.7-1.1l-.4-.1.2-.2a1.6 1.6 0 0 0-.5-.5h.1c-.1-.2-.6.2-.7.1l.2-.2c-.3-.3-.3-.7-.7-.7h.1c-.1-.2-.3-.6-.5-.3.2-.2-.2-.2-.5-.2l.2-.2c-.3.1-.3.2-.6 0h.1c0-.2-.2 0-.2-.1l.1-.1h-.3c-.2 0-.2-.3-.1-.4h-.3a.1.1 0 0 1 .1 0c-.1-.4-.5-.2-.5-.5h.1a1.5 1.5 0 0 1 .3.2c0-.1 0-.3.3-.4h-.7v-.2a.1.1 0 0 0-.1 0v-.1l-.2-.3c-.2.1-.2 0-.3.2h.1l.2.2-.2-.1-.4.1c.1-.3 0-.5.2-.7-.3-.1-.5-.4-1-.2v-.2c0-.1.1 0 .2 0-.2 0-.4-.3-.6-.1 0-.2.3-.1 0-.3h.1c0-.6-1 0-1.2-.8-.3-.5-1.1-.7-1.4-1.4 0-.2-.2 0-.4 0l.2-.2h-.4c-.3 0 0-.7-.4-.6l-.1.1s-.4-.2-.2-.3c0 0-.2.1-.2 0h.1l-.4-.1c0-.3.4-.4.1-.6h-.5a.2.2 0 0 1 0 .3h-.1c-.3.3-.6.5-.5.9h.3v.1h-.2c0 .1.1 0 .2 0a.5.5 0 0 0 0 .2l.3-.1c0 .1-.2.1-.2.3.2 0 .2-.3.4-.3 0 .2-.2.3 0 .2a.2.2 0 0 1-.2.2c.1 0 .2.1.4 0 0 .2.3.1 0 .4a.5.5 0 0 1 .4 0c-.4.2.3.2 0 .5.3-.2.4.2.7.2s0 .2 0 .3c.1-.2.3-.1.5-.2 0 .3-.3.2-.4.4l.4-.1v.3c.2-.2 0 0 .3 0 0 .2-.2.2 0 .3.2 0 0 0 0 0zm3.8 2.5h-.1zm.2.3v-.2.2zm.4-1.6c.1 0 .1 0 0 0z"/><path class="cls-17" d="M559.8 317.5s-7.3 77.2 4 92.3l7.6-82.7z"/><path class="cls-15" d="M496.6 476.3V527h19.2l-2-41-17.2-9.7z"/><path class="cls-9" d="M516.2 517c0-.4-.2-.1-.4-.2-.1-.6.2-.3.3-.5 0-.3-.3-.6-.3-.8-.1-.4 0-1-.3-1.5h.1a.6.6 0 0 1-.4 0c0-.2-.2-.3 0-.4l.2.2-.1-.2c.2-.2 0 .3.3.3a3.8 3.8 0 0 1-.3-1.3c.2 0 .1.8.3.4v.4c.3-.3 0 .3.3 0V512c-.2-.1-.3 0-.4 0-.3-1 .6-.8.2-1.5-.2-.1-.5-.2-.3-.7l.2.2c0-.7-.4-.4-.2-1l.1.4c.2-.5-.1-.3-.2-.7h.3c0-.7-.3-1.4-.4-2.2.1 0 .2.2.3 0a9.7 9.7 0 0 1 0-2.9l-.2-.3s0-.2.1 0c.1-.4-.1 0-.2-.3s.1-.2.2 0a4.7 4.7 0 0 1-.3-2.5v.1c.1-.5-.4-.5-.2-1v.1a13.6 13.6 0 0 1 0-3.2c-.2-.1.2-1-.3-1.1a4.5 4.5 0 0 0 .4-1.4c0-.2-.3-.3-.3-.6h.2l-.3-.4.3-.2v-.3l-.2.2c-.2-.4 0-1 .2-1l-.2-1 .1.3c-.2-.6.3-.1 0-.6h-.1a2.4 2.4 0 0 0 0-1.2h.1l-.2-2.4c0 .3-.3.3-.3 0l.2-.1c-.2-.2 0 .3-.3 0 0-.4.3-.3.4 0l-.1-.4h.2v-.4a1 1 0 0 0 0-.4.7.7 0 0 0-.1-.4v-.7l-.6-.4-.6-.3-.7-.3c0 .2-.3 0-.6.1a9.8 9.8 0 0 0-1.4-1l-.4.1c0-.2-.5-.4-.1-.4a10.8 10.8 0 0 0-1.7-.7v.3s-.4-.3-.3-.4c-1-.2-1.9-1.5-2.8-1.5l-.8-.3c-.4-.2.2 0 0-.2-1-.1-1.3-.7-2-.9-.3-.8-1.9-.9-2.4-1.6v.2c-.3 0-.2-.2-.4-.3 0 0 .2.2 0 .2a10.8 10.8 0 0 1-1.3-.6l-.5-.4-.1-.1V474c0-.7-.7-.3-.4-1.2l.2.2c-.4-1.2-.2-2.6-.5-4l.1.3c.2-.3 0-1-.2-1 0-.2.1 0 .2-.2s-.3-.7-.1-.8 0 0 0 .1c0-.2 0-.8-.2-.6v-1.3c-.3-.3 0-.9-.3-1 .3 0 .2-.8 0-1.1 0 0 0-.3.2-.2 0-.3-.1-.6-.3-.5.4-.7-.4-1.3.1-1.7l-.6-3c.3 0 .1 1 .5 1a8.2 8.2 0 0 1-.6-2.1c0-.3.2 0 .3.1-.2-.8-.1-1.7-.4-2.4l.1.1-.1-.3v.1c-.1.3-.5-.5-.6-.6.5.3 0-.7.7-.4l-.3-.2c0-.1.1-.2.2 0 0-.6-.2-.4-.3-.9l.2.2a1.3 1.3 0 0 1-.3-1l.1.2c0-.8-.4-1.3-.4-2 .4.2.1-.3.4-.4l-.1-.4-.1.2c0-.4-.3-.7-.2-1l.1.2v-.7l-.2.4c-.1-.3-.3.1-.3-.4 0 .1 0-.4.2-.6a.9.9 0 0 1-.2-.6c0-.1.3 0 .4 0-.3-.2-.2-1-.4-1.1a.3.3 0 0 0 .2 0l-.2-.2c0-.1 0-.2.2-.1 0-.6-.3.1-.2-.5v.1c0-.6-.2-1.2-.1-1.7.3-.2 0 .5.3.2a17.4 17.4 0 0 1-.4-2.5v.2c-.5 0 .1-.6-.1-1 0 0 .2.1.2 0a9 9 0 0 0-.4-1.9l.1.1V437s0-.3-.2-.1c.5-1.1-.5-2 0-3v.2l-.1-.9-.3.3a.9.9 0 0 1-.2-.5c.2.4.3 0 .4-.2h-.2c.3-.4-.3 0-.2-.6h.1a2.5 2.5 0 0 1-.2-.6c.2-.2.1.2.3.2 0-.4-.4-.6-.2-1l.1.5a.9.9 0 0 0 .2-.6l.1-.6v.1c-.6-.3-.2-.8-.6-1.3.4.5.2 0 .4 0 0 0 .1-.3.2-.2-.2-.3.1-.5-.2-.8 0 0 0-.3.2-.3 0-.3-.1.1-.2.1-.3-.5.2-1.3-.2-2-.2-.6-.5-.7-.6-1.3 0-.2.3.1.3.1a1.4 1.4 0 0 0-.1-.9h.2s-.3-.2-.2-.6a1 1 0 0 1 .3.3l-.3-.9.3.3c-.1-.4-.2-1-.4-1v.2c0-.1 0 0 .1 0a.3.3 0 0 1 0 .4l-.1-.2c-.5.3 0 .9.1 1.3l-.3-.1.3.4c-.1.1-.3.2-.3 0-.2.3 0 .3 0 .6h-.1l.1.2s-.2.1-.2 0c-.1.5.3.8.1 1 .2.8.2 0 .5.6l-.5.4.3.1-.1.2c.1.3 0 0 .2.1-.2.4.2 1-.2 1.2.2 0 .1-.4.3 0-.4.1 0 .4 0 .8-.2-.1-.1-.4-.3 0 .4 0 0 .6 0 1 .3 0 .2.5.4 1a7.7 7.7 0 0 0-.2 1.4c.3 0 .3.6.4.9-.2 0-.3 0-.4-.2v.3a.5.5 0 0 1 .2.3h-.2a4.3 4.3 0 0 1 .2 1.4c.2 0 .5-.5.7 0h-.3v.3l-.2-.3c0 .3.2.2.2.4-.2 0-.1.1-.2 0v-.2a1.1 1.1 0 0 1-.2.6s.2 0 .2.2c0 .4-.1.1-.2.4.1.1 0 .4.2.4l-.1.2c.1.2 0 1 .3.8.3.7 0 1.5.2 2.2h-.1a5.5 5.5 0 0 0 .3 1.2l-.2.3a1.3 1.3 0 0 1 0 .8v-.3c0 .4-.2.5 0 1-.2-.1-.2.3-.1.5l.1-.3a3.4 3.4 0 0 1 0 .6h-.3c-.2.9.7 1.5.2 2.2.2.2.1-.5.3-.3 0 .4-.3.8-.3 1 0 .6.4.5.4 1 0 0 .3-.1.4.3s-.3.5-.4.3v-.1s-.1-.3-.2-.2c0 .3 0 .8-.1.7.1.3.2.1.2-.1v1.3s.1-.1.1 0c0 .7.2.3.3.8-.1.3-.3 0-.2.4 0 .4-.2.1-.3 0 .2.5 0 1 0 1.2l-.1-.2a1.5 1.5 0 0 1 0 .4l.2-.2v.3c0 .1.2-.1.4.2 0 .2.1.5-.1.6 0-.6-.2.1-.3-.4a.8.8 0 0 1 0 .4c-.2.5.2.2.2.8l-.2.3c0-.3.3-.2.4 0v.7-.3c.2.1.2.3.3.6l-.1-.2c.2.3-.2.7 0 1.2-.1.2-.3 0-.3.2.2.4-.2.5 0 1 .1-.2 0-.2.3.1l-.2-.8.3.5c0-.2-.2-.5-.1-.6.1.2 0 .2.2 0-.2.4.2.7 0 1.1h-.4c-.1.6.3 1 .3 1.9v-.3c.2.1 0 .5.2.7-.2 0-.2.2-.3.3.1 0 0 .6.3.6l-.1.4c0 .6.5.6.4 1.3-.1-.2-.2 0-.4-.3 0 .2 0 .4.1.3 0 .2.3.6.2.8 0 0 .2 0 .2.3 0 0 0 .3.2.1-.4.7.2 1.8-.2 2.3l.2 1.4c-.1.5.4.2.3.9-.2.3-.2-.4-.2-.2-.5.2 0 .8-.2 1.2-.1.3.3.7.3 1.2h-.1a4 4 0 0 1 .5 1.5c-.2-.1-.1-.2-.3 0 0 .1.3-.2.4.3 0 .1-.1.5-.4.5v-.4c-.2.2 0 .6 0 .8 0 .6.3.6.3 1.3h.1c.3.3-.1.3.1.6l-.3.2.2.5.2.7.4.1a1.7 1.7 0 0 1-.5 0 3.4 3.4 0 0 1-.2-.5v-.3a1.3 1.3 0 0 0-.2-.2v.5a3.3 3.3 0 0 0 .2.6.6.6 0 0 0 .3 0h-.3a.7.7 0 0 1 0-.3 1.4 1.4 0 0 1 .2.2 4.4 4.4 0 0 1 1.2.4c-.3.5 1.1.7 1.2 1.3a15.8 15.8 0 0 1 2.5 1.3c-.1-.6.3.1.4-.3l.3.1.6.6c0 .2-.3 0-.3.1.4.3 0 .3.4.6 0-.2.2-.2.5 0l-.3-.4c.7.2.4.7 1.1.8h-.2c.3.1 1.2.6 1.7.5v.2c.7.4 2 .5 2.4 1v.1s.3 0 .4.2c0 0-.1 0 0 0a1.3 1.3 0 0 1 .7.3h-.3c.8.5 1.4.3 2 .6 0 .3.5.7.8.9a4.3 4.3 0 0 0 .9.4.8.8 0 0 0 .2 0h.2a.3.3 0 0 1 .1.2.5.5 0 0 1 .1.2c-.3.6 0 2-.2 3 0-.2.3 0 .3.2s.2.6 0 .6v-.1c-.3.2-.2.6-.2 1h.4c-.6 1 .3 2.4-.2 3l.2.7h-.2a9.2 9.2 0 0 0 0 1.7l-.2-.1c0 .4.7.5.7.9l-.3.1a6.3 6.3 0 0 0 .1 2.3.2.2 0 0 1-.1-.1c0 .3-.2 1.4.2 1.2-.2 0 0 .8.2 1.2h-.2a1.3 1.3 0 0 1 .4.9l-.1-.1c0 .4.2.3.1.8l-.1-.2c0 .4 0 .4.2.6s0 .7-.2.8a.5.5 0 0 1 .3.5l-.2-.1c-.1.7.3 1 .1 1.4a.2.2 0 0 0-.1.1v-1c-.2 0-.2.5-.5.2a2.6 2.6 0 0 1 .4 1.3.4.4 0 0 0 0 .3 1 1 0 0 0 0 .4c-.2 0-.1.5-.1.7.2 0 .2.2.3 0v-.2c0-.2 0 0 0 0v-.6a.5.5 0 0 1 .1.6l.4.2c-.3.3-.4 1-.6 1 .2.7.2 1.6.6 2l-.2.2-.1-.3c.1.4 0 1.1.4 1.2-.1.5-.3-.2-.2.4h-.1c-.4 1.2.8 2 .3 3.3v-.2c-.1 1.6.4 3.3 0 4.9 0 .4.2.5.3.7l-.2.1.3.5c.2.6-.5 1.2-.1 2l.1-.1c0 .3.2 1 0 .9 0 0 .2 0 .1.2h-.1l.2.7c0 .6-.4 0-.4.8 0 .3.4.8.4.7s0-.3.2-.3v.3c.4 0 .8.2 1-.5l-.2-.5.1-.1v.4c.2-.3 0-.4 0-.6a.4.4 0 0 0 .1-.2l-.5-.7c.1 0 .3.2.3-.1-.1-.2-.2.2-.4-.2.2-.2.3-.1.2-.4l.2.1c-.2-.2-.1-.6-.3-.7.2-.3 0-.9.2-.8a1.3 1.3 0 0 1-.3-.7c.5.4 0-.8.5-.7-.4-.3-.2-1-.5-1.6l.1.1a1.7 1.7 0 0 1 .2-.6c-.3 0-.4-.5-.6-.7.3-.4.4.2.6 0-.2 0-.2-.5-.4-.4.1-.3 0-.3.3-.4-.4 0 0-.3-.3-.5.1-.4.3-.1.2-.5 0-.2.2.2.2.2zm-1-10.5v.2zm0-.9v.4h-.2l.1-.4zm-1.4 2v-.2.2z"/><path class="cls-11" d="M569 409c4 0 5.1 0 6.4 3.3s0 4.5 0 4.5a6.8 6.8 0 0 1 3.2 2.7c.9 1.7-.7 3.8-.7 3.8s1.8-.3 3 2a4 4 0 0 1-.3 4.3s1 0 1.7 1.4 1.8 4.2 0 6.1-27.1 13.9-30.4 13.6-5-4.5-1.9-6.2a14 14 0 0 1-4.2.5 3.7 3.7 0 0 1-4-3c-.4-1.5.8-2.9 2.3-3.7l2.3-.9a4.9 4.9 0 0 1-5-1.6c-2-2.5.8-5.3.8-5.3l4.2-2.3s-4 1-5.3-1.9 1.9-5 1.9-5 21.9-12.3 26-12.3z"/><path class="cls-14" d="M569 409h.5c-.4-5.8-1.6-16.5-5-17.1-2.5-.4-3 10.5-1 18.9a19 19 0 0 1 5.4-1.8z"/><path class="cls-17" d="M477.5 240.2a23.7 23.7 0 0 0-10 6.6 42 42 0 0 1-4.1 4.8 44 44 0 0 1-5.2 3.9c-6 4-13.9 6.8-21.2 4.8a22 22 0 0 1-13.8-12.6 24.3 24.3 0 0 1-1.2-3.6c1.6 6.9 5.6 21.7 30.8 18.1 17-2.4 14.2-12.6 31.7-18.3l.2-5.4a25.3 25.3 0 0 0-7.2 1.7zm61.2 58.7h-4a19.5 19.5 0 0 1-3.3-.4 24.9 24.9 0 0 0 20.4.5c11-4.7 9-9.4 13.5-11.3s14.6-.6 22.5-5.4 7.5-5.3 7.5-5.3l-9.9-10.5-.3.6-.2.3-.8 1.2-.3.3-.7.9-.3.4-.7.9-.3.2-1 1-.3.3-.8.7-.4.3-1.1 1h-.2l-1 .7-.4.3-1 .6-.3.1-1.3.6-.3.2-1 .4-.4.1-1.4.4c-4 1-8.2.3-12.2 1.6-4.8 1.6-5.6 7-7.6 11a14.7 14.7 0 0 1-10.5 8l-1.4.2z"/><path class="cls-9" d="M433.5 528c.8 0 .4-.3.5-.4 1-.1.5.2.8.3.6 0 1-.3 1.5-.3 0 0 .1 0 0 .1.6-.2 1.9 0 2.6-.3l.1.1a.4.4 0 0 1-.1-.4c.4 0 .7-.1.8 0l-.3.1h.3c.4.2-.5 0-.5.3a11 11 0 0 1 2.2-.3c0 .3-1.3.1-.6.3h-.9c.7.3-.5 0 .1.3h2.4c.3-.2 0-.2.2-.4 1.6-.2 1.3.7 2.5.3a1.3 1.3 0 0 1 1.3-.3l-.3.3c1 0 .6-.4 1.8-.2-.2 0-1 0-.7.1.7.2.5-.2 1-.2l.2.3 3.8-.3c0 .1-.3.2 0 .3a31 31 0 0 1 5.1.1l.6-.2c.2 0 .3.1.1.2.7 0 0-.2.4-.3s.4.2.2.2a14.5 14.5 0 0 1 4.3-.1h-.2c.8.1 1-.4 1.8-.2h-.2a40.3 40.3 0 0 1 5.6.2c.3-.3 2 .1 2-.3a12.2 12.2 0 0 0 2.4.5c.5 0 .7-.3 1.2-.4v.3l.7-.3.4.3h.4c-.2 0-.4-.2-.3-.2a3.3 3.3 0 0 1 1.8.2l1.8-.2-.6.2c1-.2.2.3 1 0l.2-.1a7.4 7.4 0 0 0 2.1 0l-.1.2h4.3c-.5-.2-.4-.4 0-.5l.2.3c.3-.2-.5-.1.1-.3.6 0 .4.3 0 .4l.7-.1-.1.2c.3-.2 1.1.2 1.5 0h3.4c0-.2.5-.2.9-.4.9.1 1.9.3 3 .3.8-.2.2-.2.6-.4 0 .2 1 .2.5.4a32.5 32.5 0 0 0 3.3-.2c-.2-.1-.4-.1-.3-.2.3 0 .7 0 .7.2h-.1c1.8-.3 4.2.5 5.7.1h-.1l1.5-.2c.7 0-.4.2.1.3 1.7-.3 2.6 0 4-.2 1 .6 3.6 0 5 .3v-.1c.3-.1.4 0 .7.1 0-.1-.4-.1-.2-.2 3-.2 6.4.2 9.5.3 1.2 0 .7-.7 2.1-.3l-.4.2c2.4-.3 4.8 0 7-.2h-.3a3 3 0 0 0 1.8 0c.3 0 0 0 .3.2.4 0 1.2-.3 1.4 0h-.2c.3 0 1.5 0 1.2-.1h2.3c.4-.3 1.5 0 1.6-.3 0 .4 1.5.3 2 .2-.2 0 .5 0 .3.2.6 0 1.1 0 1-.2 1.2.4 2.3-.4 3 .2 1.8-.2 3.5-.4 5.1-.4 0 .3-1.8 0-1.7.4a25 25 0 0 1 4-.4c.4 0-.2.2-.4.2l4.4-.1h-.3.7-.3c-.5-.3 1-.5 1.1-.6-.4.4 1.4 0 .7.6.1 0 .4 0 .3-.2.3 0 .4.1.1.2 1 0 .6-.2 1.5-.2 0 0-.2 0-.2.2a3.7 3.7 0 0 1 1.6-.2h-.2a26 26 0 0 1 3.6-.2c-.4.3.5.1.6.4h.8l-.3-.2a15.2 15.2 0 0 1 1.8-.1h-.5 1.2-.7c.7-.2 0-.4.9-.4a7.3 7.3 0 0 1 1 .2 2.6 2.6 0 0 1 1.3 0c.1 0-.1.3 0 .4.3-.3 1.6-.1 2-.3l-.1.2.3-.2c.3 0 .3 0 .3.2 1 0-.3-.4.8-.2h-.2c1 .2 2.1 0 3.1 0 .3.4-.9.1-.5.4 1.4 0 3-.4 4.4-.3h-.2c.2-.4 1 .2 1.8 0-.2 0-.3.2-.2.2a27 27 0 0 0 3.4-.2h-.1c.5.2 1.5 0 2 .2.3-.1.6-.1.4-.3 2 .6 3.7-.3 5.3.2l-.3.1h1.5c-.1-.3-.2-.2-.5-.3a2.4 2.4 0 0 1 1-.2c-.7.1 0 .3.3.4v-.2c.7.3.1-.4 1.1-.1a5.5 5.5 0 0 1 1.1 0c.2.1-.4 0-.4.2.6 0 1.1-.4 1.7-.2l-.9.1a2.2 2.2 0 0 0 1 .2l1 .1h-.2c.8-.6 1.5-.1 2.5-.5-1 .3-.2.2-.2.4l.5.2c.5-.2.8.2 1.4-.1 0 0 .5 0 .4.2.6 0-.1-.1 0-.2.9-.3 2.1.3 3.5 0 1.1-.2 1.3-.4 2.4-.5.4 0-.3.2-.3.2a4.2 4.2 0 0 0 1.6 0c-.1.1 0 .2.2.2.4 0 .3-.2.8-.1a1.5 1.5 0 0 1-.4.3l1.6-.3c.1.1-.4.2-.5.3a4.9 4.9 0 0 0 1.6-.5h-.4c.2 0 .1.1 0 .1-.5.2-.7 0-.8-.1h.4c-.4-.4-1.5 0-2.3 0l.3-.3-.8.2c-.1 0-.3-.2.1-.3-.5-.1-.5.2-1 0h-.5s-.1-.2.2-.2c-1-.1-1.5.3-2 0h.2c-1.4.1-.2.3-1.2.5l-.7-.5v.2c-.2 0-.5 0-.4-.1-.6.1 0 0-.3.2-.6-.2-1.8.1-2-.2-.2.1.7.1 0 .2-.2-.4-.9 0-1.5-.1.2-.2.8 0 .2-.3-.4.4-1.2 0-1.7 0 0 .3-1.1.1-2 .2a24 24 0 0 0-2.5-.2c-.1.3-1 .2-1.5.3 0-.2 0-.3.4-.3h-.6a1.5 1.5 0 0 1-.6.1l.1-.2a13.1 13.1 0 0 1-2.5.1c0 .2.8.6-.2.7 0-.1-.1-.3.1-.3a1.2 1.2 0 0 1-.4 0l.4-.2-.6.1c0-.1-.3 0-.2-.2s.3 0 .4 0a3 3 0 0 1-1-.2s0 .2-.3.2c-.7 0-.2-.2-.7-.3-.2.1-.6 0-.7.2l-.3-.1c-.4 0-1.8 0-1.4.2h.1c-1.3.3-2.7 0-4 0a18.4 18.4 0 0 0-2.2.2c-.3 0-.6-.2-.5-.2a4.2 4.2 0 0 1-1.4 0c.5-.2-.2-.2.6-.1a4 4 0 0 0-1.8 0c.3-.2-.6-.3-1-.2l.6.1a8.2 8.2 0 0 1-1.1 0l.2-.2c-1.5-.3-2.8.5-4 0-.4.1.8 0 .5.3a11.4 11.4 0 0 1-1.7-.4c-1-.2-1 .4-2 .3.2 0 .3.3-.4.4s-1-.4-.5-.5h.3c.2 0 .5 0 .2-.1-.4 0-1.4 0-1.2-.1-.5 0-.2.1.2.2-1-.2-1.4 0-2.4-.1l.2.1c-1.4 0-.6.2-1.6.2-.5-.1.2-.3-.7-.2-.6 0-.1-.2 0-.3a6.4 6.4 0 0 1-2-.1l.5-.1a4.6 4.6 0 0 1-.8 0l.3.2-.5-.1c-.3 0 .2.3-.3.4-.4 0-1.1.1-1.2-.1 1 0-.1-.3.8-.3a3 3 0 0 1-.7 0h.1c-1-.3-.4.2-1.5.2l-.5-.2c.5 0 .2.2-.2.3H562h.4c-.1.2-.5.2-1 .2h.3c-.6.2-1.3-.3-2-.2-.4 0 0-.2-.4-.3-.8.2-.9-.1-1.8 0 .3.2.3.2-.3.3h1.5l-1 .2 1.2-.1c-.5.1-.4 0-.2.2-.6-.2-1.2.2-2 0v-.4c-1-.2-1.8.2-3.2.1h.4c-.1.3-.8 0-1.2.2 0-.2-.3-.2-.5-.3 0 .1-1 0-1.1.3l-.6-.2c-1.1-.1-1.3.4-2.3.4.3-.2-.2-.3.5-.4h-.7c-.2 0-1 .2-1.3.1a.8.8 0 0 1-.6.2s-.6 0-.3.2c-1-.5-3 0-4-.4l-2.4.1h.1c-1-.1-.5.5-1.7.3-.5-.2.6-.1.3-.2-.2-.5-1.4 0-2.1-.2h.2a18.4 18.4 0 0 0-2.4.1 11.8 11.8 0 0 1-2.7.4c.3-.2.4-.1.2-.3-.4 0 .2.3-.6.3-.3 0-.9-.2-1-.4h.8c-.4-.2-1 0-1.4 0v-.1c-1.1 0-1.1.3-2.4.3h.1c-.6.4-.5 0-1.2 0l-.2-.2-2.4.3a11.8 11.8 0 0 1 2-.4 6.1 6.1 0 0 0-1.7.1 1.7 1.7 0 0 1 .6 0 5.5 5.5 0 0 1-2.2.4c.1-.6-2.3-.2-3-.6a46 46 0 0 1-5 0c.7.4-.5 0-.4.4a1.8 1.8 0 0 1-.6 0l-1.3-.3c-.3-.1.4 0 .4-.2-1 0-.4-.2-1-.3.1.2-.3.2-.9.2l.8.2c-1.3.2-1.1-.4-2.5-.2l.5-.1a12 12 0 0 0-3.2.4c-.1 0-.3-.2 0-.2-1.6 0-3.6.4-4.8.1-.2 0-.4.1-.8 0 0 0 .1-.1 0-.1a4.2 4.2 0 0 1-1.2.1l.3-.1c-1.5-.2-2.4.3-3.7.4 0-.4-1.2-.5-1.8-.5a43.1 43.1 0 0 0-4.8.4c-1-.4-3.6-.2-5.3-.4.3 0 0 .3-.3.3s-1.1.3-1 0h.1c-.3-.3-1.1-.3-1.7-.3l-.1.4c-1.7-.6-4.4.2-5.3-.3l-1.3.2v-.2a29.9 29.9 0 0 0-3 0l.3-.1c-.8 0-1 .6-1.7.6l-.2-.3a19 19 0 0 0-4.1 0l.3-.2c-.7 0-2.5-.2-2.3.2 0-.2-1.4 0-2 .1v-.2a3.2 3.2 0 0 1-1.5.4c-.2 0-.2-.1.1 0-.7-.2-.5.1-1.3 0l.3-.1a1.6 1.6 0 0 0-1 .2 2.2 2.2 0 0 1-1.5-.3 1.1 1.1 0 0 1-.9.3l.2-.2c-1.2-.1-1.7.3-2.5 0a.2.2 0 0 0-.2-.1h1.6c0-.2-.7-.2-.1-.5a7.5 7.5 0 0 1-2.3.3h-.1a1.4 1.4 0 0 0-.4 0 4.4 4.4 0 0 0-.6-.1c0-.2-.9-.1-1.2-.1 0 .2-.5.2 0 .3h1.4a1.5 1.5 0 0 1-1 .1 4.4 4.4 0 0 1-.5.4c-.6-.3-1.5-.5-1.7-.7a12.2 12.2 0 0 0-3.4.5c-.3 0-.4-.1-.5-.2a3.5 3.5 0 0 0 .5 0c-.6 0-1.9 0-2 .3-.9-.2.4-.3-.7-.3h.1c-2.2-.5-3.6.7-6 .1h.3c-2.8-.2-5.8.3-8.6 0a2.4 2.4 0 0 0-1.3.2l-.2-.3-.8.3c-1.2.2-2-.6-3.5-.2l.2.2c-.5 0-1.7 0-1.6-.1a.4.4 0 0 1-.4 0l-1.3.1c-1 0 .2-.4-1.3-.5-.5 0-1.6.4-1.3.5s.5 0 .5.2h-.5c0 .4-.4.7.8 1l.8-.2.3.1h-.7a1.2 1.2 0 0 0 1 0 .6.6 0 0 0 .3.1l.9-.3c0 .1-.4.3.2.3.4-.1-.4-.3.2-.4.5.2.3.3.8.2l-.2.2c.4-.1 1.1 0 1.3-.2.5.1 1.5-.1 1.4.2a3.8 3.8 0 0 1 1.2-.3c-.7.5 1.5 0 1.3.5.5-.3 1.9-.2 2.8-.3a.4.4 0 0 1-.2 0 4.7 4.7 0 0 1 1 .2c0-.3.9-.3 1.3-.5.7.3-.4.3-.2.6 0-.2 1.1-.2 1-.4.4.1.3 0 .6.3 0-.4.5 0 .9-.3.7.2.2.3 1 .2.3.1-.4.3-.4.3zm18.7-.6zm1.6 0h-.7c0-.1 0-.2.2-.2l.5.1zm-3.3-1.5h.3-.4z"/></g><g id="Shadow_1" data-name="Shadow 1"><path d="M207 145.8l-.4.2c-.1.1-.1.2 0 .2zm-12.3-10.3l-.2.2.2-.2zm-2.2.1a3 3 0 0 1 .3-.2l-.3.2zm13.5 11.2l-.2.3.2-.3zm-10.3-12.3l-.5.2v.2a5.5 5.5 0 0 1 .5-.4zm8.2 12.4a.3.3 0 0 0 0 .1l.2-.3-.2.2z" fill="none"/><path class="cls-9" d="M204.7 56a.6.6 0 0 0-.2.3z"/><path class="cls-9" d="M192 68.3v2.2c1-1.2 2.9-2.1 3.5-3.2l.8-1c.4-.5-.2.3.2 0 .8-1.2 1.7-1.5 2.3-2.5 1.1-.2 2.3-2.3 3.5-3h-.2c.2-.3.4-.2.5-.4 0 0-.3.2-.2 0A53 53 0 0 1 207 56h-2l-.5.6a4 4 0 0 1 .3-.6 4.5 4.5 0 0 1-1 1.4c-.4-.5-1.6 1.4-2.3 1.5a35.2 35.2 0 0 1-3.2 3c.8 0-.3.4.1.6l-.4.4-1 .6c-.3.1.2-.3 0-.4-.5.6-.3.1-.8.4.2 0 0 .4-.4.7l.6-.3c-.6 1-1 .4-1.6 1.4l.2-.3c-.4.5-1.6 1.6-1.7 2.2-.1 0-.3 0-.1-.1a11 11 0 0 0-1.2 1.2zm6.3 16.7c-.2-.2-1 .5-1.5.8a33.5 33.5 0 0 0-2.7 3.3 9.7 9.7 0 0 0-2.1 1.7v2.8l2.3-2.3c-.4.2-.5 0-.3-.3h.3c0-.3-.3.2-.1-.2.4-.4.4 0 .3.2l.3-.5c.1 0 0 .1 0 .2 0-.3 1-.5 1-1h.1l2-2.2.4-.7a25.6 25.6 0 0 0 2-1.7c.4-.6 0-.3.1-.6.2.1.8-.6.6-.1a28.1 28.1 0 0 0 1.9-2.2h-.3l.5-.3c1-1.3 3-2.2 3.7-3.4l.8-1c.5-.4-.2.3.3.1.7-1.2 1.6-1.6 2.3-2.6 1-.2 2.3-2.3 3.4-3h-.1c.1-.3.3-.2.5-.4-.1 0-.3.2-.3 0 1.9-2 4.2-3.8 6.2-5.7.8-.7 0-1 1-1.6v.4c1.2-1.6 3-3 4.2-4.5l-.1.3c.4-.2 1.1-1.1 1-1.2.2-.2.1 0 .3 0 .4-.3.6-1 1-1l-.2.2c.2-.3 1-1 .6-.9l1.5-1.4a.6.6 0 0 1 .1-.3h-2l-1.4 1.5c-.7.4 0 .6-.8 1.2-.5.2.3-.5 0-.3-.5-.3-.8.9-1.5 1.1l.1-.1c-.5.2-.7 1-1.3 1.5a9.9 9.9 0 0 1-1.5 2c0-.3.2-.3 0-.3-.3.3.3.1-.2.7-.2 0-.7.4-.9.3l.5-.5c-.4 0-.6.6-.9.8v-.1c-.7.7-.5 1-1.3 1.7h.1c-.2.7-.5.3-.7.9l-.4-.1-1.2 1.7a9.9 9.9 0 0 1 .9-1.6 4.8 4.8 0 0 0-1 1.3c0-.2.2-.4.3-.4a4.3 4.3 0 0 1-1 1.5c-.4-.5-1.6 1.4-2.4 1.5a36.6 36.6 0 0 1-3 3c.6-.1-.4.3 0 .6l-.4.3-1 .7c-.3 0 .2-.4 0-.4-.5.5-.3.1-.8.4.2 0 0 .4-.4.6l.6-.3c-.6 1-1 .5-1.6 1.5l.1-.4c-.3.5-1.5 1.5-1.7 2.2 0 0-.3 0-.1-.1-1 1-2 2.5-3 3.1v-.2c0 .3 0 .5-.4.7 0 0 0-.2-.1 0a2.7 2.7 0 0 1-.7.7l.2-.3c-1.1 1-1.3 1.8-2 2.7zm53.6-29h-2l-.1.1c-.3.2-.2-.1-.5 0-.4.7-.7.5-1.1 1.1.3 0 .3 0 0 .4l.8-1-.4.8.7-.8c-.2.4-.2.3 0 .3-.5.2-.6.9-1.2 1.2l-.3-.4c-.8.6-1 1.4-2 2.2l.4-.3c0 .3-.6.6-.8 1 0-.2-.3 0-.5 0 .1 0-.6.6-.5.9l-.5.2c-.7.7-.5 1.1-1.2 1.8.1-.4-.3-.1 0-.7l-.3.5c-.2 0-.5.8-.8.9 0 .1 0 .3-.2.5s-.4.4 0 .3c-1 .4-2 2-2.8 2.3l-1.4 1.6c0-.1-.1 0 0-.2-.7.5-.1.7-1 1.3-.4.2.4-.5 0-.3-.4-.3-.7.9-1.4 1.1h.1c-.5.2-.7 1-1.3 1.5a9.2 9.2 0 0 1-1.5 2c0-.4.2-.4 0-.4-.3.2.3.1-.2.6-.2.1-.7.4-.9.3l.5-.4c-.4 0-.6.6-.9.8V75c-.7.7-.5 1-1.3 1.7h.1c-.2.6-.4.2-.7.8h-.4l-1.2 1.7a9.9 9.9 0 0 1 1-1.6 4.8 4.8 0 0 0-1 1.2 1.2 1.2 0 0 1 .2-.4 4.4 4.4 0 0 1-1 1.6c-.4-.5-1.6 1.3-2.3 1.4a38.4 38.4 0 0 1-3.2 3c.8 0-.3.4.1.6l-.4.4-1 .6c-.3.1.2-.3 0-.3-.5.5-.3 0-.8.4.2 0 0 .3-.4.6l.6-.3c-.6 1-1 .4-1.6 1.4l.2-.3c-.4.4-1.6 1.5-1.7 2.2-.1 0-.3 0-.2-.2-1 1-2 2.6-2.9 3.2v-.2c-.1.2-.2.5-.5.6 0 0 0-.1 0 0a2.8 2.8 0 0 1-.7.8l.1-.3c-1 .9-1.3 1.7-2 2.6-.3-.2-1.1.5-1.6.8a32.5 32.5 0 0 0-2.7 3.3c-.9.4-2.3 2.1-3.5 3 .2-.1.1.2 0 .4s-.5.9-.7.6c-.3 0-.8.5-1.2.9l.2.3c-1.4.7-2.5 2.9-3.5 3.1-.1.3-.5.6-.6 1l-.2-.2a22.3 22.3 0 0 0-2 2l.2-.4c-.5.5-.2 1-.7 1.5h-.3l-1 1v2.2a16.6 16.6 0 0 1 2.6-2.4c0-.4 1.3-1.1 1-1.5a10 10 0 0 0 1.9-1.2l.5-1 .1.2.3-.6h.4l.3-.3c-.1 0-.3.2-.4 0a2.7 2.7 0 0 1 1.4-1l1-1.2-.2.5c.4-.7.2 0 .6-.6v-.2a5.8 5.8 0 0 0 1.4-1.3v.2l2.6-2.7c-.4.2-.5 0-.3-.3h.3c.1-.2-.3.3 0-.2.3-.4.3 0 .2.2l.4-.5v.2c0-.2.9-.5 1-1 1-.9 1.4-1.4 2-2.1l.4-.8a23.7 23.7 0 0 0 2-1.7c.4-.6 0-.3 0-.6.3.1 1-.6.7-.1a26.1 26.1 0 0 0 1.9-2.2h-.3l.5-.3c1-1.3 3-2.2 3.7-3.4l.8-1c.4-.4-.2.4.2.1.8-1.2 1.7-1.6 2.4-2.6 1-.2 2.3-2.3 3.4-3h-.2c.2-.3.4-.2.6-.3h-.3c1.8-2 4.1-3.9 6.2-5.8.7-.6 0-.8 1-1.5v.4c1.2-1.7 3-3 4.2-4.6l-.1.3c.4-.1 1-1 1-1.2.2-.2.1 0 .3 0 .4-.2.6-.9.9-1l-.1.2c.1-.2 1-.9.6-.8l1.5-1.5c0-.4 1-.8.8-1.1.2.2 1.1-.8 1.4-1.2 0 .2.3-.2.3 0 .4-.4.7-.8.5-.9 1-.4 1.2-1.6 2-1.7l3-3.5c.2.3-1.1 1.2-.8 1.4a19 19 0 0 1 2.3-2.8c.2-.2 0 .3-.1.4l2-2.2zm-59.6 82l.2.1 2.2-2.5s0 .2.2.1a24.1 24.1 0 0 1 3.3-3l.3-.6s.2-.1.1 0c.5-.3 0-.1 0-.4s.4-.2.3 0a11.3 11.3 0 0 1 2.6-2.8l-.1.2c.6-.5.3-1 1-1.3l-.1.1a32.2 32.2 0 0 1 3.7-3.3c0-.4 1.3-1.1 1-1.5a10.2 10.2 0 0 0 1.9-1.2c.2-.2.2-.6.4-1l.2.2.3-.6h.4l.3-.4-.4.2a2.8 2.8 0 0 1 1.4-1l1-1.3-.2.5c.4-.8.2 0 .6-.6v-.2a5.7 5.7 0 0 0 1.4-1.3v.2l2.6-2.8c-.4.3-.5 0-.2-.3l.2.1c.1-.3-.3.2 0-.3.3-.3.4 0 .2.3l.4-.5v.2c0-.3.9-.5 1-1l2-2.2.4-.7a23.3 23.3 0 0 0 2-1.7c.4-.6 0-.3.1-.6.2.1.8-.6.6-.1a26.8 26.8 0 0 0 1.9-2.2h-.3l.5-.3c1-1.3 3-2.2 3.7-3.4l.8-1c.4-.4-.2.3.2 0 .8-1.2 1.7-1.5 2.4-2.5 1-.2 2.3-2.3 3.4-3h-.2c.2-.3.4-.2.6-.4-.1 0-.4.2-.3 0 1.8-2 4.1-3.8 6.2-5.7.7-.7 0-.9 1-1.6v.5c1.2-1.7 3-3 4.2-4.6l-.1.3c.4-.2 1-1 1-1.2.2-.2.1 0 .3 0 .4-.2.6-1 .9-1l-.1.2c.1-.3 1-1 .6-.9.6-.4 1-1 1.5-1.4 0-.5 1-.8.8-1.2.2.3 1.1-.7 1.4-1.2 0 .2.3-.2.3 0 .4-.4.7-.8.5-.8 1-.4 1.2-1.7 2-1.7l3-3.5c.2.3-1.1 1.1-.8 1.3a20.2 20.2 0 0 1 2.3-2.7c.2-.2 0 .2-.1.4.9-1.1 1.9-2 2.6-3v.3c0-.1.3-.3.2-.4l-.1.2c-.4.1.3-1 .3-1.1 0 .6 1-.8.9 0v-.3c.2-.2.3-.2.2 0 .6-.6.2-.5.8-1v.2a3 3 0 0 1 .9-1.2v.2a20 20 0 0 1 2-2.3c0 .5.4-.2.6 0l.4-.6h-.2l1-1.1-.2.4.7-.9-.5.4c.3-.5-.3-.2.3-.7 0 .1.4-.4.8-.5a2 2 0 0 1 .6-.8c.2 0 .2.3.3.2 0-.3.9-1 1-1.4h-1.2a8.7 8.7 0 0 0-.8.4c-.7.5-.3.9-1 1.4.2 0 .4.1 0 .6s-.8.3-.6 0c.1 0 .2-.1.2 0 .1-.2.3-.5 0-.4v.2c-.3.1-.9.7-.8.5-.3.4 0 .2.2 0-.7.5-.9.9-1.5 1.4h.2c-1 .8-.3.5-.9 1.1-.4.3 0-.3-.6.3-.4.3-.2 0-.1-.2a5.1 5.1 0 0 1-1.4 1.2l.2-.4a3.4 3.4 0 0 1-.4.5h.3l-.4.2c-.1.3.3.1.1.6-.3.1-.6.7-.8.6.7-.6-.3 0 .3-.7a1.8 1.8 0 0 1-.4.4c-.9.4-.2.4-.9 1 0 0-.3 0-.4.2.3-.3.3 0 .1.3-.5.4-.4.6-.6.8l.2-.2c0 .2-.2.4-.5.7 0 0 .3-.3.1-.2-.1.5-1 .6-1.3 1.1-.3.2-.2-.1-.4 0-.4.7-.7.5-1.2 1.2.3 0 .3-.1 0 .4l.8-1-.4.8.7-.9c-.1.4-.1.4.1.3-.6.2-.7 1-1.2 1.2l-.3-.3c-.8.5-1 1.3-2 2.1l.3-.2c0 .2-.5.5-.7.9-.1-.2-.3 0-.5 0 .1 0-.6.6-.5 1l-.5.2c-.8.6-.5 1-1.2 1.7 0-.3-.3 0 0-.6-.2.2-.4.4-.3.5-.2 0-.5.7-.8.8l-.2.6s-.4.4 0 .3c-1 .3-2 2-2.9 2.2l-1.4 1.6v-.1c-.7.5 0 .7-.8 1.3-.5.1.3-.5 0-.3-.5-.3-.8.8-1.5 1.1l.1-.1c-.5.2-.7 1-1.3 1.5a9.4 9.4 0 0 1-1.5 2c0-.3.2-.3 0-.3-.3.2.3.1-.2.7-.2 0-.7.3-.8.2l.4-.4c-.4 0-.6.6-.9.8v-.1c-.7.7-.5 1-1.3 1.7h.1c-.2.6-.4.3-.7.8h-.3a21 21 0 0 1-1.3 1.7 8.8 8.8 0 0 1 1-1.6 4.9 4.9 0 0 0-1 1.2 1.4 1.4 0 0 1 .2-.4 4.4 4.4 0 0 1-1 1.6c-.4-.5-1.6 1.3-2.3 1.4a35.2 35.2 0 0 1-3.2 3c.8 0-.3.4.1.6l-.4.4-1 .6c-.3.1.2-.3.1-.3-.6.5-.4 0-.8.4.2 0 0 .3-.5.6l.7-.3c-.7 1-1 .4-1.7 1.4l.2-.3c-.4.5-1.6 1.5-1.7 2.2-.1 0-.3 0-.2-.2-1 1-2 2.6-2.9 3.2v-.2c-.1.2-.1.5-.5.6 0 0 0-.1 0 0a3 3 0 0 1-.7.8l.1-.4c-1 .9-1.3 1.7-2 2.6-.3-.2-1.2.5-1.6.8a35 35 0 0 0-2.7 3.3c-.9.4-2.3 2.1-3.5 3 .2-.1.1.2 0 .4s-.5.9-.7.6c-.3 0-.8.5-1.2.9l.2.3c-1.4.7-2.5 2.9-3.5 3.1-.2.3-.5.6-.6 1l-.2-.2a20.7 20.7 0 0 0-2 2l.2-.4c-.5.5-.2 1-.7 1.5h-.3a14.9 14.9 0 0 0-2.5 2.5v-.3c-.4.4-1.7 1.4-1.2 1.6-.2-.2-1 .8-1.3 1.4v-.3a2.6 2.6 0 0 1-.7 1.3c-.2 0-.2 0 0-.2-.5.4-.2.5-.8 1l.1-.3a1.3 1.3 0 0 0-.5.8c-.2.3-.9.8-1 .7a1 1 0 0 1-.5.7v-.2c-.8.6-.9 1.3-1.5 1.6a.2.2 0 0 0-.2 0l1-1c-.1-.1-.6.3-.4-.2a6.1 6.1 0 0 1-1.3 1.7 1 1 0 0 0-.3.3 3.7 3.7 0 0 0-.5.3l-.8.7c.2.1-.2.4.2.3l.2-.3a.6.6 0 0 0 .1 0l.6-.7a1.2 1.2 0 0 1-.6.7v.6a2.2 2.2 0 0 0-.5.1v1.6a.7.7 0 0 1 0 .1v.2c.2-.2 0-.3.3-.6zm3-3.3l.4-.2a5.5 5.5 0 0 0-.5.4v-.2zm-.6.8l-.3.2zm-2.1.2a.2.2 0 0 1 0-.2l.2-.2a3 3 0 0 0-.2.3z"/><path class="cls-9" d="M273.9 56.2V56h-.2l.2.2zm-72.1 95.3c0-.3 0-.6.6-1v.4c.7-.7 0-.7 1-1.3 0 .2-.5.6-.4.5.7-.3.2-.4.6-.8l.3.1 2.1-2.5s0 .3.2.1a24.7 24.7 0 0 1 3.3-3l.3-.6h.1c.5-.3 0 0 0-.3s.4-.2.3 0a11.3 11.3 0 0 1 2.6-2.8l-.1.2c.6-.5.3-1 1-1.4v.2a32.4 32.4 0 0 1 3.6-3.4c0-.4 1.3-1 1-1.5a9.7 9.7 0 0 0 1.8-1.1c.3-.3.2-.6.5-1l.2.2.3-.6h.4l.3-.4-.4.1c.4-.5 1.3-1 1.4-1l1-1.2-.3.5c.5-.8.3 0 .7-.7-.1 0 0-.1 0-.1a5.9 5.9 0 0 0 1.3-1.3v.2l2.7-2.8c-.4.3-.5 0-.3-.3l.3.1c0-.3-.3.2-.1-.3.4-.3.4 0 .3.2l.3-.4c.1 0 0 .1 0 .2.1-.3 1-.6 1-1h.1l2-2.2.4-.8a21.9 21.9 0 0 0 2-1.7c.4-.5 0-.2.1-.5.2 0 .8-.6.6-.2a26.1 26.1 0 0 0 2-2.2c-.3 0-.4.2-.4 0s.5-.3.5-.2c1-1.3 3-2.2 3.7-3.4l.8-1c.5-.5-.2.3.3 0 .7-1.2 1.6-1.5 2.3-2.5 1-.3 2.3-2.3 3.4-3h-.1c.1-.3.3-.2.5-.4-.1 0-.3.2-.3 0 1.9-2 4.2-3.8 6.2-5.7.8-.7 0-.9 1-1.6v.5c1.2-1.7 3-3 4.2-4.6l-.1.3c.4-.2 1.1-1.1 1-1.2.2-.2.1 0 .3 0 .4-.2.6-1 1-1l-.2.2c.2-.3 1-1 .6-.9l1.5-1.4c.1-.5 1-.9.8-1.2.3.3 1.2-.7 1.4-1.2 0 .2.4-.2.3 0 .4-.4.7-.8.5-.8 1-.4 1.2-1.7 2-1.7l3-3.5c.2.3-1 1.1-.8 1.4a20.5 20.5 0 0 1 2.3-2.8c.3-.2 0 .2 0 .4.8-1.1 1.8-1.9 2.6-2.9a.6.6 0 0 1-.2.2c.2-.1.5-.3.4-.4l-.2.2c-.4.1.4-1 .3-1.1 0 .6 1-.8.9 0 0 0 .2-.3 0-.3.3-.2.4-.2.3 0 .5-.6.2-.5.7-1v.2a3 3 0 0 1 1-1.2v.2a19.3 19.3 0 0 1 2-2.4c0 .5.4-.2.6 0l.4-.6h-.2c.4-.3.6-.9 1-1.1l-.2.3.7-.8-.5.4c.3-.5-.3-.2.3-.7l.8-.5a2 2 0 0 1 .6-.8c.2 0 .2.2.3.2 0-.3 1-1 1-1.4v.2-.3c.3-.1.4-.2.4 0 .6-.5-.4 0 .4-.6l-.1.2c.8-.7 1.3-1.5 2-2 .4 0-.5.6-.1.5.9-1 1.6-2.1 2.6-3l-.2.2c-.2-.5.8-.6 1.1-1.2v.3a19.5 19.5 0 0 0 2-2.3v.1c.4-.2 1-.9 1.4-1.2 0-.2.2-.4 0-.4a4.8 4.8 0 0 0 1.6-1.5 8.4 8.4 0 0 0-1-.2.4.4 0 0 1 0 .2c-.5.5-.3 0-.7.3 0 .2-.4.4-.2.6-.2.1-.3 0-.4 0-.1.4-1.1 1.2-.7 1h.1a31.7 31.7 0 0 1-2.5 2.5 14.6 14.6 0 0 0-1.3 1.5l-.4.1a3.1 3.1 0 0 1-1 1l.4-.5a3 3 0 0 0-1 1.1c0-.3-.6.2-.8.5l.4-.3a6.6 6.6 0 0 1-.7.7v-.3c-1.2.8-1.4 2.1-2.5 2.5-.1.4.6-.4.5 0a9.8 9.8 0 0 1-1.3.7c-.7.5-.3.8-1 1.4.1 0 .4 0 0 .6s-.8.3-.6 0l.2-.1c.1-.2.3-.4 0-.3v.1c-.3.2-.9.8-.8.6-.3.4 0 .2.2 0-.7.4-.9.8-1.5 1.4h.2c-1 .8-.3.5-.9 1-.4.3 0-.3-.6.4-.4.3-.2 0-.1-.3a5 5 0 0 1-1.4 1.2l.2-.3a3.3 3.3 0 0 1-.4.5h.3l-.4.2c-.1.2.3 0 .1.5-.3.2-.6.8-.8.7.7-.7-.3-.1.3-.7a2.8 2.8 0 0 1-.4.4c-.1 0 0 0 0-.1-.9.5-.2.5-.9 1.1 0-.1-.3 0-.4.2.3-.3.3 0 .1.3-.5.4-.4.5-.7.8l.4-.3c0 .2-.3.4-.6.8 0 0 .3-.4.1-.3-.1.5-1 .6-1.3 1.2-.3.2-.2-.2-.4 0-.4.7-.7.4-1.2 1.1.3 0 .3 0 0 .4l.9-1-.5.8.7-.8c-.1.4-.1.3.1.3-.6.2-.6.9-1.2 1.2l-.3-.4c-.8.6-1 1.4-2 2.2l.3-.3c0 .3-.5.6-.7 1-.1-.2-.3 0-.5 0 .1 0-.6.6-.5.8l-.5.3c-.8.6-.5 1-1.2 1.7 0-.3-.3 0 0-.6-.2.2-.4.4-.3.5-.2 0-.5.7-.8.8l-.2.6s-.4.4 0 .3c-1 .4-2 2-2.9 2.3l-1.4 1.6v-.2c-.7.6 0 .7-.9 1.3-.5.2.3-.5 0-.3-.4-.2-.7.9-1.4 1.2v-.2c-.4.3-.7 1-1.3 1.6a9.6 9.6 0 0 1-1.4 2c0-.3.1-.3-.1-.4-.2.3.3.2-.2.7-.2 0-.6.4-.8.3l.4-.5c-.4 0-.6.6-.9.9v-.2c-.7.8-.5 1-1.3 1.8h.1c-.2.6-.4.2-.7.8h-.3c-.3.2-.8 1-1.3 1.6a9.9 9.9 0 0 1 1-1.5 4.8 4.8 0 0 0-1 1.2l.2-.4a4.3 4.3 0 0 1-1 1.6c-.4-.5-1.6 1.3-2.3 1.4a36.6 36.6 0 0 1-3.2 3c.8 0-.3.4.1.6l-.4.4-1 .6c-.3.1.2-.3.1-.3-.6.5-.4 0-.9.4.2 0 0 .4-.4.6l.7-.3c-.7 1-1 .5-1.7 1.4l.2-.3c-.4.5-1.6 1.5-1.7 2.2-.1 0-.3 0-.2-.2-1 1-2 2.6-2.9 3.2v-.2c-.1.2-.2.5-.5.7v-.1a2.8 2.8 0 0 1-.7.8l.1-.3c-1 1-1.3 1.8-2 2.6-.3-.2-1.1.5-1.6.8a33.5 33.5 0 0 0-2.7 3.2c-1 .4-2.3 2.1-3.5 3 .2-.1.1.2 0 .4s-.6.9-.7.6c-.3 0-.8.5-1.2.9l.2.3c-1.4.6-2.6 2.9-3.5 3l-.7 1-.1-.1a23.7 23.7 0 0 0-2 1.9l.1-.3c-.5.5-.1 1-.6 1.5l-.3-.1a15.3 15.3 0 0 0-2.6 2.5l.1-.2c-.4.4-1.7 1.4-1.2 1.5-.3-.2-1 .9-1.3 1.4v-.2a2.6 2.6 0 0 1-.7 1.2c-.2.1-.3 0 0-.1-.5.3-.2.5-.8.9v-.3a1.2 1.2 0 0 0-.4.8c-.2.3-.9.8-1 .7a1 1 0 0 1-.5.7v-.2c-.8.7-.9 1.3-1.6 1.7a.1.1 0 0 0-.1 0l1-1c-.2-.2-.7.3-.5-.3a6 6 0 0 1-1.1 1.8h-.1a1.1 1.1 0 0 0-.3.3 3.6 3.6 0 0 0-.4.3c-.2 0-.6.5-.8.7.1.1-.2.4.2.2l.2-.2v-.1l.6-.6a1.2 1.2 0 0 1-.5.7l-.1.6c-.6 0-1.3.6-1.5.5a9.3 9.3 0 0 0-1.8 2.5c-.2.3-.3.2-.4.2l.2-.4-.7.9a10.3 10.3 0 0 0 1.9.3 1.1 1.1 0 0 0 .3-.4zm4.7-5.5c0 .1.3 0 .5-.2l-.5.4v-.2zm-.5.8l-.2.3c0-.1 0-.2.2-.3zm-2.1.2a.3.3 0 0 1 0-.2l.2-.2zm20.2 4.6v.2c.6-.5.3-1 1-1.4l-.1.2a32.5 32.5 0 0 1 3.6-3.4c0-.4 1.3-1 1.1-1.5a10 10 0 0 0 1.8-1.1c.3-.3.2-.6.5-1l.1.2.3-.6h.4l.3-.4c-.1.1-.3.2-.4.1a2.7 2.7 0 0 1 1.4-1l1-1.2-.2.5c.4-.8.3 0 .7-.7l-.1-.1a6 6 0 0 0 1.4-1.3v.2l2.6-2.8c-.4.3-.5 0-.2-.3h.3c0-.2-.4.3-.2-.2.4-.3.5 0 .3.2l.4-.5v.3c0-.3 1-.6 1-1l2-2.2.4-.8a23.7 23.7 0 0 0 2-1.7c.4-.5 0-.2.1-.5.2 0 .8-.6.6-.2a26.1 26.1 0 0 0 2-2.2c-.3.1-.4.2-.4 0l.5-.2c1-1.3 3-2.2 3.7-3.4l.8-1c.5-.4-.2.4.2.1.8-1.2 1.7-1.6 2.4-2.6 1-.2 2.3-2.3 3.4-3h-.1c0-.3.3-.2.5-.3h-.3c1.9-2 4.2-3.9 6.2-5.8.7-.6 0-.8 1-1.5v.4c1.2-1.7 3-3 4.2-4.6l-.1.4c.4-.2 1.1-1.2 1-1.3.2-.2.1 0 .3 0 .4-.2.6-.9.9-1v.2c0-.2.9-.9.5-.8l1.5-1.5c.1-.4 1-.8.8-1.1.2.2 1.2-.8 1.4-1.2 0 .2.4-.2.3 0 .4-.4.7-.8.5-.9 1-.4 1.2-1.6 2-1.7l3-3.5c.2.3-1 1.2-.8 1.4a19 19 0 0 1 2.3-2.8c.3-.2 0 .3-.1.4.9-1 2-1.9 2.7-2.9l-.2.3c.2-.2.5-.4.3-.5l-.1.2c-.4.1.4-1 .3-1 0 .5 1-.9.9 0 0-.2.2-.3 0-.4.2-.1.3-.2.3.1.5-.7.2-.6.7-1.1v.3a3 3 0 0 1 1-1.2v.2a21.2 21.2 0 0 1 2-2.5c0 .5.4-.2.6 0l.4-.6-.2.1c.4-.4.6-.9 1-1.2l-.2.4.7-.8-.5.3c.3-.5-.3-.2.3-.7 0 .2.5-.4.8-.5a2.1 2.1 0 0 1 .6-.8c.2 0 .2.3.3.3 0-.4 1-1 1-1.5a.2.2 0 0 0 .1.3v-.4h.3c.7-.5-.4 0 .4-.6v.2c.7-.7 1.2-1.4 2-2 .3 0-.6.6-.2.5l2.6-3-.2.2c-.2-.4.8-.5 1.1-1.1v.2a12.7 12.7 0 0 0 1.5-1.7v-.9l-1.9 1.8a13.3 13.3 0 0 0-1.3 1.5c-.1.2-.4.3-.4.1a3.3 3.3 0 0 1-1 1l.4-.5c-.5.5-.7.5-1 1.1 0-.3-.6.2-.8.5l.4-.2a6.5 6.5 0 0 1-.7.6V76c-1.2.8-1.4 2.2-2.5 2.5-.1.4.6-.4.5 0a9.9 9.9 0 0 1-1.3.7c-.7.5-.3.9-1 1.4.2 0 .4.1 0 .6s-.8.3-.6 0h.2c.2-.2.3-.5 0-.3s-.9.8-.8.6c-.3.4 0 .2.2 0l-1.5 1.4h.2c-1 .8-.3.5-.8 1.1-.5.3-.2-.3-.7.3-.4.3-.2 0-.1-.2a4.8 4.8 0 0 1-1.4 1.2l.2-.4a3.4 3.4 0 0 1-.4.5h.3c-.2.2-.3.3-.4.2 0 .3.3.1.1.6-.3.1-.6.7-.8.6.7-.6-.3 0 .3-.7a1.7 1.7 0 0 1-.4.4c-.8.4-.1.4-.8 1.1 0-.2-.4 0-.5.1.3-.3.3 0 .1.4-.5.3-.4.5-.6.7l.3-.2c0 .2-.3.4-.5.7-.1 0 .2-.3 0-.2-.1.5-.9.6-1.3 1.2-.2.1-.2-.2-.4 0-.4.6-.7.4-1.2 1 .3 0 .3 0 0 .5l.9-1-.5.8.7-.8c-.1.3-.1.3.1.2-.6.2-.6 1-1.2 1.2l-.3-.3c-.8.5-1 1.3-2 2.1l.4-.2c0 .2-.5.6-.8.9h-.5c.1.1-.6.7-.5 1l-.5.2c-.7.6-.5 1-1.2 1.7.1-.3-.3 0 .1-.6l-.4.5c-.2 0-.5.7-.8.8l-.2.6s-.4.4 0 .3c-1 .3-2 2-2.8 2.2l-1.4 1.6v-.1c-.7.5-.1.7-1 1.3-.4.1.4-.5 0-.3-.4-.3-.7.8-1.4 1.1l.1-.1c-.5.2-.7 1-1.3 1.5a9.2 9.2 0 0 1-1.5 2c0-.3.2-.4 0-.4-.3.3.2.2-.2.7-.3 0-.7.4-.9.3l.5-.5c-.5 0-.6.6-1 .8-.6.7-.4 1-1.2 1.7h.1c-.2.6-.4.2-.7.8l-.3-.1a21 21 0 0 1-1.3 1.7 9.9 9.9 0 0 1 1-1.5 4.8 4.8 0 0 0-1 1.2 1.2 1.2 0 0 1 .2-.4 4.4 4.4 0 0 1-1 1.6c-.4-.5-1.6 1.3-2.3 1.4a36.6 36.6 0 0 1-3.2 3c.8-.1-.3.3.1.6l-.4.4-1 .6c-.3 0 .2-.3.1-.4-.6.6-.4.1-.9.4.2 0 0 .4-.4.7l.6-.3c-.6 1-1 .4-1.6 1.4l.2-.4c-.4.5-1.6 1.6-1.7 2.3-.1 0-.3 0-.2-.2-1 1-2 2.5-2.9 3.1v-.1c-.1.2-.1.5-.5.6 0 0 0-.1 0 0a3 3 0 0 1-.7.8l.1-.3c-1 .9-1.3 1.7-2 2.6-.3-.3-1.1.4-1.6.8a32.7 32.7 0 0 0-2.7 3.3c-.9.4-2.3 2-3.5 3 .2-.1.1.2 0 .4s-.5.8-.7.6v-.1c-.3 0-.8.6-1.2 1l.2.3c-1.4.6-2.5 2.9-3.5 3-.1.4-.5.7-.6 1l-.2-.1a23.9 23.9 0 0 0-1.9 1.9v-.5c-.5.5-.2 1-.6 1.5h-.4a15.3 15.3 0 0 0-2.5 2.5.3.3 0 0 1 0-.3c-.3.4-1.6 1.4-1.2 1.5-.2-.1-.9.9-1.2 1.4l-.1-.2-.2.6h1.8a3.2 3.2 0 0 1 .5-.4zM304 92.3c-.3.2-.6.5-.5.3-.3.4 0 .2.2 0l-1.5 1.4h.2c-1 .8-.3.5-.8 1.1-.5.3-.2-.3-.7.3-.4.3-.2 0-.1-.3a5.1 5.1 0 0 1-1.4 1.3l.2-.4a3.4 3.4 0 0 1-.4.5h.3l-.4.2c-.1.3.3.1.1.5-.3.2-.6.8-.8.7.7-.6-.3 0 .3-.7a1.8 1.8 0 0 1-.4.4v-.1c-.9.5-.2.5-.9 1.2 0-.2-.3 0-.4 0 .3-.2.3 0 .1.4-.5.4-.4.6-.6.8l.3-.2-.6.7s.3-.3.1-.3c-.1.6-1 .6-1.3 1.2-.3.2-.2-.1-.4 0-.4.7-.7.5-1.2 1.1.3 0 .3 0 0 .5l.9-1-.5.7.7-.8c-.1.4-.1.4.1.3-.6.2-.6.9-1.2 1.2l-.3-.3c-.8.5-1 1.3-2 2.1l.3-.2c0 .2-.5.5-.7.9-.1-.2-.3 0-.5 0 .1 0-.6.6-.5 1l-.5.2c-.8.6-.5 1-1.2 1.7 0-.3-.3 0 0-.6-.2.2-.4.4-.3.5-.2 0-.5.7-.8.8 0 .2 0 .3-.2.5s-.4.5 0 .4c-1 .4-2 2-2.9 2.3l-1.4 1.6v-.2c-.7.5 0 .7-.8 1.3-.6.2.2-.5 0-.3-.5-.3-.8.9-1.5 1.1l.1-.1c-.5.2-.7 1-1.3 1.6 0 0 0-.1 0 0a9 9 0 0 1-1.5 2c0-.4.2-.4 0-.4-.3.2.2.1-.3.6-.2.1-.6.4-.8.3l.5-.4c-.5 0-.6.6-1 .8v-.1c-.6.7-.4 1-1.2 1.7h.1c-.2.6-.5.2-.7.8h-.4l-1.2 1.7a9.4 9.4 0 0 1 1-1.6 4.6 4.6 0 0 0-1 1.2 1.2 1.2 0 0 1 .2-.4 4.3 4.3 0 0 1-1 1.6c-.4-.5-1.6 1.3-2.3 1.4a35.2 35.2 0 0 1-3.2 3c.7 0-.3.4.1.7l-.4.4-1 .6c-.3 0 .2-.4 0-.4-.5.6-.3.1-.8.4.2 0 0 .4-.4.7l.6-.4c-.6 1-1 .5-1.6 1.5l.2-.4c-.4.5-1.6 1.6-1.7 2.2-.2 0-.3 0-.2-.1-1 1-2 2.5-2.9 3.1v-.1c-.2.2-.2.4-.5.6 0 0 0-.2 0 0a2.9 2.9 0 0 1-.7.8l.2-.4c-1 .9-1.3 1.7-2 2.6-.3-.2-1.1.5-1.6.8a35 35 0 0 0-2.7 3.3c-.9.4-2.3 2-3.5 3 .2-.2.1.2 0 .4s-.5.8-.7.6v-.1c-.3 0-.8.5-1.2 1l.2.3a4.7 4.7 0 0 0-1.4 1h2.9v-.3a5.7 5.7 0 0 0 1.4-1.3v.2l2.6-2.7c-.4.3-.5 0-.3-.3h.3c0-.2-.3.3-.1-.2.4-.3.4 0 .3.2l.3-.5v.3c.1-.3 1-.6 1-1h.1l2-2.2c-.1-.2.2-.4.3-.8a23.3 23.3 0 0 0 2-1.7c.4-.5 0-.2.2-.6.1.2.8-.5.5 0a26.8 26.8 0 0 0 2-2.3c-.2 0-.4.2-.3 0s.4-.4.5-.3v.1c1-1.3 3-2.2 3.7-3.4l.8-1c.4-.5-.2.3.2 0 .8-1.2 1.7-1.5 2.4-2.5 1-.3 2.2-2.4 3.4-3h-.2c.2-.3.4-.2.5-.4 0 0-.3.2-.2 0 1.8-2 4.1-3.8 6.2-5.7.7-.7-.1-1 1-1.6v.4c1.2-1.6 3-3 4.2-4.5l-.1.3c.4-.2 1-1.1 1-1.2.2-.3 0 0 .3 0 .4-.3.6-1 .9-1l-.1.2c.1-.3 1-1 .6-.9.6-.4 1-1 1.4-1.4.2-.4 1-.8.9-1.2.2.3 1.1-.7 1.4-1.2 0 .2.3-.2.3 0 .4-.3.7-.7.5-.8 1-.4 1.2-1.7 2-1.7l3-3.5c.2.3-1.1 1.2-.8 1.4a20.2 20.2 0 0 1 2.3-2.8c.2-.2 0 .2-.1.4.9-1.1 1.9-1.9 2.6-2.9l-.1.2c.2-.1.4-.3.3-.4l-.1.2c-.5.1.3-1 .3-1.1 0 .6 1-.8.8 0l.1-.3c.2-.2.3-.2.2 0 .6-.6.2-.5.8-1v.2a3 3 0 0 1 .9-1.2v.2a20 20 0 0 1 2-2.4c0 .5.4-.2.7 0l.4-.6h-.3a3.6 3.6 0 0 0 .2-.3zm-2 27a87 87 0 0 1 2-2.4v-2.2a15 15 0 0 1-1.5 1.7l.3-.2c0 .2-.5.6-.7.9-.1-.2-.3 0-.5 0 0 0-.6.6-.5.9l-.5.2c-.8.7-.5 1.1-1.2 1.8 0-.3-.3-.1 0-.6l-.3.4c-.2 0-.5.8-.8.9 0 .1 0 .3-.2.5s-.4.4 0 .3c-1 .4-2 2-2.9 2.3l-1.4 1.6v-.2c-.7.6 0 .7-.9 1.3-.5.2.3-.5 0-.3-.4-.2-.8.9-1.4 1.2v-.2c-.4.3-.7 1-1.3 1.6a9.2 9.2 0 0 1-1.4 2c0-.3.2-.3 0-.4-.3.3.2.2-.2.7-.3 0-.7.4-.9.3l.5-.5c-.5 0-.6.6-1 .9v-.2c-.6.8-.4 1-1.2 1.8h.1c-.2.6-.4.2-.7.8h-.3c-.3.2-.8 1-1.3 1.6a9.9 9.9 0 0 1 1-1.5 4.8 4.8 0 0 0-1 1.2l.2-.4a4.3 4.3 0 0 1-1 1.6c-.4-.5-1.6 1.3-2.3 1.4a36.6 36.6 0 0 1-3.2 3c.8 0-.3.4.1.6l-.4.4-1 .6c-.3.1.2-.3.1-.3-.6.5-.4 0-.9.4.2 0 0 .4-.4.6l.7-.3c-.7 1-1 .5-1.7 1.4l.2-.3c-.4.5-1.6 1.5-1.7 2.2-.1 0-.3 0-.2-.2-1 1-2 2.6-2.9 3.2v-.2c-.1.2-.2.5-.5.7v-.1a2.8 2.8 0 0 1-.7.8l.1-.3a6.1 6.1 0 0 0-1.4 1.7h2.3a25 25 0 0 0 1.6-1.9c-.1 0-.3.2-.3 0s.5-.3.6-.2c1-1.3 3-2.2 3.6-3.4l.8-1c.5-.5-.1.3.3 0 .8-1.2 1.6-1.5 2.3-2.5 1-.3 2.3-2.4 3.4-3h-.1c.1-.4.3-.3.5-.4 0 0-.3.1-.2 0 1.8-2 4-3.9 6.1-5.8.8-.7 0-.9 1.1-1.5v.4c1.2-1.7 3-3 4.2-4.6 0 .1 0 .2-.2.3.5-.1 1.1-1 1-1.2.3-.2.2 0 .4 0 .3-.2.6-.9.8-1 .1 0 0 .1 0 .2 0-.3.9-.9.6-.9.6-.4 1-1 1.4-1.4.1-.4 1-.8.9-1.1.2.2 1.1-.8 1.3-1.2 0 .1.4-.3.4 0 .4-.4.7-.8.5-.9.9-.4 1-1.6 1.9-1.6zm2 20.4v-2.1c-.3.2-.7 1-1.2 1.1l.1-.1c-.4.2-.7 1-1.3 1.5a9.2 9.2 0 0 1-1.5 2c0-.3.2-.3 0-.4-.3.3.2.2-.2.7-.3.1-.7.4-.9.3l.5-.5c-.5 0-.6.6-1 .9v-.2c-.6.8-.4 1-1.2 1.8h.1c-.2.6-.4.2-.7.8h-.3a21 21 0 0 1-1.3 1.6 9.3 9.3 0 0 1 1-1.5 4.8 4.8 0 0 0-1 1.2 1.3 1.3 0 0 1 .3-.4 4.4 4.4 0 0 1-1.2 1.6c-.3-.5-1.5 1.3-2.2 1.4a20.8 20.8 0 0 1-2.7 2.6h2.6a4.2 4.2 0 0 1 .9-.6h-.2c.2-.4.4-.3.5-.4 0 0-.3.1-.2 0 1.8-2 4.1-3.9 6.2-5.7.7-.7-.1-1 1-1.6l-.1.3c1.2-1.5 2.8-2.8 4-4.3z"/></g><g id="Button_1" data-name="Button 1"><path class="cls-10" d="M317.7 176h-91.4a10.3 10.3 0 0 1-10.3-10.3V90.3A10.3 10.3 0 0 1 226.3 80h91.4A10.3 10.3 0 0 1 328 90.3v75.4a10.3 10.3 0 0 1-10.3 10.3z"/><path class="cls-2" d="M260 154a2 2 0 0 1-1.4-.6l-24-24a2 2 0 0 1 0-2.8l24-24a2 2 0 0 1 2.8 2.8L238.8 128l22.6 22.6a2 2 0 0 1-1.4 3.4zm24 0a2 2 0 0 1-1.4-3.4l22.6-22.6-22.6-22.6a2 2 0 0 1 2.8-2.8l24 24a2 2 0 0 1 0 2.8l-24 24a2 2 0 0 1-1.4.6z"/></g><path class="cls-11" d="M329.5 178.2l-3.7-22.6s-2.6-7.6-5.6-5.3-.9 19.2-4 21c-5.6 3.4-6.4 7-6.4 7z" id="Finger"/></g></svg>