<svg width="28" height="48" viewBox="0 0 28 48" fill="none" xmlns="http://www.w3.org/2000/svg">
<path fill-rule="evenodd" clip-rule="evenodd" d="M21 48C24.866 48 28 44.866 28 41C28 37.134 24.866 34 21 34C17.134 34 14 37.134 14 41C14 44.866 17.134 48 21 48Z" fill="#2CBFC7"/>
<path fill-rule="evenodd" clip-rule="evenodd" d="M0 40V42H18.9808C19.6931 41.376 20.3674 40.708 21 40H0Z" fill="#212121"/>
<path fill-rule="evenodd" clip-rule="evenodd" d="M20.1462 7H0V9H22C21.4196 8.29898 20.8007 7.63127 20.1462 7V7Z" fill="#212121"/>
<path fill-rule="evenodd" clip-rule="evenodd" d="M3.26204 1.59016e-05C2.1711 0.00346331 1.08151 0.0769245 0 0.219945V2H13C9.92464 0.676832 6.61066 -0.00379338 3.26204 1.59016e-05Z" fill="#212121"/>
<path fill-rule="evenodd" clip-rule="evenodd" d="M25 33H0V35H24.064C24.3959 34.3494 24.7079 33.6827 25 33Z" fill="#212121"/>
<path fill-rule="evenodd" clip-rule="evenodd" d="M10 47H0V47.7964C1.00935 47.928 2.02709 47.996 3.04627 48C5.40549 48.0007 7.7508 47.6635 10 47Z" fill="#212121"/>
<path fill-rule="evenodd" clip-rule="evenodd" d="M27 27H0V29H26.6987C26.8281 28.3402 26.9286 27.6735 27 27Z" fill="#212121"/>
<path fill-rule="evenodd" clip-rule="evenodd" d="M24.168 13H0V15H25C24.751 14.3196 24.4693 13.6873 24.168 13Z" fill="#212121"/>
<path fill-rule="evenodd" clip-rule="evenodd" d="M26.7663 20H0V22H27C26.9466 21.3265 26.8731 20.6873 26.7663 20Z" fill="#212121"/>
</svg>
