<svg xmlns="http://www.w3.org/2000/svg" viewBox="0 0 513.57 117.21"><defs><style>.cls-1{fill:#0a0c06;}.cls-1,.cls-2,.cls-3{fill-rule:evenodd;}.cls-2{fill:#fff;}.cls-3{fill:#615ca3;}.cls-4{fill:none;stroke:#1d1d1b;stroke-miterlimit:2.61;stroke-width:1px;}.cls-5{fill:#1d1d1b;}</style></defs><title>1</title><g id="Layer_2" data-name="Layer 2"><g id="Layer_1-2" data-name="Layer 1"><polygon class="cls-1" points="180.85 9.32 179.62 9.56 179.13 9.81 178.15 10.05 177.66 10.3 176.93 10.54 176.68 10.79 176.19 11.03 175.95 11.28 175.7 11.53 175.21 12.02 174.97 12.51 174.72 13 174.23 13.49 173.99 14.22 173.74 14.47 173.5 15.2 173.25 15.45 173.01 16.18 172.76 16.67 172.52 17.66 172.27 18.39 172.27 24.03 202.41 24.03 202.41 23.05 202.17 22.8 201.92 22.07 201.68 21.58 201.43 21.09 201.19 20.84 200.94 20.11 200.7 19.86 200.45 19.37 200.21 19.13 199.96 18.64 199.72 18.14 199.47 17.66 199.23 17.41 198.98 16.92 198.74 16.67 198.49 16.18 198.25 15.94 198 15.45 197.76 15.2 197.51 14.96 197.27 14.47 196.78 13.98 196.53 13.73 196.29 13.49 196.04 13.24 195.8 13 195.31 12.51 194.82 12.26 194.57 12.02 194.08 11.77 193.84 11.53 193.35 11.28 193.1 11.03 192.61 10.79 192.12 10.54 191.39 10.3 191.14 10.05 190.16 9.81 189.67 9.56 188.2 9.32 187.22 9.07 181.59 9.07 180.85 9.32 180.85 9.32"/><polygon class="cls-1" points="273.72 10.05 273.48 10.54 273.24 11.03 272.74 11.53 272.5 12.02 272.26 12.51 271.76 13 271.52 13.49 271.28 13.98 270.78 14.47 270.54 14.96 270.29 15.45 270.05 15.69 269.8 15.94 269.56 16.43 269.31 16.67 269.07 17.16 268.82 17.41 268.58 17.9 268.33 18.14 268.09 18.64 267.85 18.88 267.6 19.37 267.35 19.62 267.11 20.11 266.86 20.35 266.62 20.84 266.37 21.09 266.13 21.58 265.88 21.82 265.64 22.07 265.39 22.56 265.15 23.05 265.15 23.3 280.59 23.3 280.83 22.8 281.08 22.56 281.32 22.31 281.57 21.82 282.06 21.33 282.3 20.84 282.55 20.35 283.04 19.86 283.28 19.37 283.53 19.13 283.77 18.64 284.02 18.39 284.26 17.9 284.51 17.66 284.75 17.16 285 16.92 285.24 16.43 285.49 16.18 285.73 15.69 285.98 15.45 286.22 14.96 286.47 14.71 286.71 14.22 286.96 13.98 287.2 13.73 287.45 13.49 287.69 13 287.94 12.75 288.19 12.26 288.43 12.02 288.67 11.53 288.92 11.28 289.16 10.79 289.41 10.54 289.65 10.05 289.65 9.56 274.21 9.56 273.72 10.05 273.72 10.05"/><polygon class="cls-1" points="229.37 10.05 229.62 10.3 229.86 10.79 230.11 11.03 230.35 11.53 230.6 11.77 230.84 12.26 231.33 12.75 231.57 13.24 231.82 13.49 232.06 13.98 232.31 14.22 232.56 14.71 232.8 14.96 233.05 15.45 233.29 15.69 233.54 16.18 233.78 16.43 234.03 16.92 234.27 17.16 234.52 17.66 234.76 17.9 235.01 18.39 235.5 18.88 235.74 19.37 235.99 19.86 236.48 20.35 236.72 20.84 236.97 21.09 237.21 21.33 237.46 21.82 237.7 22.07 237.95 22.56 238.19 22.8 238.44 23.3 253.88 23.3 253.88 23.05 253.63 22.56 253.38 22.07 253.14 21.58 252.65 21.09 252.41 20.6 252.16 20.11 251.67 19.62 251.43 19.13 251.18 18.88 250.94 18.64 250.69 18.14 250.44 17.9 250.2 17.41 249.96 17.16 249.71 16.67 249.46 16.43 249.22 15.94 248.97 15.69 248.73 15.2 248.48 14.96 248.24 14.47 247.99 14.22 247.75 13.73 247.5 13.49 247.26 13 247.01 12.51 246.77 12.26 246.53 11.77 246.28 11.53 246.03 11.03 245.54 10.54 245.3 10.05 245.05 9.81 244.81 9.56 229.37 9.56 229.37 10.05 229.37 10.05"/><polygon class="cls-1" points="293.57 21.33 342.34 21.33 342.34 9.32 293.57 9.32 293.57 21.33 293.57 21.33"/><polygon class="cls-2" points="293.57 21.33 293.57 21.58 342.58 21.58 342.58 9.07 293.57 9.07 293.57 9.32 342.34 9.32 342.34 21.33 293.57 21.33 293.57 21.33"/><polygon class="cls-1" points="373.22 9.32 371.75 9.56 371.26 9.81 370.52 10.05 370.03 10.3 369.3 10.54 369.05 10.79 368.31 11.03 368.07 11.53 367.83 11.77 367.58 12.26 367.33 12.51 367.09 13 366.85 13.24 366.6 13.73 366.36 13.98 366.11 14.47 365.87 14.96 365.62 15.45 365.38 15.94 365.13 16.92 364.88 17.41 364.64 18.64 364.4 19.86 364.4 23.79 364.64 24.03 394.78 24.03 394.78 23.05 394.54 22.56 394.29 22.07 394.05 21.58 393.8 21.09 393.56 20.6 393.31 20.11 393.07 19.86 392.82 19.37 392.58 19.13 392.33 18.39 392.08 18.14 391.84 17.66 391.6 17.41 391.35 16.92 391.11 16.43 390.86 15.94 390.62 15.69 390.37 15.45 390.13 15.2 389.88 14.96 389.64 14.71 389.39 14.22 389.15 13.98 388.9 13.73 388.65 13.49 388.41 13.24 388.17 13 387.68 12.75 387.43 12.51 387.19 12.26 386.94 12.02 386.45 11.77 386.21 11.53 385.71 11.28 385.47 11.03 384.98 10.79 384.49 10.54 384 10.3 383.51 10.05 382.53 9.81 382.04 9.56 380.57 9.32 379.59 9.07 374.2 9.07 373.22 9.32 373.22 9.32"/><polygon class="cls-2" points="212.95 23.54 226.19 23.54 226.19 23.3 213.2 23.3 213.2 9.32 226.19 9.32 226.19 9.07 212.95 9.07 212.95 23.54 212.95 23.54"/><polygon class="cls-1" points="226.19 23.3 226.19 9.32 213.2 9.32 213.2 23.3 226.19 23.3 226.19 23.3"/><polygon class="cls-1" points="347.49 23.3 360.23 23.3 360.23 9.32 347.49 9.32 347.49 23.3 347.49 23.3"/><polygon class="cls-1" points="462.42 9.32 460.95 9.56 460.21 9.81 459.23 10.05 458.99 10.3 458.25 10.54 458.01 10.79 457.27 11.03 457.03 11.28 456.54 11.53 456.29 11.77 455.8 12.02 455.31 12.51 454.82 13 454.58 13.24 454.33 13.49 454.08 13.73 453.84 13.98 453.35 14.47 453.11 14.96 452.86 15.2 452.62 15.69 452.37 15.94 452.13 16.43 451.88 16.67 451.63 17.16 451.39 17.66 451.14 18.14 450.9 18.64 450.65 19.37 450.41 19.86 450.17 20.84 449.92 21.58 449.92 23.54 463.89 23.54 464.13 23.3 464.38 23.05 464.62 22.8 464.87 22.56 465.11 22.31 465.6 22.07 466.09 21.82 466.34 21.58 467.56 21.33 498.93 21.09 498.93 9.07 463.64 9.07 462.42 9.32 462.42 9.32"/><polygon class="cls-1" points="133.8 9.32 132.82 9.56 132.08 9.81 131.35 10.05 130.86 10.3 130.12 10.54 129.88 10.79 129.39 11.03 128.9 11.28 128.41 11.53 128.16 11.77 127.92 12.02 127.67 12.26 127.18 12.51 126.94 12.75 126.69 13 126.45 13.24 126.2 13.73 125.96 13.98 125.71 14.47 125.47 14.96 125.22 15.69 124.98 15.94 124.73 16.67 124.49 17.16 124.24 17.9 124 18.39 123.75 19.13 123.51 19.62 123.26 20.6 123.02 21.09 122.77 21.82 122.53 22.31 122.53 23.54 137.23 23.54 137.47 22.8 137.72 22.56 138.21 22.07 138.7 22.07 139.19 22.31 139.44 22.56 139.68 22.8 139.93 23.79 154.88 23.79 154.88 23.05 154.63 22.07 154.38 21.58 154.14 20.84 153.89 20.35 153.65 19.62 153.4 19.13 153.16 18.14 152.91 17.9 152.67 17.16 152.42 16.67 152.18 15.94 151.93 15.45 151.69 14.96 151.44 14.47 151.2 13.98 150.95 13.73 150.71 13.49 150.46 13.24 150.22 13 149.97 12.75 149.73 12.51 149.48 12.26 149.24 12.02 148.75 11.77 148.5 11.53 148.01 11.28 147.77 11.03 147.03 10.79 146.79 10.54 146.05 10.3 145.56 10.05 144.58 9.81 144.09 9.56 143.11 9.32 142.13 9.07 134.53 9.07 133.8 9.32 133.8 9.32"/><path class="cls-2" d="M347.49,9.32h12.74v14H347.49v-14Zm-.25,14.22h13l.24-.25V9.07H347.24V23.54Z"/><polygon class="cls-3" points="87.24 0.24 86.75 0.49 86.26 0.74 85.77 0.98 85.52 1.23 85.03 1.47 84.54 1.72 84.3 1.96 84.05 2.21 83.81 2.45 83.32 2.7 83.07 2.94 82.58 3.19 82.09 3.68 81.85 3.92 81.6 4.17 81.36 4.41 80.87 4.66 80.62 4.91 80.38 5.15 80.13 5.39 79.89 5.64 79.64 5.88 79.4 6.13 79.15 6.38 78.66 6.62 78.17 7.11 77.68 7.6 77.19 8.09 76.7 8.58 76.21 9.07 75.72 9.56 75.23 10.05 74.74 10.54 74.5 11.03 74.25 11.28 74 11.53 73.76 11.77 73.52 12.02 73.27 12.26 73.03 12.51 72.78 12.75 72.54 13.24 72.29 13.49 72.04 13.73 71.8 13.98 71.55 14.22 71.31 14.47 71.06 14.71 70.82 14.96 70.58 15.2 70.33 15.45 70.08 15.69 69.84 16.18 69.59 16.43 69.35 16.67 69.11 16.92 68.86 17.16 68.37 17.66 68.13 18.14 67.88 18.39 67.63 18.64 67.39 18.88 67.14 19.13 66.9 19.62 66.65 19.86 66.41 20.11 66.16 20.6 65.92 20.84 65.67 21.09 65.18 21.58 64.94 22.07 64.69 22.31 64.45 22.56 64.2 22.8 63.96 23.3 63.71 23.54 63.22 24.03 62.98 24.52 62.73 24.77 62.49 25.01 62.24 25.5 62 25.75 61.75 25.99 61.26 26.48 61.02 26.97 60.77 27.22 60.53 27.71 60.28 27.95 59.79 28.45 59.55 28.93 59.3 29.18 58.81 29.67 58.57 30.16 58.32 30.41 58.08 30.9 57.83 31.14 56.85 31.63 56.36 31.88 55.63 32.12 55.38 32.37 54.89 32.61 54.65 33.1 54.4 33.84 53.91 34.08 53.42 34.58 53.18 34.82 52.93 35.06 52.44 35.31 52.2 35.56 51.95 35.8 51.46 36.05 50.97 36.54 50.73 36.78 50.48 37.03 49.99 37.27 49.74 37.52 49.5 37.76 49.26 38.01 49.01 38.25 48.52 38.5 48.27 38.74 48.03 38.99 47.78 39.23 47.29 39.48 47.05 39.73 46.8 39.97 46.56 40.22 46.07 40.46 45.82 40.7 45.33 40.95 44.84 41.44 44.6 41.69 44.11 41.93 43.87 42.18 43.37 42.42 42.88 42.91 42.64 43.16 42.15 43.4 41.9 43.65 41.66 43.89 41.17 44.14 40.92 44.38 40.43 44.63 40.19 44.87 39.94 45.12 39.45 45.36 39.21 45.61 38.96 45.85 38.47 46.1 38.23 46.34 37.74 46.59 37.49 46.84 37 47.08 36.51 47.57 36.27 47.82 35.78 48.06 35.53 48.31 35.04 48.55 34.8 48.8 34.31 49.04 34.06 49.29 33.57 49.53 33.33 49.78 32.84 50.02 32.59 50.27 32.1 50.51 31.86 50.76 31.37 51 31.12 51.25 30.39 51.49 29.65 51.98 29.41 52.23 28.67 52.48 28.43 52.72 27.45 52.97 26.96 53.21 26.71 53.21 26.47 52.97 26.22 52.72 25.97 52.48 25.73 52.23 25.48 51.98 25.24 51.74 24.99 51.49 24.5 51.25 24.26 51 24.02 50.76 23.77 50.51 23.28 50.02 22.79 49.53 22.3 49.29 22.05 49.04 21.56 48.8 21.32 48.55 21.07 48.31 20.83 48.06 20.34 47.57 19.85 47.33 19.6 47.08 19.11 46.84 18.87 46.59 18.38 46.1 17.89 45.85 17.4 45.61 17.15 45.36 16.91 45.12 16.42 44.87 16.17 44.63 15.68 44.38 15.44 44.14 14.95 43.89 14.46 43.65 14.21 43.4 13.72 43.16 13.48 42.91 12.99 42.67 12.74 42.42 12.25 42.18 11.76 41.93 11.27 41.69 11.03 41.44 10.29 41.2 10.05 40.95 9.55 40.7 9.31 40.46 8.33 40.22 8.09 39.97 7.35 39.73 6.86 39.48 5.88 39.23 5.39 38.99 3.43 38.74 2.45 38.74 1.22 38.99 0.73 39.23 0.49 39.48 0.24 39.73 0 40.22 0 43.16 0.24 43.89 0.49 44.38 0.73 44.87 0.98 45.12 1.22 45.61 1.47 45.85 1.71 46.34 1.96 46.59 2.2 47.08 2.45 47.33 2.69 47.57 2.94 47.82 3.19 48.31 3.67 48.8 3.92 49.04 4.17 49.29 4.41 49.53 4.66 49.78 4.9 50.02 5.14 50.27 5.39 50.51 5.63 51 5.88 51.25 6.13 51.49 6.37 51.74 6.62 51.98 6.86 52.23 7.11 52.48 7.6 52.72 7.84 52.97 8.09 53.21 8.33 53.46 8.58 53.7 8.82 53.95 9.06 54.19 9.31 54.44 9.55 54.68 9.8 54.93 10.05 55.17 10.54 55.66 11.03 56.15 11.52 56.4 11.76 56.64 12.01 56.89 12.25 57.13 12.5 57.38 12.99 57.63 13.23 57.87 13.48 58.12 13.72 58.36 14.21 58.6 14.46 58.85 14.7 59.09 14.95 59.34 15.44 59.83 15.93 60.08 16.17 60.32 16.42 60.57 16.66 60.81 17.15 61.3 17.64 61.55 17.89 61.79 18.38 62.04 18.62 62.28 19.11 62.77 19.6 63.02 19.85 63.27 20.09 63.51 20.58 63.75 20.83 64 21.07 64.25 21.56 64.49 21.81 64.74 22.05 64.98 22.54 65.23 22.79 65.47 23.04 65.72 23.52 65.96 23.77 66.21 24.26 66.45 24.5 66.7 24.99 66.94 25.24 67.19 27.69 67.19 28.18 66.94 28.91 66.7 29.16 66.45 29.65 66.21 30.14 65.96 30.63 65.72 31.12 65.23 31.37 64.98 31.86 64.74 32.1 64.49 32.35 64.25 32.59 64 32.84 63.75 33.08 63.51 33.33 63.27 33.57 63.02 33.82 62.77 34.06 62.53 34.31 62.28 34.55 62.04 34.8 61.79 35.04 61.55 35.29 61.3 35.53 61.06 35.78 60.81 36.02 60.57 36.27 60.32 36.51 60.08 36.76 59.83 37 59.59 37.25 59.34 37.74 58.85 37.98 58.6 38.23 58.36 38.47 58.12 38.72 57.63 38.96 57.38 39.21 57.13 39.45 56.89 39.7 56.64 40.19 56.15 40.43 55.66 40.68 55.42 40.92 55.17 41.17 54.93 41.41 54.44 41.66 54.19 41.9 53.95 42.15 53.7 42.64 53.21 42.88 52.72 43.13 52.48 43.37 51.98 43.62 51.74 44.11 51.25 44.35 50.76 44.6 50.51 44.84 50.27 45.09 49.78 45.33 49.53 45.58 49.29 45.82 48.8 46.07 48.55 46.31 48.31 46.56 47.82 46.8 47.57 47.05 47.33 47.29 46.84 47.54 46.59 47.78 46.1 48.03 45.85 48.52 45.36 48.77 44.87 49.01 44.63 49.26 44.14 49.5 43.89 49.74 43.65 49.99 43.16 50.23 42.67 50.73 42.18 50.97 41.69 51.22 41.44 51.46 40.95 51.71 40.7 51.95 40.22 52.2 39.97 52.44 39.48 52.69 39.23 52.93 38.74 53.18 38.5 53.42 38.01 53.67 37.76 53.91 37.27 54.16 37.03 54.4 36.54 54.65 36.29 54.89 35.8 55.13 35.8 55.38 36.05 55.63 36.29 55.87 36.54 56.12 36.78 56.36 37.03 56.61 37.27 56.85 37.52 57.34 37.76 57.59 38.01 57.83 38.25 58.32 38.74 58.81 38.99 59.3 39.23 59.55 39.48 59.79 39.73 60.28 39.97 60.53 40.22 61.02 40.46 61.26 40.7 61.75 40.95 62 41.2 62.49 41.44 62.73 41.69 63.22 41.93 63.71 42.18 64.2 42.67 64.94 42.91 65.18 43.16 65.67 43.4 65.92 43.65 66.41 43.89 66.9 44.14 67.14 44.38 67.63 44.63 67.88 44.87 68.37 45.12 68.61 45.36 69.35 45.85 69.84 46.1 70.33 46.34 70.82 46.59 71.06 46.84 71.55 47.08 71.8 47.33 72.29 47.57 72.54 47.82 73.03 48.06 73.27 48.31 73.76 48.55 74 48.8 74.5 49.04 74.74 49.29 75.23 49.53 75.48 49.78 75.97 50.02 76.21 50.27 76.7 50.51 76.95 50.76 77.19 51 77.68 51.25 78.17 51.74 78.66 51.98 78.91 52.23 79.4 52.48 79.64 52.72 80.13 53.21 80.62 53.46 80.87 53.7 81.11 53.95 81.6 54.19 81.85 54.44 82.09 54.68 82.58 55.17 82.83 55.42 83.32 55.66 83.56 55.91 83.81 56.15 84.05 56.4 84.54 56.64 84.79 56.89 85.03 57.13 85.28 57.38 85.52 57.63 85.77 57.87 86.01 58.12 86.26 58.36 86.5 58.6 86.75 58.85 86.99 59.09 87.24 59.34 87.48 59.59 87.73 60.08 87.97 60.32 88.22 60.57 88.46 60.81 88.71 61.3 89.2 61.79 89.44 62.04 89.69 62.53 89.94 62.77 90.18 63.27 90.42 63.51 90.67 64.25 90.91 64.49 91.16 64.98 91.4 65.47 91.65 66.21 91.89 66.7 92.14 67.68 92.38 68.41 92.38 68.66 92.14 68.91 91.89 69.15 91.65 69.39 91.4 69.64 91.16 69.89 90.91 70.13 90.67 70.38 90.42 70.62 90.18 70.86 89.94 71.11 89.69 71.36 89.2 71.6 88.95 71.85 88.71 72.09 88.22 72.34 87.73 72.83 87.48 73.07 87.24 73.32 86.75 73.56 86.5 73.81 86.01 74.05 85.77 74.3 85.28 74.54 84.79 75.03 84.54 75.28 84.05 75.52 83.81 75.77 83.56 76.02 83.32 76.26 82.83 76.51 82.58 76.75 82.09 77 81.6 77.49 81.36 77.73 80.87 77.98 80.62 78.22 80.13 78.47 79.64 78.96 79.15 79.2 78.91 79.45 78.66 79.69 78.17 79.94 77.93 80.18 77.68 80.43 77.19 80.68 76.95 80.92 76.7 81.16 76.21 81.41 75.72 81.9 75.48 82.14 74.98 82.39 74.74 82.64 74.25 82.88 73.76 83.37 73.52 83.62 73.27 83.86 73.03 84.11 72.54 84.35 72.29 84.6 72.04 84.84 71.8 85.09 71.31 85.33 70.82 85.82 70.33 86.31 70.08 86.56 69.84 86.8 69.59 87.05 69.35 87.3 69.11 87.54 68.86 87.78 68.61 88.03 68.37 88.28 68.13 88.52 67.88 88.77 67.63 89.01 67.39 89.26 67.14 89.5 66.9 89.75 66.65 89.99 66.41 90.24 66.16 90.48 65.92 90.97 65.67 91.22 65.43 91.46 65.18 91.95 64.94 92.2 64.69 92.44 64.45 92.94 64.2 93.43 63.96 93.91 63.71 94.16 63.47 94.9 63.22 95.39 62.98 96.86 62.98 98.57 63.22 100.05 63.47 100.54 63.71 101.03 63.96 101.52 64.2 102.01 64.45 102.25 64.69 102.5 64.94 102.74 65.18 103.23 65.67 103.72 66.16 104.21 66.41 104.46 66.65 104.7 66.9 104.95 67.14 105.19 67.63 105.44 67.88 105.69 68.37 106.18 68.86 106.42 69.11 106.67 69.59 106.91 69.84 107.16 70.33 107.4 70.82 107.65 71.31 107.89 71.55 108.14 72.29 108.63 73.03 108.87 73.27 109.12 74 109.36 74.25 109.61 74.98 109.85 75.48 110.1 76.21 110.34 76.46 110.59 77.19 110.84 77.68 111.08 78.42 111.33 78.91 111.57 79.64 111.82 80.13 112.06 81.11 112.31 81.6 112.55 82.34 112.8 82.83 113.04 83.81 113.29 84.3 113.53 85.28 113.78 85.77 114.02 86.99 114.27 87.48 114.51 88.71 114.76 89.2 115 90.67 115.25 91.16 115.49 92.63 115.74 93.12 115.98 94.59 116.23 95.57 116.48 97.04 116.72 98.02 116.96 99.74 117.21 105.62 117.21 106.6 116.96 106.84 116.72 107.33 116.48 107.82 116.23 108.07 115.98 108.31 115.74 108.56 115.49 108.8 115.25 109.05 115 109.29 114.51 109.54 114.02 109.78 113.53 110.03 112.55 110.27 111.57 110.27 110.1 110.03 108.87 109.78 107.65 109.54 107.16 109.29 106.42 109.05 106.18 108.8 105.44 108.31 104.95 108.07 104.7 107.82 104.46 107.58 104.21 107.33 103.97 107.09 103.72 106.84 103.48 106.35 103.23 106.11 102.99 105.37 102.74 105.13 102.5 104.39 102.25 103.66 102.01 103.17 101.76 102.43 101.52 101.94 101.27 100.96 101.03 100.47 100.78 99.49 100.54 99 100.29 98.02 100.05 97.29 99.8 96.31 99.55 95.81 99.31 94.59 99.07 94.1 98.82 92.88 98.57 92.38 98.33 91.16 98.08 90.67 97.84 89.44 97.59 88.95 97.35 87.97 97.1 87.24 96.86 86.01 96.61 85.52 96.37 84.54 96.12 84.05 95.88 83.07 95.63 82.58 95.39 81.6 95.14 81.36 94.9 80.38 94.65 79.89 94.41 79.4 94.16 78.91 93.91 78.42 93.43 78.42 93.18 78.91 92.69 79.4 92.2 79.89 91.71 80.13 91.22 80.38 90.97 80.62 90.73 80.87 90.48 81.11 90.24 81.36 89.75 81.6 89.5 81.85 89.26 82.34 88.77 82.58 88.28 83.07 87.78 83.32 87.54 83.56 87.05 83.81 86.8 84.05 86.56 84.54 86.07 84.79 85.58 85.03 85.33 85.28 84.84 85.52 84.6 86.01 84.11 86.26 83.62 86.5 83.37 86.75 82.88 86.99 82.64 87.24 82.14 87.48 81.9 87.73 81.41 87.97 81.16 88.46 80.68 88.71 80.18 88.95 79.69 89.2 79.2 89.44 78.96 89.69 78.47 89.94 78.22 90.18 77.73 90.42 77.49 90.67 76.75 90.91 76.51 91.16 76.02 91.4 75.77 91.65 75.03 91.89 74.79 92.14 74.05 92.38 73.81 92.63 73.07 92.88 72.83 93.12 72.09 93.36 71.6 93.61 70.86 93.86 70.38 94.1 69.39 94.34 68.66 94.59 67.19 94.83 65.72 94.83 64.49 94.59 63.27 94.34 62.04 94.1 61.55 93.86 61.06 93.61 60.57 93.36 59.83 93.12 59.59 92.88 59.09 92.63 58.6 92.38 58.12 92.14 57.87 91.89 57.38 91.65 57.13 91.4 56.64 91.16 56.4 90.91 55.91 90.67 55.66 90.42 55.17 90.18 54.93 89.94 54.44 89.69 54.19 89.44 53.7 89.2 53.46 88.95 52.97 88.46 52.48 88.22 52.23 87.97 51.74 87.73 51.49 87.48 51 86.99 50.51 86.5 50.02 86.26 49.78 86.01 49.29 85.77 49.04 85.52 48.8 85.28 48.55 85.03 48.06 84.54 47.57 84.05 47.08 83.56 46.59 83.32 46.34 83.07 46.1 82.83 45.85 82.58 45.61 82.34 45.36 82.09 45.12 81.85 44.87 81.6 44.63 81.36 44.38 81.11 44.14 80.87 43.89 80.62 43.65 80.38 43.4 80.13 43.16 79.89 42.91 79.64 42.67 79.4 42.42 79.15 42.18 78.91 41.93 78.66 41.69 78.42 41.44 78.17 41.2 77.93 40.95 77.68 40.7 77.44 40.46 76.95 39.97 76.46 39.48 75.97 39.23 75.72 38.99 75.48 38.74 75.23 38.5 74.74 38.25 74.5 38.01 74 37.52 73.52 37.27 73.27 37.03 73.03 36.78 72.54 36.54 72.04 36.05 71.55 35.8 71.31 35.56 70.82 35.31 70.58 35.06 70.08 34.82 69.84 34.58 69.11 34.08 68.37 33.84 68.13 33.59 67.63 33.35 67.14 33.1 66.65 32.86 66.16 32.61 65.43 32.37 65.18 32.12 64.2 31.88 63.71 31.63 62.49 31.39 61.26 31.14 60.04 30.9 60.53 30.65 60.77 30.41 61.02 30.16 61.51 29.92 61.75 29.67 62.24 29.43 62.73 29.18 62.98 28.93 63.22 28.69 63.71 28.45 64.2 28.2 64.45 27.95 64.69 27.71 64.94 27.46 65.43 27.22 65.92 26.97 66.16 26.73 66.41 26.48 66.9 26.24 67.14 25.99 67.63 25.75 67.88 25.5 68.37 25.26 68.61 25.01 69.11 24.77 69.35 24.52 69.84 24.28 70.08 24.03 70.58 23.79 70.82 23.54 71.31 23.3 71.55 23.05 72.04 22.8 72.29 22.56 72.78 22.31 73.03 22.07 73.52 21.82 73.76 21.58 74.25 21.33 74.5 21.09 74.98 20.84 75.48 20.6 75.97 20.35 76.7 19.86 76.95 19.62 77.44 19.37 77.68 19.13 78.17 18.88 78.42 18.64 78.91 18.39 79.4 18.14 79.89 17.9 80.13 17.66 80.87 17.41 81.6 16.92 81.85 16.67 82.34 16.43 82.58 16.18 83.32 15.94 83.56 15.69 84.05 15.45 84.54 15.2 85.03 14.96 85.77 14.71 86.26 14.47 86.99 14.22 87.48 13.98 88.71 13.98 88.95 14.22 89.2 14.47 89.44 14.71 89.69 14.96 89.94 15.2 90.18 15.45 90.42 15.69 90.67 15.94 90.91 16.18 91.16 16.43 91.4 16.67 91.65 16.92 91.89 17.16 92.14 17.41 92.38 17.66 92.63 17.9 93.12 18.39 93.61 18.88 94.1 19.37 94.59 19.62 94.83 19.86 95.08 20.11 95.33 20.35 95.57 20.6 95.81 20.84 96.31 21.09 96.55 21.33 96.8 21.58 97.04 21.82 97.53 22.31 98.02 22.56 98.27 22.8 98.51 23.05 99 23.3 99.25 23.54 99.49 23.79 99.74 24.03 100.23 24.28 100.47 24.52 100.72 24.77 101.21 25.01 101.45 25.26 101.94 25.5 102.19 25.75 102.68 26.24 103.17 26.48 103.66 26.73 104.15 26.97 104.39 27.22 104.88 27.46 105.13 27.71 105.62 27.95 106.11 28.2 106.6 28.45 107.09 28.69 107.58 28.93 108.31 29.18 109.05 29.43 110.03 29.67 112.97 29.67 113.7 29.43 113.95 29.18 114.19 28.93 114.44 28.69 114.69 27.95 114.69 25.75 114.44 25.26 114.19 24.52 113.95 24.03 113.7 23.54 113.46 23.05 113.21 22.56 112.97 22.31 112.72 21.82 112.48 21.58 112.23 21.09 111.99 20.84 111.74 20.35 111.5 20.11 111.25 19.62 110.76 19.13 110.52 18.88 110.27 18.39 110.03 18.14 109.78 17.9 109.54 17.66 109.29 17.16 108.8 16.67 108.56 16.43 108.31 16.18 108.07 15.94 107.82 15.69 107.58 15.45 107.33 15.2 107.09 14.71 106.84 14.47 106.35 13.98 105.86 13.49 105.37 13 104.88 12.51 104.39 12.02 103.9 11.53 103.41 11.03 102.92 10.54 102.43 10.05 101.94 9.56 101.45 9.07 100.96 8.58 100.47 8.09 99.98 7.6 99.49 7.36 99.25 7.11 99 6.87 98.76 6.62 98.51 6.38 98.27 6.13 98.02 5.88 97.78 5.64 97.29 5.15 96.8 4.66 96.31 4.41 96.06 4.17 95.81 3.92 95.57 3.68 95.33 3.43 95.08 3.19 94.59 2.94 94.34 2.7 94.1 2.45 93.86 2.21 93.36 1.72 92.88 1.23 92.38 0.98 92.14 0.74 91.65 0.49 91.4 0.24 90.91 0 87.97 0 87.24 0.24 87.24 0.24"/><polygon class="cls-1" points="414.14 9.32 412.92 9.56 412.43 9.81 411.44 10.05 410.96 10.3 410.46 10.54 409.98 10.79 409.49 11.03 409.24 11.28 408.75 11.53 408.51 11.77 408.26 12.02 408.01 12.26 407.77 12.51 407.53 12.75 407.28 13 407.04 13.24 406.79 13.73 406.55 13.98 406.3 14.47 406.06 14.71 405.81 15.2 405.56 15.69 405.32 16.43 405.07 17.16 404.83 18.88 404.83 24.03 418.06 24.03 418.31 23.79 418.55 23.05 418.8 22.8 419.04 22.56 419.53 23.05 419.78 23.3 420.02 24.03 433.75 24.03 433.75 23.3 433.5 22.8 433.26 21.58 433.01 21.09 432.76 20.11 432.52 19.62 432.28 18.64 432.03 18.14 431.79 17.41 431.54 17.16 431.29 16.67 431.05 16.43 430.81 15.94 430.56 15.69 430.32 15.2 430.07 14.96 429.82 14.47 429.58 14.22 429.33 13.98 429.09 13.73 428.85 13.49 428.6 13.24 428.35 13 428.11 12.75 427.86 12.51 427.62 12.26 427.37 12.02 427.13 11.77 426.89 11.53 426.64 11.28 426.15 11.03 425.9 10.79 425.66 10.54 425.17 10.3 424.68 10.05 424.19 9.81 423.7 9.56 422.23 9.32 420.76 9.07 415.12 9.07 414.14 9.32 414.14 9.32"/><polygon class="cls-3" points="41.41 4.91 40.43 5.15 39.94 5.39 39.21 5.64 38.96 5.88 38.47 6.13 38.23 6.38 37.74 6.62 37.49 6.87 37.25 7.11 37 7.36 36.76 7.6 36.51 7.85 36.27 8.09 36.02 8.34 35.78 8.83 35.53 9.07 35.04 9.56 34.8 10.05 34.55 10.54 34.31 11.03 34.06 11.53 33.82 12.26 33.57 12.75 33.33 13.73 33.08 14.47 32.84 15.94 32.84 21.33 33.08 23.05 33.33 23.79 33.57 25.01 33.82 25.5 34.06 26.48 34.31 26.97 34.55 27.71 34.8 28.2 35.04 28.69 35.29 29.18 35.53 29.43 35.78 29.92 36.02 30.41 36.51 30.9 36.76 31.14 37 31.39 37.25 31.63 37.49 31.88 37.98 32.37 38.47 32.61 38.96 32.86 39.45 33.1 39.94 33.35 41.17 33.59 44.6 33.59 46.07 33.35 46.8 33.1 47.54 32.86 48.03 32.61 48.77 32.37 49.01 32.12 49.5 31.88 49.74 31.63 50.23 31.39 50.73 31.14 51.22 30.9 51.71 30.41 51.95 30.16 52.44 29.92 52.69 29.67 52.93 29.43 53.18 29.18 53.42 28.93 53.67 28.69 53.91 28.45 54.16 28.2 54.65 27.71 54.89 27.22 55.13 26.97 55.38 26.24 55.63 25.75 55.63 20.6 55.38 19.62 55.13 18.14 54.89 17.66 54.65 16.43 54.4 15.94 54.16 15.2 53.91 14.71 53.67 13.98 53.42 13.49 53.18 13 52.93 12.51 52.69 12.02 52.44 11.77 52.2 11.03 51.95 10.79 51.71 10.3 51.46 10.05 51.22 9.56 50.73 9.07 50.48 8.83 50.23 8.34 49.99 8.09 49.74 7.85 49.5 7.6 49.26 7.36 49.01 7.11 48.77 6.87 48.52 6.62 48.03 6.38 47.78 6.13 47.29 5.88 47.05 5.64 46.56 5.39 46.07 5.15 45.09 4.91 44.11 4.66 42.39 4.66 41.41 4.91 41.41 4.91"/><polygon class="cls-1" points="381.55 28.93 381.79 29.92 382.04 30.65 382.28 31.63 382.53 32.37 382.78 33.35 383.02 33.84 383.26 35.06 383.51 35.56 383.76 36.54 384 37.27 384.24 38.25 384.49 38.74 384.74 39.97 384.98 40.46 385.22 41.44 385.47 42.18 385.71 43.16 385.96 43.65 386.21 44.87 386.45 45.36 386.69 46.34 386.94 46.84 387.19 48.06 387.43 48.55 387.68 49.78 387.92 50.27 388.17 51.25 388.41 51.74 388.65 52.97 388.9 53.46 389.15 54.44 389.39 55.17 389.64 55.91 389.88 56.4 390.13 57.13 390.37 57.38 390.62 57.87 390.86 58.36 391.11 58.85 391.35 59.09 391.6 59.59 391.84 59.83 392.08 60.32 392.58 60.81 393.07 61.3 393.56 61.79 394.05 62.28 394.54 62.53 394.78 62.77 395.03 63.02 395.52 63.27 396.01 63.75 396.99 64 397.48 64.25 398.21 64.49 398.95 64.74 400.42 64.98 401.4 65.23 407.77 65.23 408.51 64.98 409.73 64.74 410.22 64.49 410.96 64.25 411.44 64 412.18 63.75 412.43 63.51 413.16 63.27 413.41 63.02 413.9 62.77 414.14 62.28 414.38 62.04 414.63 61.55 414.88 61.3 415.12 60.57 415.37 60.08 415.61 59.09 415.86 58.6 416.1 57.38 416.35 56.64 416.59 54.93 416.84 53.95 417.08 51.49 417.33 50.02 417.57 46.34 417.82 43.65 418.06 33.35 418.06 28.45 404.58 28.45 404.34 50.51 404.1 50.76 403.85 51.49 403.6 51.74 403.36 51.74 403.12 51.49 402.62 51.25 402.38 50.76 402.13 50.51 401.89 49.53 401.64 49.04 401.4 48.06 401.15 47.57 400.91 46.59 400.66 46.1 400.42 44.87 400.17 44.38 399.93 43.16 399.69 42.42 399.44 41.44 399.19 40.7 398.95 39.48 398.7 38.99 398.46 37.52 398.21 37.03 397.97 35.8 397.72 35.06 397.48 33.84 397.23 33.1 396.99 31.88 396.74 31.14 396.5 29.92 396.25 28.93 396.01 28.45 381.55 28.45 381.55 28.93 381.55 28.93"/><polygon class="cls-1" points="120.32 28.93 120.08 29.43 119.83 30.41 119.59 30.9 119.34 31.63 119.1 32.37 118.85 33.1 118.61 33.59 118.36 34.58 118.12 35.06 117.87 36.05 117.63 36.54 117.38 37.52 117.13 38.01 116.89 38.99 116.64 39.48 116.4 40.46 116.16 40.95 115.91 41.93 115.67 42.67 115.42 43.4 115.17 44.38 114.93 44.87 114.69 45.61 114.44 46.1 114.19 47.08 113.95 47.57 113.7 48.55 113.46 49.04 113.21 50.02 112.97 50.51 112.72 51.49 112.48 51.98 112.23 52.97 111.99 53.46 111.74 54.44 111.5 54.93 111.25 56.15 111.01 56.64 110.76 57.63 110.52 58.12 110.27 59.09 110.03 59.59 109.78 60.57 109.54 61.06 109.29 62.04 109.05 62.53 108.8 63.75 108.56 64.25 108.56 65.23 168.6 65.23 168.6 64 168.35 63.51 168.11 62.53 167.86 62.04 167.62 61.06 167.37 60.57 167.13 59.59 166.88 59.09 166.63 58.12 166.39 57.63 166.15 56.64 165.9 55.91 165.66 54.93 165.41 54.44 165.17 53.46 164.92 52.72 164.68 51.98 164.43 51.25 164.19 50.51 163.94 49.78 163.7 49.04 163.45 48.31 163.21 47.57 162.96 46.84 162.71 46.1 162.47 45.36 162.22 44.87 161.98 43.89 161.74 43.4 161.49 42.42 161.25 41.93 161 40.95 160.75 40.46 160.51 39.48 160.26 38.99 160.02 38.01 159.78 37.52 159.53 36.54 159.28 36.05 159.04 35.06 158.79 34.58 158.55 33.59 158.3 33.1 158.06 32.12 157.81 31.63 157.57 30.9 157.32 30.16 157.08 29.43 156.83 28.93 156.59 28.45 141.88 28.45 141.88 28.93 142.13 29.43 142.38 30.16 142.62 30.65 142.87 31.63 143.11 32.12 143.36 33.1 143.6 33.59 143.85 34.58 144.09 35.06 144.34 36.05 144.58 36.54 144.83 37.52 145.07 38.01 145.32 38.74 145.56 39.23 145.81 40.22 146.05 40.7 146.3 41.69 146.54 42.18 146.79 43.16 147.03 43.65 147.28 44.63 147.52 45.12 147.77 45.85 148.01 46.34 148.26 47.33 148.5 47.82 148.75 48.8 148.99 49.53 149.24 50.27 149.48 51.25 149.73 51.74 149.97 52.48 127.14 52.46 127.43 51.98 127.67 51.49 127.92 50.51 128.16 50.02 128.41 49.04 128.65 48.55 128.9 47.57 129.14 47.08 129.39 46.1 129.63 45.61 129.88 44.63 130.12 44.14 130.37 43.4 130.61 42.67 130.86 41.93 131.1 41.2 131.35 40.46 131.59 39.73 131.84 38.99 132.08 38.25 132.33 37.52 132.57 36.54 132.82 36.29 133.06 35.31 133.31 34.82 133.55 33.84 133.8 33.35 134.04 32.37 134.29 31.88 134.53 30.9 134.78 30.41 135.03 29.43 135.27 28.93 135.27 28.45 120.56 28.45 120.32 28.93 120.32 28.93"/><polygon class="cls-1" points="421.49 28.93 421.74 29.43 421.98 30.41 422.23 30.9 422.47 32.12 422.72 32.61 422.96 33.84 423.21 34.33 423.45 35.31 423.7 36.05 423.94 37.27 424.19 37.76 424.44 38.74 424.68 39.23 424.92 40.46 425.17 40.95 425.42 42.18 425.66 42.67 425.9 43.89 426.15 44.38 426.39 45.36 426.64 45.85 426.89 47.08 427.13 47.57 427.37 48.8 427.62 49.29 427.86 50.27 428.11 51 428.35 52.23 428.6 52.72 428.85 53.7 429.09 54.19 429.33 55.42 429.58 56.15 429.82 57.13 430.07 58.12 430.32 58.85 430.56 59.83 430.81 60.32 431.05 61.3 431.29 62.04 431.54 63.02 431.79 63.75 432.03 64.74 432.28 65.23 446 65.23 446 64.74 445.75 64 445.51 63.02 445.26 62.28 445.02 61.3 444.77 60.57 444.53 59.59 444.28 59.09 444.04 57.87 443.8 57.38 443.55 56.4 443.3 55.91 443.06 54.68 442.81 54.19 442.57 52.97 442.32 52.48 442.08 51.49 441.83 50.76 441.59 49.78 441.34 49.04 441.1 48.06 440.85 47.57 440.61 46.34 440.36 45.85 440.12 44.87 439.87 44.38 439.63 43.16 439.38 42.67 439.14 41.44 438.89 40.95 438.65 39.97 438.4 39.23 438.15 38.25 437.91 37.52 437.67 36.54 437.42 36.05 437.18 35.06 436.93 34.33 436.69 33.35 436.44 32.61 436.2 31.63 435.95 31.14 435.71 29.92 435.46 29.43 435.22 28.45 421.49 28.45 421.49 28.93 421.49 28.93"/><polygon class="cls-1" points="449.92 50.51 450.17 51.74 450.41 53.21 450.65 53.7 450.9 54.68 451.14 55.17 451.39 55.91 451.63 56.4 451.88 56.89 452.13 57.38 452.37 57.87 452.62 58.12 452.86 58.6 453.11 58.85 453.35 59.34 453.84 59.83 454.08 60.08 454.33 60.32 454.58 60.57 454.82 60.81 455.06 61.06 455.31 61.3 455.56 61.55 455.8 61.79 456.29 62.28 456.78 62.53 457.03 62.77 457.51 63.02 457.76 63.27 458.5 63.51 458.74 63.75 459.48 64 459.97 64.25 460.95 64.49 461.68 64.74 463.4 64.74 498.93 64.74 498.93 52.72 466.83 52.48 466.34 52.23 466.09 51.98 465.6 51.74 465.11 51.49 464.87 51.25 464.62 51 464.38 50.51 464.13 50.02 463.89 49.78 463.64 49.04 463.4 48.55 463.15 43.4 498.93 43.4 498.93 30.65 463.15 30.65 463.15 28.45 449.92 28.45 449.92 50.51 449.92 50.51"/><polygon class="cls-1" points="311.46 65.23 324.45 65.23 324.45 28.45 311.46 28.45 311.46 65.23 311.46 65.23"/><polygon class="cls-1" points="242.36 29.18 242.6 29.43 242.85 29.92 243.09 30.16 243.34 30.65 243.58 30.9 243.83 31.39 244.07 31.63 244.32 32.12 244.56 32.37 244.81 32.86 245.05 33.1 245.3 33.59 245.54 33.84 245.79 34.33 246.03 34.58 246.28 35.31 246.77 35.8 247.01 36.29 247.26 36.78 247.75 37.27 247.99 37.76 248.24 38.25 248.48 38.5 248.73 38.99 248.97 39.23 249.22 39.73 249.46 39.97 249.71 40.46 249.96 40.95 250.2 41.2 250.44 41.69 250.69 41.93 250.94 42.42 251.18 42.67 251.43 43.16 251.67 43.4 251.91 43.89 252.16 44.14 252.41 44.63 252.65 44.87 252.9 65.23 266.13 65.23 266.37 44.63 266.62 44.38 266.86 43.89 267.11 43.65 267.35 43.16 267.6 42.91 267.85 42.42 268.09 42.18 268.33 41.69 268.58 41.44 268.82 41.2 269.07 40.7 269.56 40.22 269.8 39.73 270.05 39.48 270.29 38.99 270.54 38.74 270.78 38.25 271.03 38.01 271.28 37.52 271.52 37.27 271.76 36.78 272.01 36.54 272.26 36.05 272.5 35.8 272.74 35.31 272.99 35.06 273.24 34.58 273.48 34.33 273.72 33.84 273.97 33.59 274.21 33.35 274.46 32.86 274.95 32.37 275.19 31.88 275.44 31.39 275.69 31.14 275.93 30.9 276.18 30.41 276.42 30.16 276.67 29.67 276.91 29.43 277.15 28.93 277.4 28.69 277.4 28.45 261.72 28.45 261.47 28.69 261.23 28.93 260.74 29.43 260.49 29.92 260.25 30.16 259.02 30.41 258.78 30.16 258.53 29.67 258.29 29.43 258.04 28.93 257.8 28.69 257.55 28.45 242.36 28.45 242.36 29.18 242.36 29.18"/><polygon class="cls-1" points="347.24 65.23 360.47 65.23 360.47 28.45 347.24 28.45 347.24 65.23 347.24 65.23"/><polygon class="cls-1" points="364.4 65.23 377.87 65.23 377.87 28.45 364.4 28.45 364.4 65.23 364.4 65.23"/><polygon class="cls-2" points="463.4 64.74 463.4 64.98 499.17 64.98 499.17 52.48 466.83 52.48 498.93 52.72 498.93 64.74 463.4 64.74 463.4 64.74"/><polygon class="cls-1" points="172.27 65.23 185.5 65.23 185.5 34.58 185.26 28.45 172.27 28.45 172.27 65.23 172.27 65.23"/><polygon class="cls-1" points="189.18 29.18 189.43 29.67 189.67 30.9 189.92 31.39 190.16 32.37 190.41 32.86 190.65 34.08 190.9 34.58 191.14 35.8 191.39 36.29 191.63 37.27 191.88 37.76 192.12 38.99 192.37 39.48 192.61 40.7 192.86 41.2 193.1 42.18 193.35 42.67 193.59 43.89 193.84 44.38 194.08 45.36 194.33 45.85 194.57 47.08 194.82 47.57 195.06 48.8 195.31 49.29 195.55 50.27 195.8 50.76 196.04 51.98 196.29 52.48 196.53 53.7 196.78 54.19 197.02 55.17 197.27 55.66 197.51 56.4 197.76 56.89 198 57.38 198.25 57.87 198.49 58.36 198.74 58.85 198.98 59.09 199.23 59.59 199.47 59.83 199.72 60.32 200.21 60.81 200.45 61.06 200.7 61.3 200.94 61.55 201.19 61.79 201.68 62.28 202.17 62.53 202.41 62.77 202.66 63.02 202.9 63.27 203.39 63.51 203.64 63.75 204.38 64 204.87 64.25 205.6 64.49 206.09 64.74 207.31 64.98 208.05 65.23 213.93 65.47 216.14 65.47 217.85 65.23 218.34 64.98 219.08 64.74 219.32 64.49 220.06 64.25 220.3 64 220.79 63.75 221.04 63.51 221.53 63.27 221.77 63.02 222.26 62.77 222.75 62.28 223.24 61.79 223.73 61.3 224.22 60.81 224.47 60.32 224.72 60.08 224.96 59.59 225.21 59.34 225.45 58.6 225.69 58.36 225.94 57.38 226.19 56.89 226.19 28.45 212.95 28.45 212.71 51 212.46 51.25 212.22 51.49 211.97 51.74 210.99 51.74 210.75 51.49 210.26 51 210.01 50.76 209.77 50.27 209.52 49.78 209.28 48.8 209.03 48.31 208.79 47.33 208.54 46.59 208.3 45.61 208.05 45.12 207.81 43.89 207.56 43.4 207.31 42.18 207.07 41.44 206.82 40.46 206.58 39.73 206.34 38.5 206.09 37.76 205.84 36.54 205.6 36.05 205.35 34.58 205.11 34.08 204.87 32.86 204.62 32.12 204.38 30.9 204.13 30.16 203.88 28.93 203.64 28.45 189.18 28.45 189.18 29.18 189.18 29.18"/><polygon class="cls-2" points="299.21 83.37 299.46 83.37 299.46 83.62 312.69 83.62 312.69 83.37 299.46 83.37 299.46 72.09 299.21 72.09 299.21 83.37 299.21 83.37"/><polygon class="cls-1" points="453.84 72.34 453.35 72.58 452.13 72.83 451.63 73.07 450.9 73.32 450.41 73.56 449.92 73.81 449.43 74.05 449.19 74.3 448.69 74.54 448.45 74.79 448.2 75.03 447.71 75.28 447.47 75.52 447.22 75.77 446.98 76.02 446.73 76.26 446.49 76.51 446.24 77 446 77.24 445.75 77.49 445.51 77.98 445.26 78.47 445.02 78.96 444.77 79.45 444.53 80.43 444.28 81.41 444.28 83.62 458.74 83.62 459.23 83.13 459.48 82.88 459.97 82.64 460.7 82.39 498.93 82.14 498.93 72.09 456.29 72.09 453.84 72.34 453.84 72.34"/><polygon class="cls-1" points="334.99 72.09 332.78 72.34 332.05 72.58 331.07 72.83 330.58 73.07 329.84 73.32 329.11 73.56 328.62 73.81 328.13 74.05 327.88 74.3 327.39 74.54 327.15 74.79 326.66 75.03 326.41 75.28 325.92 75.52 325.43 76.02 324.94 76.51 324.7 77 324.45 77.24 324.21 77.49 323.96 77.73 323.72 78.22 323.47 78.47 322.98 78.96 322.74 79.69 322.49 79.94 322.25 80.43 322 80.92 321.76 82.14 321.76 83.62 335.73 83.62 335.97 83.37 336.46 83.13 336.7 82.88 337.19 82.64 337.44 82.39 338.17 82.14 338.67 81.9 371.5 81.66 371.5 71.85 369.3 71.85 334.99 72.09 334.99 72.09"/><polygon class="cls-1" points="299.46 83.37 312.69 83.37 312.69 72.09 299.46 72.09 299.46 83.37 299.46 83.37"/><polygon class="cls-1" points="131.59 72.09 129.39 72.34 128.65 72.58 127.43 72.83 126.94 73.07 126.2 73.32 125.71 73.56 125.22 73.81 124.73 74.05 124.24 74.3 123.75 74.54 123.51 74.79 123.26 75.03 123.02 75.28 122.53 75.52 122.28 75.77 122.04 76.02 121.79 76.26 121.55 76.51 121.3 76.75 121.06 77 120.56 77.49 120.32 77.98 120.08 78.22 119.83 78.71 119.59 78.96 119.34 79.45 119.1 79.69 118.85 80.43 118.61 80.68 118.36 81.66 118.12 82.39 118.12 83.37 118.36 83.62 132.33 83.62 132.57 83.37 133.06 83.13 133.31 82.88 133.55 82.64 133.8 82.39 134.53 82.14 135.27 81.9 167.86 81.66 167.86 71.85 165.9 71.85 131.59 72.09 131.59 72.09"/><polygon class="cls-1" points="199.72 81.66 248.97 81.66 248.97 72.09 199.72 72.09 199.72 81.66 199.72 81.66"/><polygon class="cls-1" points="390.13 72.34 389.64 72.58 388.41 72.83 387.92 73.07 387.19 73.32 386.69 73.56 386.21 73.81 385.71 74.05 385.22 74.3 384.98 74.54 384.74 74.79 384.24 75.03 384 75.28 383.76 75.52 383.51 75.77 383.26 76.02 383.02 76.26 382.78 76.51 382.53 76.75 382.28 77 382.04 77.49 381.79 77.73 381.55 78.22 381.3 78.71 381.06 79.45 380.81 79.94 380.57 81.41 380.57 83.62 395.03 83.62 395.27 83.13 395.52 82.88 396.25 82.64 396.99 82.39 435.22 82.14 435.22 72.09 392.33 72.09 390.13 72.34 390.13 72.34"/><path class="cls-2" d="M199.72,72.09H249v9.57H199.72V72.09Zm-.25,9.81h49.75V71.85H199.47V81.9Z"/><polygon class="cls-2" points="177.42 83.62 190.41 83.62 190.41 83.37 177.66 83.37 177.66 72.09 190.41 72.09 190.41 71.85 177.42 71.85 177.42 83.62 177.42 83.62"/><polygon class="cls-1" points="190.41 83.37 190.41 72.09 177.66 72.09 177.66 83.37 190.41 83.37 190.41 83.37"/><polygon class="cls-1" points="267.35 72.09 265.64 72.34 264.9 72.58 263.92 72.83 263.43 73.07 262.45 73.32 262.21 73.56 261.72 73.81 261.47 74.05 261.23 74.3 260.98 74.54 260.74 74.79 260.49 75.28 260.25 75.52 259.76 76.02 259.51 76.51 259.27 77 259.02 77.49 258.78 77.73 258.53 78.47 258.29 78.96 258.04 80.43 258.04 83.86 281.08 84.11 288.67 84.11 288.67 83.37 288.43 82.88 288.19 82.39 287.94 81.9 287.45 81.41 287.2 80.92 286.96 80.43 286.47 79.94 286.22 79.69 285.98 79.2 285.73 78.96 285.49 78.71 285.24 78.47 285 77.98 284.75 77.73 284.51 77.49 284.26 77.24 284.02 77 283.77 76.75 283.53 76.51 283.28 76.26 283.04 76.02 282.55 75.52 282.06 75.28 281.81 75.03 281.32 74.79 281.08 74.54 280.59 74.3 280.34 74.05 279.85 73.81 279.36 73.56 278.63 73.32 277.89 73.07 277.4 72.83 276.42 72.58 275.44 72.34 273.48 72.09 270.54 71.85 269.31 71.85 267.35 72.09 267.35 72.09"/><polygon class="cls-1" points="118.36 116.23 131.35 116.23 131.35 99.07 167.62 99.07 167.62 89.26 131.59 89.01 131.59 87.3 118.36 87.3 118.36 116.23 118.36 116.23"/><polygon class="cls-1" points="381.3 88.03 381.55 88.28 381.79 88.77 382.28 89.26 382.78 89.75 383.26 89.99 383.51 90.24 383.76 90.48 384 90.73 384.24 90.97 384.49 91.22 384.98 91.46 385.22 91.71 385.71 92.2 386.21 92.44 386.69 92.69 387.19 92.94 387.68 93.18 388.17 93.43 388.65 93.67 389.39 93.91 389.88 94.16 390.62 94.41 391.11 94.65 392.33 94.9 392.82 95.14 394.05 95.39 394.54 95.63 395.52 95.88 396.01 96.12 397.23 96.37 397.72 96.61 398.7 96.86 399.19 97.1 400.42 97.35 400.91 97.59 401.89 97.84 402.38 98.08 403.6 98.33 404.1 98.57 405.07 98.82 405.56 99.07 406.79 99.31 407.28 99.55 408.26 99.8 408.99 100.05 409.98 100.29 410.46 100.54 411.44 100.78 412.18 101.03 413.16 101.27 413.65 101.52 414.63 101.76 415.37 102.01 416.35 102.25 417.08 102.5 417.82 102.74 419.04 102.99 419.53 103.23 420.51 103.48 421 103.72 421.49 104.21 421.74 104.7 421.74 105.69 421.49 105.93 420.76 106.42 383.26 106.67 383.26 116.96 425.66 116.96 426.64 116.72 427.62 116.48 428.35 116.23 428.85 115.98 429.33 115.74 429.82 115.49 430.32 115.25 430.81 115 431.29 114.51 431.54 114.27 431.79 114.02 432.03 113.78 432.28 113.53 432.52 113.29 432.76 113.04 433.01 112.8 433.26 112.55 433.75 112.06 433.99 111.57 434.24 111.33 434.48 110.59 434.72 110.34 434.97 109.61 435.22 109.12 435.46 107.65 435.46 103.72 435.22 102.25 434.97 101.76 434.72 101.03 434.48 100.78 434.24 100.29 433.99 99.8 433.75 99.31 433.26 98.82 433.01 98.57 432.76 98.08 432.52 97.84 432.28 97.59 432.03 97.35 431.79 97.1 431.54 96.86 431.05 96.61 430.81 96.37 430.32 95.88 429.82 95.63 429.58 95.39 429.09 95.14 428.85 94.9 428.11 94.65 427.86 94.41 427.13 94.16 426.64 93.91 425.9 93.67 425.42 93.43 424.44 93.18 423.94 92.94 422.72 92.69 422.23 92.44 421.25 92.2 420.51 91.95 419.29 91.71 418.8 91.46 417.82 91.22 417.33 90.97 416.1 90.73 415.61 90.48 414.38 90.24 413.9 89.99 412.92 89.75 412.18 89.5 411.2 89.26 410.46 89.01 409.49 88.77 408.75 88.52 407.77 88.28 407.04 88.03 406.3 87.78 405.32 87.54 404.58 87.3 381.3 87.3 381.3 88.03 381.3 88.03"/><path class="cls-2" d="M335.23,103.48v-.74L335,99.31H371.5v-10l-.24-.25H335l36.27.25v9.81H335.48c-.57,0-.74.17-.74.73v2.45a1.3,1.3,0,0,0,.49,1.23Z"/><polygon class="cls-1" points="275.19 87.78 275.44 88.28 275.69 89.26 275.93 89.5 276.18 90.24 276.42 90.73 276.67 91.71 276.91 92.2 277.15 92.94 277.4 93.43 277.65 94.16 277.89 94.65 278.14 95.63 278.38 95.88 278.63 96.86 278.87 97.1 279.12 98.08 279.36 98.57 279.61 99.31 279.85 99.8 280.1 100.54 280.34 101.03 280.59 101.76 280.83 102.25 281.08 103.23 281.32 103.97 281.57 104.46 281.81 105.19 282.06 105.69 282.3 106.42 282.55 106.91 282.79 107.65 283.04 108.14 283.28 108.87 283.53 109.36 283.77 109.85 284.02 110.1 284.26 110.59 284.51 111.08 284.75 111.33 285 111.57 285.24 111.82 285.49 112.06 285.73 112.55 286.22 112.8 286.47 113.04 286.71 113.29 286.96 113.53 287.2 113.78 287.45 114.02 287.94 114.27 288.19 114.51 288.67 114.76 289.16 115 289.65 115.25 290.14 115.49 290.88 115.74 291.37 115.98 292.6 116.23 293.33 116.48 296.03 116.72 299.21 116.72 299.46 116.72 303.38 116.72 304.6 116.48 305.34 116.23 306.07 115.98 306.56 115.74 307.05 115.49 307.54 115.25 308.03 115 308.28 114.76 308.77 114.51 309.01 114.27 309.5 114.02 309.75 113.78 309.99 113.53 310.24 113.29 310.48 113.04 310.73 112.8 310.97 112.55 311.22 112.31 311.46 112.06 311.71 111.82 311.95 111.33 312.2 110.84 312.44 110.1 312.69 109.61 312.69 87.3 299.21 87.3 298.97 104.95 298.72 105.44 298.48 105.69 297.01 105.69 296.76 105.44 296.51 105.19 296.27 104.95 296.03 104.7 295.78 103.97 295.54 103.72 295.29 102.74 295.05 102.5 294.8 101.52 294.56 101.27 294.31 100.29 294.06 99.8 293.82 98.82 293.57 98.33 293.33 97.59 293.08 96.86 292.84 96.12 292.6 95.39 292.35 94.65 292.1 93.91 291.86 93.18 291.62 92.44 291.37 91.71 291.12 90.97 290.88 90.24 290.63 89.5 290.39 88.77 290.14 88.28 289.9 87.3 275.19 87.3 275.19 87.78 275.19 87.78"/><path class="cls-1" d="M321.76,104.46l.24,1.72.25.73.24.74.25.49.24.73.24.25.25.49.25.24.24.49.25.25.24.49.49.49.49.49.49.49.49.49.49.25.25.24.49.25.24.24.49.25.25.24.73.25.25.24.73.25.49.24,1,.25.74.24H334l2.69.25h34.56v-9.56l-31.86-.25-.73-.24-.74-.25-.74-.24-.24-.25-.25-.24-.24-.25-.25-.24-.24-.25-.24-.49-.25-.25-.25-.24a1.3,1.3,0,0,1-.49-1.23V99.8c0-.56.17-.73.74-.73h35.78V89.26L335,89V87.29H321.76v17.17Z"/><polygon class="cls-2" points="334.01 115.98 334.01 116.23 335.23 116.48 371.5 116.48 371.5 106.42 339.4 106.42 371.26 106.67 371.26 116.23 336.7 116.23 334.01 115.98 334.01 115.98"/><polygon class="cls-2" points="118.12 116.23 118.36 116.23 118.36 116.48 131.59 116.48 131.59 99.31 167.86 99.31 167.86 89.01 131.59 89.01 167.62 89.26 167.62 99.07 131.35 99.07 131.35 116.23 118.36 116.23 118.36 87.3 118.12 87.3 118.12 116.23 118.12 116.23"/><polygon class="cls-1" points="230.84 116.48 230.84 87.3 218.1 87.3 218.1 116.48 230.84 116.48 230.84 116.48"/><polygon class="cls-1" points="271.03 87.3 258.29 87.3 258.29 116.48 271.28 116.48 271.34 108.14 271.03 87.3 271.03 87.3"/><polygon class="cls-1" points="177.42 116.72 190.41 116.72 190.41 87.3 177.42 87.3 177.42 116.72 177.42 116.72"/><polygon class="cls-2" points="217.85 116.72 230.84 116.72 230.84 116.48 231.09 116.48 231.09 87.3 230.84 87.3 230.84 116.48 218.1 116.48 218.1 87.3 217.85 87.3 217.85 116.72 217.85 116.72"/><polygon class="cls-2" points="258.04 116.72 271.52 116.72 271.52 97.35 271.28 87.3 271.03 87.3 271.34 108.14 271.28 116.48 258.29 116.48 258.29 87.3 258.04 87.3 258.04 116.72 258.04 116.72"/><polygon class="cls-1" points="445.02 87.78 445.26 88.28 445.51 88.52 445.75 88.77 446 89.01 446.24 89.26 446.49 89.5 446.73 89.75 446.98 89.99 447.22 90.24 447.47 90.48 447.71 90.73 447.96 90.97 448.2 91.22 448.69 91.46 448.94 91.71 449.43 91.95 449.67 92.2 450.17 92.44 450.41 92.69 450.9 92.94 451.39 93.18 451.88 93.43 452.37 93.67 453.11 93.91 453.6 94.16 454.58 94.41 455.06 94.65 456.05 94.9 456.78 95.14 457.76 95.39 458.25 95.63 459.23 95.88 459.72 96.12 460.95 96.37 461.44 96.61 462.66 96.86 463.15 97.1 464.13 97.35 464.62 97.59 465.6 97.84 466.34 98.08 467.32 98.33 467.81 98.57 468.79 98.82 469.52 99.07 470.5 99.31 470.99 99.55 472.22 99.8 472.71 100.05 473.69 100.29 474.18 100.54 475.16 100.78 475.89 101.03 476.88 101.27 477.61 101.52 478.59 101.76 479.08 102.01 480.06 102.25 480.8 102.5 481.53 102.74 482.76 102.99 483.25 103.23 484.23 103.48 484.72 103.72 485.21 104.21 485.45 104.46 485.45 105.69 485.21 106.18 484.47 106.42 447.22 106.67 446.98 106.91 446.98 116.96 489.37 116.96 490.35 116.72 491.58 116.48 492.07 116.23 492.8 115.98 493.3 115.74 493.54 115.49 494.03 115.25 494.52 115 494.76 114.76 495.01 114.51 495.25 114.27 495.74 114.02 495.99 113.78 496.24 113.53 496.48 113.29 496.73 112.8 496.97 112.55 497.21 112.31 497.46 112.06 497.71 111.57 497.95 111.33 498.19 110.59 498.44 110.34 498.69 109.61 498.93 109.12 499.17 107.89 499.42 106.42 499.42 104.95 499.17 103.48 498.93 102.25 498.69 101.76 498.44 101.03 498.19 100.78 497.95 100.05 497.71 99.8 497.46 99.31 497.21 99.07 496.97 98.82 496.73 98.33 496.48 98.08 496.24 97.84 495.99 97.59 495.74 97.35 495.5 97.1 495.25 96.86 495.01 96.61 494.76 96.37 494.28 96.12 494.03 95.88 493.54 95.63 493.3 95.39 492.8 95.14 492.56 94.9 491.82 94.65 491.58 94.41 490.85 94.16 490.6 93.91 489.62 93.67 489.13 93.43 488.15 93.18 487.66 92.94 486.43 92.69 485.94 92.44 484.96 92.2 484.23 91.95 483.25 91.71 482.51 91.46 481.53 91.22 481.04 90.97 479.81 90.73 479.33 90.48 478.1 90.24 477.61 89.99 476.63 89.75 475.89 89.5 474.92 89.26 474.18 89.01 473.44 88.77 472.46 88.52 471.73 88.28 470.99 88.03 470.01 87.78 469.03 87.54 468.54 87.3 445.02 87.3 445.02 87.78 445.02 87.78"/><path class="cls-4" d="M508.05,105.62a5.34,5.34,0,1,1-5,5.33,5.19,5.19,0,0,1,5-5.33Z"/><path class="cls-5" d="M505.63,114.08v-6.27h2.78a3.72,3.72,0,0,1,1.27.17,1.5,1.5,0,0,1,.7.6,1.82,1.82,0,0,1,.26.94,1.58,1.58,0,0,1-.43,1.13,2.2,2.2,0,0,1-1.33.58,2.2,2.2,0,0,1,.49.31,4.59,4.59,0,0,1,.7.84l1.08,1.7h-1l-.83-1.3a9.62,9.62,0,0,0-.6-.86,2,2,0,0,0-.42-.42,1.17,1.17,0,0,0-.38-.17,2.39,2.39,0,0,0-.46,0h-1v2.78Zm.83-3.5h1.78a2.61,2.61,0,0,0,.89-.12,1,1,0,0,0,.49-.37,1,1,0,0,0,.17-.57,1,1,0,0,0-.33-.73,1.5,1.5,0,0,0-1-.28h-2v2.07Z"/></g></g></svg>