<svg xmlns="http://www.w3.org/2000/svg" viewBox="0 0 649.13 167.25"><defs><style>.cls-1{fill:#06142a;}.cls-2{fill:#ff7f22;}</style></defs><title>4</title><g id="Layer_2" data-name="Layer 2"><g id="Layer_1-2" data-name="Layer 1"><path class="cls-1" d="M165.42,78c-3-4.29-7.79-5.39-12.56-2.67-14.09,8-29.15,8.48-44.66,6.16-2.63-.4-3.13-1.39-2.78-3.88a59.58,59.58,0,0,1,4.7-16.92c1.88-4.08,3.46-7.51,9.45-5.45,4.63,1.59,9.57-3.11,9.86-8.12A9,9,0,0,0,120.32,38c-5,.11-9,4.28-8.13,9.09,1.22,6.84-2.09,7.79-6.09,9.75a50.77,50.77,0,0,1-15.19,4.57c-1.2.14-1.08-.38-.81,2.23h0c6.27.09,11.8-2.78,18.37-4.9h0c-3.35,7-4.57,13.85-5.58,20.82a.79.79,0,0,1-.93.65c-1.65-.33-4-.67-5-.87-5-1-7.12-4.89-8.36-9.87C83.71,50,82.76,30.87,91.37,12.1a8,8,0,0,0-2-9.8C86.51-.35,83-.65,79.45,1.09c-5.29,2.59-6.81,8.33-3.67,14.08,7.63,14,8.27,28.86,5.76,44.19-.41,2.48-1.45,3-3.64,2.62-1.05-.2-2.09-.4-3.14-.57A55.67,55.67,0,0,1,58,55.81l-.08,0c-2.55-1.34-4.1-2.91-2.84-6.38,1.59-4.39-.11-8.14-4.28-10.31a8.22,8.22,0,0,0-10.29,1.64,8.17,8.17,0,0,0-1.29,10.33c2.3,4,6.08,5.8,10.43,3.88,3-1.3,3.76.2,4.9,2.11,3.14,5.23,5.28,11.07,7.06,19.62.28,1.33-.31,1.25,2,1.08C62.48,69,60.73,65.27,58.86,59.23h0c9.89,3.22,9.89,3.22,21.52,5.37h0c-.45,1.84-.83,3.57-1.3,5.27-.38,1.37-.82,2.72-1.31,4.06a4.62,4.62,0,0,1-3.13,3.26c-20.42,6.43-40.81,8.12-61-.56-4.69-2-8.7-2-11.87,2.23-2.71,3.62-2,7.42.58,10.85a8.86,8.86,0,0,0,11.93,2.4c14-7.94,29-8.72,44.53-6.45,2.83.41,3.55,1.52,3.27,4.16-.54,5.17-2.21,10-3.76,14.93a17.35,17.35,0,0,1-1.86,4.06c-1.86,2.94-4,5.11-8.89,3.35-3.6-1.29-7.12,1.16-8.59,4.8s-1.12,7.47,2.15,10.27,6.87,3.08,10.39.77,5.42-5.82,3.69-9.66c-1.51-3.35,0-4.38,2.27-5.72,5.4-3.23,11.14-5.88,17.38-6.58,2.6-.29,2.68-.12,2.47-2.3a20.07,20.07,0,0,0-6.2.64c-4.22.79-9.05,3.15-12.07,4.39h0c3.47-6.55,4.82-14.26,5.47-21.34h0c8.83,0,13.31,4,15.12,12.92,3.79,18.61,4.73,36.73-3.4,54.51a8.62,8.62,0,0,0,4.24,11.76,9.66,9.66,0,0,0,12.12-5,9.88,9.88,0,0,0-.72-9.21c-7.86-13.9-8.45-28.84-6-44.16.26-1.62.62-3.28,2.91-3,7.67,1,15.1,2.75,21.75,6.9,2.11,1.31,3.06,2.89,2,5.71-1.59,4.42,0,8.2,4.11,10.45a8.1,8.1,0,0,0,10.31-1.63c2.92-3,3.49-6.71,1.33-10.34-2.36-4-6.13-5.78-10.47-3.84-2.91,1.31-3.72-.16-4.84-2-3.36-5.55-5.44-11.42-7-19.18-.22-1.09.38-1.42-2-1.19.43,7.43,2.68,11.83,4.88,18.2h0A71,71,0,0,0,89,103c-.64-.07-1.36,0-1.66-.9-.66-2,3.49-11.36,5.58-12,20.29-6.29,40.61-8.12,60.72.5,4.27,1.82,8,2.19,11.07-.85A9.19,9.19,0,0,0,165.42,78Z"/><path class="cls-2" d="M398.46,81.11c-.47-9.06-7.06-15.4-16.58-16.8-12-1.77-22.18,2.68-25.34,11.25a21.46,21.46,0,0,0-1.22,6.26c-.2,3.74-.06,7.5-.06,11.25h0V99c0,9.73,0,9.54,9.68,9.5,3.53,0,4.12-1.35,4-4.4-.18-6.07-.26-12.16.05-18.22.33-6.57,2.92-9.18,8.1-9s7.44,2.9,7.53,9.52c.05,4.11,0,8.21,0,12.32,0,10.8,0,10.73,10.9,9.78,2.29-.2,3.1-.93,3.07-3.2C398.52,97.18,398.87,89.13,398.46,81.11Z"/><path class="cls-2" d="M250.6,82c-.1-7.94-4.07-13.64-11.48-16.35a28.78,28.78,0,0,0-19.42-.22c-8.11,2.72-11.92,8.31-12,17,0,3.21,0,6.42,0,9.64v7.49c0,9,0,8.77,9.1,8.93,4,.06,4.76-1.43,4.63-5-.24-6.24-.21-12.5,0-18.74.18-5.35,2.71-7.86,7.38-8,5-.1,7.74,2.51,8,8,.19,4.81,0,9.64,0,14.46,0,9.31,0,9.15,9.28,9.21,3.45,0,4.7-.86,4.57-4.47C250.44,96.68,250.7,89.35,250.6,82Z"/><path class="cls-2" d="M431.43,96.21c-7.23,2.18-10.11-.27-10.16-7.55-.06-10.56-.06-10.53,10.43-10.68,1.84,0,3.92.73,5.26-1.54,3.18-5.36.18-11-6.11-11.29-.72,0-1.43,0-2.14,0-7.33-.06-7.28-.06-7.48-7.26,0-1.45.9-3.42-1-4.29a11.61,11.61,0,0,0-9.35-.4c-3.06,1.22-3.53,3.7-3.52,6.53,0,5.71,0,11.42,0,17.13,0,5.89-.15,11.79.05,17.67.26,8.14,5.09,13.63,12.83,14.68,5.2.7,8.87.38,15.12-1.76,1.88-.65,5-1.2,3.55-4.69C437.68,99.71,437.9,94.26,431.43,96.21Z"/><path class="cls-2" d="M301.5,66.19c-6.14-2.62-10.79-1-13.45,5.27-2.85,6.69-5.53,13.44-8.69,21.17-3.19-8.06-6-15-8.66-21.95-1.92-5-5.83-6.89-10.92-5.18-3.74,1.25-4.84,4.67-2.85,9.91,4,10.53,9.12,20.53,14.45,30.42,2,3.68,13.37,3.88,15.32.22a365.67,365.67,0,0,0,16.66-35.87C304.22,68.05,303.59,67.08,301.5,66.19Z"/><path class="cls-2" d="M198.27,66.26a12,12,0,0,0-9.35-.48c-3,1-3.41,3.71-3.4,6.56.06,8.72,0,17.44,0,26.17,0,10.34,0,10.23,10.21,9.93,2.77-.09,3.72-.84,3.63-3.65-.19-5.69-.06-11.39-.06-17.09,0-5.87,0-11.75,0-17.62C199.27,68.77,200,67.1,198.27,66.26Z"/><path class="cls-2" d="M192.37,46a7.42,7.42,0,0,0-7.59,7.85,7.15,7.15,0,0,0,7.43,7.32,7.56,7.56,0,0,0,8-7.44A7.75,7.75,0,0,0,192.37,46Z"/><path class="cls-2" d="M465.36,64.07c-13.69,0-23.91,9.71-23.87,22.76,0,12.8,10.17,22.52,23.53,22.6,13.91.08,23.94-9.34,24-22.52C489,73.54,479.26,64.11,465.36,64.07Zm0,33.18c-5.3,0-9.83-4.86-9.78-10.6.06-5.56,4.24-10.19,9.42-10.42s9.9,4.51,10,10.34S470.79,97.19,465.37,97.25Z"/><path class="cls-2" d="M344.19,67.77c-4.91-3.56-10.55-4-16.37-3.61a21.76,21.76,0,0,0-20.19,20.07c-.84,13,5.62,22.55,17.15,24.74a37.17,37.17,0,0,0,21-2.34c1.1-.45,3.11-1,2.75-2.14a32,32,0,0,0-3.86-8.16c-1.16-1.72-3,.08-4.36.46-8.25,2.23-13.86,1.11-17.84-4.45,6.4-.17,12.12.26,17.67-1.31,5.17-1.46,9.24-4,10-9.8S348.74,71.08,344.19,67.77ZM330.94,83a13.59,13.59,0,0,1-2.3.35c-2.19.11-4.4,0-6.62,0,1-6.37,4.67-9.33,10.29-8.45,2.29.35,4.15,1.29,4.34,3.82C336.88,82,333.4,82.4,330.94,83Z"/><path class="cls-1" d="M637.68,85.47c-4.72-.9-9.57-1.13-14.29-2-3.5-.66-7.22-1.56-7.13-6.42s3.61-5.75,7.23-6.33c6.48-1,12.8-.49,18.69,2.69,1.2.65,2.43,2,3.62.18a3.14,3.14,0,0,0-.84-4.68,12,12,0,0,0-2.85-1.42,37.23,37.23,0,0,0-21.05-1.35c-7.33,1.66-11.16,5.91-10.9,11.8.26,5.63,4.36,9.65,11.37,10.86,3.51.6,7.08.88,10.62,1.25,7.66.79,11.3,3.29,11,7.64-.27,4.15-4.44,6.52-11.81,6.78a35.39,35.39,0,0,1-16.12-3.13c-2.11-1-3.12-.66-4.19,1.38-1.42,2.7.68,2.91,2.19,3.53a47.55,47.55,0,0,0,16.69,3.47,74.37,74.37,0,0,0,7.93-1c7.65-1.78,11.31-5.85,11.27-12.13C649.1,90.45,645.7,87,637.68,85.47Z"/><path class="cls-1" d="M503.36,77.28V49.48c0-1.65,0-3.42-2.28-3.44a3.25,3.25,0,0,0-3.51,3.25c-.07.71,0,1.43,0,2.14q0,26.46,0,52.92c0,2.17-.38,4.23,3.07,4.14,3.66-.11,2.72-2.57,2.73-4.49C503.4,95.1,503.36,86.19,503.36,77.28Z"/><path class="cls-1" d="M589.38,66.43c-8.7-2.68-16.44-.9-23.88,6.42,0-7.74.14-14.25-.08-20.74-.07-2.12.09-5.94-2.28-5.93-4.3,0-3.51,3.63-3.53,6.37-.06,7.5-.1,15,0,22.49.09,6-.55,12.12.83,18.13C562.92,104,571.5,110,583.5,109.44a21.43,21.43,0,0,0,20.37-18.55C605.44,79.67,599.48,69.56,589.38,66.43Zm-7.89,38c-9.29-.12-16.06-7.39-16-17.14s6.83-16.79,16.23-16.78S597.9,77.3,598,87.22,590.92,104.55,581.49,104.42Z"/><path class="cls-1" d="M550.49,93.08c0-3.21,0-6.42,0-9.63-.1-10.71-4.15-15.58-14.69-17.66a35,35,0,0,0-11.72-.18,20,20,0,0,0-6,2,3.1,3.1,0,0,0-1.35,4.57c1.11,2,2.45.42,3.6-.12,4.92-2.3,10.08-2.25,15.18-1.21a11,11,0,0,1,9,8.8c.59,2.58.27,3.93-3.12,3.45-6.53-.93-13.15-1.29-19.65.46-6.69,1.8-9.68,5.54-9.84,12.19-.16,6.45,2.81,10.47,9.52,12.39,7.88,2.26,15.91,1.13,23.91.86a5.43,5.43,0,0,0,5.28-6.21C550.16,99.61,550.49,96.32,550.49,93.08Zm-5.74,2.49c0,8.9,0,8.87-8.64,9.31a38.21,38.21,0,0,1-11.68-.95c-4-1.05-6.65-3.39-6.64-7.84,0-4.64,2.64-7.31,6.94-8.19a45.52,45.52,0,0,1,17.94.26C545.37,88.72,544.93,91.21,544.75,95.57Z"/></g></g></svg>