<svg xmlns="http://www.w3.org/2000/svg" viewBox="0 0 512.84 110.88"><defs><style>.cls-1{fill:#fff243;}.cls-2{fill:#201600;fill-rule:evenodd;}</style></defs><title>5</title><g id="Layer_2" data-name="Layer 2"><g id="Layer_1-2" data-name="Layer 1"><rect class="cls-1" width="512.84" height="110.88"/><path class="cls-2" d="M256.44,49.7H231.83c.22-4.26,3-11.71,12.57-11.71,7.35,0,10.65,4,12,11.71Zm117.63,6c0,8.73-3.08,17.58-13.42,17.58s-13.31-8.85-13.31-17.58S350.43,38,360.65,38s13.42,8.84,13.42,17.68Zm13,27.48h15.12v-32c0-10.75,7.25-12.67,10.23-12.67,9.58,0,9.16,7.35,9.16,13.74V83.15h15.13V52.47c0-6.92,1.59-13.95,10.12-13.95s9.26,6.07,9.26,13.42V83.15h15.13V46.29c0-14.27-8.42-19.7-20.13-19.7a20,20,0,0,0-16.62,9.16c-3-6.6-9.16-9.16-16.09-9.16a19.89,19.89,0,0,0-16.83,9h-.21V28.08H387.11V43.52c-4-10.54-13.51-16.93-26.46-16.93-12.11,0-21.24,5.67-25.6,15.13-3.39-10.17-13.69-15.13-24.77-15.13-13.38,0-22.47,7.08-26.21,17.82V15.16H269V42.5c-3.89-9.28-12-15.91-24.12-15.91A27.4,27.4,0,0,0,224.44,35l2.68-6.89H211.45l-14.64,37.6-.21.22L182,28.11H166.33l21.4,55.08h18l11-28.3v.79c0,17,10.77,29,28.13,29,11,0,19.39-4.34,24.12-14.35V83.15h15.12V67.55C287.94,77.94,297.4,84.64,310,84.64c12,0,21-5.48,24.83-15.67,4.25,9.77,13.5,15.67,25.86,15.67,13,0,22.46-6.39,26.46-16.88V83.15ZM269,59.29v6.82H257.29c-1,3.4-5.86,7.14-11.93,7.14-8.41,0-13.1-4.37-13.53-14Zm64.16-11.82a36.34,36.34,0,0,0-.9,8.2,37.55,37.55,0,0,0,.54,6.39H321.89c-1,6.71-5,11.19-12,11.19-9.48,0-12.57-9.49-12.57-17.37,0-8.09,3.2-17.89,12.89-17.89,6.29,0,10.23,3.3,11.19,9.48Z"/></g></g></svg>