<svg xmlns="http://www.w3.org/2000/svg" viewBox="0 0 649.13 78.06">
  <defs>
    <style>
      .cls-1{fill:#1b7f56}.cls-2{fill:#54b858}.cls-3{fill:#424143}
    </style>
  </defs>
  <g id="Layer_2" data-name="Layer 2">
    <g id="Layer_1-2" data-name="Layer 1">
      <path class="cls-1" d="M588.68 0l60.45 48.28-23.85 29.78-36.6-29.21-36.59 29.21-23.78-29.78L588.68 0"/>
      <path class="cls-2" d="M588.68 0l60.45 48.28-23.85 29.78-36.6-29.21V0M555.33 26.61l-3.24 51.45 22.07-66.46-18.83 15.01zM528.31 48.28l23.78 29.78-7.87-42.6-15.91 12.82z"/>
      <path class="cls-2" d="M552.09 78.06l36.59-29.21V0l-36.59 78.06z"/>
      <path class="cls-1" d="M622.11 26.61l3.17 51.45-21.99-66.46 18.82 15.01zM625.28 78.06l-36.6-29.21V0l36.6 78.06z"/>
      <path class="cls-3" d="M231.17 17.61h12.58c5.6 0 9.41 3.57 9.41 8.92s-3.73 8.93-9.41 8.93h-12.58zm13.31-7.06h-21.1v52.17h7.79V42.6h13.31c9.82 0 16.63-6.57 16.63-16s-6.81-16.06-16.63-16.06M123.42 24.42h7.79v38.3h-7.79zM394.11 56.64c-8 0-11.61-6.82-11.61-13.07s3.65-13.06 11.61-13.06 11.52 6.73 11.52 13.06-3.63 13.07-11.52 13.07m0-33.19c-11.36 0-19.56 8.44-19.56 20s8.28 20.13 19.56 20.13 19.55-8.44 19.55-20.13-8.19-20-19.55-20M310.2 53.72c-1.94 2.43-5.43 3.89-9.41 3.89-4.87 0-8.27-2.84-8.27-6.9s3.4-7 8.27-7a12.18 12.18 0 0 1 9.41 3.89zm-7.78-30.27a21 21 0 0 0-15.75 6.33l-.56.57 5.19 4.22a14.17 14.17 0 0 1 10.22-4.22c5.2 0 8.52 2.59 8.52 6.73v4.3c-3-2.43-6.81-3.65-11.52-3.65-7.06 0-14.12 4.46-14.12 13s7.3 13 14.12 13A17.89 17.89 0 0 0 310 59.88v2.92h7.79v-26c.16-8.44-5.68-13.39-15.41-13.39M343.23 55.42a4.82 4.82 0 0 1-3.23 1.22c-2.51 0-2.84-2.36-2.84-3.74V31.32h7.63v-6.9h-7.63v-10h-7.79v10h-6.24v6.9h6.24v22.8c0 6 3.41 9.5 9.34 9.5a10.83 10.83 0 0 0 7.7-2.6l.49-.49-2.51-6.25zM486.28 23.45A16.85 16.85 0 0 0 474 29.21c-1.79-3.65-5.52-5.76-10.39-5.76a17.62 17.62 0 0 0-11.19 4.63v-3.66h-7.79v38.3h7.79V34.89a11.63 11.63 0 0 1 8.92-4.38c4 0 5.92 2.11 5.92 6.57v25.64H475V34.81a11.76 11.76 0 0 1 9-4.3c4 0 6 2.11 6 6.57v25.64h7.79V35.46c-.08-7.71-4.13-12-11.52-12M426.64 28.72v-4.3h-7.79v38.3h7.79v-27c1.71-2.59 6.17-4.54 9.25-4.54a8.5 8.5 0 0 1 2.11.24l1.22.25v-8h-1.05a16.1 16.1 0 0 0-11.53 5.11M36 44.06H16.8l9.57-23.45zM21.66 10.55L0 62.72h9.49l4.63-11.11H38.7l4.63 11.11h9.49L31.08 10.55zM268.17 10.55h7.79v52.17h-7.79zM112.54 55.42a4.94 4.94 0 0 1-3.24 1.22c-2.52 0-2.84-2.36-2.84-3.74V31.32h7.63v-6.9h-7.63v-10h-7.79v10h-6.25v6.9h6.25v22.8c0 6 3.41 9.5 9.33 9.5a10.86 10.86 0 0 0 7.71-2.6l.48-.49-2.51-6.25zM127.31 10.39a4.86 4.86 0 0 0-4.87 4.78 4.91 4.91 0 1 0 4.87-4.78M168.86 24.42l-11.77 28.24-11.93-28.24h-8.44l16.48 38.3h7.7l16.48-38.3h-8.52zM364.65 22.56c0-2.84.89-6.17 5-6.17a5.61 5.61 0 0 1 3.33 1.06l5-4.06-.65-.57c-2.27-2.11-5-3-8.6-3-7.3 0-11.85 4.87-11.85 12.82v1.78h-6.25v6.9h6.25v31.4h7.79v-31.4h7.63v-6.9h-7.63v-1.86zM197.17 30.1c7.71 0 10.88 5.76 11.36 10.15H186c.56-4.39 3.89-10.15 11.19-10.15m11.61 23.13A16 16 0 0 1 198.47 57 12 12 0 0 1 186 46.41h30.34V44c0-12.09-7.87-20.45-19.06-20.45s-19.48 8.6-19.48 20c0 11.85 8.28 20.13 20.12 20.13 6.25 0 11.69-2 15.67-5.85l.4-.4zM82.52 51.69l-.4.57a10.58 10.58 0 0 1-8.85 4.38c-7.22 0-12-5.28-12-13.15s4.87-13.06 12-13.06a10.58 10.58 0 0 1 8.85 4.38l.4.57 5.36-4.3.24-.25-.57-.73c-3.65-4.54-8.27-6.73-14.55-6.73-11.44 0-19.72 8.44-19.72 20S61.59 63.53 73 63.53c6.25 0 10.87-2.11 14.52-6.65l.57-.73-.09-.08z"/>
    </g>
  </g>
</svg>
