<svg xmlns="http://www.w3.org/2000/svg" viewBox="0 0 555.41 204.09">
  <defs>
    <style>
      .cls-1{fill:#181919}
    </style>
  </defs>
  <g id="Layer_2" data-name="Layer 2">
    <g id="Layer_1-2" data-name="Layer 1">
      <path class="cls-1" d="M127.42 119.26a18.82 18.82 0 0 1-13.33-5.26c-5-5.09-5-10.73-5-20.54S109.1 78 114 73a18.29 18.29 0 0 1 13.32-5.28 17.49 17.49 0 0 1 18.14 15.64h-8A10.65 10.65 0 0 0 125 74.94a10.76 10.76 0 0 0-5.37 2.77c-2.49 2.69-3 5.65-3 15.92s.56 13.14 3 15.91a10.64 10.64 0 0 0 15-.18 11.16 11.16 0 0 0 2.87-5.46h7.77a17.39 17.39 0 0 1-17.85 15.36zM189.31 113.8a19.34 19.34 0 0 1-26.83 0c-5-5-4.9-10.64-4.9-20.45s0-15.45 4.9-20.45a19.17 19.17 0 0 1 26.83 0c5 5 4.81 10.64 4.81 20.45s.19 15.45-4.81 20.45zm-5.83-36.27a10.55 10.55 0 0 0-15-.09l-.09.09c-2.5 2.68-3 5.55-3 15.91s.46 12.86 3 15.55a10.64 10.64 0 0 0 15 .18l.18-.18c2.5-2.69 3-5.56 3-15.73s-.68-12.95-3.09-15.73zM237.51 118.79v-22.2h-20.63v22.2h-7.77V67.91h7.77v21.74h20.63V67.91h7.68v50.88h-7.68zM262.03 118.79V67.91h32.57v6.94h-24.8v14.89h21.19v6.85H269.8v15.26h24.8v6.94h-32.57zM336.78 118.79l-10.64-21.46h-9.9v21.46h-7.67V67.91h19.7c9.62 0 15.82 6.2 15.82 14.89a13.26 13.26 0 0 1-10.17 13.51l11.74 22.48zm-8.88-43.94h-11.56v15.91h11.47c5.18 0 8.6-3 8.6-8a7.77 7.77 0 0 0-7.68-8zM359.08 118.79V67.91h32.57v6.94h-24.8v14.89h21.1v6.85h-21.1v15.26h24.8v6.94h-32.57zM436.98 118.79l-23.5-35.8v35.8h-7.68V67.91h7.03l23.5 35.8v-35.8h7.77v50.88h-7.12zM478.15 74.85v43.94h-7.77V74.85h-13.97v-6.94h35.71v6.94h-13.97zM315.41 162.18a9.88 9.88 0 0 1-7.68-2.68l2.69-2.68a7.28 7.28 0 0 0 5.08 1.76c2.41 0 3.7-.93 3.7-2.69a2.46 2.46 0 0 0-.64-1.76 3 3 0 0 0-1.85-.74l-2.5-.37a7.37 7.37 0 0 1-4.07-1.75 5.65 5.65 0 0 1-1.48-4.17c0-3.7 2.68-6.38 7.31-6.38a9 9 0 0 1 6.75 2.41l-2.72 2.68a6.25 6.25 0 0 0-4.35-1.48c-2.22 0-3.24 1.2-3.24 2.68a2.18 2.18 0 0 0 .65 1.48 3.65 3.65 0 0 0 1.94.83l2.5.37a7 7 0 0 1 4.16 1.76 6.08 6.08 0 0 1 1.67 4.44c-.15 4.11-3.57 6.29-7.92 6.29zM351.49 160a7.91 7.91 0 0 1-11.28 0c-2.13-2.12-2-4.72-2-8.32s0-6.2 2-8.33a8.1 8.1 0 0 1 11.28 0c2.13 2.13 2.13 4.72 2.13 8.33s-.09 6.25-2.13 8.32zm-3.05-14.24a3.55 3.55 0 0 0-2.68-1.11 3.72 3.72 0 0 0-2.69 1.11c-.83.92-1 1.85-1 5.92s.18 5 1 5.83a3.57 3.57 0 0 0 2.69 1.11 3.69 3.69 0 0 0 2.68-1.11c.83-.84 1-1.85 1-5.83s-.28-5-1-5.92zM369.44 162.09v-20.91h4.17v17.3h9.52v3.61h-13.69zM405.25 162.18a7.25 7.25 0 0 1-7.68-6.84v-14.25h4.07v13.6a3.61 3.61 0 1 0 7.21 0v-13.6h4.08v13.78a7.31 7.31 0 0 1-7.31 7.22.73.73 0 0 1-.37.09zM437.26 144.79v17.3h-4.07v-17.3h-5.55v-3.61h15.08v3.61h-5.46zM457.8 141.18h4.07v21h-4.07zM491.2 160a7.93 7.93 0 0 1-11.29 0c-2.13-2.12-2-4.72-2-8.32s0-6.2 2-8.33a8.05 8.05 0 0 1 11.29 0c2.12 2.13 2.12 4.72 2.12 8.33s0 6.25-2.12 8.32zm-3-14.24a3.54 3.54 0 0 0-2.68-1.11 3.69 3.69 0 0 0-2.68 1.11c-.83.92-1 1.85-1 5.92s.19 5 1 5.83a3.55 3.55 0 0 0 2.68 1.11 3.37 3.37 0 0 0 2.68-1.11c.84-.84 1-1.85 1-5.83s-.2-5.04-.97-5.96zM521.63 162.09l-8.32-12.86v12.86h-4.07v-20.91h3.7l8.23 12.77v-12.77h4.17v20.91h-3.71zM547.72 162.18a9.88 9.88 0 0 1-7.72-2.68l2.69-2.68a6.92 6.92 0 0 0 5.09 1.76c2.4 0 3.7-.93 3.7-2.69a2.14 2.14 0 0 0-.65-1.76 3 3 0 0 0-1.85-.74l-2.68-.37a7.37 7.37 0 0 1-4.07-1.75 5.61 5.61 0 0 1-1.48-4.17c0-3.7 2.68-6.38 7.3-6.38a9.08 9.08 0 0 1 6.76 2.41l-2.69 2.68a6 6 0 0 0-4.25-1.48c-2.22 0-3.24 1.2-3.24 2.68a1.84 1.84 0 0 0 .65 1.48 3.65 3.65 0 0 0 1.94.83l2.5.37a6.45 6.45 0 0 1 4 1.67 6 6 0 0 1 1.66 4.44c.02 4.2-3.31 6.38-7.66 6.38z"/>
      <path d="M65.71 132.49a59.26 59.26 0 0 1-9.81-36.27C57.19 78.73 67.09 62.63 83.28 49A843.84 843.84 0 0 1 199 34v4.17l14.25-5.55-14.52-4.26v3.74A844 844 0 0 0 93 41.54a176.64 176.64 0 0 1 35.53-18.23A555.62 555.62 0 0 1 236 8.51s23.5-.92 46.72-1.76V11l16.93-5.83L282.75 0v3.89c-20.63-.37-46.35.46-46.35.46C108.73 7 5.48 48.66.2 99.83c-5.55 54.77 103.44 101.4 243.33 104.26h7.77c-9.35-.27-18.51-.83-27.48-1.48h.65c-2.87-.18-5.65-.37-8.52-.64h-.74c-41.91-3.8-78.82-15.08-106.67-31a826.27 826.27 0 0 0 154.14 11.38c4.62 0 9.34-.27 13.87-.46A808.89 808.89 0 0 1 94.48 162a118 118 0 0 1-21.93-19.89 826.42 826.42 0 0 0 205.21 18.59c4.62 0 9.34-.37 14-.64a801 801 0 0 1-226.05-27.57zm44-103.81a171.56 171.56 0 0 0-29.85 15.17c-5.27.93-10.55 1.85-15.73 2.87a254.59 254.59 0 0 1 45.61-18zm-91.84 88.63a39.65 39.65 0 0 1-2-17.11c1.57-15.64 12.3-30 30-42.47 7.41-1.85 14.9-3.61 22.39-5.27C53.4 65 44.43 79.75 43.13 96.4a56.75 56.75 0 0 0 7.4 31.92c-11.1-3.51-22-7.12-32.66-11zm74 50.7a235.79 235.79 0 0 0 66.43 26.09c-38.68-7.58-71.8-18.78-96.32-32.47a740.9 740.9 0 0 0 29.89 6.38zm-14.8-10.17a667.17 667.17 0 0 1-36.18-10.37A84.05 84.05 0 0 1 24 129.53a840.29 840.29 0 0 0 33.49 9.15 113.33 113.33 0 0 0 19.6 19.16z" fill="#0066a4"/>
    </g>
  </g>
</svg>
